<?xml version="1.0" encoding="UTF-8" standalone="no"?>
<svg
   xmlns:dc="http://purl.org/dc/elements/1.1/"
   xmlns:cc="http://creativecommons.org/ns#"
   xmlns:rdf="http://www.w3.org/1999/02/22-rdf-syntax-ns#"
   xmlns:svg="http://www.w3.org/2000/svg"
   xmlns="http://www.w3.org/2000/svg"
   xmlns:sodipodi="http://sodipodi.sourceforge.net/DTD/sodipodi-0.dtd"
   xmlns:inkscape="http://www.inkscape.org/namespaces/inkscape"
   viewBox="0 0 2334.2634 1568.601"
   version="1.1"
   id="svg3923"
   sodipodi:docname="EnaDisIns.svg"
   inkscape:version="0.92.4 (33fec40, 2019-01-16)"
   width="2334.2634"
   height="1568.601">
  <metadata
     id="metadata3929">
    <rdf:RDF>
      <cc:Work
         rdf:about="">
        <dc:format>image/svg+xml</dc:format>
        <dc:type
           rdf:resource="http://purl.org/dc/dcmitype/StillImage" />
        <dc:title></dc:title>
      </cc:Work>
    </rdf:RDF>
  </metadata>
  <defs
     id="defs3927" />
  <sodipodi:namedview
     pagecolor="#ffffff"
     bordercolor="#666666"
     borderopacity="1"
     objecttolerance="10"
     gridtolerance="10"
     guidetolerance="10"
     inkscape:pageopacity="0"
     inkscape:pageshadow="2"
     inkscape:window-width="3789"
     inkscape:window-height="1949"
     id="namedview3925"
     showgrid="true"
     inkscape:zoom="0.98436628"
     inkscape:cx="1243.557"
     inkscape:cy="734.55902"
     inkscape:window-x="51"
     inkscape:window-y="27"
     inkscape:window-maximized="1"
     inkscape:current-layer="svg3923"
     fit-margin-top="0"
     fit-margin-left="0"
     fit-margin-right="0"
     fit-margin-bottom="0">
    <inkscape:grid
       type="xygrid"
       id="grid5011"
       originx="-401.44296"
       originy="-160.94099" />
  </sodipodi:namedview>
  <rect
     x="1537.057"
     y="687.29187"
     width="293.5"
     height="293.5"
     id="rect3841"
     style="fill:#ffffff;stroke:#00007f;stroke-opacity:1" />
  <text
     font-size="59"
     dominant-baseline="central"
     x="1683.807"
     y="643.26685"
     id="text3843"
     style="font-size:59px;font-family:helvetica;dominant-baseline:central;text-anchor:middle;fill:#0000ff">conMax</text>
  <text
     font-size="106"
     dominant-baseline="central"
     x="1683.807"
     y="834.04187"
     id="text3845"
     style="font-size:106px;font-family:helvetica;dominant-baseline:central;text-anchor:middle;fill:#a0a0a4">max()</text>
  <rect
     x="656.55701"
     y="100.29189"
     width="293.5"
     height="293.5"
     id="rect3847"
     style="fill:#ffffff;stroke:#00007f;stroke-opacity:1" />
  <polyline
     points="1072.675000,425.900000 1304.540000,425.900000"
     id="polyline3849"
     style="fill:none;stroke:#c0c0c0;stroke-opacity:1"
     transform="translate(-401.44296,-61.458107)" />
  <polygon
     points="1304.54,437.64 1336.825,425.9 1304.54,414.16 "
     id="polygon3851"
     style="fill:#c0c0c0;stroke:#c0c0c0;stroke-opacity:1"
     transform="translate(-401.44296,-61.458107)" />
  <polyline
     points="1087.350000,425.900000 1087.643500,421.754313 1087.699852,420.958583 1087.751508,420.229668 1087.798468,419.567569 1087.840732,418.972285 1087.878300,418.443816 1087.911172,417.982162 1087.939348,417.587324 1087.962828,417.259301 1087.981612,416.998094 1087.995700,416.803701 1087.995700,416.803701 1087.995700,416.803701 1088.007440,416.643201 1088.019180,416.483669 1088.030920,416.325105 1088.042660,416.167511 1088.054400,416.010884 1088.066140,415.855227 1088.077880,415.700537 1088.089620,415.546817 1088.101360,415.394065 1088.113100,415.242281 1088.113100,415.242281 1088.113100,415.242281 1088.124840,415.091466 1088.136580,414.941620 1088.148320,414.792742 1088.160060,414.644833 1088.171800,414.497892 1088.183540,414.351920 1088.195280,414.206916 1088.207020,414.062881 1088.218760,413.919814 1088.230500,413.777716 1088.230500,413.777716 1088.230500,413.777716 1088.242240,413.636587 1088.253980,413.496426 1088.265720,413.357233 1088.277460,413.219010 1088.289200,413.081754 1088.300940,412.945468 1088.312680,412.810149 1088.324420,412.675800 1088.336160,412.542419 1088.347900,412.410006 1088.347900,412.410006 1088.347900,412.410006 1088.359640,412.278562 1088.371380,412.148087 1088.383120,412.018580 1088.394860,411.890042 1088.406600,411.762472 1088.418340,411.635871 1088.430080,411.510238 1088.441820,411.385574 1088.453560,411.261878 1088.465300,411.139151 1088.465300,411.139151 1088.465300,411.139151 1088.477040,411.017393 1088.488780,410.896603 1088.500520,410.776781 1088.512260,410.657929 1088.524000,410.540044 1088.535740,410.423129 1088.547480,410.307181 1088.559220,410.192203 1088.570960,410.078193 1088.582700,409.965151 1088.582700,409.965151 1088.582700,409.965151 1088.594440,409.853078 1088.606180,409.741974 1088.617920,409.631838 1088.629660,409.522671 1088.641400,409.414472 1088.653140,409.307242 1088.664880,409.200980 1088.676620,409.095687 1088.688360,408.991362 1088.700100,408.888006 1088.700100,408.888006 1088.700100,408.888006 1088.711840,408.785619 1088.723580,408.684200 1088.735320,408.583749 1088.747060,408.484268 1088.758800,408.385754 1088.770540,408.288210 1088.782280,408.191633 1088.794020,408.096026 1088.805760,408.001387 1088.817500,407.907716 1088.817500,407.907716 1088.817500,407.907716 1088.829240,407.815014 1088.840980,407.723281 1088.852720,407.632516 1088.864460,407.542720 1088.876200,407.453892 1088.887940,407.366033 1088.899680,407.279142 1088.911420,407.193220 1088.923160,407.108266 1088.934900,407.024281 1088.934900,407.024281 1088.934900,407.024281 1088.946640,406.941265 1088.958380,406.859217 1088.970120,406.778137 1088.981860,406.698027 1088.993600,406.618884 1089.005340,406.540711 1089.017080,406.463505 1089.028820,406.387269 1089.040560,406.312001 1089.052300,406.237701 1089.052300,406.237701 1089.052300,406.237701 1089.064069,406.164055 1089.075897,406.090746 1089.087784,406.017774 1089.099730,405.945140 1089.111734,405.872844 1089.123797,405.800885 1089.135918,405.729264 1089.148098,405.657980 1089.160337,405.587034 1089.172635,405.516425 1089.172635,405.516425 1089.172635,405.516425 1089.185021,405.445838 1089.197524,405.374958 1089.210144,405.303784 1089.222882,405.232317 1089.235737,405.160556 1089.248710,405.088502 1089.261800,405.016154 1089.275008,404.943513 1089.288333,404.870578 1089.301775,404.797350 1089.301775,404.797350 1089.301775,404.797350 1089.315335,404.723828 1089.329012,404.650013 1089.342806,404.575904 1089.356718,404.501502 1089.370747,404.426806 1089.384894,404.351817 1089.399158,404.276534 1089.413540,404.200958 1089.428039,404.125088 1089.442655,404.048925 1089.442655,404.048925 1089.442655,404.048925 1089.457389,403.972468 1089.472240,403.895718 1089.487208,403.818674 1089.502294,403.741337 1089.517497,403.663706 1089.532818,403.585782 1089.548256,403.507564 1089.563812,403.429053 1089.579485,403.350248 1089.595275,403.271150 1089.595275,403.271150 1089.595275,403.271150 1089.611183,403.191758 1089.627208,403.112073 1089.643350,403.032094 1089.659610,402.951822 1089.675988,402.871256 1089.692482,402.790397 1089.709094,402.709244 1089.725824,402.627798 1089.742671,402.546058 1089.759635,402.464025 1089.759635,402.464025 1089.759635,402.464025 1089.776717,402.381698 1089.793916,402.299078 1089.811232,402.216164 1089.828666,402.132957 1089.846217,402.049456 1089.863886,401.965662 1089.881672,401.881574 1089.899576,401.797193 1089.917597,401.712518 1089.935735,401.627550 1089.935735,401.627550 1089.935735,401.627550 1089.953991,401.542288 1089.972364,401.456733 1089.990854,401.370884 1090.009462,401.284742 1090.028188,401.198306 1090.047030,401.111577 1090.065990,401.024554 1090.085068,400.937238 1090.104263,400.849628 1090.123575,400.761725 1090.123575,400.761725 1090.123575,400.761725 1090.143005,400.673528 1090.162552,400.585038 1090.182216,400.496254 1090.201998,400.407177 1090.221898,400.317806 1090.241914,400.228142 1090.262048,400.138184 1090.282300,400.047933 1090.302669,399.957388 1090.323155,399.866550 1090.323155,399.866550 1090.323155,399.866550 1090.343759,399.775418 1090.364480,399.683993 1090.385318,399.592274 1090.406274,399.500262 1090.427347,399.407956 1090.448538,399.315357 1090.469846,399.222464 1090.491272,399.129278 1090.512815,399.035798 1090.534475,398.942025 1090.534475,398.942025 1090.534475,398.942025 1090.556253,398.847958 1090.578148,398.753598 1090.600160,398.658944 1090.622290,398.563997 1090.644538,398.468756 1090.666902,398.373222 1090.689384,398.277394 1090.711984,398.181273 1090.734701,398.084858 1090.757535,397.988150 1090.757535,397.988150 1090.757535,397.988150 1090.780516,397.891123 1090.803673,397.793750 1090.827006,397.696033 1090.850516,397.597971 1090.874201,397.499564 1090.898063,397.400812 1090.922100,397.301716 1090.946314,397.202274 1090.970704,397.102488 1090.995270,397.002357 1090.995270,397.002357 1090.995270,397.002357 1091.020041,396.901855 1091.045048,396.800957 1091.070289,396.699663 1091.095764,396.597973 1091.121475,396.495886 1091.147420,396.393403 1091.173601,396.290524 1091.200016,396.187249 1091.226665,396.083577 1091.253550,395.979509 1091.253550,395.979509 1091.253550,395.979509 1091.280669,395.875045 1091.308024,395.770185 1091.335613,395.664929 1091.363436,395.559276 1091.391495,395.453227 1091.419788,395.346782 1091.448317,395.239941 1091.477080,395.132703 1091.506077,395.025069 1091.535310,394.917039 1091.535310,394.917039 1091.535310,394.917039 1091.564777,394.808613 1091.594480,394.699791 1091.624417,394.590572 1091.654588,394.480957 1091.684995,394.370946 1091.715636,394.260539 1091.746513,394.149735 1091.777624,394.038535 1091.808969,393.926939 1091.840550,393.814947 1091.840550,393.814947 1091.840550,393.814947 1091.872365,393.702558 1091.904416,393.589774 1091.936701,393.476593 1091.969220,393.363016 1092.001975,393.249042 1092.034964,393.134673 1092.068189,393.019907 1092.101648,392.904745 1092.135341,392.789186 1092.169270,392.673232 1092.169270,392.673232 1092.169270,392.673232 1092.203433,392.556881 1092.237832,392.440134 1092.272465,392.322991 1092.307332,392.205452 1092.342435,392.087516 1092.377772,391.969184 1092.413345,391.850456 1092.449152,391.731332 1092.485193,391.611811 1092.521470,391.491894 1092.521470,391.491894 1092.521470,391.491894 1092.557981,391.371581 1092.594728,391.250872 1092.631709,391.129767 1092.668924,391.008265 1092.706375,390.886367 1092.744060,390.764073 1092.781981,390.641383 1092.820136,390.518296 1092.858525,390.394813 1092.897150,390.270934 1092.897150,390.270934 1092.897150,390.270934 1092.936009,390.146659 1092.975104,390.021988 1093.014433,389.896920 1093.053996,389.771456 1093.093795,389.645596 1093.133828,389.519340 1093.174097,389.392687 1093.214600,389.265638 1093.255337,389.138193 1093.296310,389.010352 1093.296310,389.010352 1093.296310,389.010352 1093.337517,388.882114 1093.378960,388.753481 1093.420637,388.624451 1093.462548,388.495025 1093.504695,388.365202 1093.547076,388.234984 1093.589693,388.104369 1093.632544,387.973358 1093.675629,387.841950 1093.718950,387.710147 1093.718950,387.710147 1093.718950,387.710147 1093.762505,387.577947 1093.806296,387.445351 1093.850321,387.312359 1093.894580,387.178971 1093.939075,387.045186 1093.983804,386.911005 1094.028769,386.776428 1094.073968,386.641455 1094.119401,386.506085 1094.165070,386.370319 1094.165070,386.370319 1094.165070,386.370319 1094.211006,386.234168 1094.257244,386.097643 1094.303782,385.960744 1094.350621,385.823470 1094.397760,385.685822 1094.445201,385.547800 1094.492943,385.409404 1094.540985,385.270634 1094.589328,385.131489 1094.637972,384.991970 1094.637972,384.991970 1094.637972,384.991970 1094.686950,384.852088 1094.736294,384.711854 1094.786006,384.571267 1094.836084,384.430328 1094.886530,384.289038 1094.937342,384.147394 1094.988521,384.005399 1095.040067,383.863052 1095.091980,383.720352 1095.144259,383.577300 1095.144259,383.577300 1095.144259,383.577300 1095.196906,383.433896 1095.249919,383.290140 1095.303300,383.146031 1095.357047,383.001570 1095.411161,382.856758 1095.465642,382.711592 1095.520490,382.566075 1095.575704,382.420206 1095.631286,382.273984 1095.687234,382.127410 1095.687234,382.127410 1095.687234,382.127410 1095.743550,381.980484 1095.800232,381.833206 1095.857281,381.685575 1095.914697,381.537592 1095.972480,381.389257 1096.030629,381.240570 1096.089146,381.091531 1096.148029,380.942140 1096.207280,380.792396 1096.266897,380.642300 1096.266897,380.642300 1096.266897,380.642300 1096.326881,380.491852 1096.387232,380.341052 1096.447950,380.189899 1096.509034,380.038394 1096.570486,379.886538 1096.632304,379.734328 1096.694490,379.581767 1096.757042,379.428854 1096.819961,379.275588 1096.883247,379.121970 1096.883247,379.121970 1096.883247,379.121970 1096.946900,378.968000 1097.010919,378.813678 1097.075306,378.659003 1097.140059,378.503976 1097.205180,378.348597 1097.270667,378.192866 1097.336521,378.036783 1097.402742,377.880348 1097.469330,377.723560 1097.536284,377.566420 1097.536284,377.566420 1097.536284,377.566420 1097.603606,377.408928 1097.671294,377.251084 1097.739350,377.092887 1097.807772,376.934338 1097.876561,376.775438 1097.945717,376.616184 1098.015240,376.456579 1098.085129,376.296622 1098.155386,376.136312 1098.226009,375.975650 1098.226009,375.975650 1098.226009,375.975650 1098.297000,375.814636 1098.368357,375.653270 1098.440081,375.491551 1098.512172,375.329480 1098.584630,375.167058 1098.657454,375.004282 1098.730646,374.841155 1098.804204,374.677676 1098.878130,374.513844 1098.952422,374.349660 1098.952422,374.349660 1098.952422,374.349660 1099.027081,374.185124 1099.102107,374.020236 1099.177500,373.854995 1099.253259,373.689402 1099.329386,373.523458 1099.405879,373.357160 1099.482740,373.190511 1099.559967,373.023510 1099.637561,372.856156 1099.715522,372.688450 1099.715522,372.688450 1099.715522,372.688450 1099.793850,372.520392 1099.872544,372.351982 1099.951606,372.183219 1100.031034,372.014104 1100.110830,371.844637 1100.190992,371.674818 1100.271521,371.504647 1100.352417,371.334124 1100.433680,371.163248 1100.515309,370.992020 1100.515309,370.992020 1100.515309,370.992020 1100.597328,370.820451 1100.679757,370.648552 1100.762598,370.476322 1100.845849,370.303763 1100.929511,370.130873 1101.013584,369.957653 1101.098068,369.784102 1101.182963,369.610222 1101.268269,369.436011 1101.353986,369.261471 1101.353986,369.261471 1101.353986,369.261471 1101.440135,369.086611 1101.526740,368.911443 1101.613799,368.735966 1101.701314,368.560182 1101.789283,368.384089 1101.877707,368.207688 1101.966586,368.030979 1102.055920,367.853962 1102.145709,367.676637 1102.235953,367.499003 1102.235953,367.499003 1102.235953,367.499003 1102.326652,367.321061 1102.417806,367.142812 1102.509414,366.964253 1102.601478,366.785387 1102.693997,366.606213 1102.786970,366.426730 1102.880398,366.246939 1102.974282,366.066841 1103.068620,365.886433 1103.163413,365.705718 1103.163413,365.705718 1103.163413,365.705718 1103.258661,365.524695 1103.354364,365.343363 1103.450522,365.161723 1103.547135,364.979775 1103.644203,364.797519 1103.741726,364.614955 1103.839703,364.432082 1103.938136,364.248902 1104.037023,364.065413 1104.136366,363.881616 1104.136366,363.881616 1104.136366,363.881616 1104.236163,363.697510 1104.336415,363.513097 1104.437122,363.328375 1104.538285,363.143346 1104.639902,362.958008 1104.741974,362.772362 1104.844500,362.586407 1104.947482,362.400145 1105.050919,362.213574 1105.154811,362.026696 1105.154811,362.026696 1105.154811,362.026696 1105.259157,361.839509 1105.363959,361.652014 1105.469215,361.464210 1105.574927,361.276099 1105.681093,361.087679 1105.787714,360.898951 1105.894790,360.709915 1106.002321,360.520571 1106.110307,360.330919 1106.218748,360.140958 1106.218748,360.140958 1106.218748,360.140958 1106.327644,359.950689 1106.436995,359.760113 1106.546800,359.569227 1106.657061,359.378034 1106.767777,359.186533 1106.878947,358.994723 1106.990572,358.802605 1107.102653,358.610180 1107.215188,358.417445 1107.328178,358.224403 1107.328178,358.224403 1107.328178,358.224403 1107.441623,358.031053 1107.555523,357.837394 1107.669878,357.643427 1107.784688,357.449152 1107.899953,357.254569 1108.015673,357.059678 1108.131847,356.864478 1108.248477,356.668971 1108.365561,356.473155 1108.483101,356.277031 1108.483101,356.277031 1108.483101,356.277031 1108.601095,356.080598 1108.719544,355.883858 1108.838448,355.686809 1108.957808,355.489453 1109.077622,355.291788 1109.197891,355.093815 1109.318614,354.895533 1109.439793,354.696944 1109.561427,354.498046 1109.683516,354.298841 1109.683516,354.298841 1109.683516,354.298841 1109.806059,354.099327 1109.929058,353.899505 1110.052511,353.699374 1110.176420,353.498936 1110.300783,353.298189 1110.425601,353.097134 1110.550874,352.895771 1110.676602,352.694100 1110.802785,352.492121 1110.929423,352.289833 1110.929423,352.289833 1110.929423,352.289833 1111.056553,352.087248 1111.184210,351.884376 1111.312397,351.681217 1111.441111,351.477771 1111.570354,351.274039 1111.700125,351.070019 1111.830424,350.865713 1111.961252,350.661119 1112.092608,350.456239 1112.224492,350.251072 1112.224492,350.251072 1112.224492,350.251072 1112.356941,350.045629 1112.489992,349.839920 1112.623645,349.633945 1112.757899,349.427705 1112.892755,349.221199 1113.028212,349.014427 1113.164272,348.807390 1113.300932,348.600088 1113.438195,348.392519 1113.576059,348.184685 1113.576059,348.184685 1113.576059,348.184685 1113.714525,347.976586 1113.853593,347.768221 1113.993262,347.559590 1114.133533,347.350693 1114.274406,347.141531 1114.415880,346.932104 1114.557956,346.722410 1114.700634,346.512451 1114.843913,346.302227 1114.987794,346.091737 1114.987794,346.091737 1114.987794,346.091737 1115.132277,345.880981 1115.277361,345.669960 1115.423048,345.458673 1115.569335,345.247120 1115.716225,345.035302 1115.863716,344.823218 1116.011809,344.610869 1116.160503,344.398254 1116.309799,344.185373 1116.459697,343.972227 1116.459697,343.972227 1116.459697,343.972227 1116.610196,343.758815 1116.761297,343.545137 1116.913000,343.331194 1117.065305,343.116985 1117.218211,342.902511 1117.371719,342.687771 1117.525828,342.472765 1117.680539,342.257494 1117.835852,342.041957 1117.991767,341.826155 1117.991767,341.826155 1117.991767,341.826155 1118.148283,341.610086 1118.305401,341.393753 1118.463121,341.177153 1118.621442,340.960288 1118.780365,340.743158 1118.939889,340.525762 1119.100016,340.308100 1119.260743,340.090173 1119.422073,339.871979 1119.584004,339.653521 1119.584004,339.653521 1119.584004,339.653521 1119.746537,339.434797 1119.909672,339.215807 1120.073408,338.996551 1120.237746,338.777030 1120.402686,338.557243 1120.568227,338.337191 1120.734370,338.116873 1120.901115,337.896289 1121.068461,337.675440 1121.236409,337.454325 1121.236409,337.454325 1121.236409,337.454325 1121.404959,337.232945 1121.574110,337.011299 1121.743864,336.789387 1121.914218,336.567210 1122.085175,336.344767 1122.256733,336.122058 1122.428893,335.899084 1122.601654,335.675844 1122.775017,335.452339 1122.948982,335.228568 1122.948982,335.228568 1122.948982,335.228568 1123.123548,335.004531 1123.298716,334.780229 1123.474486,334.555661 1123.650858,334.330828 1123.827831,334.105729 1124.005406,333.880364 1124.183582,333.654734 1124.362360,333.428838 1124.541740,333.202676 1124.721722,332.976249 1124.721722,332.976249 1124.721722,332.976249 1124.902305,332.749556 1125.083490,332.522598 1125.265277,332.295374 1125.447665,332.067884 1125.630655,331.840129 1125.814246,331.612108 1125.998440,331.383822 1126.183234,331.155269 1126.368631,330.926452 1126.554629,330.697368 1126.554629,330.697368 1126.554629,330.697368 1126.731614,330.479613 1126.889968,330.284779 1127.029692,330.112867 1127.150787,329.963877 1127.253251,329.837808 1127.337086,329.734660 1127.402290,329.654435 1127.448865,329.597131 1127.476810,329.562748 1127.486125,329.551288 1127.486125,329.551288 1127.486125,329.551288 1127.495766,329.539706 1127.524691,329.504961 1127.572898,329.447054 1127.640389,329.365983 1127.727162,329.261750 1127.833218,329.134353 1127.958557,328.983794 1128.103179,328.810071 1128.267084,328.613185 1128.450272,328.393136 1128.450272,328.393136 1128.450272,328.393136 1128.643454,328.161398 1128.837340,327.929442 1129.031931,327.697269 1129.227226,327.464878 1129.423225,327.232271 1129.619929,326.999446 1129.817337,326.766404 1130.015449,326.533145 1130.214266,326.299669 1130.413788,326.065975 1130.413788,326.065975 1130.413788,326.065975 1130.614013,325.832064 1130.814943,325.597936 1131.016578,325.363591 1131.218917,325.129029 1131.421960,324.894250 1131.625708,324.659253 1131.830160,324.424039 1132.035316,324.188608 1132.241177,323.952960 1132.447743,323.717095 1132.447743,323.717095 1132.447743,323.717095 1132.655012,323.481012 1132.862986,323.244712 1133.071665,323.008195 1133.281048,322.771461 1133.491135,322.534510 1133.701927,322.297341 1133.913423,322.059955 1134.125623,321.822352 1134.338528,321.584532 1134.552137,321.346495 1134.552137,321.346495 1134.552137,321.346495 1134.766451,321.108241 1134.981469,320.869769 1135.197192,320.631080 1135.413619,320.392174 1135.630750,320.153051 1135.848586,319.913710 1136.067126,319.674153 1136.286370,319.434378 1136.506319,319.194386 1136.726972,318.954177 1136.726972,318.954177 1136.726972,318.954177 1136.948330,318.713750 1137.170392,318.473107 1137.393159,318.232246 1137.616630,317.991168 1137.840805,317.749873 1138.065685,317.508360 1138.291269,317.266631 1138.517557,317.024684 1138.744550,316.782520 1138.972247,316.540139 1138.972247,316.540139 1138.972247,316.540139 1139.200649,316.297541 1139.429755,316.054725 1139.659566,315.811693 1139.890081,315.568443 1140.121300,315.324976 1140.353224,315.081291 1140.585852,314.837390 1140.819184,314.593271 1141.053221,314.348936 1141.287963,314.104383 1141.287963,314.104383 1141.287963,314.104383 1141.523408,313.859612 1141.759558,313.614625 1141.996413,313.369420 1142.233972,313.123999 1142.472235,312.878360 1142.711203,312.632503 1142.950875,312.386430 1143.191251,312.140140 1143.432332,311.893632 1143.674117,311.646907 1143.674117,311.646907 1143.674117,311.646907 1143.916607,311.399965 1144.159801,311.152806 1144.403700,310.905429 1144.648303,310.657835 1144.893610,310.410025 1145.139622,310.161997 1145.386338,309.913751 1145.633758,309.665289 1145.881883,309.416609 1146.130712,309.167712 1146.130712,309.167712 1146.130712,309.167712 1146.380246,308.918599 1146.630484,308.669267 1146.881427,308.419719 1147.133074,308.169953 1147.385425,307.919971 1147.638481,307.669771 1147.892241,307.419354 1148.146705,307.168719 1148.401874,306.917868 1148.657747,306.666799 1148.657747,306.666799 1148.657747,306.666799 1148.901162,306.428181 1149.118953,306.214680 1149.311123,306.026297 1149.477669,305.863032 1149.618593,305.724884 1149.733895,305.611854 1149.823574,305.523942 1149.887630,305.461148 1149.926064,305.423471 1149.938875,305.410912 1149.938875,305.410912 1149.938875,305.410912 1149.952096,305.398222 1149.991761,305.360150 1150.057868,305.296697 1150.150418,305.207863 1150.269411,305.093648 1150.414847,304.954052 1150.586726,304.789074 1150.785047,304.598716 1151.009812,304.382976 1151.261019,304.141855 1151.261019,304.141855 1151.261019,304.141855 1151.525916,303.887889 1151.791749,303.633613 1152.058519,303.379027 1152.326225,303.124132 1152.594867,302.868927 1152.864445,302.613413 1153.134959,302.357589 1153.406410,302.101455 1153.678797,301.845012 1153.952121,301.588258 1153.952121,301.588258 1153.952121,301.588258 1154.226380,301.331196 1154.501576,301.073823 1154.777708,300.816141 1155.054777,300.558150 1155.332781,300.299848 1155.611722,300.041238 1155.891599,299.782317 1156.172413,299.523087 1156.454163,299.263547 1156.736849,299.003697 1156.736849,299.003697 1156.736849,299.003697 1157.020471,298.743538 1157.305029,298.483070 1157.590524,298.222291 1157.876955,297.961203 1158.164323,297.699805 1158.452626,297.438098 1158.741866,297.176081 1159.032042,296.913754 1159.323154,296.651118 1159.615203,296.388172 1159.615203,296.388172 1159.615203,296.388172 1159.908188,296.124917 1160.202109,295.861351 1160.496967,295.597477 1160.792760,295.333292 1161.089490,295.068798 1161.387157,294.803994 1161.685759,294.538881 1161.985298,294.273458 1162.285773,294.007725 1162.587184,293.741683 1162.587184,293.741683 1162.587184,293.741683 1162.889532,293.475331 1163.192816,293.208669 1163.497036,292.941698 1163.802192,292.674417 1164.108285,292.406826 1164.415313,292.138926 1164.723279,291.870716 1165.032180,291.602197 1165.342018,291.333368 1165.652792,291.064229 1165.652792,291.064229 1165.652792,291.064229 1165.964502,290.794781 1166.277148,290.525022 1166.590731,290.254955 1166.905250,289.984577 1167.220705,289.713890 1167.537097,289.442894 1167.854425,289.171588 1168.172689,288.899972 1168.491889,288.628046 1168.812026,288.355811 1168.812026,288.355811 1168.812026,288.355811 1169.133098,288.083266 1169.455108,287.810412 1169.778053,287.537248 1170.101935,287.263774 1170.426753,286.989990 1170.752507,286.715897 1171.079197,286.441495 1171.406824,286.166782 1171.735387,285.891760 1172.064886,285.616429 1172.064886,285.616429 1172.064886,285.616429 1172.395322,285.340787 1172.726693,285.064837 1173.059001,284.788576 1173.392246,284.512006 1173.726426,284.235126 1174.061543,283.957936 1174.397596,283.680437 1174.734586,283.402629 1175.072511,283.124510 1175.411373,282.846082 1175.411373,282.846082 1175.411373,282.846082 1175.751171,282.567345 1176.091906,282.288297 1176.433576,282.008940 1176.776183,281.729274 1177.119727,281.449297 1177.464206,281.169011 1177.809622,280.888416 1178.155974,280.607511 1178.503262,280.326296 1178.851487,280.044771 1178.851487,280.044771 1178.851487,280.044771 1179.182745,279.777176 1179.479133,279.537749 1179.740653,279.326489 1179.967303,279.143398 1180.159084,278.988474 1180.315996,278.861718 1180.438038,278.763131 1180.525211,278.692711 1180.577515,278.650459 1180.594950,278.636375 1180.594950,278.636375 1180.594950,278.636375 1180.612914,278.622140 1180.666805,278.579436 1180.756623,278.508262 1180.882369,278.408619 1181.044042,278.280506 1181.241642,278.123924 1181.475170,277.938872 1181.744625,277.725351 1182.050007,277.483360 1182.391317,277.212900 1182.391317,277.212900 1182.391317,277.212900 1182.751180,276.928058 1183.112223,276.642923 1183.474446,276.357494 1183.837849,276.071772 1184.202432,275.785756 1184.568195,275.499447 1184.935137,275.212844 1185.303259,274.925948 1185.672562,274.638758 1186.043044,274.351275 1186.043044,274.351275 1186.043044,274.351275 1186.414706,274.063498 1186.787548,273.775428 1187.161569,273.487064 1187.536771,273.198407 1187.913152,272.909456 1188.290714,272.620212 1188.669455,272.330674 1189.049376,272.040843 1189.430477,271.750718 1189.812758,271.460300 1189.812758,271.460300 1189.812758,271.460300 1190.196218,271.169588 1190.580859,270.878583 1190.966679,270.587284 1191.353680,270.295692 1191.741860,270.003806 1192.131220,269.711627 1192.521760,269.419154 1192.913480,269.126388 1193.306379,268.833328 1193.700459,268.539975 1193.700459,268.539975 1193.700459,268.539975 1194.085483,268.253757 1194.451216,267.982105 1194.797658,267.725017 1195.124808,267.482494 1195.432668,267.254537 1195.721237,267.041144 1195.990515,266.842316 1196.240502,266.658053 1196.471197,266.488355 1196.682602,266.333222 1196.682602,266.333222 1196.682602,266.333222 1196.884509,266.185335 1197.086711,266.037374 1197.289207,265.889340 1197.491999,265.741232 1197.695085,265.593052 1197.898467,265.444797 1198.102144,265.296470 1198.306115,265.148069 1198.510382,264.999595 1198.714943,264.851047 1198.714943,264.851047 1198.714943,264.851047 1198.919799,264.702426 1199.124951,264.553731 1199.330397,264.404964 1199.536138,264.256122 1199.742175,264.107208 1199.948506,263.958220 1200.155132,263.809159 1200.362053,263.660024 1200.569269,263.510816 1200.776780,263.361534 1200.776780,263.361534 1200.776780,263.361534 1200.984587,263.212180 1201.192688,263.062751 1201.401084,262.913250 1201.609775,262.763675 1201.818760,262.614027 1202.028041,262.464305 1202.237617,262.314510 1202.447488,262.164641 1202.657654,262.014700 1202.868115,261.864684 1202.868115,261.864684 1202.868115,261.864684 1203.078870,261.714596 1203.289921,261.564434 1203.501267,261.414199 1203.712907,261.263890 1203.924843,261.113508 1204.137074,260.963052 1204.349599,260.812524 1204.562420,260.661921 1204.775535,260.511246 1204.988946,260.360497 1204.988946,260.360497 1204.988946,260.360497 1205.202651,260.209675 1205.416651,260.058779 1205.630947,259.907810 1205.845537,259.756767 1206.060422,259.605652 1206.275603,259.454462 1206.491078,259.303200 1206.706848,259.151864 1206.922913,259.000455 1207.139273,258.848972 1207.139273,258.848972 1207.139273,258.848972 1207.355929,258.697416 1207.572879,258.545786 1207.790124,258.394084 1208.007664,258.242307 1208.225499,258.090458 1208.443629,257.938535 1208.662053,257.786539 1208.880773,257.634469 1209.099788,257.482326 1209.319098,257.330109 1209.319098,257.330109 1209.319098,257.330109 1209.538703,257.177820 1209.758602,257.025456 1209.978797,256.873020 1210.199287,256.720510 1210.420071,256.567927 1210.641151,256.415270 1210.862526,256.262540 1211.084195,256.109736 1211.306160,255.956860 1211.528419,255.803909 1211.528419,255.803909 1211.528419,255.803909 1211.750974,255.650886 1211.973823,255.497789 1212.196967,255.344619 1212.420407,255.191375 1212.644141,255.038058 1212.868170,254.884667 1213.092495,254.731204 1213.317114,254.577666 1213.542028,254.424056 1213.767237,254.270372 1213.767237,254.270372 1213.767237,254.270372 1213.992741,254.116615 1214.218540,253.962784 1214.444634,253.808880 1214.671023,253.654902 1214.897707,253.500852 1215.124686,253.346727 1215.351960,253.192530 1215.579529,253.038259 1215.807393,252.883915 1216.035552,252.729497 1216.035552,252.729497 1216.035552,252.729497 1216.264006,252.575006 1216.492754,252.420441 1216.721798,252.265804 1216.951137,252.111092 1217.180771,251.956308 1217.410699,251.801450 1217.640923,251.646519 1217.871441,251.491514 1218.102255,251.336436 1218.333363,251.181284 1218.333363,251.181284 1218.333363,251.181284 1218.564767,251.026060 1218.796465,250.870761 1219.028459,250.715390 1219.260747,250.559945 1219.493330,250.404427 1219.726209,250.248835 1219.959382,250.093170 1220.192850,249.937431 1220.426614,249.781620 1220.660672,249.625734 1220.660672,249.625734 1220.660672,249.625734 1220.895040,249.469775 1221.129733,249.313740 1221.364751,249.157630 1221.600095,249.001445 1221.835763,248.845185 1222.071757,248.688849 1222.308075,248.532439 1222.544719,248.375953 1222.781687,248.219392 1223.018981,248.062755 1223.018981,248.062755 1223.018981,248.062755 1223.256615,247.906043 1223.494603,247.749253 1223.732948,247.592387 1223.971647,247.435443 1224.210701,247.278422 1224.450110,247.121325 1224.689875,246.964150 1224.929995,246.806898 1225.170469,246.649569 1225.411299,246.492163 1225.411299,246.492163 1225.411299,246.492163 1225.652484,246.334680 1225.894025,246.177120 1226.135920,246.019483 1226.378171,245.861769 1226.620776,245.703978 1226.863737,245.546110 1227.107053,245.388165 1227.350724,245.230143 1227.594750,245.072043 1227.839131,244.913867 1227.839131,244.913867 1227.839131,244.913867 1228.083868,244.755614 1228.328959,244.597283 1228.574406,244.438876 1228.820208,244.280391 1229.066365,244.121830 1229.312877,243.963191 1229.559744,243.804476 1229.806967,243.645683 1230.054544,243.486813 1230.302477,243.327866 1230.302477,243.327866 1230.302477,243.327866 1230.550765,243.168843 1230.799408,243.009742 1231.048406,242.850564 1231.297759,242.691309 1231.547467,242.531977 1231.797531,242.372568 1232.047949,242.213082 1232.298723,242.053519 1232.549852,241.893879 1232.801336,241.734161 1232.801336,241.734161 1232.801336,241.734161 1233.053175,241.574367 1233.305369,241.414496 1233.557919,241.254548 1233.810823,241.094522 1234.064083,240.934420 1234.317698,240.774240 1234.571668,240.613984 1234.825993,240.453650 1235.080673,240.293240 1235.335708,240.132752 1235.335708,240.132752 1235.335708,240.132752 1235.591099,239.972187 1235.846844,239.811546 1236.102945,239.650827 1236.359401,239.490031 1236.616212,239.329158 1236.873378,239.168208 1237.130900,239.007181 1237.388776,238.846077 1237.647008,238.684896 1237.905594,238.523638 1237.905594,238.523638 1237.905594,238.523638 1238.164536,238.362303 1238.423833,238.200891 1238.683485,238.039402 1238.943493,237.877836 1239.203855,237.716192 1239.464572,237.554472 1239.725645,237.392675 1239.987073,237.230800 1240.248856,237.068849 1240.510994,236.906820 1240.510994,236.906820 1240.510994,236.906820 1240.773487,236.744715 1241.036335,236.582532 1241.299539,236.420272 1241.563097,236.257936 1241.827011,236.095522 1242.091280,235.933031 1242.355904,235.770463 1242.620883,235.607819 1242.886217,235.445097 1243.151907,235.282298 1243.151907,235.282298 1243.151907,235.282298 1243.417951,235.119422 1243.684351,234.956469 1243.951106,234.793439 1244.218216,234.630331 1244.485681,234.467147 1244.753501,234.303886 1245.021677,234.140548 1245.290207,233.977133 1245.559093,233.813640 1245.828333,233.650071 1245.828333,233.650071 1245.828333,233.650071 1246.097929,233.486424 1246.367880,233.322701 1246.638186,233.158900 1246.908848,232.995023 1247.179864,232.831068 1247.451236,232.667037 1247.722962,232.502928 1247.995044,232.338742 1248.267481,232.174479 1248.540273,232.010140 1248.540273,232.010140 1248.540273,232.010140 1248.813421,231.845723 1249.086923,231.681229 1249.360781,231.516658 1249.634993,231.352010 1249.909561,231.187285 1250.184484,231.022483 1250.459762,230.857604 1250.735395,230.692647 1251.011383,230.527614 1251.287727,230.362504 1251.287727,230.362504 1251.287727,230.362504 1251.564425,230.197317 1251.841479,230.032052 1252.118888,229.866711 1252.396652,229.701292 1252.674771,229.535797 1252.953245,229.370224 1253.232075,229.204575 1253.511259,229.038848 1253.790799,228.873045 1254.070694,228.707164 1254.070694,228.707164 1254.070694,228.707164 1254.350944,228.541206 1254.631549,228.375171 1254.912509,228.209060 1255.193824,228.042871 1255.475495,227.876605 1255.757521,227.710262 1256.039901,227.543842 1256.322637,227.377345 1256.605728,227.210771 1256.889174,227.044120 1256.889174,227.044120 1256.889174,227.044120 1257.172976,226.877391 1257.457132,226.710586 1257.741644,226.543704 1258.026510,226.376745 1258.311732,226.209708 1258.597309,226.042595 1258.883241,225.875404 1259.169528,225.708137 1259.456171,225.540792 1259.743168,225.373371 1259.743168,225.373371 1259.743168,225.373371 1260.030521,225.205872 1260.318229,225.038297 1260.606292,224.870644 1260.894710,224.702914 1261.183483,224.535107 1261.472611,224.367223 1261.762095,224.199263 1262.051933,224.031225 1262.342127,223.863110 1262.632676,223.694918 1262.632676,223.694918 1262.632676,223.694918 1262.923580,223.526649 1263.214839,223.358303 1263.506453,223.189879 1263.798423,223.021379 1264.090747,222.852802 1264.383427,222.684148 1264.676462,222.515416 1264.969852,222.346608 1265.263597,222.177723 1265.557697,222.008760 1265.557697,222.008760 1265.557697,222.008760 1265.852152,221.839721 1266.146963,221.670604 1266.442128,221.501411 1266.737649,221.332140 1267.033525,221.162792 1267.329756,220.993368 1267.626342,220.823866 1267.923283,220.654287 1268.220580,220.484631 1268.518231,220.314898 1268.518231,220.314898 1268.518231,220.314898 1268.816238,220.145088 1269.114600,219.975201 1269.413317,219.805237 1269.712389,219.635196 1270.011816,219.465078 1270.311599,219.294883 1270.611736,219.124611 1270.912229,218.954262 1271.213076,218.783835 1271.514279,218.613332 1271.514279,218.613332 1271.514279,218.613332 1271.815837,218.442752 1272.117751,218.272094 1272.420019,218.101360 1272.722642,217.930548 1273.025621,217.759660 1273.328955,217.588694 1273.632644,217.417652 1273.936687,217.246532 1274.241087,217.075335 1274.545841,216.904061 1274.545841,216.904061 1274.545841,216.904061 1274.850574,216.732896 1275.154911,216.562024 1275.458852,216.391445 1275.762395,216.221160 1276.065543,216.051169 1276.368293,215.881471 1276.670647,215.712066 1276.972605,215.542955 1277.274165,215.374138 1277.575330,215.205614 1277.575330,215.205614 1277.575330,215.205614 1277.875721,215.037568 1278.174965,214.870187 1278.473060,214.703470 1278.770007,214.537417 1279.065805,214.372028 1279.360455,214.207303 1279.653957,214.043242 1279.946311,213.879845 1280.237516,213.717112 1280.527573,213.555043 1280.527573,213.555043 1280.527573,213.555043 1280.816481,213.393638 1281.104241,213.232897 1281.390853,213.072821 1281.676317,212.913408 1281.960632,212.754659 1282.243799,212.596575 1282.525818,212.439154 1282.806688,212.282398 1283.086410,212.126305 1283.364984,211.970877 1283.364984,211.970877 1283.364984,211.970877 1283.642409,211.816112 1283.918686,211.662012 1284.193815,211.508576 1284.467795,211.355803 1284.740628,211.203695 1285.012311,211.052251 1285.282847,210.901471 1285.552234,210.751355 1285.820473,210.601903 1286.087563,210.453115 1286.087563,210.453115 1286.087563,210.453115 1286.353505,210.304991 1286.618299,210.157531 1286.881945,210.010735 1287.144442,209.864603 1287.405791,209.719136 1287.665992,209.574332 1287.925044,209.430192 1288.182948,209.286716 1288.439703,209.143905 1288.695311,209.001757 1288.695311,209.001757 1288.695311,209.001757 1288.949770,208.860274 1289.203080,208.719454 1289.455243,208.579299 1289.706257,208.439808 1289.956123,208.300980 1290.204840,208.162817 1290.452409,208.025318 1290.698830,207.888482 1290.944102,207.752311 1291.188226,207.616804 1291.188226,207.616804 1291.188226,207.616804 1291.431202,207.481961 1291.673030,207.347782 1291.913709,207.214267 1292.153240,207.081416 1292.391622,206.949229 1292.628856,206.817706 1292.864942,206.686848 1293.099880,206.556653 1293.333669,206.427122 1293.566310,206.298255 1293.566310,206.298255 1293.566310,206.298255 1293.797803,206.170053 1294.028147,206.042514 1294.257343,205.915640 1294.485391,205.789429 1294.712290,205.663883 1294.938041,205.539000 1295.162644,205.414782 1295.386098,205.291228 1295.608404,205.168337 1295.829562,205.046111 1295.829562,205.046111 1295.829562,205.046111 1296.049571,204.924549 1296.268433,204.803651 1296.486145,204.683417 1296.702710,204.563847 1296.918126,204.444941 1297.132394,204.326699 1297.345513,204.209121 1297.557485,204.092207 1297.768307,203.975957 1297.977982,203.860371 1297.977982,203.860371 1297.977982,203.860371 1298.186508,203.745449 1298.393886,203.631192 1298.600116,203.517598 1298.805197,203.404668 1299.009130,203.292403 1299.211915,203.180801 1299.413551,203.069864 1299.614039,202.959590 1299.813379,202.849981 1300.011570,202.741035 1300.011570,202.741035 1300.011570,202.741035 1300.208613,202.632754 1300.404508,202.525137 1300.599254,202.418184 1300.792852,202.311894 1300.985302,202.206269 1301.176604,202.101308 1301.366757,201.997011 1301.555762,201.893378 1301.743618,201.790409 1301.930326,201.688104 1301.930326,201.688104 1301.930326,201.688104 1302.115886,201.586463 1302.300298,201.485486 1302.483561,201.385174 1302.665676,201.285525 1302.846643,201.186540 1303.026461,201.088220 1303.205131,200.990563 1303.382652,200.893570 1303.559026,200.797242 1303.734251,200.701577 1303.734251,200.701577 1303.734251,200.701577 1303.908327,200.606577 1304.081256,200.512240 1304.253036,200.418568 1304.423668,200.325560 1304.593151,200.233216 1304.761486,200.141535 1304.928673,200.050519 1305.094711,199.960167 1305.259601,199.870479 1305.423343,199.781455 1305.423343,199.781455 1305.423343,199.781455 1305.585937,199.693095 1305.747382,199.605399 1305.907679,199.518367 1306.066827,199.431999 1306.224828,199.346295 1306.381679,199.261255 1306.537383,199.176880 1306.691938,199.093168 1306.845345,199.010120 1306.997604,198.927737 1306.997604,198.927737 1306.997604,198.927737 1307.148714,198.846017 1307.298676,198.764962 1307.447490,198.684570 1307.595155,198.604843 1307.741672,198.525779 1307.887041,198.447380 1308.031261,198.369645 1308.174333,198.292573 1308.316257,198.216166 1308.457033,198.140423 1308.457033,198.140423 1308.457033,198.140423 1308.596660,198.065344 1308.735139,197.990929 1308.872469,197.917178 1309.008651,197.844091 1309.143685,197.771668 1309.277571,197.699909 1309.410308,197.628814 1309.541897,197.558383 1309.672337,197.488616 1309.801630,197.419514 1309.801630,197.419514 1309.801630,197.419514 1309.929773,197.351075 1310.056769,197.283300 1310.182616,197.216190 1310.307315,197.149743 1310.430866,197.083961 1310.553268,197.018842 1310.674522,196.954388 1310.794628,196.890597 1310.913585,196.827471 1311.031395,196.765009 1311.031395,196.765009 1311.031395,196.765009 1311.148055,196.703210 1311.263568,196.642076 1311.377932,196.581606 1311.491148,196.521800 1311.603215,196.462658 1311.714134,196.404180 1311.823905,196.346366 1311.932528,196.289216 1312.040002,196.232730 1312.146328,196.176908 1312.146328,196.176908 1312.146328,196.176908 1312.251505,196.121750 1312.355534,196.067256 1312.458415,196.013427 1312.560148,195.960261 1312.660732,195.907759 1312.760168,195.855922 1312.858456,195.804748 1312.955595,195.754239 1313.051586,195.704393 1313.146429,195.655212 1313.146429,195.655212 1313.146429,195.655212 1313.240123,195.606694 1313.332669,195.558841 1313.424067,195.511652 1313.514316,195.465126 1313.603418,195.419265 1313.691370,195.374068 1313.778175,195.329535 1313.863831,195.285666 1313.948339,195.242461 1314.031698,195.199920 1314.031698,195.199920 1314.031698,195.199920 1314.148866,195.140377 1314.334799,195.046166 1314.589498,194.917288 1314.912961,194.753741 1315.305190,194.555527 1315.766184,194.322645 1316.295943,194.055095 1316.894468,193.752877 1317.561758,193.415991 1318.297812,193.044437 1318.297812,193.044437 1322.150000,191.100000"
     id="polyline3853"
     style="fill:none;stroke:#000000;stroke-opacity:1"
     transform="translate(-401.44296,-61.458107)" />
  <polygon
     points="1099.09,208.71 1087.35,176.425 1075.61,208.71 "
     id="polygon3855"
     style="fill:#c0c0c0;stroke:#c0c0c0;stroke-opacity:1"
     transform="translate(-401.44296,-61.458107)" />
  <polyline
     points="1087.350000,437.640000 1087.350000,208.710000"
     id="polyline3857"
     style="fill:none;stroke:#c0c0c0;stroke-opacity:1"
     transform="translate(-401.44296,-61.458107)" />
  <text
     font-size="53"
     dominant-baseline="central"
     x="844.39697"
     y="288.1319"
     id="text3859"
     style="font-size:53px;font-family:helvetica;dominant-baseline:central;text-anchor:middle;fill:#c0c0c0">sqrt</text>
  <text
     font-size="59"
     dominant-baseline="central"
     x="803.30701"
     y="56.266891"
     id="text3861"
     style="font-size:59px;font-family:helvetica;dominant-baseline:central;text-anchor:middle;fill:#0000ff">fixIns</text>
  <rect
     x="656.55701"
     y="1274.2919"
     width="293.5"
     height="293.5"
     id="rect3863"
     style="fill:#ffffff;stroke:#000000;stroke-opacity:1" />
  <polyline
     points="1087.350000,1599.900000 1087.350000,1382.710000"
     id="polyline3865"
     style="fill:none;stroke:#c0c0c0;stroke-opacity:1"
     transform="translate(-401.44296,-61.458107)" />
  <polygon
     points="1099.09,1382.71 1087.35,1350.425 1075.61,1382.71 "
     id="polygon3867"
     style="fill:#c0c0c0;stroke:#c0c0c0;stroke-opacity:1"
     transform="translate(-401.44296,-61.458107)" />
  <text
     font-size="59"
     dominant-baseline="central"
     x="803.30701"
     y="1230.2618"
     id="text3869"
     style="font-size:59px;font-family:helvetica;dominant-baseline:central;text-anchor:middle;fill:#0000ff">conIns</text>
  <polyline
     points="1072.675000,1482.500000 1304.540000,1482.500000"
     id="polyline3871"
     style="fill:none;stroke:#c0c0c0;stroke-opacity:1"
     transform="translate(-401.44296,-61.458107)" />
  <polyline
     points="1087.350000,1599.900000 1088.524000,1556.755500 1089.698000,1536.797500 1090.872000,1523.590000 1092.046000,1513.757750 1094.394000,1499.229500 1097.916000,1484.422425 1102.758750,1470.642600 1109.802750,1456.231750 1120.368750,1441.410000 1135.777500,1426.588250 1158.083500,1411.913250 1189.928250,1397.385000 1237.181750,1382.710000 1305.567250,1367.888250 1322.150000,1365.100000"
     id="polyline3873"
     style="fill:none;stroke:#000000;stroke-opacity:1"
     transform="translate(-401.44296,-61.458107)" />
  <text
     font-size="70"
     dominant-baseline="central"
     x="847.33704"
     y="1491.4818"
     id="text3875"
     style="font-size:70px;font-family:helvetica;dominant-baseline:central;text-anchor:middle;fill:#c0c0c0">log</text>
  <polyline
     points="2246.675000,895.500000 2672.250000,895.500000"
     id="polyline3877"
     style="fill:none;stroke:#ffffff;stroke-width:5;stroke-opacity:1"
     transform="translate(-401.44296,-61.458107)" />
  <polyline
     points="2246.675000,895.500000 2672.250000,895.500000"
     id="polyline3879"
     style="fill:none;stroke:#00007f;stroke-opacity:1"
     transform="translate(-401.44296,-61.458107)" />
  <polyline
     points="471.000000,1482.500000 1028.650000,1482.500000"
     id="polyline3881"
     style="fill:none;stroke:#ffffff;stroke-width:5;stroke-opacity:1"
     transform="translate(-401.44296,-61.458107)" />
  <polyline
     points="471.000000,1482.500000 1028.650000,1482.500000"
     id="polyline3883"
     style="fill:none;stroke:#00007f;stroke-opacity:1"
     transform="translate(-401.44296,-61.458107)" />
  <polyline
     points="1366.175000,1482.500000 1645.000000,1482.500000 1645.000000,983.550000 1909.150000,983.550000"
     id="polyline3885"
     style="fill:none;stroke:#ffffff;stroke-width:5;stroke-opacity:1"
     transform="translate(-401.44296,-61.458107)" />
  <polyline
     points="1366.175000,1482.500000 1645.000000,1482.500000 1645.000000,983.550000 1909.150000,983.550000"
     id="polyline3887"
     style="fill:none;stroke:#00007f;stroke-opacity:1"
     transform="translate(-401.44296,-61.458107)" />
  <polyline
     points="471.000000,308.500000 1028.650000,308.500000"
     id="polyline3889"
     style="fill:none;stroke:#ffffff;stroke-width:5;stroke-opacity:1"
     transform="translate(-401.44296,-61.458107)" />
  <polyline
     points="471.000000,308.500000 1028.650000,308.500000"
     id="polyline3891"
     style="fill:none;stroke:#00007f;stroke-opacity:1"
     transform="translate(-401.44296,-61.458107)" />
  <polyline
     points="1366.175000,308.500000 1645.000000,308.500000 1645.000000,807.450000 1909.150000,807.450000"
     id="polyline3893"
     style="fill:none;stroke:#ffffff;stroke-width:5;stroke-opacity:1"
     transform="translate(-401.44296,-61.458107)" />
  <polyline
     points="1366.175000,308.500000 1645.000000,308.500000 1645.000000,807.450000 1909.150000,807.450000"
     id="polyline3895"
     style="fill:none;stroke:#00007f;stroke-opacity:1"
     transform="translate(-401.44296,-61.458107)" />
  <polygon
     points="471,455.25 471,161.75 764.5,308.5 "
     id="polygon3897"
     style="fill:#00007f;stroke:#00007f;stroke-opacity:1"
     transform="translate(-401.44296,-61.458107)" />
  <text
     font-size="73"
     dominant-baseline="central"
     x="40.207031"
     y="34.254395"
     id="text3899"
     style="font-size:73px;font-family:helvetica;dominant-baseline:central;text-anchor:middle;fill:#00007f">u1</text>
  <polygon
     points="471,1629.25 471,1335.75 764.5,1482.5 "
     id="polygon3901"
     style="fill:#00007f;stroke:#00007f;stroke-opacity:1"
     transform="translate(-401.44296,-61.458107)" />
  <text
     font-size="73"
     dominant-baseline="central"
     x="40.207031"
     y="1208.2518"
     id="text3903"
     style="font-size:73px;font-family:helvetica;dominant-baseline:central;text-anchor:middle;fill:#00007f">u2</text>
  <polygon
     points="2525.5,968.875 2525.5,822.125 2672.25,895.5 "
     id="polygon3905"
     style="fill:#ffffff;stroke:#00007f;stroke-opacity:1"
     transform="translate(-401.44296,-61.458107)" />
  <text
     font-size="73"
     dominant-baseline="central"
     x="2314.8372"
     y="709.30487"
     id="text3907"
     style="font-size:73px;font-family:helvetica;dominant-baseline:central;text-anchor:middle;fill:#00007f">y</text>
  <polygon
     points="1879.8,836.8 1879.8,778.1 1938.5,807.45 "
     id="polygon3909"
     style="fill:#00007f;stroke:#00007f;stroke-opacity:1"
     transform="translate(-401.44296,-61.458107)" />
  <polygon
     points="1879.8,1012.9 1879.8,954.2 1938.5,983.55 "
     id="polygon3911"
     style="fill:#00007f;stroke:#00007f;stroke-opacity:1"
     transform="translate(-401.44296,-61.458107)" />
  <polygon
     points="2232,910.175 2232,880.825 2261.35,895.5 "
     id="polygon3913"
     style="fill:#ffffff;stroke:#00007f;stroke-opacity:1"
     transform="translate(-401.44296,-61.458107)" />
  <polygon
     points="999.3,337.85 999.3,279.15 1058,308.5 "
     id="polygon3915"
     style="fill:#00007f;stroke:#00007f;stroke-opacity:1"
     transform="translate(-401.44296,-61.458107)" />
  <polygon
     points="1351.5,323.175 1351.5,293.825 1380.85,308.5 "
     id="polygon3917"
     style="fill:#ffffff;stroke:#00007f;stroke-opacity:1"
     transform="translate(-401.44296,-61.458107)" />
  <polygon
     points="999.3,1511.85 999.3,1453.15 1058,1482.5 "
     id="polygon3919"
     style="fill:#00007f;stroke:#00007f;stroke-opacity:1"
     transform="translate(-401.44296,-61.458107)" />
  <polygon
     points="1351.5,1497.175 1351.5,1467.825 1380.85,1482.5 "
     id="polygon3921"
     style="fill:#ffffff;stroke:#00007f;stroke-opacity:1"
     transform="translate(-401.44296,-61.458107)" />
</svg>
