<svg class="main-svg" xmlns="http://www.w3.org/2000/svg" xmlns:xlink="http://www.w3.org/1999/xlink" width="700" height="500" viewBox="0 0 700 500"><rect x="0" y="0" width="700" height="500" style="fill: rgb(255, 255, 255); fill-opacity: 1;"/><defs id="defs-1d0d13"><g class="clips"><clipPath id="clip1d0d13xyplot" class="plotclip"><rect width="499" height="322"/></clipPath><clipPath id="clip1d0d13xy2plot" class="plotclip"><rect width="499" height="69"/></clipPath><clipPath class="axesclip" id="clip1d0d13x"><rect x="80" y="0" width="499" height="500"/></clipPath><clipPath class="axesclip" id="clip1d0d13y"><rect x="0" y="20" width="700" height="322"/></clipPath><clipPath class="axesclip" id="clip1d0d13xy"><rect x="80" y="20" width="499" height="322"/></clipPath><clipPath class="axesclip" id="clip1d0d13y2"><rect x="0" y="411" width="700" height="69"/></clipPath><clipPath class="axesclip" id="clip1d0d13xy2"><rect x="80" y="411" width="499" height="69"/></clipPath></g><g class="gradients"/></defs><g class="bglayer"/><g class="layer-below"><g class="imagelayer"/><g class="shapelayer"/></g><g class="cartesianlayer"><g class="subplot xy"><g class="layer-subplot"><g class="shapelayer"/><g class="imagelayer"/></g><g class="gridlayer"><g class="x"/><g class="y"/></g><g class="zerolinelayer"/><path class="xlines-below"/><path class="ylines-below"/><g class="overlines-below"/><g class="xaxislayer-below"/><g class="yaxislayer-below"/><g class="overaxes-below"/><g class="plot" transform="translate(80, 20)" clip-path="url(#clip1d0d13xyplot)"><g class="scatterlayer mlayer"><g class="trace scatter trace1d3e755c-5347-427e-b3c8-49c9f1547e43" style="stroke-miterlimit: 2; opacity: 1;"><g class="fills"/><g class="errorbars"/><g class="lines"><path class="js-line" d="M-1497,523.25L-119.21,518.29L-118.28,514.14L-77.62,479.66L-76.7,478.87L-63.76,469.38L-62.84,462.18L-8.32,367.44L-7.39,358.7L3.7,328.38L4.62,325.89L24.03,275.18L24.95,273.7L29.57,263.77L30.49,262.57L33.27,257.74L34.19,256.8L36.96,252.77L37.89,252.1L40.66,248.88L41.58,248.48L43.43,247.07L44.36,246.94L46.2,246.06L47.13,245.33L48.05,238.37L48.98,237.55L50.82,235.31L51.75,234.75L54.52,231.88L55.44,231.6L58.22,229.54L59.14,229.52L60.99,228.88L61.91,228.26L63.76,228.03L64.69,227.54L66.53,227.57L67.46,227.22L68.38,226.87L69.31,227.39L72.08,226.74L73,227.39L75.77,227.14L76.7,227.93L79.47,228.08L80.39,229L82.24,229.37L83.17,230.43L85.94,231.38L86.86,232.57L90.56,234.38L91.48,235.71L97.03,240.1L97.95,240.82L101.65,244.58L102.57,245.44L103.5,239.2L104.42,238.97L105.34,238.74L106.27,239.37L108.12,239.17L109.04,239.94L112.74,240.08L113.66,240.98L116.43,241.49L117.36,242.53L122.9,244.34L123.83,245.51L137.69,252.05L138.61,251.62L145.08,253.73L146,253.16L158.02,255.34L158.94,248.42L172.8,235.59L173.73,234.8L197.75,213.44L198.68,212.51L202.37,209.83L203.3,209.04L209.76,204.4L210.69,203.74L212.54,203.31L213.46,202.79L214.39,195.18L215.31,194.44L219.93,188.2L220.85,187.74L224.55,184.05L225.47,183.84L229.17,181.09L230.09,181.16L232.87,180.02L233.79,179.48L234.71,178.95L235.64,179.28L236.56,178.88L237.49,179.35L240.26,178.54L241.18,179.15L243.96,178.75L244.88,179.48L262.44,179.48L263.36,178.61L268.91,177.81L269.83,170.59L275.37,161.97L276.3,160.61L287.39,145.45L288.31,144.22L316.96,107.55L317.88,106.46L319.73,105.28L320.65,104.33L323.43,103.47L324.35,102.78L326.2,94.24L327.12,93.47L330.82,88.57L331.74,88.07L333.59,86.59L334.51,85.48L337.29,84.18L338.21,83.34L341.91,80.99L342.83,80.28L346.53,78.34L347.45,77.77L370.55,63.51L371.48,63.82L379.79,59.89L380.72,52.37L382.57,50.32L383.49,48.93L386.26,45.76L387.19,45.38L389.96,43.01L390.88,42.89L394.58,42.63L395.5,42.17L400.12,43.46L401.05,43.41L403.82,45.28L404.74,45.49L405.67,45.71L406.59,46.8L417.68,51.03L418.61,50.51L422.3,51.38L423.23,50.73L435.24,51.82L436.16,44.81L440.78,38.78L441.71,37.64L449.1,29.65L450.02,28.65L452.8,26.64L453.72,26.64L455.57,26.03L456.49,25.43L461.11,27.1L462.04,27.91L462.96,27.98L463.89,28.92L464.81,29.12L465.73,30.19L474.05,33.21L474.97,32.67L476.82,33.08L477.75,32.4L479.59,32.54L480.52,31.73L481.44,31.67L482.37,30.73L484.21,30.32L485.14,29.25L486.06,28.92L486.99,27.71L489.76,26.3L490.68,24.96L492.53,15.57L493.46,13.88L496.23,7.66L497.15,5.83L515.63,-29.66L516.56,-30.34L522.1,-32.93L523.03,-32.81L527.65,-30.21L528.57,-29.29L533.19,-25.82L534.11,-25.36L541.51,-22.88L542.43,-23.43L544.28,-23.94L545.2,-24.76L546.13,-24.84L547.05,-32.01L585.86,-114.39L586.79,-114.83L591.41,-112.98L592.33,-112.34L601.57,-104.43L602.5,-110.95L625.6,-152.12L626.52,-153.98L652.4,-212.95L653.32,-213.93L667.18,-224.69L668.11,-224.22L680.12,-209.33L681.04,-207.39L703.22,-171.23L704.14,-169.62L712.46,-155.13L715.23,-158.42L716.16,-157.77L728.17,-144.37L729.09,-142.44L743.88,-116.41L744.8,-114.68L762.36,-73.14L763.29,-70.01L836.29,104.22L837.21,105.63L865.86,157.15L866.78,157.61L885.26,171.9L886.19,171.57L901.9,171.17L902.82,171.03L925,160.63L925.92,160.1L937.01,145.47L937.94,143.26L951.8,87.85L952.72,83.09L1019.25,-255.15L1020.18,-257.3L1048.82,-281.75L1049.75,-281.75L1096.88,-272.32L1097.8,-271.78L1126.45,-243.88L1127.37,-242.8L1158.79,-190.48L1159.71,-188.87L1223.47,-54.57L1224.4,-52.15L1250.27,4.26L1254.89,0.71L1255.82,-0.16L1279.84,-45.98L1280.77,-48.73L1359.31,-196.38L1360.24,-195.78L1361.16,-195.91L1377.79,-217.98L1378.72,-220.46L1416.61,-281.75L1417.53,-281.75L1440.63,-267.17L1441.56,-265.22L1455.42,-259.32L1460.96,-263.75L1461.89,-265.02L1491.46,-274.82L1492.38,-273.68L1493.3,-273.27L1533.04,-232.15L1533.96,-233.29L1534.89,-233.7L1575.55,-243.02L1576.47,-243.02L1603.27,-239.26L1604.19,-241.21L1638.38,-281.75L1639.31,-281.75L1785.31,-262.64L1786.24,-260.42L1825.05,-133.3L1825.97,-128.67L1875.87,0.46L1876.79,0.13L1877.72,0.53L1924.85,-24.96L1925.77,-26.17L2016.33,-134.37L2017.25,-134.58L2103.19,-222.52L2113.36,-207.16L2114.28,-205.08L2160.49,-183.34L2161.41,-182.81L2198.37,-97.55L2199.3,-95.87L2270.45,-1.95L2271.37,-2.82L2327.74,-69.77L2328.67,-70.98L2392.43,-222.52L2393.35,-225.2L2444.18,-281.75L2445.1,-281.75L2536.58,-253.12L2537.51,-250.24L2637.31,-71.73L2638.23,-70.26L2783.31,101.14L2784.24,101.68L2947.8,153.47L2948.72,153.47L3160.33,130.66" style="vector-effect: non-scaling-stroke; fill: none; stroke: rgb(255, 127, 14); stroke-opacity: 1; stroke-width: 1px; opacity: 1;"/></g><g class="points"/><g class="text"/></g><g class="trace scatter tracef063a77a-af36-4f73-a0ae-6a2eaadd7813" style="stroke-miterlimit: 2;"><g class="fills"><g><path class="js-fill" d="M-1497,523.25L-119.21,518.42L-118.28,517.62L-116.43,517.62L-115.51,511.18L-108.12,506.35L-107.19,503.13L-99.8,499.1L-98.88,496.69L-91.48,492.66L-90.56,491.05L-85.94,489.44L-85.01,486.22L-80.39,483.81L-79.47,481.39L-74.85,478.98L-73.93,476.56L-69.31,474.15L-68.38,471.73L-60.99,468.51L-60.06,457.24L-58.22,457.24L-57.29,452.41L-52.67,449.19L-51.75,444.36L-49.9,444.36L-48.98,439.53L-47.13,439.53L-46.2,434.7L-44.36,434.7L-43.43,430.68L-41.58,430.68L-40.66,425.04L-38.81,425.04L-37.89,419.41L-36.04,419.41L-35.11,414.58L-33.27,414.58L-32.34,411.36L-30.49,411.36L-29.57,406.53L-27.72,406.53L-26.8,401.7L-24.95,401.7L-24.03,396.06L-22.18,396.06L-21.25,391.23L-19.41,391.23L-18.48,386.4L-16.63,386.4L-15.71,380.77L-13.86,380.77L-12.94,375.94L-11.09,375.94L-10.16,371.11L-8.32,371.11L-7.39,366.28L-5.54,366.28L-4.62,350.98L-2.77,350.98L-1.85,344.54L0,344.54L0.92,336.49L2.77,336.49L3.7,328.44L5.54,328.44L6.47,322L8.32,322L9.24,314.76L11.09,314.76L12.01,306.71L13.86,306.71L14.79,299.46L16.63,299.46L17.56,292.22L19.41,292.22L20.33,284.97L22.18,284.97L23.1,278.53L24.95,278.53L25.87,272.9L27.72,272.9L28.65,267.26L29.57,267.26L30.49,262.43L33.27,262.43L34.19,257.6L36.04,257.6L36.96,254.38L38.81,254.38L39.74,251.16L41.58,251.16L42.51,249.55L44.36,249.55L45.28,247.94L47.13,247.94L48.05,247.14L49.9,247.14L50.82,237.48L52.67,237.48L53.6,235.06L55.44,235.06L56.37,233.45L58.22,233.45L59.14,231.84L63.76,231.84L64.69,231.04L66.53,231.04L67.46,230.23L69.31,230.23L70.23,231.04L72.08,231.04L73,230.23L77.62,230.23L78.55,231.84L80.39,231.84L81.32,232.65L83.17,232.65L84.09,235.06L85.94,235.06L86.86,235.87L88.71,235.87L89.64,237.48L91.48,237.48L92.41,240.7L94.26,240.7L95.18,242.31L97.03,242.31L97.95,244.72L99.8,244.72L100.72,247.14L102.57,247.14L103.5,250.35L105.34,250.35L106.27,243.11L108.12,243.11L109.04,243.92L110.89,243.92L111.81,244.72L113.66,244.72L114.59,246.33L119.21,246.33L120.13,247.94L121.98,247.94L122.9,249.55L124.75,249.55L125.67,251.16L127.52,251.16L128.45,252.77L130.29,252.77L131.22,253.58L133.07,253.58L133.99,255.19L135.84,255.19L136.76,256.79L141.38,256.79L142.31,257.6L144.16,257.6L145.08,258.4L152.47,258.4L153.4,259.21L155.24,259.21L156.17,260.02L160.79,260.02L161.71,251.16L163.56,251.16L164.49,247.94L166.33,247.94L167.26,245.53L169.11,245.53L170.03,242.31L171.88,242.31L172.8,240.7L174.65,240.7L175.57,238.28L177.42,238.28L178.35,236.67L180.19,236.67L181.12,234.26L182.97,234.26L183.89,231.84L185.74,231.84L186.66,229.43L188.51,229.43L189.44,227.01L191.28,227.01L192.21,224.6L194.06,224.6L194.98,222.18L196.83,222.18L197.75,219.77L199.6,219.77L200.52,216.55L202.37,216.55L203.3,214.94L205.14,214.94L206.07,212.52L207.92,212.52L208.84,210.11L210.69,210.11L211.61,208.5L213.46,208.5L214.39,207.69L216.23,207.69L217.16,198.03L219.01,198.03L219.93,194.81L221.78,194.81L222.7,191.59L224.55,191.59L225.47,189.18L227.32,189.18L228.25,187.57L230.09,187.57L231.02,186.76L232.87,186.76L233.79,185.96L246.73,185.96L247.65,186.76L263.36,186.76L264.29,185.15L268.91,185.15L269.83,184.35L271.68,184.35L272.6,174.69L274.45,174.69L275.37,169.05L277.22,169.05L278.15,165.02L279.99,165.02L280.92,161L282.77,161L283.69,156.97L285.54,156.97L286.46,154.56L288.31,154.56L289.24,150.53L291.08,150.53L292.01,147.32L293.86,147.32L294.78,143.29L296.63,143.29L297.55,139.27L299.4,139.27L300.32,136.05L302.17,136.05L303.1,132.02L304.94,132.02L305.87,128.8L307.72,128.8L308.64,124.77L310.49,124.77L311.41,121.56L312.34,121.56L313.26,117.53L316.03,117.53L316.96,115.12L318.81,115.12L319.73,112.7L321.58,112.7L322.5,111.09L324.35,111.09L325.27,110.28L327.12,110.28L328.05,100.63L329.89,100.63L330.82,97.4L332.67,97.4L333.59,95.79L335.44,95.79L336.36,93.38L338.21,93.38L339.14,91.77L340.98,91.77L341.91,90.16L343.76,90.16L344.68,88.55L346.53,88.55L347.45,87.74L349.3,87.74L350.22,86.14L352.07,86.14L353,83.72L354.84,83.72L355.77,82.11L357.62,82.11L358.54,80.5L360.39,80.5L361.31,78.89L363.16,78.89L364.09,77.28L365.93,77.28L366.86,75.67L368.71,75.67L369.63,74.06L371.48,74.06L372.4,73.25L374.25,73.25L375.17,71.64L377.02,71.64L377.95,70.84L379.79,70.84L380.72,69.23L382.57,69.23L383.49,59.57L385.34,59.57L386.26,56.35L388.11,56.35L389.04,53.94L390.88,53.94L391.81,53.13L399.2,53.13L400.12,54.74L401.97,54.74L402.9,56.35L404.74,56.35L405.67,57.16L407.52,57.16L408.44,59.57L410.29,59.57L411.21,60.38L413.06,60.38L413.99,61.18L415.83,61.18L416.76,62.79L418.61,62.79L419.53,61.99L421.38,61.99L422.3,62.79L432.47,62.79L433.39,63.6L438.01,63.6L438.94,53.94L440.78,53.94L441.71,49.91L443.56,49.91L444.48,45.89L446.33,45.89L447.25,42.67L449.1,42.67L450.02,40.25L451.87,40.25L452.8,38.64L454.64,38.64L455.57,37.03L457.42,37.03L458.34,37.84L460.19,37.84L461.11,38.64L462.96,38.64L463.89,40.25L465.73,40.25L466.66,42.67L468.51,42.67L469.43,44.28L471.28,44.28L472.2,45.08L474.05,45.08L474.97,45.89L479.59,45.89L480.52,45.08L482.37,45.08L483.29,42.67L485.14,42.67L486.06,41.06L487.91,41.06L488.84,38.64L490.68,38.64L491.61,36.23L493.46,36.23L494.38,24.95L496.23,24.95L497.15,18.51L499,18.51L499.92,12.88L501.77,12.88L502.7,7.25L504.54,7.25L505.47,0.8L507.32,0.8L508.24,-4.83L510.09,-4.83L511.01,-9.66L512.86,-9.66L513.79,-15.3L515.63,-15.3L516.56,-18.51L521.18,-19.32L522.1,-20.12L526.72,-19.32L527.65,-16.91L529.49,-16.91L530.42,-13.69L532.27,-13.69L533.19,-12.08L535.04,-12.08L535.96,-10.47L537.81,-10.47L538.74,-8.86L546.13,-8.86L547.05,-11.27L548.9,-11.27L549.82,-22.54L551.67,-22.54L552.6,-28.98L553.52,-28.98L554.44,-34.62L557.22,-34.62L558.14,-41.05L559.99,-41.05L560.91,-47.49L562.76,-47.49L563.69,-54.74L565.53,-54.74L566.46,-61.99L568.31,-61.99L569.23,-69.23L571.08,-69.23L572,-75.67L573.85,-75.67L574.77,-82.91L576.62,-82.91L577.55,-89.36L579.39,-89.36L580.32,-94.99L582.17,-94.99L583.09,-99.01L593.26,-99.82L594.18,-96.6L596.03,-96.6L596.95,-92.58L601.57,-90.16L602.5,-88.55L604.34,-88.55L605.27,-97.4L607.12,-97.4L608.04,-102.24L609.89,-102.24L610.81,-106.26L612.66,-106.26L613.59,-111.89L615.43,-111.89L616.36,-116.73L618.21,-116.73L619.13,-122.36L620.98,-122.36L621.9,-127.99L623.75,-127.99L624.67,-134.43L626.52,-134.43L627.45,-140.07L629.29,-140.07L630.22,-147.31L632.07,-147.31L632.99,-152.95L634.84,-152.95L635.76,-160.19L636.69,-160.19L637.61,-166.63L640.38,-166.63L641.31,-173.08L643.16,-173.08L644.08,-180.32L645.93,-180.32L646.85,-187.57L648.7,-187.57L649.62,-193.2L654.24,-197.23L655.17,-200.45L659.79,-200.45L660.71,-208.49L670.88,-206.88L671.8,-203.66L676.42,-199.64L677.35,-195.61L681.97,-190.78L682.89,-186.76L687.51,-181.93L688.44,-177.9L690.28,-177.9L691.21,-172.27L695.83,-168.24L696.75,-163.41L701.37,-159.39L702.3,-154.56L704.14,-154.56L705.07,-148.92L706.92,-148.92L707.84,-144.09L709.69,-144.09L710.61,-139.26L712.46,-139.26L713.39,-134.43L715.23,-134.43L716.16,-138.46L720.78,-136.85L721.7,-133.63L726.32,-129.61L727.25,-125.58L731.87,-121.56L732.79,-117.53L734.64,-117.53L735.56,-112.7L737.41,-112.7L738.34,-107.87L739.26,-107.87L740.18,-102.24L742.96,-102.24L743.88,-97.4L745.73,-97.4L746.65,-91.77L748.5,-91.77L749.42,-85.33L751.27,-85.33L752.2,-79.7L754.04,-79.7L754.97,-72.45L756.82,-72.45L757.74,-65.21L759.59,-65.21L760.51,-57.96L762.36,-57.96L763.29,-51.52L765.13,-51.52L766.06,-43.47L767.91,-43.47L768.83,-36.22L773.45,-31.39L774.37,-24.96L776.22,-24.96L777.15,-18.51L778.99,-18.51L779.92,-12.08L781.77,-12.08L782.69,-5.63L784.54,-5.63L785.46,0.8L787.31,0.8L788.24,8.05L790.08,8.05L791.01,14.49L792.86,14.49L793.78,20.93L795.63,20.93L796.55,27.37L798.4,27.37L799.32,33.81L801.17,33.81L802.1,40.25L803.94,40.25L804.87,46.69L806.72,46.69L807.64,53.13L809.49,53.13L810.41,59.57L812.26,59.57L813.19,66.82L815.03,66.82L815.96,74.06L817.81,74.06L818.73,80.5L820.58,80.5L821.5,87.74L823.35,87.74L824.27,94.19L826.12,94.19L827.05,100.63L828.89,100.63L829.82,107.87L831.67,107.87L832.59,114.31L834.44,114.31L835.36,121.56L839.98,127.19L840.91,133.63L842.76,133.63L843.68,140.07L848.3,144.9L849.22,151.34L853.84,156.17L854.77,160.2L859.39,164.22L860.31,169.05L864.93,173.08L865.86,176.3L870.48,178.71L871.4,182.74L881.57,188.37L882.49,189.98L914.83,185.96L915.76,183.54L928.69,177.91L929.62,176.3L934.24,172.27L935.16,167.44L939.78,161.81L940.71,152.95L942.56,152.95L943.48,143.29L945.33,143.29L946.25,132.02L948.1,132.02L949.02,118.33L950.87,118.33L951.8,104.65L953.64,104.65L954.57,90.16L956.42,90.16L957.34,74.06L959.19,74.06L960.11,56.35L961.96,56.35L962.89,39.44L964.73,39.44L965.66,22.54L967.51,22.54L968.43,4.02L970.28,4.02L971.2,-12.88L973.05,-12.88L973.97,-29.79L975.82,-29.79L976.75,-46.69L978.59,-46.69L979.52,-63.6L981.37,-63.6L982.29,-79.7L984.14,-79.7L985.06,-95.79L986.91,-95.79L987.84,-112.7L989.68,-112.7L990.61,-128.8L992.46,-128.8L993.38,-145.7L995.23,-145.7L996.15,-161.8L998,-161.8L998.92,-177.1L1000.77,-177.1L1001.7,-190.78L1003.54,-190.78L1004.47,-202.86L1006.32,-202.86L1007.24,-211.72L1009.09,-211.72L1010.01,-220.57L1014.63,-227.01L1015.56,-231.84L1020.18,-237.47L1021.1,-242.3L1028.49,-249.55L1029.42,-253.57L1036.81,-259.21L1037.74,-263.23L1045.13,-272.09L1046.05,-276.11L1097.8,-272.89L1098.72,-271.28L1125.52,-247.13L1126.45,-243.11L1156.02,-197.23L1156.94,-192.39L1219.78,-67.62L1220.7,-59.57L1253.04,6.44L1255.82,3.22L1256.74,0L1291.86,-67.62L1292.78,-73.25L1325.12,-134.43L1326.05,-143.29L1355.62,-197.23L1356.54,-196.42L1357.46,-196.42L1372.25,-202.06L1373.17,-206.88L1416.61,-281.75L1417.53,-281.75L1441.56,-268.87L1442.48,-263.23L1458.19,-259.21L1460.96,-262.43L1461.89,-264.85L1491.46,-276.11L1492.38,-274.5L1530.27,-228.62L1533.96,-232.64L1534.89,-232.64L1582.94,-241.5L1583.86,-237.47L1599.57,-227.01L1603.27,-238.28L1604.19,-238.28L1634.69,-281.75L1635.61,-281.75L1785.31,-265.65L1786.24,-260.82L1829.67,-119.14L1830.59,-106.26L1874.95,1.61L1875.87,1.61L1929.47,-28.98L1930.39,-33.81L1992.3,-107.87L1993.23,-107.87L2097.65,-222.18L2098.57,-222.18L2117.98,-200.45L2118.9,-196.42L2184.51,-142.49L2185.44,-133.63L2241.8,-25.76L2242.73,-25.76L2273.22,0.8L2281.54,-6.44L2282.46,-8.86L2336.98,-78.89L2337.91,-83.72L2381.34,-183.54L2382.26,-190.78L2441.4,-281.75L2442.33,-281.75L2536.58,-258.4L2537.51,-250.35L2613.28,-115.11L2614.21,-115.11L2682.59,4.02L2683.51,4.02L2751.89,78.89L2752.82,78.89L2886.81,148.92L2887.73,148.92L3010.63,148.92L3011.56,148.92L3160.33,130.41L3169.65,132.02L2966.35,153.76L2923.84,153.76L2807.26,116.73L2805.41,116.73L2608.59,-102.24L2607.66,-107.07L2544.83,-210.91L2543.9,-214.94L2513.41,-280.14L2427.62,-280.14L2388.81,-181.93L2387.88,-173.08L2282.54,2.41L2277.92,2.41L2276.99,4.02L2244.5,-3.22L2242.65,-3.22L2173.35,-140.87L2172.42,-148.12L2144.7,-185.15L2142.85,-185.15L2104.04,-203.66L2103.12,-209.3L2100.35,-214.13L2019.18,-123.17L2017.33,-123.17L1936.93,-27.37L1936.01,-23.35L1886.11,3.22L1865.63,3.22L1801.87,-186.76L1800.95,-197.23L1764.91,-280.14L1629.22,-280.14L1606.11,-223.79L1582.86,-223.79L1580.09,-227.01L1579.17,-231.84L1534.04,-225.4L1510.79,-225.4L1491.38,-260.82L1490.46,-265.65L1461.96,-255.18L1441.48,-255.18L1424.85,-275.31L1423.92,-279.34L1388.03,-218.16L1387.11,-211.72L1373.25,-193.2L1357.54,-193.2L1356.61,-189.98L1354.77,-189.98L1337.21,-141.68L1335.36,-141.68L1309.49,-81.3L1307.64,-81.3L1290.08,-42.66L1288.23,-42.66L1262.36,8.05L1239.11,8.05L1211.39,-57.96L1210.46,-66.01L1147.63,-190.78L1146.7,-195.61L1117.13,-241.5L1116.21,-245.52L1089.41,-269.67L1088.49,-271.28L1055.37,-274.5L1054.44,-270.48L1047.05,-261.62L1046.13,-257.6L1038.73,-251.96L1037.81,-247.94L1030.42,-240.69L1029.49,-235.86L1024.87,-230.23L1023.95,-225.4L1019.33,-218.96L1018.4,-210.1L1016.56,-210.1L1015.63,-201.25L1013.78,-201.25L1012.86,-189.17L1011.01,-189.17L1010.09,-175.49L1008.24,-175.49L1007.31,-160.19L1005.47,-160.19L1004.54,-144.09L1002.69,-144.09L1001.77,-127.19L999.92,-127.19L999,-111.09L997.15,-111.09L996.23,-94.19L994.38,-94.19L993.45,-78.09L991.61,-78.09L990.68,-61.99L988.83,-61.99L987.91,-45.08L986.06,-45.08L985.14,-28.18L983.29,-28.18L982.36,-11.27L980.52,-11.27L979.59,5.63L977.74,5.63L976.82,24.15L974.97,24.15L974.05,41.06L972.2,41.06L971.28,57.96L969.43,57.96L968.5,75.67L966.66,75.67L965.73,91.77L963.88,91.77L962.96,106.26L961.11,106.26L960.19,119.95L958.34,119.95L957.41,133.63L955.57,133.63L954.64,144.9L952.79,144.9L951.87,154.56L950.02,154.56L949.1,163.42L947.25,163.42L946.33,169.05L941.71,173.88L940.78,177.91L925.07,185.15L924.15,187.57L873.18,191.59L872.25,189.98L862.09,184.35L861.16,180.32L856.54,177.91L855.62,174.69L851,170.66L850.07,165.83L845.45,161.81L844.53,157.78L839.91,152.95L838.99,146.51L834.36,141.68L833.44,135.24L831.59,135.24L830.67,128.8L826.05,123.17L825.12,115.92L823.28,115.92L822.35,109.48L820.5,109.48L819.58,102.23L817.73,102.23L816.81,95.79L814.96,95.79L814.04,89.35L812.19,89.35L811.26,82.11L809.41,82.11L808.49,75.67L806.64,75.67L805.72,68.43L803.87,68.43L802.95,61.18L801.1,61.18L800.17,54.74L798.33,54.74L797.4,48.3L795.55,48.3L794.63,41.86L792.78,41.86L791.86,35.42L790.01,35.42L789.09,28.98L787.24,28.98L786.31,22.54L784.46,22.54L783.54,16.1L781.69,16.1L780.77,9.66L778.92,9.66L778,2.41L776.15,2.41L775.22,-4.02L773.38,-4.02L772.45,-10.47L770.6,-10.47L769.68,-16.91L767.83,-16.91L766.91,-23.35L765.06,-23.35L764.14,-29.79L762.29,-29.79L761.36,-34.62L759.51,-34.62L758.59,-41.86L756.74,-41.86L755.82,-49.91L753.97,-49.91L753.05,-56.35L751.2,-56.35L750.27,-63.6L748.43,-63.6L747.5,-70.84L745.65,-70.84L744.73,-78.09L742.88,-78.09L741.96,-83.72L740.11,-83.72L739.19,-90.16L737.34,-90.16L736.41,-95.79L734.56,-95.79L733.64,-100.62L730.87,-100.62L729.94,-106.26L729.02,-106.26L728.1,-111.09L726.25,-111.09L725.32,-115.92L720.7,-119.95L719.78,-123.97L715.16,-127.99L714.24,-132.02L704.07,-132.82L703.15,-137.65L701.3,-137.65L700.37,-142.49L698.53,-142.49L697.6,-147.31L695.75,-147.31L694.83,-152.95L692.98,-152.95L692.06,-157.78L687.44,-161.8L686.51,-166.63L681.89,-170.66L680.97,-176.29L676.35,-180.32L675.42,-185.15L664.48,-198.84L663.56,-195.61L658.94,-191.59L658.01,-185.96L656.17,-185.96L655.24,-178.71L653.39,-178.71L652.47,-171.47L650.62,-171.47L649.7,-165.02L646.93,-165.02L646,-158.59L645.08,-158.59L644.15,-151.34L642.31,-151.34L641.38,-145.7L639.53,-145.7L638.61,-138.46L636.76,-138.46L635.84,-132.82L633.99,-132.82L633.06,-126.38L631.22,-126.38L630.29,-120.75L628.44,-120.75L627.52,-115.11L625.67,-115.11L624.75,-110.29L622.9,-110.29L621.98,-104.65L620.13,-104.65L619.2,-100.62L617.36,-100.62L616.43,-95.79L614.58,-95.79L613.66,-86.94L590.41,-88.55L589.49,-90.97L585.94,-81.3L584.09,-81.3L580.39,-67.62L578.54,-67.62L574.85,-53.13L573,-53.13L569.3,-39.44L567.46,-39.44L566.53,-33L563.76,-33L560.99,-20.93L559.14,-20.93L558.21,-9.66L556.37,-9.66L555.44,-7.25L529.42,-7.25L528.5,-8.86L526.65,-8.86L525.72,-10.47L523.88,-10.47L522.84,-12.08L522.18,-8.05L520.33,-8.05L519.4,-3.22L517.56,-3.22L516.63,2.41L514.78,2.41L513.86,8.86L512.01,8.86L511.09,14.49L509.24,14.49L508.31,20.13L506.47,20.13L505.54,26.57L503.69,26.57L502.77,37.84L500.92,37.84L500,40.25L498.15,40.25L497.23,42.67L495.38,42.67L494.45,44.28L492.61,44.28L491.68,46.69L489.83,46.69L488.91,47.5L465.66,47.5L464.74,46.69L462.89,46.69L461.96,45.89L460.11,45.89L459.19,44.28L456.57,44.28L455.64,47.5L453.79,47.5L452.87,51.52L451.02,51.52L450.1,55.55L448.25,55.55L447.33,65.21L424.08,65.21L423.15,64.4L412.99,64.4L407.44,64.4L406.52,62.79L404.67,62.79L403.75,61.99L401.9,61.99L400.97,61.18L399.13,61.18L398.2,58.77L396.35,58.77L395.55,58.06L394.65,61.18L392.81,61.18L391.88,70.84L390.03,70.84L389.11,72.45L387.26,72.45L386.34,73.25L384.49,73.25L383.56,74.86L381.72,74.86L380.79,75.67L378.94,75.67L378.02,77.28L376.17,77.28L375.25,78.89L373.4,78.89L372.48,80.5L370.63,80.5L369.7,82.11L367.86,82.11L366.93,83.72L365.08,83.72L364.16,85.33L362.31,85.33L361.39,87.74L359.54,87.74L358.61,89.35L356.77,89.35L355.84,90.16L353.99,90.16L353.07,91.77L351.22,91.77L350.3,93.38L348.45,93.38L347.53,94.99L345.68,94.99L344.75,97.4L342.91,97.4L341.98,99.01L340.13,99.01L339.21,102.23L337.36,102.23L336.44,111.89L334.59,111.89L333.66,112.7L331.82,112.7L330.89,114.31L329.04,114.31L328.12,116.73L326.27,116.73L325.35,119.14L322.58,119.14L321.65,123.17L320.73,123.17L319.8,126.39L317.96,126.39L317.03,130.41L315.18,130.41L314.26,133.63L312.41,133.63L311.49,137.66L309.64,137.66L308.71,140.88L306.87,140.88L305.94,144.9L304.09,144.9L303.17,148.92L301.32,148.92L300.4,152.14L298.55,152.14L297.63,156.17L295.78,156.17L294.85,158.58L293.01,158.58L292.08,162.61L290.23,162.61L289.31,166.64L287.46,166.64L286.54,170.66L284.69,170.66L283.76,176.3L281.92,176.3L280.99,185.96L279.14,185.96L278.22,186.76L273.6,186.76L272.68,188.37L240.33,188.37L239.41,189.18L237.56,189.18L236.64,190.79L234.79,190.79L233.86,193.2L232.02,193.2L231.09,196.42L229.24,196.42L228.32,199.64L226.47,199.64L225.55,209.3L223.7,209.3L222.78,210.11L220.93,210.11L220,211.71L218.16,211.71L217.23,214.13L215.38,214.13L214.46,216.55L212.61,216.55L211.69,218.15L209.84,218.15L208.91,221.38L207.07,221.38L206.14,223.79L204.29,223.79L203.37,226.21L201.52,226.21L200.6,228.62L198.75,228.62L197.83,231.04L195.98,231.04L195.05,233.45L193.21,233.45L192.28,235.87L190.43,235.87L189.51,238.28L187.66,238.28L186.74,239.89L184.89,239.89L183.96,242.31L182.12,242.31L181.19,243.92L179.34,243.92L178.42,247.14L176.57,247.14L175.65,249.55L173.8,249.55L172.88,252.77L171.03,252.77L170.1,261.63L146.85,261.63L145.93,260.82L144.08,260.82L143.16,260.02L135.76,260.02L134.84,259.21L132.99,259.21L132.07,258.4L127.45,258.4L126.52,256.79L124.68,256.79L123.75,255.19L121.9,255.19L120.98,254.38L119.13,254.38L118.21,252.77L116.36,252.77L115.44,251.16L114.76,251.16L114.66,251.96L94.18,251.96L93.26,248.75L91.41,248.75L90.49,246.33L88.64,246.33L87.71,243.92L85.86,243.92L84.94,242.31L83.09,242.31L82.17,239.09L80.32,239.09L79.4,237.48L77.55,237.48L76.62,236.67L74.78,236.67L73.85,234.26L72,234.26L71.08,233.45L68.46,233.45L67.53,235.06L65.68,235.06L64.76,236.67L62.91,236.67L61.99,239.09L60.14,239.09L59.21,248.75L57.37,248.75L56.44,249.55L54.59,249.55L53.67,251.16L51.82,251.16L50.9,252.77L49.05,252.77L48.13,255.99L46.28,255.99L45.35,259.21L43.51,259.21L42.58,264.04L39.81,264.04L38.89,268.87L37.96,268.87L37.04,274.51L35.19,274.51L34.26,280.14L32.42,280.14L31.49,286.58L29.64,286.58L28.72,293.83L26.87,293.83L25.95,301.07L24.1,301.07L23.18,308.32L21.33,308.32L20.4,316.37L18.56,316.37L17.63,323.61L15.78,323.61L14.86,330.05L13.01,330.05L12.09,338.1L10.24,338.1L9.31,346.15L7.47,346.15L6.54,352.59L4.69,352.59L3.77,367.89L1.92,367.89L1,372.72L-0.85,372.72L-1.77,377.55L-3.62,377.55L-4.55,382.38L-6.39,382.38L-7.32,388.01L-9.17,388.01L-10.09,392.84L-11.94,392.84L-12.86,397.67L-14.71,397.67L-15.64,403.31L-17.48,403.31L-18.41,408.14L-20.26,408.14L-21.18,412.97L-23.03,412.97L-23.95,416.19L-25.8,416.19L-26.72,421.02L-28.57,421.02L-29.5,426.65L-31.34,426.65L-32.27,432.29L-34.12,432.29L-35.04,436.31L-36.89,436.31L-37.81,441.14L-39.66,441.14L-40.59,445.97L-42.43,445.97L-43.36,450.8L-47.98,454.02L-48.9,458.85L-50.75,458.85L-51.67,470.12L-59.07,473.34L-59.99,475.76L-64.61,478.17L-65.54,480.59L-70.16,483L-71.08,485.42L-75.7,487.83L-76.62,491.05L-81.24,492.66L-82.17,494.27L-89.56,498.3L-90.49,500.71L-97.88,504.74L-98.8,507.96L-106.19,512.79L-107.12,519.23L-108.97,519.23L-109.89,520.03L-1506.31,524.86Z" style="fill: rgb(68, 68, 68); fill-opacity: 0.3; stroke-width: 0;"/></g></g><g class="errorbars"/><g class="lines"><path class="js-line" d="M-1506.31,524.86L-109.89,520.03L-108.97,519.23L-107.12,519.23L-106.19,512.79L-98.8,507.96L-97.88,504.74L-90.49,500.71L-89.56,498.3L-82.17,494.27L-81.24,492.66L-76.62,491.05L-75.7,487.83L-71.08,485.42L-70.16,483L-65.54,480.59L-64.61,478.17L-59.99,475.76L-59.07,473.34L-51.67,470.12L-50.75,458.85L-48.9,458.85L-47.98,454.02L-43.36,450.8L-42.43,445.97L-40.59,445.97L-39.66,441.14L-37.81,441.14L-36.89,436.31L-35.04,436.31L-34.12,432.29L-32.27,432.29L-31.34,426.65L-29.5,426.65L-28.57,421.02L-26.72,421.02L-25.8,416.19L-23.95,416.19L-23.03,412.97L-21.18,412.97L-20.26,408.14L-18.41,408.14L-17.48,403.31L-15.64,403.31L-14.71,397.67L-12.86,397.67L-11.94,392.84L-10.09,392.84L-9.17,388.01L-7.32,388.01L-6.39,382.38L-4.55,382.38L-3.62,377.55L-1.77,377.55L-0.85,372.72L1,372.72L1.92,367.89L3.77,367.89L4.69,352.59L6.54,352.59L7.47,346.15L9.31,346.15L10.24,338.1L12.09,338.1L13.01,330.05L14.86,330.05L15.78,323.61L17.63,323.61L18.56,316.37L20.4,316.37L21.33,308.32L23.18,308.32L24.1,301.07L25.95,301.07L26.87,293.83L28.72,293.83L29.64,286.58L31.49,286.58L32.42,280.14L34.26,280.14L35.19,274.51L37.04,274.51L37.96,268.87L38.89,268.87L39.81,264.04L42.58,264.04L43.51,259.21L45.35,259.21L46.28,255.99L48.13,255.99L49.05,252.77L50.9,252.77L51.82,251.16L53.67,251.16L54.59,249.55L56.44,249.55L57.37,248.75L59.21,248.75L60.14,239.09L61.99,239.09L62.91,236.67L64.76,236.67L65.68,235.06L67.53,235.06L68.46,233.45L71.08,233.45L72,234.26L73.85,234.26L74.78,236.67L76.62,236.67L77.55,237.48L79.4,237.48L80.32,239.09L82.17,239.09L83.09,242.31L84.94,242.31L85.86,243.92L87.71,243.92L88.64,246.33L90.49,246.33L91.41,248.75L93.26,248.75L94.18,251.96L114.66,251.96L114.76,251.16L115.44,251.16L116.36,252.77L118.21,252.77L119.13,254.38L120.98,254.38L121.9,255.19L123.75,255.19L124.68,256.79L126.52,256.79L127.45,258.4L132.07,258.4L132.99,259.21L134.84,259.21L135.76,260.02L143.16,260.02L144.08,260.82L145.93,260.82L146.85,261.63L170.1,261.63L171.03,252.77L172.88,252.77L173.8,249.55L175.65,249.55L176.57,247.14L178.42,247.14L179.34,243.92L181.19,243.92L182.12,242.31L183.96,242.31L184.89,239.89L186.74,239.89L187.66,238.28L189.51,238.28L190.43,235.87L192.28,235.87L193.21,233.45L195.05,233.45L195.98,231.04L197.83,231.04L198.75,228.62L200.6,228.62L201.52,226.21L203.37,226.21L204.29,223.79L206.14,223.79L207.07,221.38L208.91,221.38L209.84,218.15L211.69,218.15L212.61,216.55L214.46,216.55L215.38,214.13L217.23,214.13L218.16,211.71L220,211.71L220.93,210.11L222.78,210.11L223.7,209.3L225.55,209.3L226.47,199.64L228.32,199.64L229.24,196.42L231.09,196.42L232.02,193.2L233.86,193.2L234.79,190.79L236.64,190.79L237.56,189.18L239.41,189.18L240.33,188.37L272.68,188.37L273.6,186.76L278.22,186.76L279.14,185.96L280.99,185.96L281.92,176.3L283.76,176.3L284.69,170.66L286.54,170.66L287.46,166.64L289.31,166.64L290.23,162.61L292.08,162.61L293.01,158.58L294.85,158.58L295.78,156.17L297.63,156.17L298.55,152.14L300.4,152.14L301.32,148.92L303.17,148.92L304.09,144.9L305.94,144.9L306.87,140.88L308.71,140.88L309.64,137.66L311.49,137.66L312.41,133.63L314.26,133.63L315.18,130.41L317.03,130.41L317.96,126.39L319.8,126.39L320.73,123.17L321.65,123.17L322.58,119.14L325.35,119.14L326.27,116.73L328.12,116.73L329.04,114.31L330.89,114.31L331.82,112.7L333.66,112.7L334.59,111.89L336.44,111.89L337.36,102.23L339.21,102.23L340.13,99.01L341.98,99.01L342.91,97.4L344.75,97.4L345.68,94.99L347.53,94.99L348.45,93.38L350.3,93.38L351.22,91.77L353.07,91.77L353.99,90.16L355.84,90.16L356.77,89.35L358.61,89.35L359.54,87.74L361.39,87.74L362.31,85.33L364.16,85.33L365.08,83.72L366.93,83.72L367.86,82.11L369.7,82.11L370.63,80.5L372.48,80.5L373.4,78.89L375.25,78.89L376.17,77.28L378.02,77.28L378.94,75.67L380.79,75.67L381.72,74.86L383.56,74.86L384.49,73.25L386.34,73.25L387.26,72.45L389.11,72.45L390.03,70.84L391.88,70.84L392.81,61.18L394.65,61.18L395.55,58.06L396.35,58.77L398.2,58.77L399.13,61.18L400.97,61.18L401.9,61.99L403.75,61.99L404.67,62.79L406.52,62.79L407.44,64.4L412.99,64.4L423.15,64.4L424.08,65.21L447.33,65.21L448.25,55.55L450.1,55.55L451.02,51.52L452.87,51.52L453.79,47.5L455.64,47.5L456.57,44.28L459.19,44.28L460.11,45.89L461.96,45.89L462.89,46.69L464.74,46.69L465.66,47.5L488.91,47.5L489.83,46.69L491.68,46.69L492.61,44.28L494.45,44.28L495.38,42.67L497.23,42.67L498.15,40.25L500,40.25L500.92,37.84L502.77,37.84L503.69,26.57L505.54,26.57L506.47,20.13L508.31,20.13L509.24,14.49L511.09,14.49L512.01,8.86L513.86,8.86L514.78,2.41L516.63,2.41L517.56,-3.22L519.4,-3.22L520.33,-8.05L522.18,-8.05L522.84,-12.08L523.88,-10.47L525.72,-10.47L526.65,-8.86L528.5,-8.86L529.42,-7.25L555.44,-7.25L556.37,-9.66L558.21,-9.66L559.14,-20.93L560.99,-20.93L563.76,-33L566.53,-33L567.46,-39.44L569.3,-39.44L573,-53.13L574.85,-53.13L578.54,-67.62L580.39,-67.62L584.09,-81.3L585.94,-81.3L589.49,-90.97L590.41,-88.55L613.66,-86.94L614.58,-95.79L616.43,-95.79L617.36,-100.62L619.2,-100.62L620.13,-104.65L621.98,-104.65L622.9,-110.29L624.75,-110.29L625.67,-115.11L627.52,-115.11L628.44,-120.75L630.29,-120.75L631.22,-126.38L633.06,-126.38L633.99,-132.82L635.84,-132.82L636.76,-138.46L638.61,-138.46L639.53,-145.7L641.38,-145.7L642.31,-151.34L644.15,-151.34L645.08,-158.59L646,-158.59L646.93,-165.02L649.7,-165.02L650.62,-171.47L652.47,-171.47L653.39,-178.71L655.24,-178.71L656.17,-185.96L658.01,-185.96L658.94,-191.59L663.56,-195.61L664.48,-198.84L675.42,-185.15L676.35,-180.32L680.97,-176.29L681.89,-170.66L686.51,-166.63L687.44,-161.8L692.06,-157.78L692.98,-152.95L694.83,-152.95L695.75,-147.31L697.6,-147.31L698.53,-142.49L700.37,-142.49L701.3,-137.65L703.15,-137.65L704.07,-132.82L714.24,-132.02L715.16,-127.99L719.78,-123.97L720.7,-119.95L725.32,-115.92L726.25,-111.09L728.1,-111.09L729.02,-106.26L729.94,-106.26L730.87,-100.62L733.64,-100.62L734.56,-95.79L736.41,-95.79L737.34,-90.16L739.19,-90.16L740.11,-83.72L741.96,-83.72L742.88,-78.09L744.73,-78.09L745.65,-70.84L747.5,-70.84L748.43,-63.6L750.27,-63.6L751.2,-56.35L753.05,-56.35L753.97,-49.91L755.82,-49.91L756.74,-41.86L758.59,-41.86L759.51,-34.62L761.36,-34.62L762.29,-29.79L764.14,-29.79L765.06,-23.35L766.91,-23.35L767.83,-16.91L769.68,-16.91L770.6,-10.47L772.45,-10.47L773.38,-4.02L775.22,-4.02L776.15,2.41L778,2.41L778.92,9.66L780.77,9.66L781.69,16.1L783.54,16.1L784.46,22.54L786.31,22.54L787.24,28.98L789.09,28.98L790.01,35.42L791.86,35.42L792.78,41.86L794.63,41.86L795.55,48.3L797.4,48.3L798.33,54.74L800.17,54.74L801.1,61.18L802.95,61.18L803.87,68.43L805.72,68.43L806.64,75.67L808.49,75.67L809.41,82.11L811.26,82.11L812.19,89.35L814.04,89.35L814.96,95.79L816.81,95.79L817.73,102.23L819.58,102.23L820.5,109.48L822.35,109.48L823.28,115.92L825.12,115.92L826.05,123.17L830.67,128.8L831.59,135.24L833.44,135.24L834.36,141.68L838.99,146.51L839.91,152.95L844.53,157.78L845.45,161.81L850.07,165.83L851,170.66L855.62,174.69L856.54,177.91L861.16,180.32L862.09,184.35L872.25,189.98L873.18,191.59L924.15,187.57L925.07,185.15L940.78,177.91L941.71,173.88L946.33,169.05L947.25,163.42L949.1,163.42L950.02,154.56L951.87,154.56L952.79,144.9L954.64,144.9L955.57,133.63L957.41,133.63L958.34,119.95L960.19,119.95L961.11,106.26L962.96,106.26L963.88,91.77L965.73,91.77L966.66,75.67L968.5,75.67L969.43,57.96L971.28,57.96L972.2,41.06L974.05,41.06L974.97,24.15L976.82,24.15L977.74,5.63L979.59,5.63L980.52,-11.27L982.36,-11.27L983.29,-28.18L985.14,-28.18L986.06,-45.08L987.91,-45.08L988.83,-61.99L990.68,-61.99L991.61,-78.09L993.45,-78.09L994.38,-94.19L996.23,-94.19L997.15,-111.09L999,-111.09L999.92,-127.19L1001.77,-127.19L1002.69,-144.09L1004.54,-144.09L1005.47,-160.19L1007.31,-160.19L1008.24,-175.49L1010.09,-175.49L1011.01,-189.17L1012.86,-189.17L1013.78,-201.25L1015.63,-201.25L1016.56,-210.1L1018.4,-210.1L1019.33,-218.96L1023.95,-225.4L1024.87,-230.23L1029.49,-235.86L1030.42,-240.69L1037.81,-247.94L1038.73,-251.96L1046.13,-257.6L1047.05,-261.62L1054.44,-270.48L1055.37,-274.5L1088.49,-271.28L1089.41,-269.67L1116.21,-245.52L1117.13,-241.5L1146.7,-195.61L1147.63,-190.78L1210.46,-66.01L1211.39,-57.96L1239.11,8.05L1262.36,8.05L1288.23,-42.66L1290.08,-42.66L1307.64,-81.3L1309.49,-81.3L1335.36,-141.68L1337.21,-141.68L1354.77,-189.98L1356.61,-189.98L1357.54,-193.2L1373.25,-193.2L1387.11,-211.72L1388.03,-218.16L1423.92,-279.34L1424.85,-275.31L1441.48,-255.18L1461.96,-255.18L1490.46,-265.65L1491.38,-260.82L1510.79,-225.4L1534.04,-225.4L1579.17,-231.84L1580.09,-227.01L1582.86,-223.79L1606.11,-223.79L1629.22,-280.14L1764.91,-280.14L1800.95,-197.23L1801.87,-186.76L1865.63,3.22L1886.11,3.22L1936.01,-23.35L1936.93,-27.37L2017.33,-123.17L2019.18,-123.17L2100.35,-214.13L2103.12,-209.3L2104.04,-203.66L2142.85,-185.15L2144.7,-185.15L2172.42,-148.12L2173.35,-140.87L2242.65,-3.22L2244.5,-3.22L2276.99,4.02L2277.92,2.41L2282.54,2.41L2387.88,-173.08L2388.81,-181.93L2427.62,-280.14L2513.41,-280.14L2543.9,-214.94L2544.83,-210.91L2607.66,-107.07L2608.59,-102.24L2805.41,116.73L2807.26,116.73L2923.84,153.76L2966.35,153.76L3169.65,132.02" style="vector-effect: non-scaling-stroke; fill: none; stroke: rgb(44, 160, 44); stroke-opacity: 1; stroke-width: 0px; opacity: 1;"/></g><g class="points"/><g class="text"/></g><g class="trace scatter trace684bdf2b-34e7-4492-81d8-8e22d5139334" style="stroke-miterlimit: 2;"><g class="fills"><g><path class="js-fill" d="M-1506.31,521.64L-128.52,516.81L-127.6,516.01L-125.75,516.01L-124.82,509.57L-117.43,504.74L-116.51,501.52L-109.11,497.49L-108.19,495.08L-100.8,491.05L-99.87,489.44L-95.25,487.83L-94.33,484.61L-89.71,482.2L-88.79,479.78L-84.16,477.37L-83.24,474.95L-78.62,472.54L-77.7,470.12L-70.3,466.9L-69.38,455.63L-67.53,455.63L-66.61,450.8L-61.99,447.58L-61.06,442.75L-59.21,442.75L-58.29,437.92L-56.44,437.92L-55.52,433.09L-53.67,433.09L-52.75,429.07L-50.9,429.07L-49.97,423.43L-48.13,423.43L-47.2,417.8L-45.35,417.8L-44.43,412.97L-42.58,412.97L-41.66,409.75L-39.81,409.75L-38.89,404.92L-37.04,404.92L-36.11,400.09L-34.26,400.09L-33.34,394.45L-31.49,394.45L-30.57,389.62L-28.72,389.62L-27.8,384.79L-25.95,384.79L-25.02,379.16L-23.18,379.16L-22.25,374.33L-20.4,374.33L-19.48,369.5L-17.63,369.5L-16.71,364.67L-14.86,364.67L-13.94,349.37L-12.09,349.37L-11.16,342.93L-9.31,342.93L-8.39,334.88L-6.54,334.88L-5.62,326.83L-3.77,326.83L-2.85,320.39L-1,320.39L-0.07,313.15L1.77,313.15L2.7,305.1L4.55,305.1L5.47,297.85L7.32,297.85L8.24,290.61L10.09,290.61L11.01,283.36L12.86,283.36L13.79,276.92L15.64,276.92L16.56,271.28L18.41,271.28L19.33,265.65L20.26,265.65L21.18,260.82L23.95,260.82L24.88,255.99L26.72,255.99L27.65,252.77L29.5,252.77L30.42,249.55L32.27,249.55L33.19,247.94L35.04,247.94L35.96,246.33L37.81,246.33L38.74,245.53L40.59,245.53L41.51,235.87L43.36,235.87L44.28,233.45L46.13,233.45L47.05,231.84L48.9,231.84L49.83,230.23L54.45,230.23L55.37,229.43L57.22,229.43L58.14,228.62L86.94,228.62L87.86,230.23L89.71,230.23L90.63,231.04L92.48,231.04L93.41,233.45L95.25,233.45L96.18,234.26L98.03,234.26L98.95,235.87L100.8,235.87L101.72,239.09L103.57,239.09L104.49,240.7L106.34,240.7L106.65,241.5L117.43,241.5L118.36,242.31L120.2,242.31L121.13,243.11L122.98,243.11L123.9,244.72L128.52,244.72L129.44,246.33L131.29,246.33L132.22,247.94L134.06,247.94L134.99,249.55L136.84,249.55L137.76,251.16L139.61,251.16L140.53,251.96L142.38,251.96L143.31,253.58L145.15,253.58L146.08,255.19L150.7,255.19L151.62,255.99L152.4,249.55L154.25,249.55L155.17,246.33L157.02,246.33L157.94,243.92L159.79,243.92L160.71,240.7L162.56,240.7L163.49,239.09L165.34,239.09L166.26,236.67L168.11,236.67L169.03,235.06L170.88,235.06L171.8,232.65L173.65,232.65L174.58,230.23L176.42,230.23L177.35,227.82L179.2,227.82L180.12,225.4L181.97,225.4L182.89,222.99L184.74,222.99L185.66,220.57L187.51,220.57L188.44,218.15L190.29,218.15L191.21,214.94L193.06,214.94L193.98,213.33L195.83,213.33L196.75,210.91L198.6,210.91L199.53,208.5L201.37,208.5L202.3,206.89L204.15,206.89L205.07,206.08L206.92,206.08L207.84,196.42L209.69,196.42L210.61,193.2L212.46,193.2L213.39,189.98L215.24,189.98L216.16,187.57L218.01,187.57L218.93,185.96L220.78,185.96L221.7,185.15L223.55,185.15L224.48,184.35L254.51,184.35L254.97,183.54L259.59,183.54L260.51,182.74L262.36,182.74L263.29,173.08L265.14,173.08L266.06,167.44L267.91,167.44L268.83,163.42L270.68,163.42L271.6,159.39L273.45,159.39L274.38,155.37L276.22,155.37L277.15,152.95L279,152.95L279.92,148.92L281.77,148.92L282.69,145.71L284.54,145.71L285.46,141.68L287.31,141.68L288.24,137.66L290.09,137.66L291.01,134.44L292.86,134.44L293.78,130.41L295.63,130.41L296.55,127.19L298.4,127.19L299.33,123.17L301.17,123.17L302.1,119.95L303.02,119.95L303.95,115.92L306.72,115.92L307.64,113.51L309.49,113.51L310.41,111.09L312.26,111.09L313.19,109.48L315.04,109.48L315.96,108.68L317.81,108.68L318.73,99.01L320.58,99.01L321.5,95.79L323.35,95.79L324.28,94.19L326.12,94.19L327.05,91.77L328.9,91.77L329.82,90.16L331.67,90.16L332.59,88.55L334.44,88.55L335.36,86.94L337.21,86.94L338.14,86.14L339.99,86.14L340.91,84.52L342.76,84.52L343.68,82.11L345.53,82.11L346.45,80.5L348.3,80.5L349.23,78.89L351.07,78.89L352,77.28L353.85,77.28L354.77,75.67L356.62,75.67L357.54,74.06L359.39,74.06L360.31,72.45L362.16,72.45L363.09,71.64L364.94,71.64L365.86,70.04L367.71,70.04L368.63,69.23L370.48,69.23L371.4,67.62L373.25,67.62L374.18,57.96L376.02,57.96L376.95,54.74L378.8,54.74L379.72,52.33L381.57,52.33L382.49,51.52L408.51,51.52L409.44,53.13L411.29,53.13L412.21,54.74L414.06,54.74L414.98,55.55L416.83,55.55L417.76,57.96L419.6,57.96L420.53,58.77L422.38,58.77L423.3,59.57L425.15,59.57L425.61,60.38L428.85,60.38L429.62,52.33L431.47,52.33L432.39,48.3L434.24,48.3L435.16,44.28L437.01,44.28L437.94,41.06L439.79,41.06L440.71,38.64L442.56,38.64L443.48,37.03L445.33,37.03L446.25,35.42L466.73,35.42L467.66,36.23L469.5,36.23L470.43,37.03L472.28,37.03L473.2,38.64L475.05,38.64L475.91,40.9L476.75,39.44L478.6,39.44L479.52,37.03L481.37,37.03L482.29,34.62L484.14,34.62L485.06,23.35L486.91,23.35L487.84,16.9L489.69,16.9L490.61,11.27L492.46,11.27L493.38,5.63L495.23,5.63L496.15,-0.81L498,-0.81L498.93,-6.44L500.77,-6.44L501.7,-11.27L503.55,-11.27L504.47,-16.91L506.32,-16.91L507.24,-20.12L511.86,-20.93L512.79,-21.74L536.04,-20.93L536.96,-18.51L538.81,-18.51L539.73,-15.3L540.51,-24.15L542.36,-24.15L545.13,-36.22L547.9,-36.22L548.83,-42.66L550.67,-42.66L554.37,-56.35L556.22,-56.35L559.91,-70.84L561.76,-70.84L565.46,-84.52L567.31,-84.52L571,-96.6L572.85,-96.6L576.55,-102.24L578.4,-102.24L579.32,-103.04L598.57,-103.04L601.5,-107.87L603.35,-107.87L607.04,-118.34L608.89,-118.34L615.36,-136.04L617.21,-136.04L623.68,-154.56L625.52,-154.56L631.99,-174.68L633.84,-174.68L640.31,-194.81L642.16,-194.81L645.85,-202.06L650.47,-202.06L654.17,-210.91L674.65,-210.91L688.51,-197.23L689.43,-192.39L694.05,-188.37L694.98,-183.54L699.6,-179.51L700.52,-173.88L705.14,-169.85L706.07,-165.02L710.69,-161L711.61,-156.17L713.46,-156.17L714.38,-150.53L716.23,-150.53L717.16,-145.7L719,-145.7L719.93,-140.87L730.09,-138.46L731.02,-135.24L735.64,-131.21L736.56,-127.19L741.18,-123.17L742.11,-119.14L743.95,-119.14L744.88,-114.31L746.73,-114.31L747.65,-109.48L748.57,-109.48L749.5,-103.85L752.27,-103.85L753.19,-99.01L755.04,-99.01L755.97,-93.38L757.81,-93.38L758.74,-86.94L760.59,-86.94L761.51,-81.3L763.36,-81.3L764.28,-74.06L766.13,-74.06L767.06,-66.81L768.9,-66.81L769.83,-59.57L771.68,-59.57L772.6,-53.13L774.45,-53.13L775.37,-45.08L777.22,-45.08L778.14,-37.83L782.76,-33L783.69,-26.57L785.54,-26.57L786.46,-20.12L788.31,-20.12L789.23,-13.69L791.08,-13.69L792.01,-7.25L793.85,-7.25L794.78,-0.81L796.63,-0.81L797.55,6.44L799.4,6.44L800.32,12.88L802.17,12.88L803.09,19.32L804.94,19.32L805.87,25.76L807.71,25.76L808.64,32.2L810.49,32.2L811.41,38.64L813.26,38.64L814.18,45.08L816.03,45.08L816.96,51.52L818.8,51.52L819.73,57.96L821.58,57.96L822.5,65.21L824.35,65.21L825.27,72.45L827.12,72.45L828.04,78.89L829.89,78.89L830.82,86.14L832.66,86.14L833.59,92.57L835.44,92.57L836.36,99.01L838.21,99.01L839.13,106.26L840.98,106.26L841.91,112.7L843.75,112.7L844.68,119.95L849.3,125.58L850.22,132.02L852.07,132.02L852.99,138.46L857.61,143.29L858.54,149.73L863.16,154.56L864.08,158.58L868.7,162.61L869.63,167.44L874.25,171.46L875.17,174.69L882.56,181.13L883.49,183.54L908.29,181.93L909.21,181.13L922.15,174.69L923.08,170.66L927.7,165.83L928.62,160.2L930.47,160.2L931.39,151.34L933.24,151.34L934.16,141.68L936.01,141.68L936.94,130.41L938.79,130.41L939.71,116.73L941.56,116.73L942.48,103.04L944.33,103.04L945.25,88.55L947.1,88.55L948.03,72.45L949.87,72.45L950.8,54.74L952.65,54.74L953.57,37.84L955.42,37.84L956.34,20.93L958.19,20.93L959.11,2.41L960.96,2.41L961.89,-14.49L963.74,-14.49L964.66,-31.39L966.51,-31.39L967.43,-48.3L969.28,-48.3L970.2,-65.21L972.05,-65.21L972.98,-81.3L974.82,-81.3L975.75,-97.4L977.6,-97.4L978.52,-114.31L980.37,-114.31L981.29,-130.41L983.14,-130.41L984.06,-147.31L985.91,-147.31L986.84,-163.41L988.69,-163.41L989.61,-178.71L991.46,-178.71L992.38,-192.39L994.23,-192.39L995.15,-204.47L997,-204.47L997.93,-213.33L999.77,-213.33L1000.7,-222.18L1005.32,-228.62L1006.24,-233.45L1010.86,-239.08L1011.79,-243.91L1019.18,-251.16L1020.1,-255.18L1027.5,-260.82L1028.42,-264.85L1033.04,-269.67L1033.96,-273.7L1041.36,-281.75L1042.28,-283.36L1107.11,-274.5L1108.04,-272.89L1134.84,-248.74L1135.76,-244.72L1165.33,-198.84L1166.26,-194L1229.09,-69.23L1230.02,-61.18L1252.05,-5.63L1257.59,-16.1L1258.51,-21.74L1344.45,-198.84L1357.7,-198.84L1371.25,-221.37L1372.18,-228.62L1391.58,-283.36L1439.78,-283.36L1454.42,-266.46L1462.74,-275.31L1463.66,-277.73L1506.31,-272.89L1507.24,-268.87L1523.72,-232.64L1535.74,-241.5L1537.59,-241.5L1541.28,-244.72L1572.85,-244.72L1601.35,-254.38L1602.27,-261.62L1610.59,-283.36L1783.54,-283.36L1819.58,-200.45L1820.5,-189.98L1881.41,-1.74L1882.26,-3.22L1886.89,-3.22L1922.92,-35.42L1923.85,-41.05L1982.06,-109.48L1983.91,-109.48L2087.41,-223.79L2089.26,-223.79L2127.29,-202.06L2128.22,-198.03L2193.83,-144.09L2194.75,-135.24L2250.19,-27.37L2252.04,-27.37L2264.37,-2.41L2283.31,-20.12L2284.24,-24.15L2341.53,-107.87L2342.45,-113.5L2408.99,-283.36L2532.04,-283.36L2568.08,-211.72L2569,-208.49L2629.06,-105.46L2629.99,-99.82L2779.69,91.77L2781.54,91.77L2907.21,150.53L2947.72,150.53L3169.65,128.8L3160.33,130.41L3011.56,148.92L3010.63,148.92L2887.73,148.92L2886.81,148.92L2752.82,78.89L2751.89,78.89L2683.51,4.02L2682.59,4.02L2614.21,-115.11L2613.28,-115.11L2537.51,-250.35L2536.58,-258.4L2442.33,-281.75L2441.4,-281.75L2382.26,-190.78L2381.34,-183.54L2337.91,-83.72L2336.98,-78.89L2282.46,-8.86L2281.54,-6.44L2273.22,0.8L2242.73,-25.76L2241.8,-25.76L2185.44,-133.63L2184.51,-142.49L2118.9,-196.42L2117.98,-200.45L2098.57,-222.18L2097.65,-222.18L1993.23,-107.87L1992.3,-107.87L1930.39,-33.81L1929.47,-28.98L1875.87,1.61L1874.95,1.61L1830.59,-106.26L1829.67,-119.14L1786.24,-260.82L1785.31,-265.65L1635.61,-281.75L1634.69,-281.75L1604.19,-238.28L1603.27,-238.28L1599.57,-227.01L1583.86,-237.47L1582.94,-241.5L1534.89,-232.64L1533.96,-232.64L1530.27,-228.62L1492.38,-274.5L1491.46,-276.11L1461.89,-264.85L1460.96,-262.43L1458.19,-259.21L1442.48,-263.23L1441.56,-268.87L1417.53,-281.75L1416.61,-281.75L1373.17,-206.88L1372.25,-202.06L1357.46,-196.42L1356.54,-196.42L1355.62,-197.23L1326.05,-143.29L1325.12,-134.43L1292.78,-73.25L1291.86,-67.62L1256.74,0L1255.82,3.22L1253.04,6.44L1220.7,-59.57L1219.78,-67.62L1156.94,-192.39L1156.02,-197.23L1126.45,-243.11L1125.52,-247.13L1098.72,-271.28L1097.8,-272.89L1046.05,-276.11L1045.13,-272.09L1037.74,-263.23L1036.81,-259.21L1029.42,-253.57L1028.49,-249.55L1021.1,-242.3L1020.18,-237.47L1015.56,-231.84L1014.63,-227.01L1010.01,-220.57L1009.09,-211.72L1007.24,-211.72L1006.32,-202.86L1004.47,-202.86L1003.54,-190.78L1001.7,-190.78L1000.77,-177.1L998.92,-177.1L998,-161.8L996.15,-161.8L995.23,-145.7L993.38,-145.7L992.46,-128.8L990.61,-128.8L989.68,-112.7L987.84,-112.7L986.91,-95.79L985.06,-95.79L984.14,-79.7L982.29,-79.7L981.37,-63.6L979.52,-63.6L978.59,-46.69L976.75,-46.69L975.82,-29.79L973.97,-29.79L973.05,-12.88L971.2,-12.88L970.28,4.02L968.43,4.02L967.51,22.54L965.66,22.54L964.73,39.44L962.89,39.44L961.96,56.35L960.11,56.35L959.19,74.06L957.34,74.06L956.42,90.16L954.57,90.16L953.64,104.65L951.8,104.65L950.87,118.33L949.02,118.33L948.1,132.02L946.25,132.02L945.33,143.29L943.48,143.29L942.56,152.95L940.71,152.95L939.78,161.81L935.16,167.44L934.24,172.27L929.62,176.3L928.69,177.91L915.76,183.54L914.83,185.96L882.49,189.98L881.57,188.37L871.4,182.74L870.48,178.71L865.86,176.3L864.93,173.08L860.31,169.05L859.39,164.22L854.77,160.2L853.84,156.17L849.22,151.34L848.3,144.9L843.68,140.07L842.76,133.63L840.91,133.63L839.98,127.19L835.36,121.56L834.44,114.31L832.59,114.31L831.67,107.87L829.82,107.87L828.89,100.63L827.05,100.63L826.12,94.19L824.27,94.19L823.35,87.74L821.5,87.74L820.58,80.5L818.73,80.5L817.81,74.06L815.96,74.06L815.03,66.82L813.19,66.82L812.26,59.57L810.41,59.57L809.49,53.13L807.64,53.13L806.72,46.69L804.87,46.69L803.94,40.25L802.1,40.25L801.17,33.81L799.32,33.81L798.4,27.37L796.55,27.37L795.63,20.93L793.78,20.93L792.86,14.49L791.01,14.49L790.08,8.05L788.24,8.05L787.31,0.8L785.46,0.8L784.54,-5.63L782.69,-5.63L781.77,-12.08L779.92,-12.08L778.99,-18.51L777.15,-18.51L776.22,-24.96L774.37,-24.96L773.45,-31.39L768.83,-36.22L767.91,-43.47L766.06,-43.47L765.13,-51.52L763.29,-51.52L762.36,-57.96L760.51,-57.96L759.59,-65.21L757.74,-65.21L756.82,-72.45L754.97,-72.45L754.04,-79.7L752.2,-79.7L751.27,-85.33L749.42,-85.33L748.5,-91.77L746.65,-91.77L745.73,-97.4L743.88,-97.4L742.96,-102.24L740.18,-102.24L739.26,-107.87L738.34,-107.87L737.41,-112.7L735.56,-112.7L734.64,-117.53L732.79,-117.53L731.87,-121.56L727.25,-125.58L726.32,-129.61L721.7,-133.63L720.78,-136.85L716.16,-138.46L715.23,-134.43L713.39,-134.43L712.46,-139.26L710.61,-139.26L709.69,-144.09L707.84,-144.09L706.92,-148.92L705.07,-148.92L704.14,-154.56L702.3,-154.56L701.37,-159.39L696.75,-163.41L695.83,-168.24L691.21,-172.27L690.28,-177.9L688.44,-177.9L687.51,-181.93L682.89,-186.76L681.97,-190.78L677.35,-195.61L676.42,-199.64L671.8,-203.66L670.88,-206.88L660.71,-208.49L659.79,-200.45L655.17,-200.45L654.24,-197.23L649.62,-193.2L648.7,-187.57L646.85,-187.57L645.93,-180.32L644.08,-180.32L643.16,-173.08L641.31,-173.08L640.38,-166.63L637.61,-166.63L636.69,-160.19L635.76,-160.19L634.84,-152.95L632.99,-152.95L632.07,-147.31L630.22,-147.31L629.29,-140.07L627.45,-140.07L626.52,-134.43L624.67,-134.43L623.75,-127.99L621.9,-127.99L620.98,-122.36L619.13,-122.36L618.21,-116.73L616.36,-116.73L615.43,-111.89L613.59,-111.89L612.66,-106.26L610.81,-106.26L609.89,-102.24L608.04,-102.24L607.12,-97.4L605.27,-97.4L604.34,-88.55L602.5,-88.55L601.57,-90.16L596.95,-92.58L596.03,-96.6L594.18,-96.6L593.26,-99.82L583.09,-99.01L582.17,-94.99L580.32,-94.99L579.39,-89.36L577.55,-89.36L576.62,-82.91L574.77,-82.91L573.85,-75.67L572,-75.67L571.08,-69.23L569.23,-69.23L568.31,-61.99L566.46,-61.99L565.53,-54.74L563.69,-54.74L562.76,-47.49L560.91,-47.49L559.99,-41.05L558.14,-41.05L557.22,-34.62L554.44,-34.62L553.52,-28.98L552.6,-28.98L551.67,-22.54L549.82,-22.54L548.9,-11.27L547.05,-11.27L546.13,-8.86L538.74,-8.86L537.81,-10.47L535.96,-10.47L535.04,-12.08L533.19,-12.08L532.27,-13.69L530.42,-13.69L529.49,-16.91L527.65,-16.91L526.72,-19.32L522.1,-20.12L521.18,-19.32L516.56,-18.51L515.63,-15.3L513.79,-15.3L512.86,-9.66L511.01,-9.66L510.09,-4.83L508.24,-4.83L507.32,0.8L505.47,0.8L504.54,7.25L502.7,7.25L501.77,12.88L499.92,12.88L499,18.51L497.15,18.51L496.23,24.95L494.38,24.95L493.46,36.23L491.61,36.23L490.68,38.64L488.84,38.64L487.91,41.06L486.06,41.06L485.14,42.67L483.29,42.67L482.37,45.08L480.52,45.08L479.59,45.89L474.97,45.89L474.05,45.08L472.2,45.08L471.28,44.28L469.43,44.28L468.51,42.67L466.66,42.67L465.73,40.25L463.89,40.25L462.96,38.64L461.11,38.64L460.19,37.84L458.34,37.84L457.42,37.03L455.57,37.03L454.64,38.64L452.8,38.64L451.87,40.25L450.02,40.25L449.1,42.67L447.25,42.67L446.33,45.89L444.48,45.89L443.56,49.91L441.71,49.91L440.78,53.94L438.94,53.94L438.01,63.6L433.39,63.6L432.47,62.79L422.3,62.79L421.38,61.99L419.53,61.99L418.61,62.79L416.76,62.79L415.83,61.18L413.99,61.18L413.06,60.38L411.21,60.38L410.29,59.57L408.44,59.57L407.52,57.16L405.67,57.16L404.74,56.35L402.9,56.35L401.97,54.74L400.12,54.74L399.2,53.13L391.81,53.13L390.88,53.94L389.04,53.94L388.11,56.35L386.26,56.35L385.34,59.57L383.49,59.57L382.57,69.23L380.72,69.23L379.79,70.84L377.95,70.84L377.02,71.64L375.17,71.64L374.25,73.25L372.4,73.25L371.48,74.06L369.63,74.06L368.71,75.67L366.86,75.67L365.93,77.28L364.09,77.28L363.16,78.89L361.31,78.89L360.39,80.5L358.54,80.5L357.62,82.11L355.77,82.11L354.84,83.72L353,83.72L352.07,86.14L350.22,86.14L349.3,87.74L347.45,87.74L346.53,88.55L344.68,88.55L343.76,90.16L341.91,90.16L340.98,91.77L339.14,91.77L338.21,93.38L336.36,93.38L335.44,95.79L333.59,95.79L332.67,97.4L330.82,97.4L329.89,100.63L328.05,100.63L327.12,110.28L325.27,110.28L324.35,111.09L322.5,111.09L321.58,112.7L319.73,112.7L318.81,115.12L316.96,115.12L316.03,117.53L313.26,117.53L312.34,121.56L311.41,121.56L310.49,124.77L308.64,124.77L307.72,128.8L305.87,128.8L304.94,132.02L303.1,132.02L302.17,136.05L300.32,136.05L299.4,139.27L297.55,139.27L296.63,143.29L294.78,143.29L293.86,147.32L292.01,147.32L291.08,150.53L289.24,150.53L288.31,154.56L286.46,154.56L285.54,156.97L283.69,156.97L282.77,161L280.92,161L279.99,165.02L278.15,165.02L277.22,169.05L275.37,169.05L274.45,174.69L272.6,174.69L271.68,184.35L269.83,184.35L268.91,185.15L264.29,185.15L263.36,186.76L247.65,186.76L246.73,185.96L233.79,185.96L232.87,186.76L231.02,186.76L230.09,187.57L228.25,187.57L227.32,189.18L225.47,189.18L224.55,191.59L222.7,191.59L221.78,194.81L219.93,194.81L219.01,198.03L217.16,198.03L216.23,207.69L214.39,207.69L213.46,208.5L211.61,208.5L210.69,210.11L208.84,210.11L207.92,212.52L206.07,212.52L205.14,214.94L203.3,214.94L202.37,216.55L200.52,216.55L199.6,219.77L197.75,219.77L196.83,222.18L194.98,222.18L194.06,224.6L192.21,224.6L191.28,227.01L189.44,227.01L188.51,229.43L186.66,229.43L185.74,231.84L183.89,231.84L182.97,234.26L181.12,234.26L180.19,236.67L178.35,236.67L177.42,238.28L175.57,238.28L174.65,240.7L172.8,240.7L171.88,242.31L170.03,242.31L169.11,245.53L167.26,245.53L166.33,247.94L164.49,247.94L163.56,251.16L161.71,251.16L160.79,260.02L156.17,260.02L155.24,259.21L153.4,259.21L152.47,258.4L145.08,258.4L144.16,257.6L142.31,257.6L141.38,256.79L136.76,256.79L135.84,255.19L133.99,255.19L133.07,253.58L131.22,253.58L130.29,252.77L128.45,252.77L127.52,251.16L125.67,251.16L124.75,249.55L122.9,249.55L121.98,247.94L120.13,247.94L119.21,246.33L114.59,246.33L113.66,244.72L111.81,244.72L110.89,243.92L109.04,243.92L108.12,243.11L106.27,243.11L105.34,250.35L103.5,250.35L102.57,247.14L100.72,247.14L99.8,244.72L97.95,244.72L97.03,242.31L95.18,242.31L94.26,240.7L92.41,240.7L91.48,237.48L89.64,237.48L88.71,235.87L86.86,235.87L85.94,235.06L84.09,235.06L83.17,232.65L81.32,232.65L80.39,231.84L78.55,231.84L77.62,230.23L73,230.23L72.08,231.04L70.23,231.04L69.31,230.23L67.46,230.23L66.53,231.04L64.69,231.04L63.76,231.84L59.14,231.84L58.22,233.45L56.37,233.45L55.44,235.06L53.6,235.06L52.67,237.48L50.82,237.48L49.9,247.14L48.05,247.14L47.13,247.94L45.28,247.94L44.36,249.55L42.51,249.55L41.58,251.16L39.74,251.16L38.81,254.38L36.96,254.38L36.04,257.6L34.19,257.6L33.27,262.43L30.49,262.43L29.57,267.26L28.65,267.26L27.72,272.9L25.87,272.9L24.95,278.53L23.1,278.53L22.18,284.97L20.33,284.97L19.41,292.22L17.56,292.22L16.63,299.46L14.79,299.46L13.86,306.71L12.01,306.71L11.09,314.76L9.24,314.76L8.32,322L6.47,322L5.54,328.44L3.7,328.44L2.77,336.49L0.92,336.49L0,344.54L-1.85,344.54L-2.77,350.98L-4.62,350.98L-5.54,366.28L-7.39,366.28L-8.32,371.11L-10.16,371.11L-11.09,375.94L-12.94,375.94L-13.86,380.77L-15.71,380.77L-16.63,386.4L-18.48,386.4L-19.41,391.23L-21.25,391.23L-22.18,396.06L-24.03,396.06L-24.95,401.7L-26.8,401.7L-27.72,406.53L-29.57,406.53L-30.49,411.36L-32.34,411.36L-33.27,414.58L-35.11,414.58L-36.04,419.41L-37.89,419.41L-38.81,425.04L-40.66,425.04L-41.58,430.68L-43.43,430.68L-44.36,434.7L-46.2,434.7L-47.13,439.53L-48.98,439.53L-49.9,444.36L-51.75,444.36L-52.67,449.19L-57.29,452.41L-58.22,457.24L-60.06,457.24L-60.99,468.51L-68.38,471.73L-69.31,474.15L-73.93,476.56L-74.85,478.98L-79.47,481.39L-80.39,483.81L-85.01,486.22L-85.94,489.44L-90.56,491.05L-91.48,492.66L-98.88,496.69L-99.8,499.1L-107.19,503.13L-108.12,506.35L-115.51,511.18L-116.43,517.62L-118.28,517.62L-119.21,518.42L-1497,523.25Z" style="fill: rgb(68, 68, 68); fill-opacity: 0.3; stroke-width: 0;"/></g></g><g class="errorbars"/><g class="lines"><path class="js-line" d="M-1497,523.25L-119.21,518.42L-118.28,517.62L-116.43,517.62L-115.51,511.18L-108.12,506.35L-107.19,503.13L-99.8,499.1L-98.88,496.69L-91.48,492.66L-90.56,491.05L-85.94,489.44L-85.01,486.22L-80.39,483.81L-79.47,481.39L-74.85,478.98L-73.93,476.56L-69.31,474.15L-68.38,471.73L-60.99,468.51L-60.06,457.24L-58.22,457.24L-57.29,452.41L-52.67,449.19L-51.75,444.36L-49.9,444.36L-48.98,439.53L-47.13,439.53L-46.2,434.7L-44.36,434.7L-43.43,430.68L-41.58,430.68L-40.66,425.04L-38.81,425.04L-37.89,419.41L-36.04,419.41L-35.11,414.58L-33.27,414.58L-32.34,411.36L-30.49,411.36L-29.57,406.53L-27.72,406.53L-26.8,401.7L-24.95,401.7L-24.03,396.06L-22.18,396.06L-21.25,391.23L-19.41,391.23L-18.48,386.4L-16.63,386.4L-15.71,380.77L-13.86,380.77L-12.94,375.94L-11.09,375.94L-10.16,371.11L-8.32,371.11L-7.39,366.28L-5.54,366.28L-4.62,350.98L-2.77,350.98L-1.85,344.54L0,344.54L0.92,336.49L2.77,336.49L3.7,328.44L5.54,328.44L6.47,322L8.32,322L9.24,314.76L11.09,314.76L12.01,306.71L13.86,306.71L14.79,299.46L16.63,299.46L17.56,292.22L19.41,292.22L20.33,284.97L22.18,284.97L23.1,278.53L24.95,278.53L25.87,272.9L27.72,272.9L28.65,267.26L29.57,267.26L30.49,262.43L33.27,262.43L34.19,257.6L36.04,257.6L36.96,254.38L38.81,254.38L39.74,251.16L41.58,251.16L42.51,249.55L44.36,249.55L45.28,247.94L47.13,247.94L48.05,247.14L49.9,247.14L50.82,237.48L52.67,237.48L53.6,235.06L55.44,235.06L56.37,233.45L58.22,233.45L59.14,231.84L63.76,231.84L64.69,231.04L66.53,231.04L67.46,230.23L69.31,230.23L70.23,231.04L72.08,231.04L73,230.23L77.62,230.23L78.55,231.84L80.39,231.84L81.32,232.65L83.17,232.65L84.09,235.06L85.94,235.06L86.86,235.87L88.71,235.87L89.64,237.48L91.48,237.48L92.41,240.7L94.26,240.7L95.18,242.31L97.03,242.31L97.95,244.72L99.8,244.72L100.72,247.14L102.57,247.14L103.5,250.35L105.34,250.35L106.27,243.11L108.12,243.11L109.04,243.92L110.89,243.92L111.81,244.72L113.66,244.72L114.59,246.33L119.21,246.33L120.13,247.94L121.98,247.94L122.9,249.55L124.75,249.55L125.67,251.16L127.52,251.16L128.45,252.77L130.29,252.77L131.22,253.58L133.07,253.58L133.99,255.19L135.84,255.19L136.76,256.79L141.38,256.79L142.31,257.6L144.16,257.6L145.08,258.4L152.47,258.4L153.4,259.21L155.24,259.21L156.17,260.02L160.79,260.02L161.71,251.16L163.56,251.16L164.49,247.94L166.33,247.94L167.26,245.53L169.11,245.53L170.03,242.31L171.88,242.31L172.8,240.7L174.65,240.7L175.57,238.28L177.42,238.28L178.35,236.67L180.19,236.67L181.12,234.26L182.97,234.26L183.89,231.84L185.74,231.84L186.66,229.43L188.51,229.43L189.44,227.01L191.28,227.01L192.21,224.6L194.06,224.6L194.98,222.18L196.83,222.18L197.75,219.77L199.6,219.77L200.52,216.55L202.37,216.55L203.3,214.94L205.14,214.94L206.07,212.52L207.92,212.52L208.84,210.11L210.69,210.11L211.61,208.5L213.46,208.5L214.39,207.69L216.23,207.69L217.16,198.03L219.01,198.03L219.93,194.81L221.78,194.81L222.7,191.59L224.55,191.59L225.47,189.18L227.32,189.18L228.25,187.57L230.09,187.57L231.02,186.76L232.87,186.76L233.79,185.96L246.73,185.96L247.65,186.76L263.36,186.76L264.29,185.15L268.91,185.15L269.83,184.35L271.68,184.35L272.6,174.69L274.45,174.69L275.37,169.05L277.22,169.05L278.15,165.02L279.99,165.02L280.92,161L282.77,161L283.69,156.97L285.54,156.97L286.46,154.56L288.31,154.56L289.24,150.53L291.08,150.53L292.01,147.32L293.86,147.32L294.78,143.29L296.63,143.29L297.55,139.27L299.4,139.27L300.32,136.05L302.17,136.05L303.1,132.02L304.94,132.02L305.87,128.8L307.72,128.8L308.64,124.77L310.49,124.77L311.41,121.56L312.34,121.56L313.26,117.53L316.03,117.53L316.96,115.12L318.81,115.12L319.73,112.7L321.58,112.7L322.5,111.09L324.35,111.09L325.27,110.28L327.12,110.28L328.05,100.63L329.89,100.63L330.82,97.4L332.67,97.4L333.59,95.79L335.44,95.79L336.36,93.38L338.21,93.38L339.14,91.77L340.98,91.77L341.91,90.16L343.76,90.16L344.68,88.55L346.53,88.55L347.45,87.74L349.3,87.74L350.22,86.14L352.07,86.14L353,83.72L354.84,83.72L355.77,82.11L357.62,82.11L358.54,80.5L360.39,80.5L361.31,78.89L363.16,78.89L364.09,77.28L365.93,77.28L366.86,75.67L368.71,75.67L369.63,74.06L371.48,74.06L372.4,73.25L374.25,73.25L375.17,71.64L377.02,71.64L377.95,70.84L379.79,70.84L380.72,69.23L382.57,69.23L383.49,59.57L385.34,59.57L386.26,56.35L388.11,56.35L389.04,53.94L390.88,53.94L391.81,53.13L399.2,53.13L400.12,54.74L401.97,54.74L402.9,56.35L404.74,56.35L405.67,57.16L407.52,57.16L408.44,59.57L410.29,59.57L411.21,60.38L413.06,60.38L413.99,61.18L415.83,61.18L416.76,62.79L418.61,62.79L419.53,61.99L421.38,61.99L422.3,62.79L432.47,62.79L433.39,63.6L438.01,63.6L438.94,53.94L440.78,53.94L441.71,49.91L443.56,49.91L444.48,45.89L446.33,45.89L447.25,42.67L449.1,42.67L450.02,40.25L451.87,40.25L452.8,38.64L454.64,38.64L455.57,37.03L457.42,37.03L458.34,37.84L460.19,37.84L461.11,38.64L462.96,38.64L463.89,40.25L465.73,40.25L466.66,42.67L468.51,42.67L469.43,44.28L471.28,44.28L472.2,45.08L474.05,45.08L474.97,45.89L479.59,45.89L480.52,45.08L482.37,45.08L483.29,42.67L485.14,42.67L486.06,41.06L487.91,41.06L488.84,38.64L490.68,38.64L491.61,36.23L493.46,36.23L494.38,24.95L496.23,24.95L497.15,18.51L499,18.51L499.92,12.88L501.77,12.88L502.7,7.25L504.54,7.25L505.47,0.8L507.32,0.8L508.24,-4.83L510.09,-4.83L511.01,-9.66L512.86,-9.66L513.79,-15.3L515.63,-15.3L516.56,-18.51L521.18,-19.32L522.1,-20.12L526.72,-19.32L527.65,-16.91L529.49,-16.91L530.42,-13.69L532.27,-13.69L533.19,-12.08L535.04,-12.08L535.96,-10.47L537.81,-10.47L538.74,-8.86L546.13,-8.86L547.05,-11.27L548.9,-11.27L549.82,-22.54L551.67,-22.54L552.6,-28.98L553.52,-28.98L554.44,-34.62L557.22,-34.62L558.14,-41.05L559.99,-41.05L560.91,-47.49L562.76,-47.49L563.69,-54.74L565.53,-54.74L566.46,-61.99L568.31,-61.99L569.23,-69.23L571.08,-69.23L572,-75.67L573.85,-75.67L574.77,-82.91L576.62,-82.91L577.55,-89.36L579.39,-89.36L580.32,-94.99L582.17,-94.99L583.09,-99.01L593.26,-99.82L594.18,-96.6L596.03,-96.6L596.95,-92.58L601.57,-90.16L602.5,-88.55L604.34,-88.55L605.27,-97.4L607.12,-97.4L608.04,-102.24L609.89,-102.24L610.81,-106.26L612.66,-106.26L613.59,-111.89L615.43,-111.89L616.36,-116.73L618.21,-116.73L619.13,-122.36L620.98,-122.36L621.9,-127.99L623.75,-127.99L624.67,-134.43L626.52,-134.43L627.45,-140.07L629.29,-140.07L630.22,-147.31L632.07,-147.31L632.99,-152.95L634.84,-152.95L635.76,-160.19L636.69,-160.19L637.61,-166.63L640.38,-166.63L641.31,-173.08L643.16,-173.08L644.08,-180.32L645.93,-180.32L646.85,-187.57L648.7,-187.57L649.62,-193.2L654.24,-197.23L655.17,-200.45L659.79,-200.45L660.71,-208.49L670.88,-206.88L671.8,-203.66L676.42,-199.64L677.35,-195.61L681.97,-190.78L682.89,-186.76L687.51,-181.93L688.44,-177.9L690.28,-177.9L691.21,-172.27L695.83,-168.24L696.75,-163.41L701.37,-159.39L702.3,-154.56L704.14,-154.56L705.07,-148.92L706.92,-148.92L707.84,-144.09L709.69,-144.09L710.61,-139.26L712.46,-139.26L713.39,-134.43L715.23,-134.43L716.16,-138.46L720.78,-136.85L721.7,-133.63L726.32,-129.61L727.25,-125.58L731.87,-121.56L732.79,-117.53L734.64,-117.53L735.56,-112.7L737.41,-112.7L738.34,-107.87L739.26,-107.87L740.18,-102.24L742.96,-102.24L743.88,-97.4L745.73,-97.4L746.65,-91.77L748.5,-91.77L749.42,-85.33L751.27,-85.33L752.2,-79.7L754.04,-79.7L754.97,-72.45L756.82,-72.45L757.74,-65.21L759.59,-65.21L760.51,-57.96L762.36,-57.96L763.29,-51.52L765.13,-51.52L766.06,-43.47L767.91,-43.47L768.83,-36.22L773.45,-31.39L774.37,-24.96L776.22,-24.96L777.15,-18.51L778.99,-18.51L779.92,-12.08L781.77,-12.08L782.69,-5.63L784.54,-5.63L785.46,0.8L787.31,0.8L788.24,8.05L790.08,8.05L791.01,14.49L792.86,14.49L793.78,20.93L795.63,20.93L796.55,27.37L798.4,27.37L799.32,33.81L801.17,33.81L802.1,40.25L803.94,40.25L804.87,46.69L806.72,46.69L807.64,53.13L809.49,53.13L810.41,59.57L812.26,59.57L813.19,66.82L815.03,66.82L815.96,74.06L817.81,74.06L818.73,80.5L820.58,80.5L821.5,87.74L823.35,87.74L824.27,94.19L826.12,94.19L827.05,100.63L828.89,100.63L829.82,107.87L831.67,107.87L832.59,114.31L834.44,114.31L835.36,121.56L839.98,127.19L840.91,133.63L842.76,133.63L843.68,140.07L848.3,144.9L849.22,151.34L853.84,156.17L854.77,160.2L859.39,164.22L860.31,169.05L864.93,173.08L865.86,176.3L870.48,178.71L871.4,182.74L881.57,188.37L882.49,189.98L914.83,185.96L915.76,183.54L928.69,177.91L929.62,176.3L934.24,172.27L935.16,167.44L939.78,161.81L940.71,152.95L942.56,152.95L943.48,143.29L945.33,143.29L946.25,132.02L948.1,132.02L949.02,118.33L950.87,118.33L951.8,104.65L953.64,104.65L954.57,90.16L956.42,90.16L957.34,74.06L959.19,74.06L960.11,56.35L961.96,56.35L962.89,39.44L964.73,39.44L965.66,22.54L967.51,22.54L968.43,4.02L970.28,4.02L971.2,-12.88L973.05,-12.88L973.97,-29.79L975.82,-29.79L976.75,-46.69L978.59,-46.69L979.52,-63.6L981.37,-63.6L982.29,-79.7L984.14,-79.7L985.06,-95.79L986.91,-95.79L987.84,-112.7L989.68,-112.7L990.61,-128.8L992.46,-128.8L993.38,-145.7L995.23,-145.7L996.15,-161.8L998,-161.8L998.92,-177.1L1000.77,-177.1L1001.7,-190.78L1003.54,-190.78L1004.47,-202.86L1006.32,-202.86L1007.24,-211.72L1009.09,-211.72L1010.01,-220.57L1014.63,-227.01L1015.56,-231.84L1020.18,-237.47L1021.1,-242.3L1028.49,-249.55L1029.42,-253.57L1036.81,-259.21L1037.74,-263.23L1045.13,-272.09L1046.05,-276.11L1097.8,-272.89L1098.72,-271.28L1125.52,-247.13L1126.45,-243.11L1156.02,-197.23L1156.94,-192.39L1219.78,-67.62L1220.7,-59.57L1253.04,6.44L1255.82,3.22L1256.74,0L1291.86,-67.62L1292.78,-73.25L1325.12,-134.43L1326.05,-143.29L1355.62,-197.23L1356.54,-196.42L1357.46,-196.42L1372.25,-202.06L1373.17,-206.88L1416.61,-281.75L1417.53,-281.75L1441.56,-268.87L1442.48,-263.23L1458.19,-259.21L1460.96,-262.43L1461.89,-264.85L1491.46,-276.11L1492.38,-274.5L1530.27,-228.62L1533.96,-232.64L1534.89,-232.64L1582.94,-241.5L1583.86,-237.47L1599.57,-227.01L1603.27,-238.28L1604.19,-238.28L1634.69,-281.75L1635.61,-281.75L1785.31,-265.65L1786.24,-260.82L1829.67,-119.14L1830.59,-106.26L1874.95,1.61L1875.87,1.61L1929.47,-28.98L1930.39,-33.81L1992.3,-107.87L1993.23,-107.87L2097.65,-222.18L2098.57,-222.18L2117.98,-200.45L2118.9,-196.42L2184.51,-142.49L2185.44,-133.63L2241.8,-25.76L2242.73,-25.76L2273.22,0.8L2281.54,-6.44L2282.46,-8.86L2336.98,-78.89L2337.91,-83.72L2381.34,-183.54L2382.26,-190.78L2441.4,-281.75L2442.33,-281.75L2536.58,-258.4L2537.51,-250.35L2613.28,-115.11L2614.21,-115.11L2682.59,4.02L2683.51,4.02L2751.89,78.89L2752.82,78.89L2886.81,148.92L2887.73,148.92L3010.63,148.92L3011.56,148.92L3160.33,130.41" style="vector-effect: non-scaling-stroke; fill: none; stroke: rgb(214, 39, 40); stroke-opacity: 1; stroke-width: 1px; opacity: 1;"/></g><g class="points"/><g class="text"/></g><g class="trace scatter traceddd386ce-2e2e-4937-9871-2d39583799ad" style="stroke-miterlimit: 2;"><g class="fills"/><g class="errorbars"/><g class="lines"><path class="js-line" d="M-1506.31,521.64L-128.52,516.81L-127.6,516.01L-125.75,516.01L-124.82,509.57L-117.43,504.74L-116.51,501.52L-109.11,497.49L-108.19,495.08L-100.8,491.05L-99.87,489.44L-95.25,487.83L-94.33,484.61L-89.71,482.2L-88.79,479.78L-84.16,477.37L-83.24,474.95L-78.62,472.54L-77.7,470.12L-70.3,466.9L-69.38,455.63L-67.53,455.63L-66.61,450.8L-61.99,447.58L-61.06,442.75L-59.21,442.75L-58.29,437.92L-56.44,437.92L-55.52,433.09L-53.67,433.09L-52.75,429.07L-50.9,429.07L-49.97,423.43L-48.13,423.43L-47.2,417.8L-45.35,417.8L-44.43,412.97L-42.58,412.97L-41.66,409.75L-39.81,409.75L-38.89,404.92L-37.04,404.92L-36.11,400.09L-34.26,400.09L-33.34,394.45L-31.49,394.45L-30.57,389.62L-28.72,389.62L-27.8,384.79L-25.95,384.79L-25.02,379.16L-23.18,379.16L-22.25,374.33L-20.4,374.33L-19.48,369.5L-17.63,369.5L-16.71,364.67L-14.86,364.67L-13.94,349.37L-12.09,349.37L-11.16,342.93L-9.31,342.93L-8.39,334.88L-6.54,334.88L-5.62,326.83L-3.77,326.83L-2.85,320.39L-1,320.39L-0.07,313.15L1.77,313.15L2.7,305.1L4.55,305.1L5.47,297.85L7.32,297.85L8.24,290.61L10.09,290.61L11.01,283.36L12.86,283.36L13.79,276.92L15.64,276.92L16.56,271.28L18.41,271.28L19.33,265.65L20.26,265.65L21.18,260.82L23.95,260.82L24.88,255.99L26.72,255.99L27.65,252.77L29.5,252.77L30.42,249.55L32.27,249.55L33.19,247.94L35.04,247.94L35.96,246.33L37.81,246.33L38.74,245.53L40.59,245.53L41.51,235.87L43.36,235.87L44.28,233.45L46.13,233.45L47.05,231.84L48.9,231.84L49.83,230.23L54.45,230.23L55.37,229.43L57.22,229.43L58.14,228.62L86.94,228.62L87.86,230.23L89.71,230.23L90.63,231.04L92.48,231.04L93.41,233.45L95.25,233.45L96.18,234.26L98.03,234.26L98.95,235.87L100.8,235.87L101.72,239.09L103.57,239.09L104.49,240.7L106.34,240.7L106.65,241.5L117.43,241.5L118.36,242.31L120.2,242.31L121.13,243.11L122.98,243.11L123.9,244.72L128.52,244.72L129.44,246.33L131.29,246.33L132.22,247.94L134.06,247.94L134.99,249.55L136.84,249.55L137.76,251.16L139.61,251.16L140.53,251.96L142.38,251.96L143.31,253.58L145.15,253.58L146.08,255.19L150.7,255.19L151.62,255.99L152.4,249.55L154.25,249.55L155.17,246.33L157.02,246.33L157.94,243.92L159.79,243.92L160.71,240.7L162.56,240.7L163.49,239.09L165.34,239.09L166.26,236.67L168.11,236.67L169.03,235.06L170.88,235.06L171.8,232.65L173.65,232.65L174.58,230.23L176.42,230.23L177.35,227.82L179.2,227.82L180.12,225.4L181.97,225.4L182.89,222.99L184.74,222.99L185.66,220.57L187.51,220.57L188.44,218.15L190.29,218.15L191.21,214.94L193.06,214.94L193.98,213.33L195.83,213.33L196.75,210.91L198.6,210.91L199.53,208.5L201.37,208.5L202.3,206.89L204.15,206.89L205.07,206.08L206.92,206.08L207.84,196.42L209.69,196.42L210.61,193.2L212.46,193.2L213.39,189.98L215.24,189.98L216.16,187.57L218.01,187.57L218.93,185.96L220.78,185.96L221.7,185.15L223.55,185.15L224.48,184.35L254.51,184.35L254.97,183.54L259.59,183.54L260.51,182.74L262.36,182.74L263.29,173.08L265.14,173.08L266.06,167.44L267.91,167.44L268.83,163.42L270.68,163.42L271.6,159.39L273.45,159.39L274.38,155.37L276.22,155.37L277.15,152.95L279,152.95L279.92,148.92L281.77,148.92L282.69,145.71L284.54,145.71L285.46,141.68L287.31,141.68L288.24,137.66L290.09,137.66L291.01,134.44L292.86,134.44L293.78,130.41L295.63,130.41L296.55,127.19L298.4,127.19L299.33,123.17L301.17,123.17L302.1,119.95L303.02,119.95L303.95,115.92L306.72,115.92L307.64,113.51L309.49,113.51L310.41,111.09L312.26,111.09L313.19,109.48L315.04,109.48L315.96,108.68L317.81,108.68L318.73,99.01L320.58,99.01L321.5,95.79L323.35,95.79L324.28,94.19L326.12,94.19L327.05,91.77L328.9,91.77L329.82,90.16L331.67,90.16L332.59,88.55L334.44,88.55L335.36,86.94L337.21,86.94L338.14,86.14L339.99,86.14L340.91,84.52L342.76,84.52L343.68,82.11L345.53,82.11L346.45,80.5L348.3,80.5L349.23,78.89L351.07,78.89L352,77.28L353.85,77.28L354.77,75.67L356.62,75.67L357.54,74.06L359.39,74.06L360.31,72.45L362.16,72.45L363.09,71.64L364.94,71.64L365.86,70.04L367.71,70.04L368.63,69.23L370.48,69.23L371.4,67.62L373.25,67.62L374.18,57.96L376.02,57.96L376.95,54.74L378.8,54.74L379.72,52.33L381.57,52.33L382.49,51.52L408.51,51.52L409.44,53.13L411.29,53.13L412.21,54.74L414.06,54.74L414.98,55.55L416.83,55.55L417.76,57.96L419.6,57.96L420.53,58.77L422.38,58.77L423.3,59.57L425.15,59.57L425.61,60.38L428.85,60.38L429.62,52.33L431.47,52.33L432.39,48.3L434.24,48.3L435.16,44.28L437.01,44.28L437.94,41.06L439.79,41.06L440.71,38.64L442.56,38.64L443.48,37.03L445.33,37.03L446.25,35.42L466.73,35.42L467.66,36.23L469.5,36.23L470.43,37.03L472.28,37.03L473.2,38.64L475.05,38.64L475.91,40.9L476.75,39.44L478.6,39.44L479.52,37.03L481.37,37.03L482.29,34.62L484.14,34.62L485.06,23.35L486.91,23.35L487.84,16.9L489.69,16.9L490.61,11.27L492.46,11.27L493.38,5.63L495.23,5.63L496.15,-0.81L498,-0.81L498.93,-6.44L500.77,-6.44L501.7,-11.27L503.55,-11.27L504.47,-16.91L506.32,-16.91L507.24,-20.12L511.86,-20.93L512.79,-21.74L536.04,-20.93L536.96,-18.51L538.81,-18.51L539.73,-15.3L540.51,-24.15L542.36,-24.15L545.13,-36.22L547.9,-36.22L548.83,-42.66L550.67,-42.66L554.37,-56.35L556.22,-56.35L559.91,-70.84L561.76,-70.84L565.46,-84.52L567.31,-84.52L571,-96.6L572.85,-96.6L576.55,-102.24L578.4,-102.24L579.32,-103.04L598.57,-103.04L601.5,-107.87L603.35,-107.87L607.04,-118.34L608.89,-118.34L615.36,-136.04L617.21,-136.04L623.68,-154.56L625.52,-154.56L631.99,-174.68L633.84,-174.68L640.31,-194.81L642.16,-194.81L645.85,-202.06L650.47,-202.06L654.17,-210.91L674.65,-210.91L688.51,-197.23L689.43,-192.39L694.05,-188.37L694.98,-183.54L699.6,-179.51L700.52,-173.88L705.14,-169.85L706.07,-165.02L710.69,-161L711.61,-156.17L713.46,-156.17L714.38,-150.53L716.23,-150.53L717.16,-145.7L719,-145.7L719.93,-140.87L730.09,-138.46L731.02,-135.24L735.64,-131.21L736.56,-127.19L741.18,-123.17L742.11,-119.14L743.95,-119.14L744.88,-114.31L746.73,-114.31L747.65,-109.48L748.57,-109.48L749.5,-103.85L752.27,-103.85L753.19,-99.01L755.04,-99.01L755.97,-93.38L757.81,-93.38L758.74,-86.94L760.59,-86.94L761.51,-81.3L763.36,-81.3L764.28,-74.06L766.13,-74.06L767.06,-66.81L768.9,-66.81L769.83,-59.57L771.68,-59.57L772.6,-53.13L774.45,-53.13L775.37,-45.08L777.22,-45.08L778.14,-37.83L782.76,-33L783.69,-26.57L785.54,-26.57L786.46,-20.12L788.31,-20.12L789.23,-13.69L791.08,-13.69L792.01,-7.25L793.85,-7.25L794.78,-0.81L796.63,-0.81L797.55,6.44L799.4,6.44L800.32,12.88L802.17,12.88L803.09,19.32L804.94,19.32L805.87,25.76L807.71,25.76L808.64,32.2L810.49,32.2L811.41,38.64L813.26,38.64L814.18,45.08L816.03,45.08L816.96,51.52L818.8,51.52L819.73,57.96L821.58,57.96L822.5,65.21L824.35,65.21L825.27,72.45L827.12,72.45L828.04,78.89L829.89,78.89L830.82,86.14L832.66,86.14L833.59,92.57L835.44,92.57L836.36,99.01L838.21,99.01L839.13,106.26L840.98,106.26L841.91,112.7L843.75,112.7L844.68,119.95L849.3,125.58L850.22,132.02L852.07,132.02L852.99,138.46L857.61,143.29L858.54,149.73L863.16,154.56L864.08,158.58L868.7,162.61L869.63,167.44L874.25,171.46L875.17,174.69L882.56,181.13L883.49,183.54L908.29,181.93L909.21,181.13L922.15,174.69L923.08,170.66L927.7,165.83L928.62,160.2L930.47,160.2L931.39,151.34L933.24,151.34L934.16,141.68L936.01,141.68L936.94,130.41L938.79,130.41L939.71,116.73L941.56,116.73L942.48,103.04L944.33,103.04L945.25,88.55L947.1,88.55L948.03,72.45L949.87,72.45L950.8,54.74L952.65,54.74L953.57,37.84L955.42,37.84L956.34,20.93L958.19,20.93L959.11,2.41L960.96,2.41L961.89,-14.49L963.74,-14.49L964.66,-31.39L966.51,-31.39L967.43,-48.3L969.28,-48.3L970.2,-65.21L972.05,-65.21L972.98,-81.3L974.82,-81.3L975.75,-97.4L977.6,-97.4L978.52,-114.31L980.37,-114.31L981.29,-130.41L983.14,-130.41L984.06,-147.31L985.91,-147.31L986.84,-163.41L988.69,-163.41L989.61,-178.71L991.46,-178.71L992.38,-192.39L994.23,-192.39L995.15,-204.47L997,-204.47L997.93,-213.33L999.77,-213.33L1000.7,-222.18L1005.32,-228.62L1006.24,-233.45L1010.86,-239.08L1011.79,-243.91L1019.18,-251.16L1020.1,-255.18L1027.5,-260.82L1028.42,-264.85L1033.04,-269.67L1033.96,-273.7L1041.36,-281.75L1042.28,-283.36L1107.11,-274.5L1108.04,-272.89L1134.84,-248.74L1135.76,-244.72L1165.33,-198.84L1166.26,-194L1229.09,-69.23L1230.02,-61.18L1252.05,-5.63L1257.59,-16.1L1258.51,-21.74L1344.45,-198.84L1357.7,-198.84L1371.25,-221.37L1372.18,-228.62L1391.58,-283.36L1439.78,-283.36L1454.42,-266.46L1462.74,-275.31L1463.66,-277.73L1506.31,-272.89L1507.24,-268.87L1523.72,-232.64L1535.74,-241.5L1537.59,-241.5L1541.28,-244.72L1572.85,-244.72L1601.35,-254.38L1602.27,-261.62L1610.59,-283.36L1783.54,-283.36L1819.58,-200.45L1820.5,-189.98L1881.41,-1.74L1882.26,-3.22L1886.89,-3.22L1922.92,-35.42L1923.85,-41.05L1982.06,-109.48L1983.91,-109.48L2087.41,-223.79L2089.26,-223.79L2127.29,-202.06L2128.22,-198.03L2193.83,-144.09L2194.75,-135.24L2250.19,-27.37L2252.04,-27.37L2264.37,-2.41L2283.31,-20.12L2284.24,-24.15L2341.53,-107.87L2342.45,-113.5L2408.99,-283.36L2532.04,-283.36L2568.08,-211.72L2569,-208.49L2629.06,-105.46L2629.99,-99.82L2779.69,91.77L2781.54,91.77L2907.21,150.53L2947.72,150.53L3169.65,128.8" style="vector-effect: non-scaling-stroke; fill: none; stroke: rgb(148, 103, 189); stroke-opacity: 1; stroke-width: 0px; opacity: 1;"/></g><g class="points"/><g class="text"/></g></g></g><g class="overplot"/><path class="xlines-above crisp" d="M69,352.5H579" style="fill: none; stroke-width: 1px; stroke: rgb(68, 68, 68); stroke-opacity: 1;"/><path class="ylines-above crisp" d="M69.5,20V352" style="fill: none; stroke-width: 1px; stroke: rgb(68, 68, 68); stroke-opacity: 1;"/><g class="overlines-above"/><g class="xaxislayer-above"><path class="xtick ticks crisp" d="M0,353v5" transform="translate(153.93,0)" style="stroke: rgb(68, 68, 68); stroke-opacity: 1; stroke-width: 1px;"/><path class="xtick ticks crisp" d="M0,353v5" transform="translate(246.33,0)" style="stroke: rgb(68, 68, 68); stroke-opacity: 1; stroke-width: 1px;"/><path class="xtick ticks crisp" d="M0,353v5" transform="translate(338.74,0)" style="stroke: rgb(68, 68, 68); stroke-opacity: 1; stroke-width: 1px;"/><path class="xtick ticks crisp" d="M0,353v5" transform="translate(431.15,0)" style="stroke: rgb(68, 68, 68); stroke-opacity: 1; stroke-width: 1px;"/><path class="xtick ticks crisp" d="M0,353v5" transform="translate(523.56,0)" style="stroke: rgb(68, 68, 68); stroke-opacity: 1; stroke-width: 1px;"/><g class="xtick"><text text-anchor="middle" x="0" y="372.4" transform="translate(153.93,0)" style="font-family: 'Open Sans', verdana, arial, sans-serif; font-size: 12px; fill: rgb(68, 68, 68); fill-opacity: 1; white-space: pre;">62500</text></g><g class="xtick"><text text-anchor="middle" x="0" y="372.4" transform="translate(246.33,0)" style="font-family: 'Open Sans', verdana, arial, sans-serif; font-size: 12px; fill: rgb(68, 68, 68); fill-opacity: 1; white-space: pre;">63000</text></g><g class="xtick"><text text-anchor="middle" x="0" y="372.4" transform="translate(338.74,0)" style="font-family: 'Open Sans', verdana, arial, sans-serif; font-size: 12px; fill: rgb(68, 68, 68); fill-opacity: 1; white-space: pre;">63500</text></g><g class="xtick"><text text-anchor="middle" x="0" y="372.4" transform="translate(431.15,0)" style="font-family: 'Open Sans', verdana, arial, sans-serif; font-size: 12px; fill: rgb(68, 68, 68); fill-opacity: 1; white-space: pre;">64000</text></g><g class="xtick"><text text-anchor="middle" x="0" y="372.4" transform="translate(523.56,0)" style="font-family: 'Open Sans', verdana, arial, sans-serif; font-size: 12px; fill: rgb(68, 68, 68); fill-opacity: 1; white-space: pre;">64500</text></g></g><g class="yaxislayer-above"><path class="ytick ticks crisp" d="M69,0h-5" transform="translate(0,342)" style="stroke: rgb(68, 68, 68); stroke-opacity: 1; stroke-width: 1px;"/><path class="ytick ticks crisp" d="M69,0h-5" transform="translate(0,301.75)" style="stroke: rgb(68, 68, 68); stroke-opacity: 1; stroke-width: 1px;"/><path class="ytick ticks crisp" d="M69,0h-5" transform="translate(0,261.5)" style="stroke: rgb(68, 68, 68); stroke-opacity: 1; stroke-width: 1px;"/><path class="ytick ticks crisp" d="M69,0h-5" transform="translate(0,221.25)" style="stroke: rgb(68, 68, 68); stroke-opacity: 1; stroke-width: 1px;"/><path class="ytick ticks crisp" d="M69,0h-5" transform="translate(0,181)" style="stroke: rgb(68, 68, 68); stroke-opacity: 1; stroke-width: 1px;"/><path class="ytick ticks crisp" d="M69,0h-5" transform="translate(0,140.75)" style="stroke: rgb(68, 68, 68); stroke-opacity: 1; stroke-width: 1px;"/><path class="ytick ticks crisp" d="M69,0h-5" transform="translate(0,100.5)" style="stroke: rgb(68, 68, 68); stroke-opacity: 1; stroke-width: 1px;"/><path class="ytick ticks crisp" d="M69,0h-5" transform="translate(0,60.25)" style="stroke: rgb(68, 68, 68); stroke-opacity: 1; stroke-width: 1px;"/><path class="ytick ticks crisp" d="M69,0h-5" transform="translate(0,20)" style="stroke: rgb(68, 68, 68); stroke-opacity: 1; stroke-width: 1px;"/><g class="ytick"><text text-anchor="end" x="61.6" y="4.199999999999999" transform="translate(0,342)" style="font-family: 'Open Sans', verdana, arial, sans-serif; font-size: 12px; fill: rgb(68, 68, 68); fill-opacity: 1; white-space: pre;">0.25</text></g><g class="ytick"><text text-anchor="end" x="61.6" y="4.199999999999999" transform="translate(0,301.75)" style="font-family: 'Open Sans', verdana, arial, sans-serif; font-size: 12px; fill: rgb(68, 68, 68); fill-opacity: 1; white-space: pre;">0.3</text></g><g class="ytick"><text text-anchor="end" x="61.6" y="4.199999999999999" transform="translate(0,261.5)" style="font-family: 'Open Sans', verdana, arial, sans-serif; font-size: 12px; fill: rgb(68, 68, 68); fill-opacity: 1; white-space: pre;">0.35</text></g><g class="ytick"><text text-anchor="end" x="61.6" y="4.199999999999999" transform="translate(0,221.25)" style="font-family: 'Open Sans', verdana, arial, sans-serif; font-size: 12px; fill: rgb(68, 68, 68); fill-opacity: 1; white-space: pre;">0.4</text></g><g class="ytick"><text text-anchor="end" x="61.6" y="4.199999999999999" transform="translate(0,181)" style="font-family: 'Open Sans', verdana, arial, sans-serif; font-size: 12px; fill: rgb(68, 68, 68); fill-opacity: 1; white-space: pre;">0.45</text></g><g class="ytick"><text text-anchor="end" x="61.6" y="4.199999999999999" transform="translate(0,140.75)" style="font-family: 'Open Sans', verdana, arial, sans-serif; font-size: 12px; fill: rgb(68, 68, 68); fill-opacity: 1; white-space: pre;">0.5</text></g><g class="ytick"><text text-anchor="end" x="61.6" y="4.199999999999999" transform="translate(0,100.5)" style="font-family: 'Open Sans', verdana, arial, sans-serif; font-size: 12px; fill: rgb(68, 68, 68); fill-opacity: 1; white-space: pre;">0.55</text></g><g class="ytick"><text text-anchor="end" x="61.6" y="4.199999999999999" transform="translate(0,60.25)" style="font-family: 'Open Sans', verdana, arial, sans-serif; font-size: 12px; fill: rgb(68, 68, 68); fill-opacity: 1; white-space: pre;">0.6</text></g><g class="ytick"><text text-anchor="end" x="61.6" y="4.199999999999999" transform="translate(0,20)" style="font-family: 'Open Sans', verdana, arial, sans-serif; font-size: 12px; fill: rgb(68, 68, 68); fill-opacity: 1; white-space: pre;">0.65</text></g></g><g class="overaxes-above"/></g><g class="subplot xy2"><g class="layer-subplot"><g class="shapelayer"/><g class="imagelayer"/></g><g class="gridlayer"><g class="x"/><g class="y2"/></g><g class="zerolinelayer"/><path class="xlines-below"/><path class="ylines-below"/><g class="overlines-below"/><g class="xaxislayer-below"/><g class="yaxislayer-below"/><g class="overaxes-below"/><g class="plot" transform="translate(80, 411)" clip-path="url(#clip1d0d13xy2plot)"><g class="scatterlayer mlayer"><g class="trace scatter tracebca0d3fb-2c75-4ebb-8bd7-48a1c251e8dd" style="stroke-miterlimit: 2; opacity: 1;"><g class="fills"/><g class="errorbars"/><g class="lines"><path class="js-line" d="M-1497,65.55L60.99,65.55L61.91,64.11L62.84,65.12L63.76,63.16L64.69,61.2L65.61,62.75L68.38,58.49L69.31,60.59L72.08,57.95L73,60.59L75.77,59.58L76.7,62.75L79.47,63.36L80.39,65.55L103.5,65.55L104.42,59.11L105.34,57.65L106.27,60.22L107.19,56.56L108.12,56.16L109.04,59.27L109.96,59.4L112.74,59.81L113.66,63.46L117.36,65.55L118.28,65.55L142.31,65.55L143.23,64.25L145.08,65.55L146,57.89L147.85,58.73L148.78,59.4L150.62,60.76L151.55,58.45L152.47,65.55L153.4,65.55L223.63,65.55L224.55,64.34L225.47,63.53L226.4,59.75L227.32,55.96L228.25,55.69L229.17,52.44L230.09,52.71L231.94,47.3L232.87,48.11L234.71,43.78L235.64,45.14L236.56,43.51L237.49,45.41L240.26,42.16L241.18,44.59L243.96,42.97L244.88,45.95L254.12,45.95L255.04,49.19L259.66,49.45L260.59,52.44L261.51,52.44L262.44,55.56L263.36,65.55L264.29,65.55L316.03,65.39L316.96,61L317.88,59.72L318.81,65.55L328.05,65.55L328.97,64.25L329.89,64.68L330.82,59.13L331.74,57.63L332.67,62.11L334.51,53.7L335.44,58.73L336.36,54.81L337.29,54.66L338.21,54.26L339.14,50.88L340.06,48.02L340.98,54.13L342.83,49.23L343.76,55.35L345.6,50.18L346.53,56.84L348.38,52.76L349.3,56.43L351.15,52.35L352.07,56.02L353.92,51.94L354.84,55.62L356.69,51.54L357.62,55.21L359.46,51.13L360.39,54.81L362.24,50.47L363.16,51.15L365.01,47.07L365.93,50.75L367.78,46.41L368.71,47.1L370.55,43.02L371.48,50.21L372.4,48.45L373.33,49.81L374.25,65.55L375.17,65.55L380.72,65.55L381.64,63.35L382.57,60.73L383.49,55.11L386.26,42.33L387.19,40.77L389.04,35.23L389.96,31.23L391.81,30.83L392.73,27.92L394.58,29.68L395.5,27.85L396.43,29.55L397.35,28.26L399.2,33.26L400.12,33.06L401.05,32.86L401.97,36.17L402.9,36.51L403.82,40.37L405.67,42.13L406.59,46.52L408.44,49.36L409.36,44.81L411.21,47.13L412.14,42.58L413.99,44.9L414.91,43.33L416.76,45.91L417.68,38.37L418.61,35.5L419.53,36.38L420.45,34.27L421.38,34.89L422.3,35.77L423.23,30.14L425.07,30.56L426,27.65L428.77,28.67L429.69,61.47L430.62,61.81L431.54,63.44L432.47,65.55L433.39,65.55L436.16,65.55L437.09,64.71L438.94,65.55L439.86,61.74L440.78,65.55L441.71,61.5L442.63,57.42L443.56,58.8L445.4,50.12L446.33,51.49L447.25,50.41L448.18,46.35L450.95,34.18L451.87,33.64L452.8,30.12L453.72,30.12L454.64,27.14L455.57,27.69L456.49,25.25L457.42,26.33L459.26,30.12L460.19,29.31L462.04,35.26L462.96,35.53L465.73,44.46L466.66,45.81L467.58,44.18L468.51,45.27L469.43,46.62L470.35,44.99L472.2,47.43L473.13,42.81L474.05,43.65L474.97,41.48L475.9,33.33L476.82,39.86L477.75,37.15L478.67,38.2L479.59,47.43L480.52,44.19L481.44,44.7L482.37,49.87L483.29,49.06L484.21,51.88L485.14,65.55L486.06,65.55L510.09,65.55L511.01,59.1L513.79,43.75L514.71,36.92L517.48,28.6L518.41,26.91L520.25,21.09L521.18,20.48L523.03,20.89L523.95,21.9L526.72,28.19L527.65,31.37L531.34,45.44L532.27,47.27L533.19,49.09L534.11,47.93L535.96,51.32L536.89,44.19L538.74,47.06L539.66,33.43L540.58,65.55L541.51,65.55L576.62,65.55L577.55,63.46L581.24,36.68L582.17,32.21L587.71,16.79L588.64,16.12L595.1,38.98L596.03,43.71L597.88,50.75L598.8,56.29L601.57,65.55L602.5,53.15L603.42,49.35L604.34,65.55L606.19,59.85L607.12,65.55L608.04,65.55L608.96,61.93L611.74,65.55L612.66,65.55L645.93,65.55L646.85,62.08L650.55,36.27L651.47,61.61L656.09,48.68L657.02,47.4L657.94,18.08L658.86,13.48L660.71,9.96L661.64,7.53L662.56,5.63L664.41,7.53L665.33,7.8L669.03,14.29L669.95,17.27L672.73,29.44L673.65,34.58L680.12,62.18L681.04,58.08L683.81,56.71L685.66,65.55L686.59,59.69L689.36,56.7L691.21,65.55L692.13,61.04L694.9,59.68L696.75,65.55L697.68,61.04L700.45,56.69L702.3,65.55L703.22,61.31L707.84,65.55L708.76,64.56L712.46,65.55L713.39,51.19L714.31,32.92L715.23,33.74L716.16,36.38L717.08,21.09L718.93,28.33L719.85,13.59L723.55,25.01L724.47,28.73L725.4,32.45L726.32,39.69L732.79,59.24L733.71,49.65L738.34,63.97L739.26,58.44L744.8,65.55L745.73,65.55L857.54,65.55L858.46,56.95L860.31,64.34L861.24,52.38L863.09,62.72L864.01,50.22L865.86,59.75L866.78,46.7L868.63,55.14L869.55,42.09L871.4,46.76L872.33,36.15L874.17,43.51L875.1,32.38L876.95,38.91L877.87,30.22L879.72,35.93L880.64,20.73L882.49,24.84L883.41,15.07L885.26,18.62L886.19,11.29L888.04,14.02L889.88,7.26L890.81,8.34L891.73,3.45L900.05,10.22L900.97,9.69L905.59,7.5L906.52,15.37L916.68,11.55L917.61,18.89L919.45,16.16L920.38,20.51L922.23,18.57L923.15,31.88L925,26.67L925.92,42.43L927.77,39.92L928.69,58.66L930.54,53.13L931.47,65.55L934.24,65.55L935.16,65.55L1015.56,62.45L1016.48,56.18L1017.41,61.37L1022.03,48.34L1023.87,48.65L1024.8,42.4L1027.57,39.67L1034.04,58.93L1034.96,54.06L1035.89,50.49L1046.05,65.55L1046.98,65.55L3160.33,65.55" style="vector-effect: non-scaling-stroke; fill: none; stroke: rgb(31, 119, 180); stroke-opacity: 1; stroke-width: 1px; opacity: 1;"/></g><g class="points"/><g class="text"/></g></g></g><g class="overplot"/><path class="xlines-above crisp" d="M0,0" style="fill: none;"/><path class="ylines-above crisp" d="M69.5,411V480" style="fill: none; stroke-width: 1px; stroke: rgb(68, 68, 68); stroke-opacity: 1;"/><g class="overlines-above"/><g class="xaxislayer-above"/><g class="yaxislayer-above"><path class="y2tick ticks crisp" d="M69,0h-5" transform="translate(0,476.55)" style="stroke: rgb(68, 68, 68); stroke-opacity: 1; stroke-width: 1px;"/><path class="y2tick ticks crisp" d="M69,0h-5" transform="translate(0,460.32)" style="stroke: rgb(68, 68, 68); stroke-opacity: 1; stroke-width: 1px;"/><path class="y2tick ticks crisp" d="M69,0h-5" transform="translate(0,444.08)" style="stroke: rgb(68, 68, 68); stroke-opacity: 1; stroke-width: 1px;"/><path class="y2tick ticks crisp" d="M69,0h-5" transform="translate(0,427.85)" style="stroke: rgb(68, 68, 68); stroke-opacity: 1; stroke-width: 1px;"/><path class="y2tick ticks crisp" d="M69,0h-5" transform="translate(0,411.62)" style="stroke: rgb(68, 68, 68); stroke-opacity: 1; stroke-width: 1px;"/><g class="y2tick"><text text-anchor="end" x="61.6" y="4.199999999999999" transform="translate(0,476.55)" style="font-family: 'Open Sans', verdana, arial, sans-serif; font-size: 12px; fill: rgb(68, 68, 68); fill-opacity: 1; white-space: pre;">0</text></g><g class="y2tick"><text text-anchor="end" x="61.6" y="4.199999999999999" transform="translate(0,460.32)" style="font-family: 'Open Sans', verdana, arial, sans-serif; font-size: 12px; fill: rgb(68, 68, 68); fill-opacity: 1; white-space: pre;">0.005</text></g><g class="y2tick"><text text-anchor="end" x="61.6" y="4.199999999999999" transform="translate(0,444.08)" style="font-family: 'Open Sans', verdana, arial, sans-serif; font-size: 12px; fill: rgb(68, 68, 68); fill-opacity: 1; white-space: pre;">0.01</text></g><g class="y2tick"><text text-anchor="end" x="61.6" y="4.199999999999999" transform="translate(0,427.85)" style="font-family: 'Open Sans', verdana, arial, sans-serif; font-size: 12px; fill: rgb(68, 68, 68); fill-opacity: 1; white-space: pre;">0.015</text></g><g class="y2tick"><text text-anchor="end" x="61.6" y="4.199999999999999" transform="translate(0,411.62)" style="font-family: 'Open Sans', verdana, arial, sans-serif; font-size: 12px; fill: rgb(68, 68, 68); fill-opacity: 1; white-space: pre;">0.02</text></g></g><g class="overaxes-above"/></g></g><g class="polarlayer"/><g class="ternarylayer"/><g class="geolayer"/><g class="pielayer"/><g class="glimages"/><defs id="topdefs-1d0d13"><g class="clips"/><clipPath id="legend1d0d13"><rect width="99" height="67" x="0" y="0"/></clipPath></defs><g class="layer-above"><g class="imagelayer"/><g class="shapelayer"/></g><g class="infolayer"><g class="legend" pointer-events="all" transform="translate(588.98, 20)"><rect class="bg" shape-rendering="crispEdges" width="99" height="67" x="0" y="0" style="stroke: rgb(68, 68, 68); stroke-opacity: 1; fill: rgb(255, 255, 255); fill-opacity: 1; stroke-width: 0px;"/><g class="scrollbox" transform="translate(0, 0)" clip-path="url(#legend1d0d13)"><g class="groups"><g class="traces" transform="translate(0, 14.5)" style="opacity: 1;"><g class="layers"><g class="legendfill"><path class="js-fill" d="M5,-2h30v6h-30z" style="stroke-width: 0; fill: rgb(68, 68, 68); fill-opacity: 0.3;"/></g><g class="legendlines"><path class="js-line" d="M5,-2h30" style="fill: none; stroke: rgb(214, 39, 40); stroke-opacity: 1; stroke-width: 1px;"/></g><g class="legendsymbols"><g class="legendpoints"/></g></g><text class="legendtext user-select-none" text-anchor="start" x="40" y="4.680000000000001" style="font-family: 'Open Sans', verdana, arial, sans-serif; font-size: 12px; fill: rgb(68, 68, 68); fill-opacity: 1; white-space: pre;">reference</text><rect class="legendtoggle" pointer-events="all" x="0" y="-9.5" width="139" height="19" style="cursor: pointer; fill: rgb(0, 0, 0); fill-opacity: 0;"/></g><g class="traces" transform="translate(0, 33.5)" style="opacity: 1;"><g class="layers" style="opacity: 1;"><g class="legendfill"/><g class="legendlines"><path class="js-line" d="M5,0h30" style="fill: none; stroke: rgb(255, 127, 14); stroke-opacity: 1; stroke-width: 1px;"/></g><g class="legendsymbols"><g class="legendpoints"/></g></g><text class="legendtext user-select-none" text-anchor="start" x="40" y="4.680000000000001" style="font-family: 'Open Sans', verdana, arial, sans-serif; font-size: 12px; fill: rgb(68, 68, 68); fill-opacity: 1; white-space: pre;">test</text><rect class="legendtoggle" pointer-events="all" x="0" y="-9.5" width="139" height="19" style="cursor: pointer; fill: rgb(0, 0, 0); fill-opacity: 0;"/></g><g class="traces" transform="translate(0, 52.5)" style="opacity: 1;"><g class="layers" style="opacity: 1;"><g class="legendfill"/><g class="legendlines"><path class="js-line" d="M5,0h30" style="fill: none; stroke: rgb(31, 119, 180); stroke-opacity: 1; stroke-width: 1px;"/></g><g class="legendsymbols"><g class="legendpoints"/></g></g><text class="legendtext user-select-none" text-anchor="start" x="40" y="4.680000000000001" style="font-family: 'Open Sans', verdana, arial, sans-serif; font-size: 12px; fill: rgb(68, 68, 68); fill-opacity: 1; white-space: pre;">error</text><rect class="legendtoggle" pointer-events="all" x="0" y="-9.5" width="139" height="19" style="cursor: pointer; fill: rgb(0, 0, 0); fill-opacity: 0;"/></g></g></g><rect class="scrollbar" rx="20" ry="3" width="0" height="0" x="0" y="0" style="fill: rgb(128, 139, 164); fill-opacity: 1;"/></g><g class="g-gtitle"/><g class="g-xtitle"><text class="xtitle" x="329.5" y="394" text-anchor="middle" style="font-family: 'Open Sans', verdana, arial, sans-serif; font-size: 14px; fill: rgb(68, 68, 68); opacity: 1; font-weight: normal; white-space: pre;">x</text></g><g class="g-ytitle" transform="translate(-9.765625,0)"><text class="ytitle" transform="rotate(-90,42,181)" x="42" y="181" text-anchor="middle" style="font-family: 'Open Sans', verdana, arial, sans-serif; font-size: 14px; fill: rgb(68, 68, 68); opacity: 1; font-weight: normal; white-space: pre;">y</text></g><g class="g-y2title" transform="translate(-16.4375,0)"><text class="y2title" transform="rotate(-90,42,445.5)" x="42" y="445.5" text-anchor="middle" style="font-family: 'Open Sans', verdana, arial, sans-serif; font-size: 14px; fill: rgb(68, 68, 68); opacity: 1; font-weight: normal; white-space: pre;">error [y]</text></g></g></svg>