<?xml version="1.0" standalone="no"?>
<!DOCTYPE svg PUBLIC "-//W3C//DTD SVG 1.1//EN" "http://www.w3.org/Graphics/SVG/1.1/DTD/svg11.dtd">
<svg viewBox="0 0 2087.000000 1307.000000" version="1.1" xmlns="http://www.w3.org/2000/svg" xmlns:xlink="http://www.w3.org/1999/xlink">
	<rect fill="rgb(255,255,255)" stroke="rgb(0,0,127)" stroke-opacity="1" x="1507.1" y="189.9" width="115.9" height="115.9"/>
	<text x="1565.05" y="172.515" fill="rgb(0,0,255)" dominant-baseline="central" font-size="20" font-family="helvetica" text-anchor="middle">plotConfiguration</text>
	<rect fill="rgb(255,254,238)" stroke="rgb(0,0,255)" stroke-opacity="1" x="1507.1" y="189.9" width="115.9" height="115.9"/>
	<polygon fill="rgb(192,192,192)" stroke="rgb(192,192,192)" stroke-opacity="1" points="1518.690000,195.695000 1514.054000,208.444000 1523.326000,208.444000 1518.690000,195.695000"/>
	<polyline fill="none" stroke="rgb(192,192,192)" stroke-opacity="1" points="1518.690000,202.649000 1518.690000,300.005000"/>
	<polygon fill="rgb(192,192,192)" stroke="rgb(192,192,192)" stroke-opacity="1" points="1617.205000,294.210000 1604.456000,289.574000 1604.456000,298.846000 1617.205000,294.210000"/>
	<polyline fill="none" stroke="rgb(192,192,192)" stroke-opacity="1" points="1512.895000,294.210000 1612.569000,294.210000"/>
	<polyline fill="none" stroke="rgb(0,0,127)" stroke-opacity="1" points="1611.410000,228.007920 1609.008407,228.007920 1608.546803,228.008822 1608.122628,228.011528 1607.735881,228.016037 1607.386564,228.022351 1607.074675,228.030468 1606.800216,228.040389 1606.563185,228.052114 1606.363583,228.065643 1606.201410,228.080975 1606.076666,228.098112 1606.076666,228.098112 1606.076666,228.098112 1605.969640,228.117954 1605.860620,228.141404 1605.749608,228.168462 1605.636602,228.199127 1605.521603,228.233400 1605.404610,228.271280 1605.285625,228.312769 1605.164647,228.357865 1605.041675,228.406568 1604.916710,228.458880 1604.916710,228.458880 1604.916710,228.458880 1604.789752,228.514799 1604.660800,228.574325 1604.529856,228.637460 1604.396918,228.704202 1604.261987,228.774551 1604.125063,228.848509 1603.986146,228.926074 1603.845235,229.007247 1603.702331,229.092027 1603.557435,229.180415 1603.557435,229.180415 1603.557435,229.180415 1603.410544,229.272411 1603.261661,229.368014 1603.110785,229.467225 1602.957915,229.570044 1602.803052,229.676471 1602.646196,229.786505 1602.487347,229.900147 1602.326505,230.017396 1602.163669,230.138253 1601.998840,230.262718 1601.998840,230.262718 1601.998840,230.262718 1601.832018,230.390791 1601.663203,230.522471 1601.492395,230.657759 1601.319593,230.796655 1601.144799,230.939158 1600.968011,231.085269 1600.789230,231.234987 1600.608455,231.388314 1600.425688,231.545248 1600.240927,231.705789 1600.240927,231.705789 1600.240927,231.705789 1600.054173,231.869938 1599.865426,232.037695 1599.674686,232.209060 1599.481952,232.384033 1599.287226,232.562613 1599.090506,232.744800 1598.891793,232.930596 1598.691087,233.119999 1598.488387,233.313009 1598.283695,233.509628 1598.283695,233.509628 1598.283695,233.509628 1598.077009,233.709854 1597.868330,233.913688 1597.657658,234.121129 1597.444993,234.332178 1597.230334,234.546835 1597.013682,234.765099 1596.795037,234.986972 1596.574399,235.212451 1596.351768,235.441539 1596.127143,235.674234 1596.127143,235.674234 1596.127143,235.674234 1595.900526,235.910537 1595.671915,236.150448 1595.441311,236.393966 1595.208714,236.641092 1594.974123,236.891825 1594.737540,237.146166 1594.498963,237.404115 1594.258393,237.665672 1594.015830,237.930836 1593.771273,238.199608 1593.771273,238.199608 1593.771273,238.199608 1593.524724,238.471988 1593.276181,238.747975 1593.025645,239.027570 1592.773116,239.310773 1592.518593,239.597583 1592.262078,239.888001 1592.003569,240.182027 1591.743067,240.479660 1591.480572,240.780901 1591.216084,241.085750 1591.216084,241.085750 1591.216084,241.085750 1590.949602,241.394206 1590.681128,241.706271 1590.410660,242.021942 1590.138199,242.341222 1589.863745,242.664109 1589.587297,242.990604 1589.308856,243.320706 1589.028423,243.654416 1588.745996,243.991734 1588.461575,244.332660 1588.461575,244.332660 1588.461575,244.332660 1588.190429,244.658252 1587.947825,244.949572 1587.733763,245.206619 1587.548242,245.429393 1587.391262,245.617895 1587.262825,245.772123 1587.162929,245.892078 1587.091575,245.977760 1587.048762,246.029170 1587.034492,246.046306 1587.034492,246.046306 1587.034492,246.046306 1587.019818,246.061419 1586.975798,246.106757 1586.902432,246.182321 1586.799719,246.288111 1586.667659,246.424126 1586.506253,246.590367 1586.315500,246.786833 1586.095401,247.013525 1585.845955,247.270443 1585.567163,247.557586 1585.567163,247.557586 1585.567163,247.557586 1585.273889,247.853990 1584.980998,248.138693 1584.688491,248.411693 1584.396367,248.672990 1584.104626,248.922586 1583.813269,249.160479 1583.522296,249.386669 1583.231705,249.601157 1582.941499,249.803943 1582.651675,249.995026 1582.651675,249.995026 1582.651675,249.995026 1582.362235,250.174408 1582.073178,250.342086 1581.784505,250.498063 1581.496215,250.642337 1581.208309,250.774908 1580.920786,250.895777 1580.633646,251.004944 1580.346890,251.102409 1580.060517,251.188171 1579.774527,251.262231 1579.774527,251.262231 1579.774527,251.262231 1579.488921,251.324588 1579.203698,251.375243 1578.918859,251.414196 1578.634403,251.441446 1578.350331,251.456994 1578.066641,251.460840 1577.783336,251.452983 1577.500413,251.433424 1577.217874,251.402162 1576.935719,251.359198 1576.935719,251.359198 1576.935719,251.359198 1576.653947,251.304532 1576.372558,251.238164 1576.091553,251.160093 1575.810931,251.070319 1575.530692,250.968844 1575.250837,250.855666 1574.971365,250.730785 1574.692277,250.594202 1574.413572,250.445917 1574.135250,250.285930 1574.135250,250.285930 1574.135250,250.285930 1573.857312,250.114240 1573.579757,249.930848 1573.302586,249.735753 1573.025798,249.528956 1572.749393,249.310457 1572.473372,249.080255 1572.197734,248.838351 1571.922480,248.584744 1571.647609,248.319436 1571.373122,248.042424 1571.373122,248.042424 1571.373122,248.042424 1571.099017,247.753711 1570.825297,247.453295 1570.551959,247.141177 1570.279005,246.817356 1570.006435,246.481833 1569.734247,246.134608 1569.462444,245.775680 1569.191023,245.405050 1568.919986,245.022717 1568.649332,244.628683 1568.649332,244.628683 1568.649332,244.628683 1568.385704,244.236600 1568.135742,243.860122 1567.899448,243.499251 1567.676820,243.153986 1567.467859,242.824327 1567.272565,242.510273 1567.090937,242.211825 1566.922977,241.928984 1566.768683,241.661748 1566.628057,241.410118 1566.628057,241.410118 1566.628057,241.410118 1566.494311,241.164829 1566.360662,240.916613 1566.227108,240.665473 1566.093651,240.411406 1565.960289,240.154414 1565.827023,239.894496 1565.693852,239.631653 1565.560778,239.365884 1565.427800,239.097190 1565.294917,238.825570 1565.294917,238.825570 1565.294917,238.825570 1565.162130,238.551024 1565.029439,238.273553 1564.896844,237.993156 1564.764345,237.709834 1564.631941,237.423586 1564.499634,237.134413 1564.367422,236.842314 1564.235306,236.547289 1564.103286,236.249339 1563.971362,235.948463 1563.971362,235.948463 1563.971362,235.948463 1563.839534,235.644661 1563.707801,235.337934 1563.576165,235.028281 1563.444624,234.715703 1563.313179,234.400199 1563.181830,234.081770 1563.050577,233.760415 1562.919419,233.436134 1562.788358,233.108928 1562.657392,232.778796 1562.657392,232.778796 1562.657392,232.778796 1562.526522,232.445739 1562.395748,232.109756 1562.265070,231.770847 1562.134488,231.429013 1562.004002,231.084253 1561.873611,230.736568 1561.743316,230.385957 1561.613118,230.032420 1561.483014,229.675958 1561.353007,229.316570 1561.353007,229.316570 1561.353007,229.316570 1561.223096,228.954257 1561.093281,228.589018 1560.963561,228.220854 1560.833937,227.849764 1560.704409,227.475748 1560.574977,227.098807 1560.445641,226.718940 1560.316400,226.336147 1560.187256,225.950429 1560.058207,225.561786 1560.058207,225.561786 1560.058207,225.561786 1559.929263,225.172087 1559.800431,224.783202 1559.671712,224.395132 1559.543106,224.007876 1559.414613,223.621435 1559.286232,223.235809 1559.157964,222.850997 1559.029809,222.466999 1558.901767,222.083817 1558.773837,221.701448 1558.773837,221.701448 1558.773837,221.701448 1558.646028,221.321765 1558.518349,220.946635 1558.390800,220.576061 1558.263381,220.210041 1558.136091,219.848576 1558.008930,219.491666 1557.881899,219.139310 1557.754998,218.791509 1557.628227,218.448263 1557.501585,218.109571 1557.501585,218.109571 1557.501585,218.109571 1557.375073,217.775434 1557.248690,217.445852 1557.122437,217.120824 1556.996314,216.800351 1556.870321,216.484432 1556.744457,216.173069 1556.618722,215.866260 1556.493117,215.564005 1556.367642,215.266306 1556.242297,214.973161 1556.242297,214.973161 1556.242297,214.973161 1556.117081,214.684570 1555.991995,214.400534 1555.867038,214.121053 1555.742211,213.846127 1555.617514,213.575755 1555.492946,213.309938 1555.368508,213.048676 1555.244200,212.791968 1555.120021,212.539815 1554.995972,212.292217 1554.995972,212.292217 1554.995972,212.292217 1554.872052,212.049173 1554.748263,211.810684 1554.624602,211.576750 1554.501072,211.347370 1554.377671,211.122545 1554.254400,210.902275 1554.131258,210.686559 1554.008246,210.475398 1553.885363,210.268792 1553.762611,210.066740 1553.762611,210.066740 1553.762611,210.066740 1553.639987,209.869243 1553.517494,209.676300 1553.395130,209.487913 1553.272896,209.304080 1553.150791,209.124801 1553.028816,208.950078 1552.906971,208.779909 1552.785255,208.614294 1552.663669,208.453235 1552.542213,208.296729 1552.542213,208.296729 1552.542213,208.296729 1552.420886,208.144779 1552.299689,207.997383 1552.178621,207.854542 1552.057683,207.716256 1551.936875,207.582524 1551.816196,207.453347 1551.695647,207.328725 1551.575228,207.208657 1551.454938,207.093144 1551.334778,206.982186 1551.334778,206.982186 1551.334778,206.982186 1551.214747,206.875782 1551.094847,206.773933 1550.975075,206.676639 1550.855434,206.583899 1550.735922,206.495714 1550.616540,206.412084 1550.497287,206.333008 1550.378164,206.258487 1550.259170,206.188521 1550.140307,206.123109 1550.140307,206.123109 1550.140307,206.123109 1550.021573,206.062252 1549.902968,206.005950 1549.784493,205.954202 1549.666148,205.907009 1549.547932,205.864371 1549.429846,205.826287 1549.311890,205.792758 1549.194063,205.763784 1549.076366,205.739364 1548.958799,205.719499 1548.958799,205.719499 1548.958799,205.719499 1548.841361,205.704189 1548.724053,205.693433 1548.606874,205.687232 1548.489826,205.685585 1548.372906,205.688494 1548.256117,205.695957 1548.139457,205.707974 1548.022926,205.724547 1547.906526,205.745674 1547.790255,205.771355 1547.790255,205.771355 1547.790255,205.771355 1547.674113,205.801592 1547.558101,205.836383 1547.442219,205.875728 1547.326467,205.919629 1547.210844,205.968084 1547.095350,206.021093 1546.979987,206.078658 1546.864753,206.140777 1546.749648,206.207450 1546.634674,206.278679 1546.634674,206.278679 1546.634674,206.278679 1546.519829,206.354462 1546.405113,206.434799 1546.290527,206.519692 1546.176071,206.609139 1546.061744,206.703140 1545.947547,206.801697 1545.833480,206.904808 1545.719543,207.012473 1545.605734,207.124694 1545.492056,207.241469 1545.492056,207.241469 1545.492056,207.241469 1545.378507,207.362798 1545.265088,207.488683 1545.151799,207.619122 1545.038639,207.754115 1544.925609,207.893664 1544.812708,208.037767 1544.699937,208.186424 1544.587296,208.339637 1544.474784,208.497404 1544.362402,208.659725 1544.362402,208.659725 1544.362402,208.659725 1544.250150,208.826602 1544.138027,208.998033 1544.026034,209.174018 1543.914170,209.354559 1543.802436,209.539654 1543.690832,209.729303 1543.579357,209.923508 1543.468012,210.122267 1543.356797,210.325580 1543.245711,210.533449 1543.245711,210.533449 1543.245711,210.533449 1543.134755,210.745872 1543.023929,210.962850 1542.913232,211.184382 1542.802665,211.410469 1542.692227,211.641111 1542.581919,211.876307 1542.471741,212.116058 1542.361692,212.360364 1542.251773,212.609224 1542.141984,212.862639 1542.141984,212.862639 1542.141984,212.862639 1542.032324,213.120609 1541.922794,213.383133 1541.813394,213.650212 1541.704123,213.921846 1541.594982,214.198034 1541.485970,214.478777 1541.377088,214.764075 1541.268336,215.053927 1541.159713,215.348334 1541.051220,215.647296 1541.051220,215.647296 1541.051220,215.647296 1540.942857,215.950812 1540.834623,216.258883 1540.726519,216.571509 1540.618544,216.888689 1540.510699,217.210424 1540.402984,217.536714 1540.295399,217.867558 1540.187943,218.202957 1540.080616,218.542911 1539.973420,218.887419 1539.973420,218.887419 1539.973420,218.887419 1539.866353,219.236482 1539.759415,219.590100 1539.652607,219.948272 1539.545929,220.311000 1539.439381,220.678281 1539.332962,221.050118 1539.226673,221.426509 1539.120513,221.807454 1539.014483,222.192955 1538.908583,222.583010 1538.908583,222.583010 1538.908583,222.583010 1538.802812,222.977619 1538.697171,223.376784 1538.591659,223.780503 1538.486278,224.188777 1538.381025,224.601605 1538.275903,225.018988 1538.170910,225.440926 1538.066047,225.867418 1537.961313,226.298465 1537.856709,226.734067 1537.856709,226.734067 1537.856709,226.734067 1537.752235,227.174223 1537.647890,227.618934 1537.543675,228.068200 1537.439589,228.522020 1537.335633,228.980395 1537.231807,229.443325 1537.128111,229.910809 1537.024544,230.382848 1536.921106,230.859442 1536.817799,231.340590 1536.817799,231.340590 1536.817799,231.340590 1536.714671,231.824584 1536.611772,232.309711 1536.509103,232.795974 1536.406663,233.283371 1536.304452,233.771903 1536.202471,234.261570 1536.100719,234.752372 1535.999197,235.244308 1535.897904,235.737379 1535.796840,236.231585 1535.796840,236.231585 1535.796840,236.231585 1535.696056,236.725215 1535.595601,237.216560 1535.495475,237.705621 1535.395678,238.192396 1535.296211,238.676885 1535.197072,239.159090 1535.098263,239.639009 1534.999783,240.116644 1534.901632,240.591993 1534.803811,241.065056 1534.803811,241.065056 1534.803811,241.065056 1534.706318,241.535835 1534.609155,242.004329 1534.512321,242.470537 1534.415815,242.934460 1534.319640,243.396098 1534.223793,243.855451 1534.128275,244.312518 1534.033087,244.767301 1533.938228,245.219798 1533.843698,245.670010 1533.843698,245.670010 1533.843698,245.670010 1533.749497,246.117937 1533.655625,246.563578 1533.562083,247.006935 1533.468870,247.448006 1533.375985,247.886792 1533.283430,248.323293 1533.191205,248.757508 1533.099308,249.189439 1533.007741,249.619084 1532.916502,250.046444 1532.916502,250.046444 1532.916502,250.046444 1532.825593,250.471519 1532.735013,250.894309 1532.644762,251.314814 1532.554841,251.733033 1532.465248,252.148967 1532.375985,252.562616 1532.287051,252.973980 1532.198446,253.383059 1532.110170,253.789852 1532.022224,254.194361 1532.022224,254.194361 1532.022224,254.194361 1531.934606,254.596584 1531.847318,254.996522 1531.760359,255.394174 1531.673729,255.789542 1531.587428,256.182624 1531.501457,256.573421 1531.415814,256.961933 1531.330501,257.348160 1531.245517,257.732102 1531.160862,258.113758 1531.160862,258.113758 1531.160862,258.113758 1531.076536,258.493129 1530.992540,258.870215 1530.908872,259.245016 1530.825534,259.617532 1530.742525,259.987762 1530.659845,260.355708 1530.577495,260.721368 1530.495473,261.084743 1530.413781,261.445833 1530.332418,261.804637 1530.332418,261.804637 1530.332418,261.804637 1530.251384,262.161156 1530.170679,262.515391 1530.090303,262.867340 1530.010257,263.217003 1529.930539,263.564382 1529.851151,263.909476 1529.772092,264.252284 1529.693362,264.592807 1529.614962,264.931045 1529.536890,265.266997 1529.536890,265.266997 1529.536890,265.266997 1529.459148,265.600665 1529.381735,265.932047 1529.304651,266.261144 1529.227896,266.587956 1529.151470,266.912483 1529.075374,267.234725 1528.999607,267.554681 1528.924168,267.872352 1528.849059,268.187738 1528.774280,268.500839 1528.774280,268.500839 1528.774280,268.500839 1528.699829,268.811655 1528.625708,269.120185 1528.551915,269.426431 1528.478452,269.730391 1528.405318,270.032066 1528.332514,270.331455 1528.260038,270.628560 1528.187892,270.923379 1528.116074,271.215913 1528.044586,271.506162 1528.044586,271.506162 1528.044586,271.506162 1527.973427,271.794126 1527.902598,272.079805 1527.832097,272.363198 1527.761926,272.644307 1527.692084,272.923130 1527.622571,273.199667 1527.553387,273.473920 1527.484532,273.745888 1527.416006,274.015570 1527.347810,274.282967 1527.347810,274.282967 1527.347810,274.282967 1527.279943,274.548079 1527.212405,274.810906 1527.145196,275.071447 1527.078316,275.329704 1527.011766,275.585675 1526.945544,275.839361 1526.879652,276.090762 1526.814089,276.339877 1526.748855,276.586708 1526.683951,276.831253 1526.683951,276.831253 1526.683951,276.831253 1526.619375,277.073513 1526.555129,277.313488 1526.491212,277.551178 1526.427624,277.786582 1526.364365,278.019702 1526.301435,278.250536 1526.238835,278.479085 1526.176564,278.705349 1526.114622,278.929327 1526.053009,279.151021 1526.053009,279.151021 1526.053009,279.151021 1525.991725,279.370429 1525.930770,279.587552 1525.870145,279.802390 1525.809848,280.014942 1525.749881,280.225210 1525.690243,280.433192 1525.630935,280.638889 1525.571955,280.842301 1525.513305,281.043428 1525.454983,281.242270 1525.454983,281.242270 1525.454983,281.242270 1525.396991,281.438826 1525.339328,281.633097 1525.281995,281.825083 1525.224990,282.014784 1525.168315,282.202200 1525.111968,282.387330 1525.055951,282.570175 1525.000264,282.750735 1524.944905,282.929010 1524.889875,283.105000 1524.889875,283.105000 1524.889875,283.105000 1524.835175,283.278704 1524.780804,283.450124 1524.726762,283.619258 1524.673049,283.786107 1524.619665,283.950671 1524.566611,284.112949 1524.513885,284.272943 1524.461489,284.430651 1524.409422,284.586074 1524.357684,284.739212 1524.357684,284.739212 1524.357684,284.739212 1524.306276,284.890064 1524.255196,285.038632 1524.204446,285.184914 1524.154025,285.328911 1524.103933,285.470623 1524.054170,285.610050 1524.004736,285.747191 1523.955632,285.882048 1523.906856,286.014619 1523.858410,286.144905 1523.858410,286.144905 1523.858410,286.144905 1523.810293,286.272906 1523.762505,286.398621 1523.715047,286.522052 1523.667917,286.643197 1523.621117,286.762057 1523.574646,286.878632 1523.528504,286.992921 1523.482691,287.104926 1523.437208,287.214645 1523.392053,287.322079 1523.392053,287.322079 1523.392053,287.322079 1523.347228,287.427228 1523.302732,287.530092 1523.258565,287.630671 1523.214727,287.728964 1523.171219,287.824972 1523.128039,287.918695 1523.085189,288.010133 1523.042668,288.099286 1523.000476,288.186153 1522.958613,288.270735 1522.958613,288.270735 1522.958613,288.270735 1522.917080,288.353032 1522.875875,288.433044 1522.835000,288.510771 1522.794454,288.586212 1522.754237,288.659369 1522.714350,288.730240 1522.674791,288.798826 1522.635562,288.865127 1522.596661,288.929142 1522.558090,288.990873 1522.558090,288.990873 1522.558090,288.990873 1522.503224,289.073012 1522.415438,289.198255 1522.294731,289.366600 1522.141105,289.578049 1521.954559,289.832601 1521.735093,290.130255 1521.482707,290.471013 1521.197401,290.854874 1520.879175,291.281839 1520.528029,291.751906 1520.528029,291.751906 1518.690000,294.210000"/>
	<text x="1562.73" y="282.041" fill="rgb(0,0,0)" dominant-baseline="central" font-size="13" font-family="helvetica" text-anchor="middle">delay=0</text>
	<rect fill="rgb(255,255,255)" stroke="rgb(0,0,127)" stroke-opacity="1" x="742.16" y="305.8" width="115.9" height="115.9"/>
	<ellipse fill="rgb(255,255,255)" stroke="rgb(0,0,127)" stroke-opacity="1" cx="800.11" cy="363.75" rx="28.975" ry="28.975"/>
	<text x="800.11" y="288.415" fill="rgb(0,0,255)" dominant-baseline="central" font-size="23" font-family="helvetica" text-anchor="middle">heaCooConSig</text>
	<polyline fill="none" stroke="rgb(0,0,127)" stroke-opacity="1" points="742.160000,328.980000 757.227000,349.842000 774.612000,349.842000"/>
	<polyline fill="none" stroke="rgb(0,0,127)" stroke-opacity="1" points="742.160000,398.520000 757.227000,379.976000 775.771000,379.976000"/>
	<polyline fill="none" stroke="rgb(0,0,127)" stroke-opacity="1" points="829.085000,363.750000 858.060000,363.750000"/>
	<text x="800.11" y="359.114" fill="rgb(0,0,0)" dominant-baseline="central" font-size="39" font-family="helvetica" text-anchor="middle">+</text>
	<text x="772.584" y="322.026" fill="rgb(0,0,0)" dominant-baseline="central" font-size="23" font-family="helvetica" text-anchor="middle">-1</text>
	<text x="772.584" y="405.474" fill="rgb(0,0,0)" dominant-baseline="central" font-size="23" font-family="helvetica" text-anchor="middle">+1</text>
	<rect fill="rgb(255,255,255)" stroke="rgb(0,0,127)" stroke-opacity="1" x="1507.1" y="595.55" width="115.9" height="115.9"/>
	<text x="1565.05" y="578.165" fill="rgb(0,0,255)" dominant-baseline="central" font-size="23" font-family="helvetica" text-anchor="middle">scaTem</text>
	<polygon fill="rgb(192,192,192)" stroke="rgb(192,192,192)" stroke-opacity="1" points="1522.167000,601.345000 1517.531000,614.094000 1526.803000,614.094000 1522.167000,601.345000"/>
	<polyline fill="none" stroke="rgb(192,192,192)" stroke-opacity="1" points="1522.167000,608.299000 1522.167000,699.860000"/>
	<polygon fill="rgb(192,192,192)" stroke="rgb(192,192,192)" stroke-opacity="1" points="1620.682000,692.906000 1607.933000,688.270000 1607.933000,697.542000 1620.682000,692.906000"/>
	<polyline fill="none" stroke="rgb(192,192,192)" stroke-opacity="1" points="1516.372000,692.906000 1616.046000,692.906000"/>
	<ellipse fill="rgb(255,255,170)" stroke="rgb(28,108,200)" stroke-opacity="1" cx="1515.21" cy="653.5" rx="5.795" ry="5.795"/>
	<text x="1600.4" y="701.019" fill="rgb(0,0,0)" dominant-baseline="central" font-size="14" font-family="helvetica" text-anchor="middle">x</text>
	<text x="1513.47" y="604.822" fill="rgb(0,0,0)" dominant-baseline="central" font-size="14" font-family="helvetica" text-anchor="middle">y</text>
	<ellipse fill="rgb(0,0,255)" stroke="none" stroke-opacity="1" cx="1559.83" cy="680.736" rx="1.7385" ry="1.7385"/>
	<ellipse fill="rgb(0,0,255)" stroke="none" stroke-opacity="1" cx="1569.11" cy="678.418" rx="1.7385" ry="1.7385"/>
	<ellipse fill="rgb(0,0,255)" stroke="none" stroke-opacity="1" cx="1551.72" cy="683.054" rx="1.7385" ry="1.7385"/>
	<ellipse fill="rgb(0,0,255)" stroke="none" stroke-opacity="1" cx="1542.45" cy="672.623" rx="1.7385" ry="1.7385"/>
	<ellipse fill="rgb(0,0,255)" stroke="none" stroke-opacity="1" cx="1542.45" cy="686.532" rx="1.7385" ry="1.7385"/>
	<ellipse fill="rgb(0,0,255)" stroke="none" stroke-opacity="1" cx="1542.45" cy="679.578" rx="1.7385" ry="1.7385"/>
	<ellipse fill="rgb(0,0,255)" stroke="none" stroke-opacity="1" cx="1592.29" cy="658.716" rx="1.7385" ry="1.7385"/>
	<ellipse fill="rgb(0,0,255)" stroke="none" stroke-opacity="1" cx="1592.29" cy="672.623" rx="1.7385" ry="1.7385"/>
	<ellipse fill="rgb(0,0,255)" stroke="none" stroke-opacity="1" cx="1577.22" cy="676.101" rx="1.7385" ry="1.7385"/>
	<ellipse fill="rgb(0,0,255)" stroke="none" stroke-opacity="1" cx="1592.29" cy="665.669" rx="1.7385" ry="1.7385"/>
	<ellipse fill="rgb(0,0,255)" stroke="none" stroke-opacity="1" cx="1585.33" cy="673.783" rx="1.7385" ry="1.7385"/>
	<ellipse fill="rgb(244,125,35)" stroke="none" stroke-opacity="1" cx="1566.79" cy="645.966" rx="1.7385" ry="1.7385"/>
	<ellipse fill="rgb(244,125,35)" stroke="none" stroke-opacity="1" cx="1536.65" cy="645.966" rx="1.7385" ry="1.7385"/>
	<ellipse fill="rgb(244,125,35)" stroke="none" stroke-opacity="1" cx="1545.93" cy="645.966" rx="1.7385" ry="1.7385"/>
	<ellipse fill="rgb(244,125,35)" stroke="none" stroke-opacity="1" cx="1556.36" cy="645.966" rx="1.7385" ry="1.7385"/>
	<ellipse fill="rgb(244,125,35)" stroke="none" stroke-opacity="1" cx="1572.58" cy="645.966" rx="1.7385" ry="1.7385"/>
	<ellipse fill="rgb(244,125,35)" stroke="none" stroke-opacity="1" cx="1600.4" cy="625.104" rx="1.7385" ry="1.7385"/>
	<ellipse fill="rgb(244,125,35)" stroke="none" stroke-opacity="1" cx="1586.49" cy="625.104" rx="1.7385" ry="1.7385"/>
	<ellipse fill="rgb(244,125,35)" stroke="none" stroke-opacity="1" cx="1572.58" cy="625.104" rx="1.7385" ry="1.7385"/>
	<ellipse fill="rgb(244,125,35)" stroke="none" stroke-opacity="1" cx="1551.72" cy="645.966" rx="1.7385" ry="1.7385"/>
	<ellipse fill="rgb(244,125,35)" stroke="none" stroke-opacity="1" cx="1586.49" cy="645.966" rx="1.7385" ry="1.7385"/>
	<ellipse fill="rgb(244,125,35)" stroke="none" stroke-opacity="1" cx="1579.54" cy="645.966" rx="1.7385" ry="1.7385"/>
	<ellipse fill="rgb(244,125,35)" stroke="none" stroke-opacity="1" cx="1586.49" cy="639.013" rx="1.7385" ry="1.7385"/>
	<ellipse fill="rgb(244,125,35)" stroke="none" stroke-opacity="1" cx="1586.49" cy="630.899" rx="1.7385" ry="1.7385"/>
	<ellipse fill="rgb(244,125,35)" stroke="none" stroke-opacity="1" cx="1560.99" cy="645.966" rx="1.7385" ry="1.7385"/>
	<ellipse fill="rgb(244,125,35)" stroke="none" stroke-opacity="1" cx="1560.99" cy="630.899" rx="1.7385" ry="1.7385"/>
	<ellipse fill="rgb(244,125,35)" stroke="none" stroke-opacity="1" cx="1560.99" cy="639.013" rx="1.7385" ry="1.7385"/>
	<ellipse fill="rgb(244,125,35)" stroke="none" stroke-opacity="1" cx="1560.99" cy="625.104" rx="1.7385" ry="1.7385"/>
	<ellipse fill="rgb(244,125,35)" stroke="none" stroke-opacity="1" cx="1566.79" cy="625.104" rx="1.7385" ry="1.7385"/>
	<ellipse fill="rgb(244,125,35)" stroke="none" stroke-opacity="1" cx="1579.54" cy="625.104" rx="1.7385" ry="1.7385"/>
	<ellipse fill="rgb(244,125,35)" stroke="none" stroke-opacity="1" cx="1594.6" cy="625.104" rx="1.7385" ry="1.7385"/>
	<ellipse fill="rgb(0,0,255)" stroke="none" stroke-opacity="1" cx="1550.56" cy="669.147" rx="1.7385" ry="1.7385"/>
	<ellipse fill="rgb(0,0,255)" stroke="none" stroke-opacity="1" cx="1558.68" cy="666.829" rx="1.7385" ry="1.7385"/>
	<ellipse fill="rgb(0,0,255)" stroke="none" stroke-opacity="1" cx="1567.95" cy="664.511" rx="1.7385" ry="1.7385"/>
	<ellipse fill="rgb(0,0,255)" stroke="none" stroke-opacity="1" cx="1576.06" cy="662.192" rx="1.7385" ry="1.7385"/>
	<ellipse fill="rgb(0,0,255)" stroke="none" stroke-opacity="1" cx="1584.17" cy="659.875" rx="1.7385" ry="1.7385"/>
	<ellipse fill="rgb(0,0,255)" stroke="none" stroke-opacity="1" cx="1530.86" cy="686.532" rx="1.7385" ry="1.7385"/>
	<ellipse fill="rgb(0,0,255)" stroke="none" stroke-opacity="1" cx="1536.65" cy="686.532" rx="1.7385" ry="1.7385"/>
	<ellipse fill="rgb(0,0,255)" stroke="none" stroke-opacity="1" cx="1599.24" cy="658.716" rx="1.7385" ry="1.7385"/>
	<ellipse fill="rgb(0,0,255)" stroke="none" stroke-opacity="1" cx="1605.04" cy="658.716" rx="1.7385" ry="1.7385"/>
	<rect fill="rgb(255,255,255)" stroke="rgb(0,0,127)" stroke-opacity="1" x="1159.4" y="479.65" width="115.9" height="115.9"/>
	<polyline fill="none" stroke="rgb(28,108,200)" stroke-opacity="1" points="1228.940000,503.989000"/>
	<text x="1217.35" y="462.265" fill="rgb(0,0,255)" dominant-baseline="central" font-size="23" font-family="helvetica" text-anchor="middle">THea_degC</text>
	<text x="1194.17" y="520.215" fill="rgb(0,0,127)" dominant-baseline="central" font-size="23" font-family="helvetica" text-anchor="middle">K</text>
	<text x="1246.33" y="566.575" fill="rgb(0,0,127)" dominant-baseline="central" font-size="23" font-family="helvetica" text-anchor="middle">degC</text>
	<polygon fill="rgb(191,0,0)" stroke="rgb(191,0,0)" stroke-opacity="1" points="1269.505000,537.600000 1234.735000,526.010000 1234.735000,549.190000 1269.505000,537.600000"/>
	<polyline fill="none" stroke="rgb(191,0,0)" stroke-opacity="1" points="1165.195000,537.600000 1234.735000,537.600000"/>
	<rect fill="rgb(255,255,255)" stroke="rgb(0,0,127)" stroke-opacity="1" x="1159.4" y="653.5" width="115.9" height="115.9"/>
	<polyline fill="none" stroke="rgb(28,108,200)" stroke-opacity="1" points="1228.940000,677.839000"/>
	<text x="1217.35" y="636.115" fill="rgb(0,0,255)" dominant-baseline="central" font-size="23" font-family="helvetica" text-anchor="middle">TCoo_degC</text>
	<text x="1194.17" y="694.065" fill="rgb(0,0,127)" dominant-baseline="central" font-size="23" font-family="helvetica" text-anchor="middle">K</text>
	<text x="1246.33" y="740.425" fill="rgb(0,0,127)" dominant-baseline="central" font-size="23" font-family="helvetica" text-anchor="middle">degC</text>
	<polygon fill="rgb(191,0,0)" stroke="rgb(191,0,0)" stroke-opacity="1" points="1269.505000,711.450000 1234.735000,699.860000 1234.735000,723.040000 1269.505000,711.450000"/>
	<polyline fill="none" stroke="rgb(191,0,0)" stroke-opacity="1" points="1165.195000,711.450000 1234.735000,711.450000"/>
	<rect fill="rgb(255,255,255)" stroke="rgb(0,0,127)" stroke-opacity="1" x="1507.1" y="885.3" width="115.9" height="115.9"/>
	<text x="1565.05" y="867.915" fill="rgb(0,0,255)" dominant-baseline="central" font-size="23" font-family="helvetica" text-anchor="middle">scaYFan</text>
	<polygon fill="rgb(192,192,192)" stroke="rgb(192,192,192)" stroke-opacity="1" points="1522.167000,891.095000 1517.531000,903.844000 1526.803000,903.844000 1522.167000,891.095000"/>
	<polyline fill="none" stroke="rgb(192,192,192)" stroke-opacity="1" points="1522.167000,898.049000 1522.167000,989.610000"/>
	<polygon fill="rgb(192,192,192)" stroke="rgb(192,192,192)" stroke-opacity="1" points="1620.682000,982.656000 1607.933000,978.020000 1607.933000,987.292000 1620.682000,982.656000"/>
	<polyline fill="none" stroke="rgb(192,192,192)" stroke-opacity="1" points="1516.372000,982.656000 1616.046000,982.656000"/>
	<ellipse fill="rgb(255,255,170)" stroke="rgb(28,108,200)" stroke-opacity="1" cx="1515.21" cy="943.25" rx="5.795" ry="5.795"/>
	<text x="1600.4" y="990.769" fill="rgb(0,0,0)" dominant-baseline="central" font-size="14" font-family="helvetica" text-anchor="middle">x</text>
	<text x="1513.47" y="894.572" fill="rgb(0,0,0)" dominant-baseline="central" font-size="14" font-family="helvetica" text-anchor="middle">y</text>
	<ellipse fill="rgb(0,0,255)" stroke="none" stroke-opacity="1" cx="1559.83" cy="970.486" rx="1.7385" ry="1.7385"/>
	<ellipse fill="rgb(0,0,255)" stroke="none" stroke-opacity="1" cx="1569.11" cy="968.168" rx="1.7385" ry="1.7385"/>
	<ellipse fill="rgb(0,0,255)" stroke="none" stroke-opacity="1" cx="1551.72" cy="972.804" rx="1.7385" ry="1.7385"/>
	<ellipse fill="rgb(0,0,255)" stroke="none" stroke-opacity="1" cx="1542.45" cy="962.373" rx="1.7385" ry="1.7385"/>
	<ellipse fill="rgb(0,0,255)" stroke="none" stroke-opacity="1" cx="1542.45" cy="976.282" rx="1.7385" ry="1.7385"/>
	<ellipse fill="rgb(0,0,255)" stroke="none" stroke-opacity="1" cx="1542.45" cy="969.328" rx="1.7385" ry="1.7385"/>
	<ellipse fill="rgb(0,0,255)" stroke="none" stroke-opacity="1" cx="1592.29" cy="948.466" rx="1.7385" ry="1.7385"/>
	<ellipse fill="rgb(0,0,255)" stroke="none" stroke-opacity="1" cx="1592.29" cy="962.373" rx="1.7385" ry="1.7385"/>
	<ellipse fill="rgb(0,0,255)" stroke="none" stroke-opacity="1" cx="1577.22" cy="965.851" rx="1.7385" ry="1.7385"/>
	<ellipse fill="rgb(0,0,255)" stroke="none" stroke-opacity="1" cx="1592.29" cy="955.419" rx="1.7385" ry="1.7385"/>
	<ellipse fill="rgb(0,0,255)" stroke="none" stroke-opacity="1" cx="1585.33" cy="963.533" rx="1.7385" ry="1.7385"/>
	<ellipse fill="rgb(244,125,35)" stroke="none" stroke-opacity="1" cx="1566.79" cy="935.716" rx="1.7385" ry="1.7385"/>
	<ellipse fill="rgb(244,125,35)" stroke="none" stroke-opacity="1" cx="1536.65" cy="935.716" rx="1.7385" ry="1.7385"/>
	<ellipse fill="rgb(244,125,35)" stroke="none" stroke-opacity="1" cx="1545.93" cy="935.716" rx="1.7385" ry="1.7385"/>
	<ellipse fill="rgb(244,125,35)" stroke="none" stroke-opacity="1" cx="1556.36" cy="935.716" rx="1.7385" ry="1.7385"/>
	<ellipse fill="rgb(244,125,35)" stroke="none" stroke-opacity="1" cx="1572.58" cy="935.716" rx="1.7385" ry="1.7385"/>
	<ellipse fill="rgb(244,125,35)" stroke="none" stroke-opacity="1" cx="1600.4" cy="914.854" rx="1.7385" ry="1.7385"/>
	<ellipse fill="rgb(244,125,35)" stroke="none" stroke-opacity="1" cx="1586.49" cy="914.854" rx="1.7385" ry="1.7385"/>
	<ellipse fill="rgb(244,125,35)" stroke="none" stroke-opacity="1" cx="1572.58" cy="914.854" rx="1.7385" ry="1.7385"/>
	<ellipse fill="rgb(244,125,35)" stroke="none" stroke-opacity="1" cx="1551.72" cy="935.716" rx="1.7385" ry="1.7385"/>
	<ellipse fill="rgb(244,125,35)" stroke="none" stroke-opacity="1" cx="1586.49" cy="935.716" rx="1.7385" ry="1.7385"/>
	<ellipse fill="rgb(244,125,35)" stroke="none" stroke-opacity="1" cx="1579.54" cy="935.716" rx="1.7385" ry="1.7385"/>
	<ellipse fill="rgb(244,125,35)" stroke="none" stroke-opacity="1" cx="1586.49" cy="928.763" rx="1.7385" ry="1.7385"/>
	<ellipse fill="rgb(244,125,35)" stroke="none" stroke-opacity="1" cx="1586.49" cy="920.649" rx="1.7385" ry="1.7385"/>
	<ellipse fill="rgb(244,125,35)" stroke="none" stroke-opacity="1" cx="1560.99" cy="935.716" rx="1.7385" ry="1.7385"/>
	<ellipse fill="rgb(244,125,35)" stroke="none" stroke-opacity="1" cx="1560.99" cy="920.649" rx="1.7385" ry="1.7385"/>
	<ellipse fill="rgb(244,125,35)" stroke="none" stroke-opacity="1" cx="1560.99" cy="928.763" rx="1.7385" ry="1.7385"/>
	<ellipse fill="rgb(244,125,35)" stroke="none" stroke-opacity="1" cx="1560.99" cy="914.854" rx="1.7385" ry="1.7385"/>
	<ellipse fill="rgb(244,125,35)" stroke="none" stroke-opacity="1" cx="1566.79" cy="914.854" rx="1.7385" ry="1.7385"/>
	<ellipse fill="rgb(244,125,35)" stroke="none" stroke-opacity="1" cx="1579.54" cy="914.854" rx="1.7385" ry="1.7385"/>
	<ellipse fill="rgb(244,125,35)" stroke="none" stroke-opacity="1" cx="1594.6" cy="914.854" rx="1.7385" ry="1.7385"/>
	<ellipse fill="rgb(0,0,255)" stroke="none" stroke-opacity="1" cx="1550.56" cy="958.897" rx="1.7385" ry="1.7385"/>
	<ellipse fill="rgb(0,0,255)" stroke="none" stroke-opacity="1" cx="1558.68" cy="956.579" rx="1.7385" ry="1.7385"/>
	<ellipse fill="rgb(0,0,255)" stroke="none" stroke-opacity="1" cx="1567.95" cy="954.261" rx="1.7385" ry="1.7385"/>
	<ellipse fill="rgb(0,0,255)" stroke="none" stroke-opacity="1" cx="1576.06" cy="951.942" rx="1.7385" ry="1.7385"/>
	<ellipse fill="rgb(0,0,255)" stroke="none" stroke-opacity="1" cx="1584.17" cy="949.625" rx="1.7385" ry="1.7385"/>
	<ellipse fill="rgb(0,0,255)" stroke="none" stroke-opacity="1" cx="1530.86" cy="976.282" rx="1.7385" ry="1.7385"/>
	<ellipse fill="rgb(0,0,255)" stroke="none" stroke-opacity="1" cx="1536.65" cy="976.282" rx="1.7385" ry="1.7385"/>
	<ellipse fill="rgb(0,0,255)" stroke="none" stroke-opacity="1" cx="1599.24" cy="948.466" rx="1.7385" ry="1.7385"/>
	<ellipse fill="rgb(0,0,255)" stroke="none" stroke-opacity="1" cx="1605.04" cy="948.466" rx="1.7385" ry="1.7385"/>
	<rect fill="rgb(255,255,255)" stroke="rgb(0,0,127)" stroke-opacity="1" x="927.6" y="653.5" width="115.9" height="115.9"/>
	<text x="985.55" y="636.115" fill="rgb(0,0,255)" dominant-baseline="central" font-size="23" font-family="helvetica" text-anchor="middle">setPoiVAV</text>
	<polygon fill="rgb(95,95,95)" stroke="rgb(95,95,95)" stroke-opacity="1" points="1031.910000,755.492000 1019.161000,752.015000 1019.161000,758.969000 1031.910000,755.492000"/>
	<polyline fill="none" stroke="rgb(95,95,95)" stroke-opacity="1" points="990.186000,755.492000 1030.751000,755.492000"/>
	<polyline fill="none" stroke="rgb(95,95,95)" stroke-opacity="1" points="954.257000,724.199000 954.257000,747.379000"/>
	<polygon fill="rgb(95,95,95)" stroke="rgb(95,95,95)" stroke-opacity="1" points="954.257000,711.450000 950.780000,724.199000 957.734000,724.199000 954.257000,711.450000"/>
	<text x="946.434" y="720.722" fill="rgb(0,0,0)" dominant-baseline="central" font-size="12" font-family="helvetica" text-anchor="middle">T</text>
	<text x="1029.59" y="762.156" fill="rgb(0,0,0)" dominant-baseline="central" font-size="10" font-family="helvetica" text-anchor="middle">u</text>
	<polyline fill="none" stroke="rgb(0,0,255)" stroke-width="2" stroke-opacity="1" points="960.052000,714.927000 968.165000,714.927000 977.437000,735.789000 1000.617000,735.789000 1007.571000,747.379000 1020.320000,747.379000"/>
	<polyline fill="none" stroke="rgb(255,0,0)" stroke-dasharray="2,2" stroke-width="2" stroke-opacity="1" points="960.052000,714.927000 968.165000,714.927000 977.437000,735.789000 986.709000,735.789000 995.981000,749.697000 1020.320000,749.697000"/>
	<polyline fill="none" stroke="rgb(95,95,95)" stroke-opacity="1" points="983.232000,755.492000 950.780000,755.492000"/>
	<polygon fill="rgb(95,95,95)" stroke="rgb(95,95,95)" stroke-opacity="1" points="948.462000,755.492000 961.211000,752.015000 961.211000,758.969000 948.462000,755.492000"/>
	<text x="936.293" y="665.669" fill="rgb(0,0,127)" dominant-baseline="central" font-size="10" font-family="helvetica" text-anchor="middle">uHea</text>
	<text x="937.452" y="688.849" fill="rgb(0,0,127)" dominant-baseline="central" font-size="10" font-family="helvetica" text-anchor="middle">uCoo</text>
	<text x="1032.49" y="676.1" fill="rgb(0,0,127)" dominant-baseline="central" font-size="10" font-family="helvetica" text-anchor="middle">TSupHeaEco</text>
	<text x="1032.49" y="710.87" fill="rgb(0,0,127)" dominant-baseline="central" font-size="10" font-family="helvetica" text-anchor="middle">TSupCoo</text>
	<text x="1035.97" y="746.799" fill="rgb(0,0,127)" dominant-baseline="central" font-size="13" font-family="helvetica" text-anchor="middle">y</text>
	<text x="937.452" y="735.209" fill="rgb(0,0,127)" dominant-baseline="central" font-size="10" font-family="helvetica" text-anchor="middle">TZon</text>
	<text x="936.293" y="757.23" fill="rgb(0,0,127)" dominant-baseline="central" font-size="10" font-family="helvetica" text-anchor="middle">TOut</text>
	<polyline fill="none" stroke="rgb(95,95,95)" stroke-opacity="1" points="954.257000,682.475000 954.257000,705.655000"/>
	<polygon fill="rgb(95,95,95)" stroke="rgb(95,95,95)" stroke-opacity="1" points="954.257000,669.726000 950.780000,682.475000 957.734000,682.475000 954.257000,669.726000"/>
	<text x="946.434" y="677.839" fill="rgb(0,0,0)" dominant-baseline="central" font-size="12" font-family="helvetica" text-anchor="middle">y</text>
	<polyline fill="none" stroke="rgb(0,0,0)" stroke-opacity="1" points="958.893000,685.952000 969.324000,699.860000 995.981000,699.860000 1001.776000,690.588000 1007.571000,690.588000 1014.525000,680.157000"/>
	<polyline fill="none" stroke="rgb(0,0,0)" stroke-opacity="1" points="995.981000,699.860000 1007.571000,699.860000 1014.525000,680.157000 1001.776000,680.157000 995.981000,699.860000"/>
	<text x="937.452" y="710.87" fill="rgb(0,0,127)" dominant-baseline="central" font-size="10" font-family="helvetica" text-anchor="middle">TZonSet</text>
	<rect fill="rgb(255,255,255)" stroke="rgb(0,0,127)" stroke-opacity="1" x="464" y="827.35" width="115.9" height="115.9"/>
	<text x="521.95" y="809.965" fill="rgb(0,0,255)" dominant-baseline="central" font-size="23" font-family="helvetica" text-anchor="middle">TZon</text>
	<polyline fill="none" stroke="rgb(192,192,192)" stroke-opacity="1" points="475.590000,845.894000 475.590000,931.660000"/>
	<polygon fill="rgb(192,192,192)" stroke="rgb(192,192,192)" stroke-opacity="1" points="475.590000,833.145000 470.954000,845.894000 480.226000,845.894000 475.590000,833.145000"/>
	<polyline fill="none" stroke="rgb(192,192,192)" stroke-opacity="1" points="469.795000,925.865000 569.469000,925.865000"/>
	<polygon fill="rgb(192,192,192)" stroke="rgb(192,192,192)" stroke-opacity="1" points="574.105000,925.865000 561.356000,921.229000 561.356000,930.501000 574.105000,925.865000"/>
	<polyline fill="none" stroke="rgb(0,0,0)" stroke-opacity="1" points="475.590000,885.300000 568.310000,885.300000"/>
	<text x="521.95" y="960.635" fill="rgb(0,0,0)" dominant-baseline="central" font-size="23" font-family="helvetica" text-anchor="middle">k=273.15 + 28</text>
	<rect fill="rgb(255,255,255)" stroke="rgb(0,0,127)" stroke-opacity="1" x="464" y="1001.2" width="115.9" height="115.9"/>
	<text x="521.95" y="983.815" fill="rgb(0,0,255)" dominant-baseline="central" font-size="23" font-family="helvetica" text-anchor="middle">TOut</text>
	<polyline fill="none" stroke="rgb(192,192,192)" stroke-opacity="1" points="475.590000,1019.744000 475.590000,1105.510000"/>
	<polygon fill="rgb(192,192,192)" stroke="rgb(192,192,192)" stroke-opacity="1" points="475.590000,1006.995000 470.954000,1019.744000 480.226000,1019.744000 475.590000,1006.995000"/>
	<polyline fill="none" stroke="rgb(192,192,192)" stroke-opacity="1" points="469.795000,1099.715000 569.469000,1099.715000"/>
	<polygon fill="rgb(192,192,192)" stroke="rgb(192,192,192)" stroke-opacity="1" points="574.105000,1099.715000 561.356000,1095.079000 561.356000,1104.351000 574.105000,1099.715000"/>
	<polyline fill="none" stroke="rgb(0,0,0)" stroke-opacity="1" points="475.590000,1059.150000 568.310000,1059.150000"/>
	<text x="521.95" y="1134.48" fill="rgb(0,0,0)" dominant-baseline="central" font-size="23" font-family="helvetica" text-anchor="middle">k=273.15 + 22</text>
	<text x="521.95" y="253.645" fill="rgb(0,0,255)" dominant-baseline="central" font-size="23" font-family="helvetica" text-anchor="middle">uHea</text>
	<rect fill="rgb(255,255,255)" stroke="rgb(0,0,127)" stroke-opacity="1" x="464" y="271.03" width="115.9" height="115.9"/>
	<polyline fill="none" stroke="rgb(192,192,192)" stroke-opacity="1" points="475.590000,289.574000 475.590000,375.340000"/>
	<polygon fill="rgb(192,192,192)" stroke="rgb(192,192,192)" stroke-opacity="1" points="475.590000,276.825000 470.954000,289.574000 480.226000,289.574000 475.590000,276.825000"/>
	<polyline fill="none" stroke="rgb(192,192,192)" stroke-opacity="1" points="469.795000,369.545000 569.469000,369.545000"/>
	<polygon fill="rgb(192,192,192)" stroke="rgb(192,192,192)" stroke-opacity="1" points="574.105000,369.545000 561.356000,364.909000 561.356000,374.181000 574.105000,369.545000"/>
	<polyline fill="none" stroke="rgb(0,0,0)" stroke-opacity="1" points="475.590000,369.545000 498.770000,369.545000 539.914500,306.959000"/>
	<text x="521.95" y="404.315" fill="rgb(0,0,0)" dominant-baseline="central" font-size="23" font-family="helvetica" text-anchor="middle">duration=0.25 s</text>
	<polyline fill="none" stroke="rgb(0,0,0)" stroke-opacity="1" points="539.914500,306.959000 571.787000,306.959000"/>
	<text x="521.95" y="462.265" fill="rgb(0,0,255)" dominant-baseline="central" font-size="23" font-family="helvetica" text-anchor="middle">uCoo</text>
	<rect fill="rgb(255,255,255)" stroke="rgb(0,0,127)" stroke-opacity="1" x="464" y="479.65" width="115.9" height="115.9"/>
	<polyline fill="none" stroke="rgb(192,192,192)" stroke-opacity="1" points="475.590000,498.194000 475.590000,583.960000"/>
	<polygon fill="rgb(192,192,192)" stroke="rgb(192,192,192)" stroke-opacity="1" points="475.590000,485.445000 470.954000,498.194000 480.226000,498.194000 475.590000,485.445000"/>
	<polyline fill="none" stroke="rgb(192,192,192)" stroke-opacity="1" points="469.795000,578.165000 569.469000,578.165000"/>
	<polygon fill="rgb(192,192,192)" stroke="rgb(192,192,192)" stroke-opacity="1" points="574.105000,578.165000 561.356000,573.529000 561.356000,582.801000 574.105000,578.165000"/>
	<polyline fill="none" stroke="rgb(0,0,0)" stroke-opacity="1" points="475.590000,578.165000 498.770000,578.165000 539.914500,515.579000"/>
	<text x="521.95" y="612.935" fill="rgb(0,0,0)" dominant-baseline="central" font-size="23" font-family="helvetica" text-anchor="middle">duration=0.25 s</text>
	<polyline fill="none" stroke="rgb(0,0,0)" stroke-opacity="1" points="539.914500,515.579000 571.787000,515.579000"/>
	<rect fill="rgb(255,255,255)" stroke="rgb(0,0,127)" stroke-opacity="1" x="464" y="653.5" width="115.9" height="115.9"/>
	<text x="521.95" y="636.115" fill="rgb(0,0,255)" dominant-baseline="central" font-size="23" font-family="helvetica" text-anchor="middle">TSetZon</text>
	<polyline fill="none" stroke="rgb(192,192,192)" stroke-opacity="1" points="475.590000,672.044000 475.590000,757.810000"/>
	<polygon fill="rgb(192,192,192)" stroke="rgb(192,192,192)" stroke-opacity="1" points="475.590000,659.295000 470.954000,672.044000 480.226000,672.044000 475.590000,659.295000"/>
	<polyline fill="none" stroke="rgb(192,192,192)" stroke-opacity="1" points="469.795000,752.015000 569.469000,752.015000"/>
	<polygon fill="rgb(192,192,192)" stroke="rgb(192,192,192)" stroke-opacity="1" points="574.105000,752.015000 561.356000,747.379000 561.356000,756.651000 574.105000,752.015000"/>
	<polyline fill="none" stroke="rgb(0,0,0)" stroke-opacity="1" points="475.590000,711.450000 568.310000,711.450000"/>
	<text x="521.95" y="786.785" fill="rgb(0,0,0)" dominant-baseline="central" font-size="23" font-family="helvetica" text-anchor="middle">k=273.15 + 23</text>
	<polyline fill="none" stroke="rgb(255,255,255)" stroke-width="5" stroke-opacity="1" points="585.695000,1059.150000 661.030000,1059.150000 661.030000,757.810000 916.010000,757.810000"/>
	<polyline fill="none" stroke="rgb(0,0,127)" stroke-opacity="1" points="585.695000,1059.150000 661.030000,1059.150000 661.030000,757.810000 916.010000,757.810000"/>
	<polyline fill="none" stroke="rgb(255,255,255)" stroke-width="5" stroke-opacity="1" points="585.695000,328.980000 672.620000,328.980000 672.620000,665.090000 916.010000,665.090000"/>
	<polyline fill="none" stroke="rgb(0,0,127)" stroke-opacity="1" points="585.695000,328.980000 672.620000,328.980000 672.620000,665.090000 916.010000,665.090000"/>
	<polyline fill="none" stroke="rgb(255,255,255)" stroke-width="5" stroke-opacity="1" points="585.695000,537.600000 637.850000,537.600000 637.850000,688.270000 916.010000,688.270000"/>
	<polyline fill="none" stroke="rgb(0,0,127)" stroke-opacity="1" points="585.695000,537.600000 637.850000,537.600000 637.850000,688.270000 916.010000,688.270000"/>
	<polyline fill="none" stroke="rgb(255,255,255)" stroke-width="5" stroke-opacity="1" points="585.695000,328.980000 730.570000,328.980000"/>
	<polyline fill="none" stroke="rgb(0,0,127)" stroke-opacity="1" points="585.695000,328.980000 730.570000,328.980000"/>
	<polyline fill="none" stroke="rgb(255,255,255)" stroke-width="5" stroke-opacity="1" points="585.695000,537.600000 637.850000,537.600000 637.850000,398.520000 730.570000,398.520000"/>
	<polyline fill="none" stroke="rgb(0,0,127)" stroke-opacity="1" points="585.695000,537.600000 637.850000,537.600000 637.850000,398.520000 730.570000,398.520000"/>
	<polyline fill="none" stroke="rgb(255,255,255)" stroke-width="5" stroke-opacity="1" points="1495.510000,699.860000 1449.150000,699.860000 1449.150000,363.750000 863.855000,363.750000"/>
	<polyline fill="none" stroke="rgb(0,0,127)" stroke-opacity="1" points="1495.510000,699.860000 1449.150000,699.860000 1449.150000,363.750000 863.855000,363.750000"/>
	<polyline fill="none" stroke="rgb(255,255,255)" stroke-width="5" stroke-opacity="1" points="1281.095000,537.600000 1333.250000,537.600000 1333.250000,647.705000 1495.510000,647.705000"/>
	<polyline fill="none" stroke="rgb(0,0,127)" stroke-opacity="1" points="1281.095000,537.600000 1333.250000,537.600000 1333.250000,647.705000 1495.510000,647.705000"/>
	<polyline fill="none" stroke="rgb(255,255,255)" stroke-width="5" stroke-opacity="1" points="1281.095000,711.450000 1333.250000,711.450000 1333.250000,659.295000 1495.510000,659.295000"/>
	<polyline fill="none" stroke="rgb(0,0,127)" stroke-opacity="1" points="1281.095000,711.450000 1333.250000,711.450000 1333.250000,659.295000 1495.510000,659.295000"/>
	<polyline fill="none" stroke="rgb(255,255,255)" stroke-width="5" stroke-opacity="1" points="1049.295000,746.220000 1101.450000,746.220000 1101.450000,943.250000 1495.510000,943.250000"/>
	<polyline fill="none" stroke="rgb(0,0,127)" stroke-opacity="1" points="1049.295000,746.220000 1101.450000,746.220000 1101.450000,943.250000 1495.510000,943.250000"/>
	<polyline fill="none" stroke="rgb(255,255,255)" stroke-width="5" stroke-opacity="1" points="863.855000,363.750000 1449.150000,363.750000 1449.150000,989.610000 1495.510000,989.610000"/>
	<polyline fill="none" stroke="rgb(0,0,127)" stroke-opacity="1" points="863.855000,363.750000 1449.150000,363.750000 1449.150000,989.610000 1495.510000,989.610000"/>
	<polyline fill="none" stroke="rgb(255,255,255)" stroke-width="5" stroke-opacity="1" points="916.010000,734.630000 637.850000,734.630000 637.850000,885.300000 585.695000,885.300000"/>
	<polyline fill="none" stroke="rgb(0,0,127)" stroke-opacity="1" points="916.010000,734.630000 637.850000,734.630000 637.850000,885.300000 585.695000,885.300000"/>
	<polyline fill="none" stroke="rgb(255,255,255)" stroke-width="5" stroke-opacity="1" points="1049.295000,676.680000 1101.450000,676.680000 1101.450000,537.600000 1147.810000,537.600000"/>
	<polyline fill="none" stroke="rgb(0,0,127)" stroke-opacity="1" points="1049.295000,676.680000 1101.450000,676.680000 1101.450000,537.600000 1147.810000,537.600000"/>
	<polyline fill="none" stroke="rgb(255,255,255)" stroke-width="5" stroke-opacity="1" points="1049.295000,711.450000 1147.810000,711.450000"/>
	<polyline fill="none" stroke="rgb(0,0,127)" stroke-opacity="1" points="1049.295000,711.450000 1147.810000,711.450000"/>
	<polyline fill="none" stroke="rgb(255,255,255)" stroke-width="5" stroke-opacity="1" points="585.695000,711.450000 916.010000,711.450000"/>
	<polyline fill="none" stroke="rgb(0,0,127)" stroke-opacity="1" points="585.695000,711.450000 916.010000,711.450000"/>
	<ellipse fill="rgb(0,0,127)" stroke="rgb(0,0,127)" cx="637.85" cy="537.6" rx="3" ry="3"/>
	<ellipse fill="rgb(0,0,127)" stroke="rgb(0,0,127)" cx="672.62" cy="328.98" rx="3" ry="3"/>
	<ellipse fill="rgb(0,0,127)" stroke="rgb(0,0,127)" cx="1449.15" cy="699.86" rx="3" ry="3"/>
	<polygon fill="rgb(0,0,127)" stroke="rgb(0,0,127)" stroke-opacity="1" points="718.980000,317.390000 742.160000,328.980000 718.980000,340.570000 718.980000,317.390000"/>
	<polygon fill="rgb(0,0,127)" stroke="rgb(0,0,127)" stroke-opacity="1" points="718.980000,386.930000 742.160000,398.520000 718.980000,410.110000 718.980000,386.930000"/>
	<polygon fill="rgb(255,255,255)" stroke="rgb(0,0,127)" stroke-opacity="1" points="858.060000,357.955000 869.650000,363.750000 858.060000,369.545000 858.060000,357.955000"/>
	<ellipse fill="rgb(0,0,127)" stroke="rgb(0,0,127)" stroke-opacity="1" cx="1495.51" cy="653.5" rx="11.59" ry="11.59"/>
	<ellipse fill="rgb(0,0,127)" stroke="rgb(0,0,127)" stroke-opacity="1" cx="1495.51" cy="653.5" rx="11.59" ry="11.59"/>
	<polygon fill="rgb(0,0,127)" stroke="rgb(0,0,127)" stroke-opacity="1" points="1483.920000,711.450000 1507.100000,699.860000 1483.920000,688.270000 1483.920000,711.450000"/>
	<polygon fill="rgb(0,0,127)" stroke="rgb(0,0,127)" stroke-opacity="1" points="1136.220000,526.010000 1159.400000,537.600000 1136.220000,549.190000 1136.220000,526.010000"/>
	<polygon fill="rgb(255,255,255)" stroke="rgb(0,0,127)" stroke-opacity="1" points="1275.300000,531.805000 1286.890000,537.600000 1275.300000,543.395000 1275.300000,531.805000"/>
	<polygon fill="rgb(0,0,127)" stroke="rgb(0,0,127)" stroke-opacity="1" points="1136.220000,699.860000 1159.400000,711.450000 1136.220000,723.040000 1136.220000,699.860000"/>
	<polygon fill="rgb(255,255,255)" stroke="rgb(0,0,127)" stroke-opacity="1" points="1275.300000,705.655000 1286.890000,711.450000 1275.300000,717.245000 1275.300000,705.655000"/>
	<ellipse fill="rgb(0,0,127)" stroke="rgb(0,0,127)" stroke-opacity="1" cx="1495.51" cy="943.25" rx="11.59" ry="11.59"/>
	<ellipse fill="rgb(0,0,127)" stroke="rgb(0,0,127)" stroke-opacity="1" cx="1495.51" cy="943.25" rx="11.59" ry="11.59"/>
	<polygon fill="rgb(0,0,127)" stroke="rgb(0,0,127)" stroke-opacity="1" points="1483.920000,1001.200000 1507.100000,989.610000 1483.920000,978.020000 1483.920000,1001.200000"/>
	<polygon fill="rgb(0,0,127)" stroke="rgb(0,0,127)" stroke-opacity="1" points="904.420000,653.500000 927.600000,665.090000 904.420000,676.680000 904.420000,653.500000"/>
	<polygon fill="rgb(0,0,127)" stroke="rgb(0,0,127)" stroke-opacity="1" points="904.420000,676.680000 927.600000,688.270000 904.420000,699.860000 904.420000,676.680000"/>
	<polygon fill="rgb(0,0,127)" stroke="rgb(0,0,127)" stroke-opacity="1" points="904.420000,699.860000 927.600000,711.450000 904.420000,723.040000 904.420000,699.860000"/>
	<polygon fill="rgb(0,0,127)" stroke="rgb(0,0,127)" stroke-opacity="1" points="904.420000,723.040000 927.600000,734.630000 904.420000,746.220000 904.420000,723.040000"/>
	<polygon fill="rgb(0,0,127)" stroke="rgb(0,0,127)" stroke-opacity="1" points="904.420000,746.220000 927.600000,757.810000 904.420000,769.400000 904.420000,746.220000"/>
	<polygon fill="rgb(255,255,255)" stroke="rgb(0,0,127)" stroke-opacity="1" points="1043.500000,670.885000 1055.090000,676.680000 1043.500000,682.475000 1043.500000,670.885000"/>
	<polygon fill="rgb(255,255,255)" stroke="rgb(0,0,127)" stroke-opacity="1" points="1043.500000,705.655000 1055.090000,711.450000 1043.500000,717.245000 1043.500000,705.655000"/>
	<polygon fill="rgb(255,255,255)" stroke="rgb(0,0,127)" stroke-opacity="1" points="1043.500000,740.425000 1055.090000,746.220000 1043.500000,752.015000 1043.500000,740.425000"/>
	<polygon fill="rgb(255,255,255)" stroke="rgb(0,0,127)" stroke-opacity="1" points="579.900000,879.505000 591.490000,885.300000 579.900000,891.095000 579.900000,879.505000"/>
	<polygon fill="rgb(255,255,255)" stroke="rgb(0,0,127)" stroke-opacity="1" points="579.900000,1053.355000 591.490000,1059.150000 579.900000,1064.945000 579.900000,1053.355000"/>
	<polygon fill="rgb(255,255,255)" stroke="rgb(0,0,127)" stroke-opacity="1" points="579.900000,323.185000 591.490000,328.980000 579.900000,334.775000 579.900000,323.185000"/>
	<polygon fill="rgb(255,255,255)" stroke="rgb(0,0,127)" stroke-opacity="1" points="579.900000,531.805000 591.490000,537.600000 579.900000,543.395000 579.900000,531.805000"/>
	<polygon fill="rgb(255,255,255)" stroke="rgb(0,0,127)" stroke-opacity="1" points="579.900000,705.655000 591.490000,711.450000 579.900000,717.245000 579.900000,705.655000"/>
</svg>
