<?xml version="1.0" encoding="UTF-8" standalone="no"?>
<svg
   xmlns:dc="http://purl.org/dc/elements/1.1/"
   xmlns:cc="http://creativecommons.org/ns#"
   xmlns:rdf="http://www.w3.org/1999/02/22-rdf-syntax-ns#"
   xmlns:svg="http://www.w3.org/2000/svg"
   xmlns="http://www.w3.org/2000/svg"
   xmlns:sodipodi="http://sodipodi.sourceforge.net/DTD/sodipodi-0.dtd"
   xmlns:inkscape="http://www.inkscape.org/namespaces/inkscape"
   viewBox="0 0 1186.0747 973.77197"
   version="1.1"
   id="svg2"
   inkscape:version="0.91 r13725"
   sodipodi:docname="SingleZoneVAVSupply_u.svg"
   width="1186.0747"
   height="973.77197">
  <metadata
     id="metadata512">
    <rdf:RDF>
      <cc:Work
         rdf:about="">
        <dc:format>image/svg+xml</dc:format>
        <dc:type
           rdf:resource="http://purl.org/dc/dcmitype/StillImage" />
        <dc:title></dc:title>
      </cc:Work>
    </rdf:RDF>
  </metadata>
  <defs
     id="defs510" />
  <sodipodi:namedview
     pagecolor="#ffffff"
     bordercolor="#666666"
     borderopacity="1"
     objecttolerance="10"
     gridtolerance="10"
     guidetolerance="10"
     inkscape:pageopacity="0"
     inkscape:pageshadow="2"
     inkscape:window-width="2210"
     inkscape:window-height="1266"
     id="namedview508"
     showgrid="false"
     fit-margin-top="0"
     fit-margin-left="0"
     fit-margin-right="0"
     fit-margin-bottom="0"
     inkscape:zoom="1.1035657"
     inkscape:cx="593.03736"
     inkscape:cy="489.88599"
     inkscape:window-x="0"
     inkscape:window-y="24"
     inkscape:window-maximized="0"
     inkscape:current-layer="svg2" />
  <rect
     x="480.67349"
     y="491.03299"
     width="114.75"
     height="114.75"
     id="rect260"
     style="fill:#ffffff;stroke:#00007f;stroke-opacity:1" />
  <rect
     x="1054.4235"
     y="32.032997"
     width="114.75"
     height="114.75"
     id="rect4"
     style="fill:#ffffff;stroke:#00007f;stroke-opacity:1" />
  <text
     x="1111.8035"
     y="14.82"
     dominant-baseline="central"
     font-size="20"
     id="text6"
     style="font-size:20px;font-family:helvetica;text-anchor:middle;fill:#0000ff">plotConfiguration</text>
  <rect
     x="1054.4235"
     y="32.032997"
     width="114.75"
     height="114.75"
     id="rect8"
     style="fill:#fffeee;stroke:#0000ff;stroke-opacity:1" />
  <polygon
     points="1178.565,199.36 1173.975,186.7375 1173.975,186.7375 1169.385,199.36 "
     id="polygon10"
     style="fill:#c0c0c0;stroke:#c0c0c0;stroke-opacity:1"
     transform="translate(-108.07652,-148.967)" />
  <polyline
     points="1173.975000,193.622500 1173.975000,290.012500"
     id="polyline12"
     style="fill:none;stroke:#c0c0c0;stroke-opacity:1"
     transform="translate(-108.07652,-148.967)" />
  <polygon
     points="1258.89,288.865 1271.5125,284.275 1271.5125,284.275 1258.89,279.685 "
     id="polygon14"
     style="fill:#c0c0c0;stroke:#c0c0c0;stroke-opacity:1"
     transform="translate(-108.07652,-148.967)" />
  <polyline
     points="1168.237500,284.275000 1266.922500,284.275000"
     id="polyline16"
     style="fill:none;stroke:#c0c0c0;stroke-opacity:1"
     transform="translate(-108.07652,-148.967)" />
  <polyline
     points="1265.775000,218.729800 1263.397237,218.729800 1262.940213,218.730693 1262.520246,218.733372 1262.137337,218.737837 1261.791486,218.744088 1261.482692,218.752124 1261.210956,218.761947 1260.976277,218.773556 1260.778655,218.786950 1260.618091,218.802131 1260.494585,218.819097 1260.494585,218.819097 1260.494585,218.819097 1260.388621,218.838742 1260.280683,218.861960 1260.170772,218.888749 1260.058887,218.919110 1259.945029,218.953043 1259.829198,218.990547 1259.711393,219.031624 1259.591615,219.076272 1259.469863,219.124493 1259.346138,219.176285 1259.346138,219.176285 1259.346138,219.176285 1259.220440,219.231649 1259.092768,219.290585 1258.963123,219.353093 1258.831504,219.419173 1258.697912,219.488825 1258.562347,219.562048 1258.424808,219.638844 1258.285295,219.719211 1258.143810,219.803150 1258.000350,219.890661 1258.000350,219.890661 1258.000350,219.890661 1257.854918,219.981744 1257.707512,220.076399 1257.558132,220.174626 1257.406780,220.276424 1257.253453,220.381795 1257.098154,220.490737 1256.940881,220.603251 1256.781634,220.719338 1256.620414,220.838996 1256.457221,220.962225 1256.457221,220.962225 1256.457221,220.962225 1256.292054,221.089027 1256.124914,221.219401 1255.955801,221.353346 1255.784714,221.490864 1255.611653,221.631953 1255.436620,221.776614 1255.259613,221.924847 1255.080632,222.076652 1254.899678,222.232029 1254.716750,222.390978 1254.716750,222.390978 1254.716750,222.390978 1254.531850,222.553498 1254.344975,222.719591 1254.156128,222.889255 1253.965307,223.062491 1253.772512,223.239299 1253.577744,223.419679 1253.381003,223.603631 1253.182288,223.791155 1252.981600,223.982250 1252.778939,224.176918 1252.778939,224.176918 1252.778939,224.176918 1252.574304,224.375157 1252.367695,224.576969 1252.159113,224.782352 1251.948558,224.991307 1251.736030,225.203834 1251.521528,225.419932 1251.305052,225.639603 1251.086603,225.862846 1250.866181,226.089660 1250.643785,226.320046 1250.643785,226.320046 1250.643785,226.320046 1250.419416,226.554005 1250.193074,226.791535 1249.964758,227.032637 1249.734468,227.277310 1249.502206,227.525556 1249.267970,227.777374 1249.031760,228.032763 1248.793577,228.291724 1248.553421,228.554258 1248.311291,228.820363 1248.311291,228.820363 1248.311291,228.820363 1248.067188,229.090040 1247.821111,229.363289 1247.573061,229.640109 1247.323037,229.920502 1247.071040,230.204467 1246.817070,230.492003 1246.561126,230.783111 1246.303209,231.077791 1246.043319,231.376043 1245.781455,231.677867 1245.781455,231.677867 1245.781455,231.677867 1245.517617,231.983263 1245.251807,232.292231 1244.984023,232.604770 1244.714265,232.920882 1244.442534,233.240565 1244.168830,233.563820 1243.893152,233.890647 1243.615500,234.221046 1243.335876,234.555017 1243.054278,234.892560 1243.054278,234.892560 1243.054278,234.892560 1242.785822,235.214922 1242.545625,235.503351 1242.333686,235.757848 1242.150006,235.978412 1241.994585,236.165042 1241.867422,236.317740 1241.768517,236.436505 1241.697871,236.521337 1241.655483,236.572237 1241.641354,236.589203 1241.641354,236.589203 1241.641354,236.589203 1241.626826,236.604166 1241.583243,236.649054 1241.510605,236.723869 1241.408911,236.828609 1241.278161,236.963274 1241.118357,237.127865 1240.929497,237.322382 1240.711581,237.546825 1240.464611,237.801193 1240.188584,238.085487 1240.188584,238.085487 1240.188584,238.085487 1239.898220,238.378951 1239.608236,238.660828 1239.318631,238.931119 1239.029406,239.189824 1238.740560,239.436943 1238.452094,239.672476 1238.164007,239.896422 1237.876300,240.108782 1237.588973,240.309555 1237.302025,240.498743 1237.302025,240.498743 1237.302025,240.498743 1237.015457,240.676344 1236.729268,240.842359 1236.443459,240.996788 1236.158030,241.139630 1235.872980,241.270886 1235.588310,241.390556 1235.304019,241.498640 1235.020108,241.595137 1234.736577,241.680048 1234.453425,241.753373 1234.453425,241.753373 1234.453425,241.753373 1234.170653,241.815112 1233.888260,241.865265 1233.606247,241.903831 1233.324614,241.930811 1233.043360,241.946204 1232.762486,241.950012 1232.481991,241.942233 1232.201876,241.922868 1231.922141,241.891917 1231.642785,241.849379 1231.642785,241.849379 1231.642785,241.849379 1231.363808,241.795255 1231.085212,241.729545 1230.806995,241.652249 1230.529157,241.563366 1230.251699,241.462897 1229.974621,241.350842 1229.697922,241.227201 1229.421603,241.091973 1229.145663,240.945160 1228.870103,240.786760 1228.870103,240.786760 1228.870103,240.786760 1228.594923,240.616773 1228.320122,240.435201 1228.045701,240.242042 1227.771659,240.037297 1227.497997,239.820965 1227.224715,239.593048 1226.951812,239.353544 1226.679289,239.102454 1226.407145,238.839778 1226.135381,238.565515 1226.135381,238.565515 1226.135381,238.565515 1225.863997,238.279666 1225.592992,237.982231 1225.322367,237.673210 1225.052121,237.352602 1224.782255,237.020409 1224.512769,236.676628 1224.243662,236.321262 1223.974934,235.954310 1223.706587,235.575771 1223.438619,235.185646 1223.438619,235.185646 1223.438619,235.185646 1223.177606,234.797453 1222.930125,234.424711 1222.696174,234.067421 1222.475756,233.725581 1222.268868,233.399193 1222.075512,233.088256 1221.895686,232.792769 1221.729393,232.512734 1221.576630,232.248150 1221.437399,231.999017 1221.437399,231.999017 1221.437399,231.999017 1221.304980,231.756161 1221.172657,231.510409 1221.040429,231.261760 1220.908295,231.010214 1220.776257,230.755772 1220.644313,230.498434 1220.512464,230.238198 1220.380710,229.975067 1220.249051,229.709038 1220.117487,229.440114 1220.117487,229.440114 1220.117487,229.440114 1219.986018,229.168292 1219.854643,228.893574 1219.723364,228.615960 1219.592179,228.335448 1219.461090,228.052041 1219.330095,227.765736 1219.199195,227.476536 1219.068390,227.184438 1218.937680,226.889444 1218.807065,226.591554 1218.807065,226.591554 1218.807065,226.591554 1218.676545,226.290767 1218.546119,225.987083 1218.415789,225.680503 1218.285553,225.371026 1218.155412,225.058653 1218.025367,224.743383 1217.895416,224.425217 1217.765560,224.104154 1217.635799,223.780194 1217.506133,223.453338 1217.506133,223.453338 1217.506133,223.453338 1217.376561,223.123585 1217.247085,222.790936 1217.117703,222.455390 1216.988417,222.116948 1216.859225,221.775609 1216.730128,221.431373 1216.601126,221.084241 1216.472219,220.734213 1216.343407,220.381287 1216.214690,220.025466 1216.214690,220.025466 1216.214690,220.025466 1216.086068,219.666747 1215.957540,219.305132 1215.829108,218.940621 1215.700770,218.573213 1215.572528,218.202908 1215.444380,217.829707 1215.316327,217.453610 1215.188369,217.074615 1215.060506,216.692724 1214.932738,216.307937 1214.932738,216.307937 1214.932738,216.307937 1214.805073,215.922105 1214.677519,215.537079 1214.550078,215.152859 1214.422748,214.769446 1214.295529,214.386839 1214.168422,214.005039 1214.041427,213.624046 1213.914543,213.243858 1213.787771,212.864478 1213.661111,212.485903 1213.661111,212.485903 1213.661111,212.485903 1213.534571,212.109987 1213.408159,211.738580 1213.281875,211.371683 1213.155720,211.009295 1213.029693,210.651416 1212.903794,210.298047 1212.778024,209.949188 1212.652382,209.604838 1212.526868,209.264997 1212.401483,208.929666 1212.401483,208.929666 1212.401483,208.929666 1212.276226,208.598844 1212.151098,208.272532 1212.026098,207.950729 1211.901226,207.633436 1211.776482,207.320653 1211.651867,207.012378 1211.527380,206.708613 1211.403022,206.409358 1211.278792,206.114612 1211.154690,205.824376 1211.154690,205.824376 1211.154690,205.824376 1211.030717,205.538649 1210.906871,205.257432 1210.783155,204.980724 1210.659566,204.708525 1210.536106,204.440836 1210.412775,204.177657 1210.289571,203.918987 1210.166496,203.664826 1210.043550,203.415175 1209.920732,203.170033 1209.920732,203.170033 1209.920732,203.170033 1209.798042,202.929401 1209.675480,202.693279 1209.553047,202.461665 1209.430742,202.234562 1209.308565,202.011968 1209.186517,201.793883 1209.064597,201.580307 1208.942806,201.371242 1208.821143,201.166685 1208.699608,200.966638 1208.699608,200.966638 1208.699608,200.966638 1208.578202,200.771101 1208.456923,200.580073 1208.335774,200.393555 1208.214752,200.211546 1208.093859,200.034046 1207.973094,199.861056 1207.852458,199.692576 1207.731950,199.528604 1207.611570,199.369143 1207.491319,199.214191 1207.491319,199.214191 1207.491319,199.214191 1207.371196,199.063748 1207.251202,198.917815 1207.131335,198.776391 1207.011597,198.639477 1206.891988,198.507072 1206.772507,198.379177 1206.653154,198.255791 1206.533929,198.136915 1206.414833,198.022548 1206.295865,197.912691 1206.295865,197.912691 1206.295865,197.912691 1206.177026,197.807343 1206.058314,197.706504 1205.939732,197.610175 1205.821277,197.518356 1205.702951,197.431046 1205.584753,197.348245 1205.466684,197.269954 1205.348743,197.196172 1205.230930,197.126900 1205.113246,197.062138 1205.113246,197.062138 1205.113246,197.062138 1204.995690,197.001885 1204.878262,196.946141 1204.760963,196.894907 1204.643792,196.848182 1204.526749,196.805967 1204.409835,196.768261 1204.293049,196.735064 1204.176392,196.706378 1204.059862,196.682200 1203.943461,196.662532 1203.943461,196.662532 1203.943461,196.662532 1203.827189,196.647374 1203.711045,196.636725 1203.595029,196.630585 1203.479141,196.628955 1203.363382,196.631835 1203.247751,196.639224 1203.132249,196.651122 1203.016875,196.667530 1202.901629,196.688447 1202.786512,196.713874 1202.786512,196.713874 1202.786512,196.713874 1202.671523,196.743811 1202.556662,196.778256 1202.441930,196.817212 1202.327326,196.860676 1202.212850,196.908651 1202.098503,196.961134 1201.984284,197.018127 1201.870193,197.079630 1201.756231,197.145642 1201.642397,197.216164 1201.642397,197.216164 1201.642397,197.216164 1201.528691,197.291195 1201.415114,197.370735 1201.301665,197.454785 1201.188345,197.543345 1201.075152,197.636414 1200.962089,197.733992 1200.849153,197.836080 1200.736346,197.942677 1200.623667,198.053784 1200.511117,198.169401 1200.511117,198.169401 1200.511117,198.169401 1200.398695,198.289526 1200.286401,198.414162 1200.174236,198.543306 1200.062199,198.676961 1199.950290,198.815124 1199.838509,198.957797 1199.726857,199.104980 1199.615334,199.256672 1199.503938,199.412874 1199.392671,199.573585 1199.392671,199.573585 1199.392671,199.573585 1199.281533,199.738805 1199.170523,199.908535 1199.059641,200.082775 1198.948887,200.261524 1198.838262,200.444782 1198.727765,200.632550 1198.617396,200.824828 1198.507156,201.021614 1198.397044,201.222911 1198.287061,201.428717 1198.287061,201.428717 1198.287061,201.428717 1198.177206,201.639032 1198.067479,201.853857 1197.957881,202.073191 1197.848411,202.297035 1197.739069,202.525388 1197.629855,202.758250 1197.520770,202.995622 1197.411814,203.237504 1197.302985,203.483895 1197.194285,203.734796 1197.194285,203.734796 1197.194285,203.734796 1197.085714,203.990206 1196.977270,204.250125 1196.868955,204.514554 1196.760769,204.783493 1196.652710,205.056941 1196.544781,205.334898 1196.436979,205.617365 1196.329306,205.904341 1196.221761,206.195827 1196.114344,206.491822 1196.114344,206.491822 1196.114344,206.491822 1196.007056,206.792327 1195.899896,207.097341 1195.792865,207.406865 1195.685962,207.720898 1195.579187,208.039441 1195.472540,208.362493 1195.366022,208.690055 1195.259633,209.022126 1195.153371,209.358706 1195.047238,209.699796 1195.047238,209.699796 1195.047238,209.699796 1194.941233,210.045396 1194.835357,210.395505 1194.729609,210.750123 1194.623989,211.109251 1194.518498,211.472888 1194.413135,211.841035 1194.307901,212.213692 1194.202794,212.590857 1194.097816,212.972533 1193.992967,213.358718 1193.992967,213.358718 1193.992967,213.358718 1193.888246,213.749412 1193.783653,214.144616 1193.679188,214.544329 1193.574852,214.948551 1193.470644,215.357284 1193.366565,215.770525 1193.262614,216.188276 1193.158791,216.610537 1193.055096,217.037307 1192.951530,217.468586 1192.951530,217.468586 1192.951530,217.468586 1192.848092,217.904375 1192.744783,218.344674 1192.641602,218.789482 1192.538549,219.238799 1192.435625,219.692626 1192.332829,220.150962 1192.230161,220.613808 1192.127622,221.081164 1192.025211,221.553028 1191.922928,222.029403 1191.922928,222.029403 1191.922928,222.029403 1191.820824,222.508593 1191.718946,222.988907 1191.617295,223.470345 1191.515872,223.952906 1191.414675,224.436591 1191.313706,224.921399 1191.212964,225.407331 1191.112449,225.894386 1191.012161,226.382564 1190.912100,226.871867 1190.912100,226.871867 1190.912100,226.871867 1190.812316,227.360599 1190.712858,227.847069 1190.613725,228.331277 1190.514919,228.813222 1190.416438,229.292904 1190.318284,229.770324 1190.220455,230.245482 1190.122952,230.718377 1190.025775,231.189009 1189.928924,231.657379 1189.928924,231.657379 1189.928924,231.657379 1189.832399,232.123486 1189.736199,232.587331 1189.640326,233.048914 1189.544778,233.508234 1189.449557,233.965291 1189.354661,234.420086 1189.260092,234.872618 1189.165848,235.322888 1189.071930,235.770896 1188.978338,236.216640 1188.978338,236.216640 1188.978338,236.216640 1188.885072,236.660123 1188.792131,237.101342 1188.699517,237.540300 1188.607229,237.976995 1188.515266,238.411427 1188.423629,238.843597 1188.332319,239.273504 1188.241334,239.701149 1188.150675,240.126531 1188.060342,240.549651 1188.060342,240.549651 1188.060342,240.549651 1187.970335,240.970508 1187.880654,241.389102 1187.791298,241.805435 1187.702269,242.219504 1187.613566,242.631311 1187.525188,243.040856 1187.437136,243.448138 1187.349411,243.853158 1187.262011,244.255915 1187.174937,244.656410 1187.174937,244.656410 1187.174937,244.656410 1187.088189,245.054642 1187.001767,245.450611 1186.915670,245.844318 1186.829900,246.235763 1186.744455,246.624945 1186.659337,247.011865 1186.574544,247.396522 1186.490078,247.778916 1186.405937,248.159048 1186.322122,248.536918 1186.322122,248.536918 1186.322122,248.536918 1186.238633,248.912525 1186.155470,249.285869 1186.072633,249.656951 1185.990121,250.025770 1185.907936,250.392327 1185.826076,250.756622 1185.744543,251.118654 1185.663335,251.478423 1185.582453,251.835930 1185.501897,252.191174 1185.501897,252.191174 1185.501897,252.191174 1185.421668,252.544156 1185.341763,252.894876 1185.262185,253.243332 1185.182933,253.589527 1185.104007,253.933459 1185.025406,254.275128 1184.947132,254.614535 1184.869183,254.951679 1184.791560,255.286561 1184.714264,255.619180 1184.714264,255.619180 1184.714264,255.619180 1184.637293,255.949537 1184.560648,256.277631 1184.484328,256.603463 1184.408335,256.927032 1184.332668,257.248339 1184.257327,257.567383 1184.182311,257.884164 1184.107621,258.198684 1184.033258,258.510940 1183.959220,258.820934 1183.959220,258.820934 1183.959220,258.820934 1183.885508,259.128666 1183.812122,259.434135 1183.739062,259.737342 1183.666328,260.038286 1183.593920,260.336968 1183.521837,260.633387 1183.450081,260.927543 1183.378650,261.219437 1183.307546,261.509069 1183.236767,261.796438 1183.236767,261.796438 1183.236767,261.796438 1183.166314,262.081544 1183.096187,262.364388 1183.026386,262.644970 1182.956911,262.923289 1182.887762,263.199345 1182.818938,263.473139 1182.750441,263.744671 1182.682270,264.013940 1182.614424,264.280946 1182.546904,264.545690 1182.546904,264.545690 1182.546904,264.545690 1182.479710,264.808171 1182.412843,265.068390 1182.346301,265.326347 1182.280085,265.582041 1182.214194,265.835472 1182.148630,266.086641 1182.083392,266.335547 1182.018479,266.582191 1181.953893,266.826572 1181.889632,267.068691 1181.889632,267.068691 1181.889632,267.068691 1181.825697,267.308547 1181.762088,267.546141 1181.698805,267.781472 1181.635848,268.014541 1181.573217,268.245347 1181.510912,268.473891 1181.448933,268.700172 1181.387279,268.924191 1181.325952,269.145947 1181.264950,269.365441 1181.264950,269.365441 1181.264950,269.365441 1181.204275,269.582672 1181.143925,269.797641 1181.083901,270.010347 1181.024203,270.220791 1180.964831,270.428972 1180.905785,270.634890 1180.847064,270.838547 1180.788670,271.039940 1180.730601,271.239071 1180.672859,271.435940 1180.672859,271.435940 1180.672859,271.435940 1180.615442,271.630546 1180.558351,271.822889 1180.501587,272.012971 1180.445148,272.200789 1180.389035,272.386345 1180.333247,272.569639 1180.277786,272.750670 1180.222651,272.929438 1180.167841,273.105944 1180.113358,273.280188 1180.113358,273.280188 1180.113358,273.280188 1180.059200,273.452168 1180.005369,273.621887 1179.951863,273.789343 1179.898683,273.954536 1179.845829,274.117467 1179.793301,274.278136 1179.741099,274.436541 1179.689222,274.592685 1179.637672,274.746566 1179.586447,274.898184 1179.586447,274.898184 1179.586447,274.898184 1179.535549,275.047540 1179.484976,275.194633 1179.434729,275.339464 1179.384809,275.482032 1179.335214,275.622338 1179.285945,275.760381 1179.237001,275.896162 1179.188384,276.029680 1179.140093,276.160936 1179.092127,276.289929 1179.092127,276.289929 1179.092127,276.289929 1179.044488,276.416660 1178.997174,276.541128 1178.950187,276.663334 1178.903525,276.783277 1178.857189,276.900958 1178.811179,277.016376 1178.765495,277.129532 1178.720137,277.240425 1178.675104,277.349056 1178.630398,277.455424 1178.630398,277.455424 1178.630398,277.455424 1178.586017,277.559529 1178.541963,277.661372 1178.498234,277.760953 1178.454831,277.858271 1178.411754,277.953327 1178.369003,278.046120 1178.326578,278.136650 1178.284479,278.224918 1178.242706,278.310924 1178.201259,278.394667 1178.201259,278.394667 1178.201259,278.394667 1178.160137,278.476147 1178.119342,278.555365 1178.078872,278.632321 1178.038728,278.707014 1177.998910,278.779444 1177.959419,278.849612 1177.920253,278.917517 1177.881412,278.983160 1177.842898,279.046541 1177.804710,279.107659 1177.804710,279.107659 1177.804710,279.107659 1177.750388,279.188983 1177.663473,279.312983 1177.543964,279.479658 1177.391862,279.689009 1177.207167,279.941035 1176.989878,280.235736 1176.739997,280.573113 1176.457522,280.953165 1176.142453,281.375893 1175.794792,281.841296 1175.794792,281.841296 1173.975000,284.275000"
     id="polyline18"
     style="fill:none;stroke:#00007f;stroke-opacity:1"
     transform="translate(-108.07652,-148.967)" />
  <text
     x="1109.5034"
     y="123.25901"
     dominant-baseline="central"
     font-size="12"
     id="text20"
     style="font-size:12px;font-family:helvetica;text-anchor:middle;fill:#000000">delay=0</text>
  <rect
     x="297.07349"
     y="146.783"
     width="114.75"
     height="114.75"
     id="rect22"
     style="fill:#ffffff;stroke:#00007f;stroke-opacity:1" />
  <circle
     cx="354.44849"
     cy="204.158"
     id="ellipse24"
     r="28.6875"
     style="fill:#ffffff;stroke:#00007f;stroke-opacity:1" />
  <text
     x="354.44849"
     y="129.571"
     dominant-baseline="central"
     font-size="23"
     id="text26"
     style="font-size:23px;font-family:helvetica;text-anchor:middle;fill:#0000ff">heaCooConSig</text>
  <polyline
     points="405.150000,318.700000 420.067500,339.355000 437.280000,339.355000"
     id="polyline28"
     style="fill:none;stroke:#00007f;stroke-opacity:1"
     transform="translate(-108.07652,-148.967)" />
  <polyline
     points="405.150000,387.550000 420.067500,369.190000 438.427500,369.190000"
     id="polyline30"
     style="fill:none;stroke:#00007f;stroke-opacity:1"
     transform="translate(-108.07652,-148.967)" />
  <polyline
     points="491.212500,353.125000 519.900000,353.125000"
     id="polyline32"
     style="fill:none;stroke:#00007f;stroke-opacity:1"
     transform="translate(-108.07652,-148.967)" />
  <text
     x="354.44849"
     y="211.56801"
     dominant-baseline="central"
     font-size="39"
     id="text34"
     style="font-size:39px;font-family:helvetica;text-anchor:middle;fill:#000000">+</text>
  <text
     x="327.1955"
     y="172.84801"
     dominant-baseline="central"
     font-size="23"
     id="text36"
     style="font-size:23px;font-family:helvetica;text-anchor:middle;fill:#000000">-1</text>
  <text
     x="327.1955"
     y="245.468"
     dominant-baseline="central"
     font-size="23"
     id="text38"
     style="font-size:23px;font-family:helvetica;text-anchor:middle;fill:#000000">+1</text>
  <rect
     x="1054.4235"
     y="433.65799"
     width="114.75"
     height="114.75"
     id="rect40"
     style="fill:#ffffff;stroke:#00007f;stroke-opacity:1" />
  <text
     x="1111.8035"
     y="416.44601"
     dominant-baseline="central"
     font-size="23"
     id="text42"
     style="font-size:23px;font-family:helvetica;text-anchor:middle;fill:#0000ff">scaTem</text>
  <polygon
     points="1182.0075,600.985 1177.4175,588.3625 1177.4175,588.3625 1172.8275,600.985 "
     id="polygon44"
     style="fill:#c0c0c0;stroke:#c0c0c0;stroke-opacity:1"
     transform="translate(-108.07652,-148.967)" />
  <polyline
     points="1177.417500,595.247500 1177.417500,685.900000"
     id="polyline46"
     style="fill:none;stroke:#c0c0c0;stroke-opacity:1"
     transform="translate(-108.07652,-148.967)" />
  <polygon
     points="1262.3325,683.605 1274.955,679.015 1274.955,679.015 1262.3325,674.425 "
     id="polygon48"
     style="fill:#c0c0c0;stroke:#c0c0c0;stroke-opacity:1"
     transform="translate(-108.07652,-148.967)" />
  <polyline
     points="1171.680000,679.015000 1270.365000,679.015000"
     id="polyline50"
     style="fill:none;stroke:#c0c0c0;stroke-opacity:1"
     transform="translate(-108.07652,-148.967)" />
  <circle
     cx="1062.4535"
     cy="491.03299"
     id="ellipse52"
     r="5.7375002"
     style="fill:#ffffaa;stroke:#1c6cc8;stroke-opacity:1" />
  <text
     x="1146.7935"
     y="538.08099"
     dominant-baseline="central"
     font-size="14"
     id="text54"
     style="font-size:14px;font-family:helvetica;text-anchor:middle;fill:#000000">x</text>
  <text
     x="1060.7335"
     y="442.83798"
     dominant-baseline="central"
     font-size="14"
     id="text56"
     style="font-size:14px;font-family:helvetica;text-anchor:middle;fill:#000000">y</text>
  <circle
     cx="1106.6334"
     cy="517.99902"
     id="ellipse58"
     r="1.7212501"
     style="fill:#0000ff;stroke:none;stroke-opacity:1" />
  <circle
     cx="1115.8135"
     cy="515.70404"
     id="ellipse60"
     r="1.7212501"
     style="fill:#0000ff;stroke:none;stroke-opacity:1" />
  <circle
     cx="1098.6035"
     cy="520.29401"
     id="ellipse62"
     r="1.7212501"
     style="fill:#0000ff;stroke:none;stroke-opacity:1" />
  <circle
     cx="1089.4235"
     cy="509.96701"
     id="ellipse64"
     r="1.7212501"
     style="fill:#0000ff;stroke:none;stroke-opacity:1" />
  <circle
     cx="1089.4235"
     cy="523.737"
     id="ellipse66"
     r="1.7212501"
     style="fill:#0000ff;stroke:none;stroke-opacity:1" />
  <circle
     cx="1089.4235"
     cy="516.85199"
     id="ellipse68"
     r="1.7212501"
     style="fill:#0000ff;stroke:none;stroke-opacity:1" />
  <circle
     cx="1138.7634"
     cy="496.19699"
     id="ellipse70"
     r="1.7212501"
     style="fill:#0000ff;stroke:none;stroke-opacity:1" />
  <circle
     cx="1138.7634"
     cy="509.96701"
     id="ellipse72"
     r="1.7212501"
     style="fill:#0000ff;stroke:none;stroke-opacity:1" />
  <circle
     cx="1123.8435"
     cy="513.409"
     id="ellipse74"
     r="1.7212501"
     style="fill:#0000ff;stroke:none;stroke-opacity:1" />
  <circle
     cx="1138.7634"
     cy="503.082"
     id="ellipse76"
     r="1.7212501"
     style="fill:#0000ff;stroke:none;stroke-opacity:1" />
  <circle
     cx="1131.8834"
     cy="511.11398"
     id="ellipse78"
     r="1.7212501"
     style="fill:#0000ff;stroke:none;stroke-opacity:1" />
  <circle
     cx="1113.5234"
     cy="483.57401"
     id="ellipse80"
     r="1.7212501"
     style="fill:#f47d23;stroke:none;stroke-opacity:1" />
  <circle
     cx="1083.6835"
     cy="483.57401"
     id="ellipse82"
     r="1.7212501"
     style="fill:#f47d23;stroke:none;stroke-opacity:1" />
  <circle
     cx="1092.8634"
     cy="483.57401"
     id="ellipse84"
     r="1.7212501"
     style="fill:#f47d23;stroke:none;stroke-opacity:1" />
  <circle
     cx="1103.1935"
     cy="483.57401"
     id="ellipse86"
     r="1.7212501"
     style="fill:#f47d23;stroke:none;stroke-opacity:1" />
  <circle
     cx="1119.2534"
     cy="483.57401"
     id="ellipse88"
     r="1.7212501"
     style="fill:#f47d23;stroke:none;stroke-opacity:1" />
  <circle
     cx="1146.7935"
     cy="462.91898"
     id="ellipse90"
     r="1.7212501"
     style="fill:#f47d23;stroke:none;stroke-opacity:1" />
  <circle
     cx="1133.0234"
     cy="462.91898"
     id="ellipse92"
     r="1.7212501"
     style="fill:#f47d23;stroke:none;stroke-opacity:1" />
  <circle
     cx="1119.2534"
     cy="462.91898"
     id="ellipse94"
     r="1.7212501"
     style="fill:#f47d23;stroke:none;stroke-opacity:1" />
  <circle
     cx="1098.6035"
     cy="483.57401"
     id="ellipse96"
     r="1.7212501"
     style="fill:#f47d23;stroke:none;stroke-opacity:1" />
  <circle
     cx="1133.0234"
     cy="483.57401"
     id="ellipse98"
     r="1.7212501"
     style="fill:#f47d23;stroke:none;stroke-opacity:1" />
  <circle
     cx="1126.1434"
     cy="483.57401"
     id="ellipse100"
     r="1.7212501"
     style="fill:#f47d23;stroke:none;stroke-opacity:1" />
  <circle
     cx="1133.0234"
     cy="476.689"
     id="ellipse102"
     r="1.7212501"
     style="fill:#f47d23;stroke:none;stroke-opacity:1" />
  <circle
     cx="1133.0234"
     cy="468.65701"
     id="ellipse104"
     r="1.7212501"
     style="fill:#f47d23;stroke:none;stroke-opacity:1" />
  <circle
     cx="1107.7834"
     cy="483.57401"
     id="ellipse106"
     r="1.7212501"
     style="fill:#f47d23;stroke:none;stroke-opacity:1" />
  <circle
     cx="1107.7834"
     cy="468.65701"
     id="ellipse108"
     r="1.7212501"
     style="fill:#f47d23;stroke:none;stroke-opacity:1" />
  <circle
     cx="1107.7834"
     cy="476.689"
     id="ellipse110"
     r="1.7212501"
     style="fill:#f47d23;stroke:none;stroke-opacity:1" />
  <circle
     cx="1107.7834"
     cy="462.91898"
     id="ellipse112"
     r="1.7212501"
     style="fill:#f47d23;stroke:none;stroke-opacity:1" />
  <circle
     cx="1113.5234"
     cy="462.91898"
     id="ellipse114"
     r="1.7212501"
     style="fill:#f47d23;stroke:none;stroke-opacity:1" />
  <circle
     cx="1126.1434"
     cy="462.91898"
     id="ellipse116"
     r="1.7212501"
     style="fill:#f47d23;stroke:none;stroke-opacity:1" />
  <circle
     cx="1141.0635"
     cy="462.91898"
     id="ellipse118"
     r="1.7212501"
     style="fill:#f47d23;stroke:none;stroke-opacity:1" />
  <circle
     cx="1097.4535"
     cy="506.52402"
     id="ellipse120"
     r="1.7212501"
     style="fill:#0000ff;stroke:none;stroke-opacity:1" />
  <circle
     cx="1105.4835"
     cy="504.22897"
     id="ellipse122"
     r="1.7212501"
     style="fill:#0000ff;stroke:none;stroke-opacity:1" />
  <circle
     cx="1114.6635"
     cy="501.93399"
     id="ellipse124"
     r="1.7212501"
     style="fill:#0000ff;stroke:none;stroke-opacity:1" />
  <circle
     cx="1122.7035"
     cy="499.63901"
     id="ellipse126"
     r="1.7212501"
     style="fill:#0000ff;stroke:none;stroke-opacity:1" />
  <circle
     cx="1130.7335"
     cy="497.34396"
     id="ellipse128"
     r="1.7212501"
     style="fill:#0000ff;stroke:none;stroke-opacity:1" />
  <circle
     cx="1077.9435"
     cy="523.737"
     id="ellipse130"
     r="1.7212501"
     style="fill:#0000ff;stroke:none;stroke-opacity:1" />
  <circle
     cx="1083.6835"
     cy="523.737"
     id="ellipse132"
     r="1.7212501"
     style="fill:#0000ff;stroke:none;stroke-opacity:1" />
  <circle
     cx="1145.6534"
     cy="496.19699"
     id="ellipse134"
     r="1.7212501"
     style="fill:#0000ff;stroke:none;stroke-opacity:1" />
  <circle
     cx="1151.3834"
     cy="496.19699"
     id="ellipse136"
     r="1.7212501"
     style="fill:#0000ff;stroke:none;stroke-opacity:1" />
  <rect
     x="710.17346"
     y="318.90799"
     width="114.75"
     height="114.75"
     id="rect138"
     style="fill:#ffffff;stroke:#00007f;stroke-opacity:1" />
  <polyline
     points="823.987500,525.250000 892.837500,525.250000"
     id="polyline140"
     style="fill:none;stroke:#bf0000;stroke-opacity:1"
     transform="translate(-108.07652,-148.967)" />
  <polygon
     points="892.8375,536.725 927.2625,525.25 927.2625,525.25 892.8375,513.775 "
     id="polygon142"
     style="fill:#bf0000;stroke:#bf0000;stroke-opacity:1"
     transform="translate(-108.07652,-148.967)" />
  <text
     x="767.54846"
     y="301.69598"
     dominant-baseline="central"
     font-size="29"
     id="text144"
     style="font-size:29px;font-family:helvetica;text-anchor:middle;fill:#0000ff">THea_degC</text>
  <text
     x="733.12347"
     y="361.858"
     dominant-baseline="central"
     font-size="46"
     id="text146"
     style="font-size:46px;font-family:helvetica;text-anchor:middle;fill:#000000">K</text>
  <text
     x="791.97345"
     y="418.70798"
     dominant-baseline="central"
     font-size="23"
     id="text148"
     style="font-size:23px;font-family:helvetica;text-anchor:middle;fill:#000000">degC</text>
  <rect
     x="710.17346"
     y="491.03299"
     width="114.75"
     height="114.75"
     id="rect150"
     style="fill:#ffffff;stroke:#00007f;stroke-opacity:1" />
  <polyline
     points="823.987500,697.375000 892.837500,697.375000"
     id="polyline152"
     style="fill:none;stroke:#bf0000;stroke-opacity:1"
     transform="translate(-108.07652,-148.967)" />
  <polygon
     points="892.8375,708.85 927.2625,697.375 927.2625,697.375 892.8375,685.9 "
     id="polygon154"
     style="fill:#bf0000;stroke:#bf0000;stroke-opacity:1"
     transform="translate(-108.07652,-148.967)" />
  <text
     x="767.54846"
     y="473.82101"
     dominant-baseline="central"
     font-size="29"
     id="text156"
     style="font-size:29px;font-family:helvetica;text-anchor:middle;fill:#0000ff">TCoo_degC</text>
  <text
     x="733.12347"
     y="533.98303"
     dominant-baseline="central"
     font-size="46"
     id="text158"
     style="font-size:46px;font-family:helvetica;text-anchor:middle;fill:#000000">K</text>
  <text
     x="791.97345"
     y="590.83301"
     dominant-baseline="central"
     font-size="23"
     id="text160"
     style="font-size:23px;font-family:helvetica;text-anchor:middle;fill:#000000">degC</text>
  <rect
     x="1054.4235"
     y="720.53302"
     width="114.75"
     height="114.75"
     id="rect162"
     style="fill:#ffffff;stroke:#00007f;stroke-opacity:1" />
  <text
     x="1111.8035"
     y="703.32104"
     dominant-baseline="central"
     font-size="23"
     id="text164"
     style="font-size:23px;font-family:helvetica;text-anchor:middle;fill:#0000ff">scaYFan</text>
  <polygon
     points="1182.0075,887.86 1177.4175,875.2375 1177.4175,875.2375 1172.8275,887.86 "
     id="polygon166"
     style="fill:#c0c0c0;stroke:#c0c0c0;stroke-opacity:1"
     transform="translate(-108.07652,-148.967)" />
  <polyline
     points="1177.417500,882.122500 1177.417500,972.775000"
     id="polyline168"
     style="fill:none;stroke:#c0c0c0;stroke-opacity:1"
     transform="translate(-108.07652,-148.967)" />
  <polygon
     points="1262.3325,970.48 1274.955,965.89 1274.955,965.89 1262.3325,961.3 "
     id="polygon170"
     style="fill:#c0c0c0;stroke:#c0c0c0;stroke-opacity:1"
     transform="translate(-108.07652,-148.967)" />
  <polyline
     points="1171.680000,965.890000 1270.365000,965.890000"
     id="polyline172"
     style="fill:none;stroke:#c0c0c0;stroke-opacity:1"
     transform="translate(-108.07652,-148.967)" />
  <circle
     cx="1062.4535"
     cy="777.90802"
     id="ellipse174"
     r="5.7375002"
     style="fill:#ffffaa;stroke:#1c6cc8;stroke-opacity:1" />
  <text
     x="1146.7935"
     y="824.95599"
     dominant-baseline="central"
     font-size="14"
     id="text176"
     style="font-size:14px;font-family:helvetica;text-anchor:middle;fill:#000000">x</text>
  <text
     x="1060.7335"
     y="729.71301"
     dominant-baseline="central"
     font-size="14"
     id="text178"
     style="font-size:14px;font-family:helvetica;text-anchor:middle;fill:#000000">y</text>
  <circle
     cx="1106.6334"
     cy="804.87402"
     id="ellipse180"
     r="1.7212501"
     style="fill:#0000ff;stroke:none;stroke-opacity:1" />
  <circle
     cx="1115.8135"
     cy="802.57904"
     id="ellipse182"
     r="1.7212501"
     style="fill:#0000ff;stroke:none;stroke-opacity:1" />
  <circle
     cx="1098.6035"
     cy="807.16901"
     id="ellipse184"
     r="1.7212501"
     style="fill:#0000ff;stroke:none;stroke-opacity:1" />
  <circle
     cx="1089.4235"
     cy="796.84204"
     id="ellipse186"
     r="1.7212501"
     style="fill:#0000ff;stroke:none;stroke-opacity:1" />
  <circle
     cx="1089.4235"
     cy="810.612"
     id="ellipse188"
     r="1.7212501"
     style="fill:#0000ff;stroke:none;stroke-opacity:1" />
  <circle
     cx="1089.4235"
     cy="803.72699"
     id="ellipse190"
     r="1.7212501"
     style="fill:#0000ff;stroke:none;stroke-opacity:1" />
  <circle
     cx="1138.7634"
     cy="783.07202"
     id="ellipse192"
     r="1.7212501"
     style="fill:#0000ff;stroke:none;stroke-opacity:1" />
  <circle
     cx="1138.7634"
     cy="796.84204"
     id="ellipse194"
     r="1.7212501"
     style="fill:#0000ff;stroke:none;stroke-opacity:1" />
  <circle
     cx="1123.8435"
     cy="800.284"
     id="ellipse196"
     r="1.7212501"
     style="fill:#0000ff;stroke:none;stroke-opacity:1" />
  <circle
     cx="1138.7634"
     cy="789.95703"
     id="ellipse198"
     r="1.7212501"
     style="fill:#0000ff;stroke:none;stroke-opacity:1" />
  <circle
     cx="1131.8834"
     cy="797.98901"
     id="ellipse200"
     r="1.7212501"
     style="fill:#0000ff;stroke:none;stroke-opacity:1" />
  <circle
     cx="1113.5234"
     cy="770.44904"
     id="ellipse202"
     r="1.7212501"
     style="fill:#f47d23;stroke:none;stroke-opacity:1" />
  <circle
     cx="1083.6835"
     cy="770.44904"
     id="ellipse204"
     r="1.7212501"
     style="fill:#f47d23;stroke:none;stroke-opacity:1" />
  <circle
     cx="1092.8634"
     cy="770.44904"
     id="ellipse206"
     r="1.7212501"
     style="fill:#f47d23;stroke:none;stroke-opacity:1" />
  <circle
     cx="1103.1935"
     cy="770.44904"
     id="ellipse208"
     r="1.7212501"
     style="fill:#f47d23;stroke:none;stroke-opacity:1" />
  <circle
     cx="1119.2534"
     cy="770.44904"
     id="ellipse210"
     r="1.7212501"
     style="fill:#f47d23;stroke:none;stroke-opacity:1" />
  <circle
     cx="1146.7935"
     cy="749.79401"
     id="ellipse212"
     r="1.7212501"
     style="fill:#f47d23;stroke:none;stroke-opacity:1" />
  <circle
     cx="1133.0234"
     cy="749.79401"
     id="ellipse214"
     r="1.7212501"
     style="fill:#f47d23;stroke:none;stroke-opacity:1" />
  <circle
     cx="1119.2534"
     cy="749.79401"
     id="ellipse216"
     r="1.7212501"
     style="fill:#f47d23;stroke:none;stroke-opacity:1" />
  <circle
     cx="1098.6035"
     cy="770.44904"
     id="ellipse218"
     r="1.7212501"
     style="fill:#f47d23;stroke:none;stroke-opacity:1" />
  <circle
     cx="1133.0234"
     cy="770.44904"
     id="ellipse220"
     r="1.7212501"
     style="fill:#f47d23;stroke:none;stroke-opacity:1" />
  <circle
     cx="1126.1434"
     cy="770.44904"
     id="ellipse222"
     r="1.7212501"
     style="fill:#f47d23;stroke:none;stroke-opacity:1" />
  <circle
     cx="1133.0234"
     cy="763.56403"
     id="ellipse224"
     r="1.7212501"
     style="fill:#f47d23;stroke:none;stroke-opacity:1" />
  <circle
     cx="1133.0234"
     cy="755.53204"
     id="ellipse226"
     r="1.7212501"
     style="fill:#f47d23;stroke:none;stroke-opacity:1" />
  <circle
     cx="1107.7834"
     cy="770.44904"
     id="ellipse228"
     r="1.7212501"
     style="fill:#f47d23;stroke:none;stroke-opacity:1" />
  <circle
     cx="1107.7834"
     cy="755.53204"
     id="ellipse230"
     r="1.7212501"
     style="fill:#f47d23;stroke:none;stroke-opacity:1" />
  <circle
     cx="1107.7834"
     cy="763.56403"
     id="ellipse232"
     r="1.7212501"
     style="fill:#f47d23;stroke:none;stroke-opacity:1" />
  <circle
     cx="1107.7834"
     cy="749.79401"
     id="ellipse234"
     r="1.7212501"
     style="fill:#f47d23;stroke:none;stroke-opacity:1" />
  <circle
     cx="1113.5234"
     cy="749.79401"
     id="ellipse236"
     r="1.7212501"
     style="fill:#f47d23;stroke:none;stroke-opacity:1" />
  <circle
     cx="1126.1434"
     cy="749.79401"
     id="ellipse238"
     r="1.7212501"
     style="fill:#f47d23;stroke:none;stroke-opacity:1" />
  <circle
     cx="1141.0635"
     cy="749.79401"
     id="ellipse240"
     r="1.7212501"
     style="fill:#f47d23;stroke:none;stroke-opacity:1" />
  <circle
     cx="1097.4535"
     cy="793.39905"
     id="ellipse242"
     r="1.7212501"
     style="fill:#0000ff;stroke:none;stroke-opacity:1" />
  <circle
     cx="1105.4835"
     cy="791.104"
     id="ellipse244"
     r="1.7212501"
     style="fill:#0000ff;stroke:none;stroke-opacity:1" />
  <circle
     cx="1114.6635"
     cy="788.80902"
     id="ellipse246"
     r="1.7212501"
     style="fill:#0000ff;stroke:none;stroke-opacity:1" />
  <circle
     cx="1122.7035"
     cy="786.51404"
     id="ellipse248"
     r="1.7212501"
     style="fill:#0000ff;stroke:none;stroke-opacity:1" />
  <circle
     cx="1130.7335"
     cy="784.21899"
     id="ellipse250"
     r="1.7212501"
     style="fill:#0000ff;stroke:none;stroke-opacity:1" />
  <circle
     cx="1077.9435"
     cy="810.612"
     id="ellipse252"
     r="1.7212501"
     style="fill:#0000ff;stroke:none;stroke-opacity:1" />
  <circle
     cx="1083.6835"
     cy="810.612"
     id="ellipse254"
     r="1.7212501"
     style="fill:#0000ff;stroke:none;stroke-opacity:1" />
  <circle
     cx="1145.6534"
     cy="783.07202"
     id="ellipse256"
     r="1.7212501"
     style="fill:#0000ff;stroke:none;stroke-opacity:1" />
  <circle
     cx="1151.3834"
     cy="783.07202"
     id="ellipse258"
     r="1.7212501"
     style="fill:#0000ff;stroke:none;stroke-opacity:1" />
  <text
     x="538.04846"
     y="473.82101"
     dominant-baseline="central"
     font-size="23"
     id="text262"
     style="font-size:23px;font-family:helvetica;text-anchor:middle;fill:#0000ff">setPoiVAV</text>
  <polygon
     points="679.4025,744.4225 692.025,740.98 692.025,740.98 679.4025,737.5375 "
     id="polygon264"
     style="fill:#5f5f5f;stroke:#5f5f5f;stroke-opacity:1"
     transform="translate(-108.07652,-148.967)" />
  <polyline
     points="650.715000,740.980000 690.877500,740.980000"
     id="polyline266"
     style="fill:none;stroke:#5f5f5f;stroke-opacity:1"
     transform="translate(-108.07652,-148.967)" />
  <polyline
     points="615.142500,709.997500 615.142500,732.947500"
     id="polyline268"
     style="fill:none;stroke:#5f5f5f;stroke-opacity:1"
     transform="translate(-108.07652,-148.967)" />
  <polygon
     points="618.585,709.9975 615.1425,697.375 615.1425,697.375 611.7,709.9975 "
     id="polygon270"
     style="fill:#5f5f5f;stroke:#5f5f5f;stroke-opacity:1"
     transform="translate(-108.07652,-148.967)" />
  <text
     x="499.32047"
     y="557.58801"
     dominant-baseline="central"
     font-size="11"
     id="text272"
     style="font-size:11px;font-family:helvetica;text-anchor:middle;fill:#000000">T</text>
  <text
     x="581.65344"
     y="598.61102"
     dominant-baseline="central"
     font-size="10"
     id="text274"
     style="font-size:10px;font-family:helvetica;text-anchor:middle;fill:#000000">u</text>
  <polyline
     points="620.880000,700.817500 628.912500,700.817500 638.092500,721.472500 661.042500,721.472500 667.927500,732.947500 680.550000,732.947500"
     id="polyline276"
     style="fill:none;stroke:#0000ff;stroke-width:2;stroke-opacity:1"
     transform="translate(-108.07652,-148.967)" />
  <polyline
     points="620.880000,700.817500 628.912500,700.817500 638.092500,721.472500 647.272500,721.472500 656.452500,735.242500 680.550000,735.242500"
     id="polyline278"
     style="fill:none;stroke:#ff0000;stroke-width:2;stroke-dasharray:2, 2;stroke-opacity:1"
     transform="translate(-108.07652,-148.967)" />
  <polyline
     points="643.830000,740.980000 611.700000,740.980000"
     id="polyline280"
     style="fill:none;stroke:#5f5f5f;stroke-opacity:1"
     transform="translate(-108.07652,-148.967)" />
  <polygon
     points="622.0275,744.4225 609.405,740.98 609.405,740.98 622.0275,737.5375 "
     id="polygon282"
     style="fill:#5f5f5f;stroke:#5f5f5f;stroke-opacity:1"
     transform="translate(-108.07652,-148.967)" />
  <text
     x="508.22058"
     y="488.11606"
     dominant-baseline="central"
     font-size="10"
     id="text284"
     style="font-size:8.1600256px;font-family:helvetica;text-anchor:middle;fill:#00007f"
     transform="scale(0.9707097,1.0301741)">uHea</text>
  <text
     x="478.98352"
     y="544.54114"
     dominant-baseline="central"
     font-size="10"
     id="text286"
     style="font-size:7.53218126px;font-family:helvetica;text-anchor:middle;fill:#00007f"
     transform="scale(1.0311443,0.96979637)">uCoo</text>
  <text
     x="572.52246"
     y="513.409"
     dominant-baseline="central"
     font-size="10"
     id="text288"
     style="font-size:10px;font-family:helvetica;text-anchor:middle;fill:#00007f">THeaEco</text>
  <text
     x="578.52246"
     y="547.83405"
     dominant-baseline="central"
     font-size="10"
     id="text290"
     style="font-size:10px;font-family:helvetica;text-anchor:middle;fill:#00007f">TCoo</text>
  <text
     x="587.96448"
     y="583.40704"
     dominant-baseline="central"
     font-size="13"
     id="text292"
     style="font-size:13px;font-family:helvetica;text-anchor:middle;fill:#00007f">y</text>
  <text
     x="465.93564"
     y="605.46027"
     dominant-baseline="central"
     font-size="10"
     id="text294"
     style="font-size:7.07614279px;font-family:helvetica;text-anchor:middle;fill:#00007f"
     transform="scale(1.0584817,0.94474943)">TZon</text>
  <text
     x="492.05765"
     y="595.79272"
     dominant-baseline="central"
     font-size="10"
     id="text296"
     style="font-size:7.44654083px;font-family:helvetica;text-anchor:middle;fill:#00007f">TOut</text>
  <polyline
     points="615.142500,668.687500 615.142500,691.637500"
     id="polyline298"
     style="fill:none;stroke:#5f5f5f;stroke-opacity:1"
     transform="translate(-108.07652,-148.967)" />
  <polygon
     points="618.585,668.6875 615.1425,656.065 615.1425,656.065 611.7,668.6875 "
     id="polygon300"
     style="fill:#5f5f5f;stroke:#5f5f5f;stroke-opacity:1"
     transform="translate(-108.07652,-148.967)" />
  <text
     x="499.32047"
     y="515.13104"
     dominant-baseline="central"
     font-size="11"
     id="text302"
     style="font-size:11px;font-family:helvetica;text-anchor:middle;fill:#000000">y</text>
  <polyline
     points="619.732500,672.130000 630.060000,685.900000 656.452500,685.900000 662.190000,676.720000 667.927500,676.720000 674.812500,666.392500"
     id="polyline304"
     style="fill:none;stroke:#000000;stroke-opacity:1"
     transform="translate(-108.07652,-148.967)" />
  <polyline
     points="656.452500,685.900000 667.927500,685.900000 674.812500,666.392500 662.190000,666.392500 656.452500,685.900000"
     id="polyline306"
     style="fill:none;stroke:#000000;stroke-opacity:1"
     transform="translate(-108.07652,-148.967)" />
  <text
     x="493.59473"
     y="547.92316"
     dominant-baseline="central"
     font-size="10"
     id="text308"
     style="font-size:6.12437391px;font-family:helvetica;text-anchor:middle;fill:#00007f">TSetZon</text>
  <rect
     x="21.673485"
     y="669.15802"
     width="114.75"
     height="114.75"
     id="rect310"
     style="fill:#ffffff;stroke:#00007f;stroke-opacity:1" />
  <text
     x="79.048485"
     y="655.94604"
     dominant-baseline="central"
     font-size="23"
     id="text312"
     style="font-size:23px;font-family:helvetica;text-anchor:middle;fill:#0000ff">TZon</text>
  <polyline
     points="141.225000,830.485000 141.225000,915.400000"
     id="polyline314"
     style="fill:none;stroke:#c0c0c0;stroke-opacity:1"
     transform="translate(-108.07652,-148.967)" />
  <polygon
     points="145.815,830.485 141.225,817.8625 141.225,817.8625 136.635,830.485 "
     id="polygon316"
     style="fill:#c0c0c0;stroke:#c0c0c0;stroke-opacity:1"
     transform="translate(-108.07652,-148.967)" />
  <polyline
     points="135.487500,909.662500 234.172500,909.662500"
     id="polyline318"
     style="fill:none;stroke:#c0c0c0;stroke-opacity:1"
     transform="translate(-108.07652,-148.967)" />
  <polygon
     points="226.14,914.2525 238.7625,909.6625 238.7625,909.6625 226.14,905.0725 "
     id="polygon320"
     style="fill:#c0c0c0;stroke:#c0c0c0;stroke-opacity:1"
     transform="translate(-108.07652,-148.967)" />
  <polyline
     points="141.225000,869.500000 233.025000,869.500000"
     id="polyline322"
     style="fill:none;stroke:#000000;stroke-opacity:1"
     transform="translate(-108.07652,-148.967)" />
  <text
     x="79.048485"
     y="807.12"
     dominant-baseline="central"
     font-size="23"
     id="text324"
     style="font-size:23px;font-family:helvetica;text-anchor:middle;fill:#000000">k=273.15 + 28</text>
  <rect
     x="21.673485"
     y="835.28302"
     width="114.75"
     height="114.75"
     id="rect326"
     style="fill:#ffffff;stroke:#00007f;stroke-opacity:1" />
  <text
     x="79.048485"
     y="828.07104"
     dominant-baseline="central"
     font-size="23"
     id="text328"
     style="font-size:23px;font-family:helvetica;text-anchor:middle;fill:#0000ff">TOut</text>
  <polyline
     points="141.225000,1002.610000 141.225000,1087.525000"
     id="polyline330"
     style="fill:none;stroke:#c0c0c0;stroke-opacity:1"
     transform="translate(-108.07652,-148.967)" />
  <polygon
     points="145.815,1002.61 141.225,989.9875 141.225,989.9875 136.635,1002.61 "
     id="polygon332"
     style="fill:#c0c0c0;stroke:#c0c0c0;stroke-opacity:1"
     transform="translate(-108.07652,-148.967)" />
  <polyline
     points="135.487500,1081.787500 234.172500,1081.787500"
     id="polyline334"
     style="fill:none;stroke:#c0c0c0;stroke-opacity:1"
     transform="translate(-108.07652,-148.967)" />
  <polygon
     points="226.14,1086.3775 238.7625,1081.7875 238.7625,1081.7875 226.14,1077.1975 "
     id="polygon336"
     style="fill:#c0c0c0;stroke:#c0c0c0;stroke-opacity:1"
     transform="translate(-108.07652,-148.967)" />
  <polyline
     points="141.225000,1041.625000 233.025000,1041.625000"
     id="polyline338"
     style="fill:none;stroke:#000000;stroke-opacity:1"
     transform="translate(-108.07652,-148.967)" />
  <text
     x="79.048485"
     y="973.24298"
     dominant-baseline="central"
     font-size="23"
     id="text340"
     style="font-size:23px;font-family:helvetica;text-anchor:middle;fill:#000000">k=273.15 + 22</text>
  <text
     x="79.048485"
     y="105.145"
     dominant-baseline="central"
     font-size="23"
     id="text342"
     style="font-size:23px;font-family:helvetica;text-anchor:middle;fill:#0000ff">uHea</text>
  <rect
     x="21.673485"
     y="112.35801"
     width="114.75"
     height="114.75"
     id="rect344"
     style="fill:#ffffff;stroke:#00007f;stroke-opacity:1" />
  <polyline
     points="141.225000,279.685000 141.225000,364.600000"
     id="polyline346"
     style="fill:none;stroke:#c0c0c0;stroke-opacity:1"
     transform="translate(-108.07652,-148.967)" />
  <polygon
     points="145.815,279.685 141.225,267.0625 141.225,267.0625 136.635,279.685 "
     id="polygon348"
     style="fill:#c0c0c0;stroke:#c0c0c0;stroke-opacity:1"
     transform="translate(-108.07652,-148.967)" />
  <polyline
     points="135.487500,358.862500 234.172500,358.862500"
     id="polyline350"
     style="fill:none;stroke:#c0c0c0;stroke-opacity:1"
     transform="translate(-108.07652,-148.967)" />
  <polygon
     points="226.14,363.4525 238.7625,358.8625 238.7625,358.8625 226.14,354.2725 "
     id="polygon352"
     style="fill:#c0c0c0;stroke:#c0c0c0;stroke-opacity:1"
     transform="translate(-108.07652,-148.967)" />
  <polyline
     points="141.225000,358.862500 164.175000,358.862500 204.911250,296.897500"
     id="polyline354"
     style="fill:none;stroke:#000000;stroke-opacity:1"
     transform="translate(-108.07652,-148.967)" />
  <text
     x="79.048485"
     y="250.321"
     dominant-baseline="central"
     font-size="23"
     id="text356"
     style="font-size:23px;font-family:helvetica;text-anchor:middle;fill:#000000">duration=0.25 s</text>
  <polyline
     points="204.911250,296.897500 236.467500,296.897500"
     id="polyline358"
     style="fill:none;stroke:#000000;stroke-opacity:1"
     transform="translate(-108.07652,-148.967)" />
  <text
     x="79.048485"
     y="311.69598"
     dominant-baseline="central"
     font-size="23"
     id="text360"
     style="font-size:23px;font-family:helvetica;text-anchor:middle;fill:#0000ff">uCoo</text>
  <rect
     x="21.673485"
     y="318.90799"
     width="114.75"
     height="114.75"
     id="rect362"
     style="fill:#ffffff;stroke:#00007f;stroke-opacity:1" />
  <polyline
     points="141.225000,486.235000 141.225000,571.150000"
     id="polyline364"
     style="fill:none;stroke:#c0c0c0;stroke-opacity:1"
     transform="translate(-108.07652,-148.967)" />
  <polygon
     points="145.815,486.235 141.225,473.6125 141.225,473.6125 136.635,486.235 "
     id="polygon366"
     style="fill:#c0c0c0;stroke:#c0c0c0;stroke-opacity:1"
     transform="translate(-108.07652,-148.967)" />
  <polyline
     points="135.487500,565.412500 234.172500,565.412500"
     id="polyline368"
     style="fill:none;stroke:#c0c0c0;stroke-opacity:1"
     transform="translate(-108.07652,-148.967)" />
  <polygon
     points="226.14,570.0025 238.7625,565.4125 238.7625,565.4125 226.14,560.8225 "
     id="polygon370"
     style="fill:#c0c0c0;stroke:#c0c0c0;stroke-opacity:1"
     transform="translate(-108.07652,-148.967)" />
  <polyline
     points="141.225000,565.412500 164.175000,565.412500 204.911250,503.447500"
     id="polyline372"
     style="fill:none;stroke:#000000;stroke-opacity:1"
     transform="translate(-108.07652,-148.967)" />
  <text
     x="79.048485"
     y="456.86996"
     dominant-baseline="central"
     font-size="23"
     id="text374"
     style="font-size:23px;font-family:helvetica;text-anchor:middle;fill:#000000">duration=0.25 s</text>
  <polyline
     points="204.911250,503.447500 236.467500,503.447500"
     id="polyline376"
     style="fill:none;stroke:#000000;stroke-opacity:1"
     transform="translate(-108.07652,-148.967)" />
  <rect
     x="21.673485"
     y="491.03299"
     width="114.75"
     height="114.75"
     id="rect378"
     style="fill:#ffffff;stroke:#00007f;stroke-opacity:1" />
  <text
     x="79.048485"
     y="483.82101"
     dominant-baseline="central"
     font-size="23"
     id="text380"
     style="font-size:23px;font-family:helvetica;text-anchor:middle;fill:#0000ff">TSetZon</text>
  <polyline
     points="141.225000,658.360000 141.225000,743.275000"
     id="polyline382"
     style="fill:none;stroke:#c0c0c0;stroke-opacity:1"
     transform="translate(-108.07652,-148.967)" />
  <polygon
     points="145.815,658.36 141.225,645.7375 141.225,645.7375 136.635,658.36 "
     id="polygon384"
     style="fill:#c0c0c0;stroke:#c0c0c0;stroke-opacity:1"
     transform="translate(-108.07652,-148.967)" />
  <polyline
     points="135.487500,737.537500 234.172500,737.537500"
     id="polyline386"
     style="fill:none;stroke:#c0c0c0;stroke-opacity:1"
     transform="translate(-108.07652,-148.967)" />
  <polygon
     points="226.14,742.1275 238.7625,737.5375 238.7625,737.5375 226.14,732.9475 "
     id="polygon388"
     style="fill:#c0c0c0;stroke:#c0c0c0;stroke-opacity:1"
     transform="translate(-108.07652,-148.967)" />
  <polyline
     points="141.225000,697.375000 233.025000,697.375000"
     id="polyline390"
     style="fill:none;stroke:#000000;stroke-opacity:1"
     transform="translate(-108.07652,-148.967)" />
  <text
     x="79.048485"
     y="628.995"
     dominant-baseline="central"
     font-size="23"
     id="text392"
     style="font-size:23px;font-family:helvetica;text-anchor:middle;fill:#000000">k=273.15 + 23</text>
  <polyline
     points="250.237500,1041.625000 324.825000,1041.625000 324.825000,743.275000 577.275000,743.275000"
     id="polyline394"
     style="fill:none;stroke:#ffffff;stroke-width:5;stroke-opacity:1"
     transform="translate(-108.07652,-148.967)" />
  <polyline
     points="250.237500,1041.625000 324.825000,1041.625000 324.825000,743.275000 577.275000,743.275000"
     id="polyline396"
     style="fill:none;stroke:#00007f;stroke-opacity:1"
     transform="translate(-108.07652,-148.967)" />
  <polyline
     points="250.237500,318.700000 336.300000,318.700000 336.300000,651.475000 577.275000,651.475000"
     id="polyline398"
     style="fill:none;stroke:#ffffff;stroke-width:5;stroke-opacity:1"
     transform="translate(-108.07652,-148.967)" />
  <polyline
     points="250.237500,318.700000 336.300000,318.700000 336.300000,651.475000 577.275000,651.475000"
     id="polyline400"
     style="fill:none;stroke:#00007f;stroke-opacity:1"
     transform="translate(-108.07652,-148.967)" />
  <polyline
     points="250.237500,525.250000 301.875000,525.250000 301.875000,674.425000 577.275000,674.425000"
     id="polyline402"
     style="fill:none;stroke:#ffffff;stroke-width:5;stroke-opacity:1"
     transform="translate(-108.07652,-148.967)" />
  <polyline
     points="250.237500,525.250000 301.875000,525.250000 301.875000,674.425000 577.275000,674.425000"
     id="polyline404"
     style="fill:none;stroke:#00007f;stroke-opacity:1"
     transform="translate(-108.07652,-148.967)" />
  <polyline
     points="250.237500,697.375000 577.275000,697.375000"
     id="polyline406"
     style="fill:none;stroke:#ffffff;stroke-width:5;stroke-opacity:1"
     transform="translate(-108.07652,-148.967)" />
  <polyline
     points="250.237500,697.375000 577.275000,697.375000"
     id="polyline408"
     style="fill:none;stroke:#00007f;stroke-opacity:1"
     transform="translate(-108.07652,-148.967)" />
  <polyline
     points="250.237500,318.700000 393.675000,318.700000"
     id="polyline410"
     style="fill:none;stroke:#ffffff;stroke-width:5;stroke-opacity:1"
     transform="translate(-108.07652,-148.967)" />
  <polyline
     points="250.237500,318.700000 393.675000,318.700000"
     id="polyline412"
     style="fill:none;stroke:#00007f;stroke-opacity:1"
     transform="translate(-108.07652,-148.967)" />
  <polyline
     points="250.237500,525.250000 301.875000,525.250000 301.875000,387.550000 393.675000,387.550000"
     id="polyline414"
     style="fill:none;stroke:#ffffff;stroke-width:5;stroke-opacity:1"
     transform="translate(-108.07652,-148.967)" />
  <polyline
     points="250.237500,525.250000 301.875000,525.250000 301.875000,387.550000 393.675000,387.550000"
     id="polyline416"
     style="fill:none;stroke:#00007f;stroke-opacity:1"
     transform="translate(-108.07652,-148.967)" />
  <polyline
     points="1151.025000,685.900000 1105.125000,685.900000 1105.125000,353.125000 525.637500,353.125000"
     id="polyline418"
     style="fill:none;stroke:#ffffff;stroke-width:5;stroke-opacity:1"
     transform="translate(-108.07652,-148.967)" />
  <polyline
     points="1151.025000,685.900000 1105.125000,685.900000 1105.125000,353.125000 525.637500,353.125000"
     id="polyline420"
     style="fill:none;stroke:#00007f;stroke-opacity:1"
     transform="translate(-108.07652,-148.967)" />
  <polyline
     points="709.237500,662.950000 760.875000,662.950000 760.875000,525.250000 806.775000,525.250000"
     id="polyline422"
     style="fill:none;stroke:#ffffff;stroke-width:5;stroke-opacity:1"
     transform="translate(-108.07652,-148.967)" />
  <polyline
     points="709.237500,662.950000 760.875000,662.950000 760.875000,525.250000 806.775000,525.250000"
     id="polyline424"
     style="fill:none;stroke:#00007f;stroke-opacity:1"
     transform="translate(-108.07652,-148.967)" />
  <polyline
     points="709.237500,697.375000 806.775000,697.375000"
     id="polyline426"
     style="fill:none;stroke:#ffffff;stroke-width:5;stroke-opacity:1"
     transform="translate(-108.07652,-148.967)" />
  <polyline
     points="709.237500,697.375000 806.775000,697.375000"
     id="polyline428"
     style="fill:none;stroke:#00007f;stroke-opacity:1"
     transform="translate(-108.07652,-148.967)" />
  <polyline
     points="938.737500,525.250000 990.375000,525.250000 990.375000,634.262500 1151.025000,634.262500"
     id="polyline430"
     style="fill:none;stroke:#ffffff;stroke-width:5;stroke-opacity:1"
     transform="translate(-108.07652,-148.967)" />
  <polyline
     points="938.737500,525.250000 990.375000,525.250000 990.375000,634.262500 1151.025000,634.262500"
     id="polyline432"
     style="fill:none;stroke:#00007f;stroke-opacity:1"
     transform="translate(-108.07652,-148.967)" />
  <polyline
     points="938.737500,697.375000 990.375000,697.375000 990.375000,645.737500 1151.025000,645.737500"
     id="polyline434"
     style="fill:none;stroke:#ffffff;stroke-width:5;stroke-opacity:1"
     transform="translate(-108.07652,-148.967)" />
  <polyline
     points="938.737500,697.375000 990.375000,697.375000 990.375000,645.737500 1151.025000,645.737500"
     id="polyline436"
     style="fill:none;stroke:#00007f;stroke-opacity:1"
     transform="translate(-108.07652,-148.967)" />
  <polyline
     points="709.237500,731.800000 760.875000,731.800000 760.875000,926.875000 1151.025000,926.875000"
     id="polyline438"
     style="fill:none;stroke:#ffffff;stroke-width:5;stroke-opacity:1"
     transform="translate(-108.07652,-148.967)" />
  <polyline
     points="709.237500,731.800000 760.875000,731.800000 760.875000,926.875000 1151.025000,926.875000"
     id="polyline440"
     style="fill:none;stroke:#00007f;stroke-opacity:1"
     transform="translate(-108.07652,-148.967)" />
  <polyline
     points="525.637500,353.125000 1105.125000,353.125000 1105.125000,972.775000 1151.025000,972.775000"
     id="polyline442"
     style="fill:none;stroke:#ffffff;stroke-width:5;stroke-opacity:1"
     transform="translate(-108.07652,-148.967)" />
  <polyline
     points="525.637500,353.125000 1105.125000,353.125000 1105.125000,972.775000 1151.025000,972.775000"
     id="polyline444"
     style="fill:none;stroke:#00007f;stroke-opacity:1"
     transform="translate(-108.07652,-148.967)" />
  <polyline
     points="577.275000,720.325000 301.875000,720.325000 301.875000,869.500000 250.237500,869.500000"
     id="polyline446"
     style="fill:none;stroke:#ffffff;stroke-width:5;stroke-opacity:1"
     transform="translate(-108.07652,-148.967)" />
  <polyline
     points="577.275000,720.325000 301.875000,720.325000 301.875000,869.500000 250.237500,869.500000"
     id="polyline448"
     style="fill:none;stroke:#00007f;stroke-opacity:1"
     transform="translate(-108.07652,-148.967)" />
  <circle
     cx="193.79848"
     cy="376.28299"
     id="ellipse450"
     r="3"
     style="fill:#00007f;stroke:#00007f" />
  <circle
     cx="228.22346"
     cy="169.73302"
     id="ellipse452"
     r="3"
     style="fill:#00007f;stroke:#00007f" />
  <circle
     cx="997.04346"
     cy="536.93304"
     id="ellipse454"
     r="3"
     style="fill:#00007f;stroke:#00007f" />
  <polygon
     points="382.2,330.175 382.2,307.225 382.2,307.225 405.15,318.7 "
     id="polygon456"
     style="fill:#00007f;stroke:#00007f;stroke-opacity:1"
     transform="translate(-108.07652,-148.967)" />
  <polygon
     points="382.2,399.025 382.2,376.075 382.2,376.075 405.15,387.55 "
     id="polygon458"
     style="fill:#00007f;stroke:#00007f;stroke-opacity:1"
     transform="translate(-108.07652,-148.967)" />
  <polygon
     points="519.9,358.8625 519.9,347.3875 519.9,347.3875 531.375,353.125 "
     id="polygon460"
     style="fill:#ffffff;stroke:#00007f;stroke-opacity:1"
     transform="translate(-108.07652,-148.967)" />
  <circle
     cx="1042.9435"
     cy="491.03299"
     id="ellipse462"
     r="11.475"
     style="fill:#00007f;stroke:#00007f;stroke-opacity:1" />
  <circle
     cx="1042.9435"
     cy="491.03299"
     id="ellipse464"
     r="11.475"
     style="fill:#00007f;stroke:#00007f;stroke-opacity:1" />
  <polygon
     points="1139.55,674.425 1139.55,697.375 1139.55,697.375 1162.5,685.9 "
     id="polygon466"
     style="fill:#00007f;stroke:#00007f;stroke-opacity:1"
     transform="translate(-108.07652,-148.967)" />
  <polygon
     points="795.3,536.725 795.3,513.775 795.3,513.775 818.25,525.25 "
     id="polygon468"
     style="fill:#00007f;stroke:#00007f;stroke-opacity:1"
     transform="translate(-108.07652,-148.967)" />
  <polygon
     points="933,530.9875 933,519.5125 933,519.5125 944.475,525.25 "
     id="polygon470"
     style="fill:#ffffff;stroke:#00007f;stroke-opacity:1"
     transform="translate(-108.07652,-148.967)" />
  <polygon
     points="795.3,708.85 795.3,685.9 795.3,685.9 818.25,697.375 "
     id="polygon472"
     style="fill:#00007f;stroke:#00007f;stroke-opacity:1"
     transform="translate(-108.07652,-148.967)" />
  <polygon
     points="933,703.1125 933,691.6375 933,691.6375 944.475,697.375 "
     id="polygon474"
     style="fill:#ffffff;stroke:#00007f;stroke-opacity:1"
     transform="translate(-108.07652,-148.967)" />
  <circle
     cx="1042.9435"
     cy="777.90802"
     id="ellipse476"
     r="11.475"
     style="fill:#00007f;stroke:#00007f;stroke-opacity:1" />
  <circle
     cx="1042.9435"
     cy="777.90802"
     id="ellipse478"
     r="11.475"
     style="fill:#00007f;stroke:#00007f;stroke-opacity:1" />
  <polygon
     points="1139.55,961.3 1139.55,984.25 1139.55,984.25 1162.5,972.775 "
     id="polygon480"
     style="fill:#00007f;stroke:#00007f;stroke-opacity:1"
     transform="translate(-108.07652,-148.967)" />
  <polygon
     points="565.8,662.95 565.8,640 565.8,640 588.75,651.475 "
     id="polygon482"
     style="fill:#00007f;stroke:#00007f;stroke-opacity:1"
     transform="translate(-108.07652,-148.967)" />
  <polygon
     points="565.8,685.9 565.8,662.95 565.8,662.95 588.75,674.425 "
     id="polygon484"
     style="fill:#00007f;stroke:#00007f;stroke-opacity:1"
     transform="translate(-108.07652,-148.967)" />
  <polygon
     points="565.8,708.85 565.8,685.9 565.8,685.9 588.75,697.375 "
     id="polygon486"
     style="fill:#00007f;stroke:#00007f;stroke-opacity:1"
     transform="translate(-108.07652,-148.967)" />
  <polygon
     points="565.8,731.8 565.8,708.85 565.8,708.85 588.75,720.325 "
     id="polygon488"
     style="fill:#00007f;stroke:#00007f;stroke-opacity:1"
     transform="translate(-108.07652,-148.967)" />
  <polygon
     points="565.8,754.75 565.8,731.8 565.8,731.8 588.75,743.275 "
     id="polygon490"
     style="fill:#00007f;stroke:#00007f;stroke-opacity:1"
     transform="translate(-108.07652,-148.967)" />
  <polygon
     points="703.5,668.6875 703.5,657.2125 703.5,657.2125 714.975,662.95 "
     id="polygon492"
     style="fill:#ffffff;stroke:#00007f;stroke-opacity:1"
     transform="translate(-108.07652,-148.967)" />
  <polygon
     points="703.5,703.1125 703.5,691.6375 703.5,691.6375 714.975,697.375 "
     id="polygon494"
     style="fill:#ffffff;stroke:#00007f;stroke-opacity:1"
     transform="translate(-108.07652,-148.967)" />
  <polygon
     points="703.5,737.5375 703.5,726.0625 703.5,726.0625 714.975,731.8 "
     id="polygon496"
     style="fill:#ffffff;stroke:#00007f;stroke-opacity:1"
     transform="translate(-108.07652,-148.967)" />
  <polygon
     points="244.5,875.2375 244.5,863.7625 244.5,863.7625 255.975,869.5 "
     id="polygon498"
     style="fill:#ffffff;stroke:#00007f;stroke-opacity:1"
     transform="translate(-108.07652,-148.967)" />
  <polygon
     points="244.5,1047.3625 244.5,1035.8875 244.5,1035.8875 255.975,1041.625 "
     id="polygon500"
     style="fill:#ffffff;stroke:#00007f;stroke-opacity:1"
     transform="translate(-108.07652,-148.967)" />
  <polygon
     points="244.5,324.4375 244.5,312.9625 244.5,312.9625 255.975,318.7 "
     id="polygon502"
     style="fill:#ffffff;stroke:#00007f;stroke-opacity:1"
     transform="translate(-108.07652,-148.967)" />
  <polygon
     points="244.5,530.9875 244.5,519.5125 244.5,519.5125 255.975,525.25 "
     id="polygon504"
     style="fill:#ffffff;stroke:#00007f;stroke-opacity:1"
     transform="translate(-108.07652,-148.967)" />
  <polygon
     points="244.5,703.1125 244.5,691.6375 244.5,691.6375 255.975,697.375 "
     id="polygon506"
     style="fill:#ffffff;stroke:#00007f;stroke-opacity:1"
     transform="translate(-108.07652,-148.967)" />
</svg>
