<svg xmlns="http://www.w3.org/2000/svg" xmlns:xlink="http://www.w3.org/1999/xlink" xmlns:lucid="lucid" width="1140" height="1036.38"><g transform="translate(-140 -83.61713702565902)" lucid:page-tab-id="0_0"><path d="M160 483c0-2.76 2.24-5 5-5h407c2.76 0 5 2.24 5 5v612c0 2.76-2.24 5-5 5H165c-2.76 0-5-2.24-5-5z" stroke="#999" stroke-width="2" fill-opacity="0"/><use xlink:href="#a" transform="matrix(1,0,0,1,180,478) translate(0 614.8)"/><use xlink:href="#b" transform="matrix(1,0,0,1,180,478) translate(65.80000000000001 614.8)"/><use xlink:href="#c" transform="matrix(1,0,0,1,180,478) translate(102.70000000000002 614.8)"/><use xlink:href="#d" transform="matrix(1,0,0,1,180,478) translate(193.40000000000003 614.8)"/><use xlink:href="#e" transform="matrix(1,0,0,1,180,478) translate(230.30000000000004 614.8)"/><path d="M860.55 518.5H405.08l-2.72.9-1.63 2.22-.23 1.42v57.58h-1v-57.66l.28-1.74 1.96-2.68 3.18-1.04h455.63zm31.66 0h-2.3v-1h2.3z"/><path d="M892.5 518.4l-.3.1v-1h.8zM400 595.38l-4.64-14.26h9.28z"/><path d="M400 597l-5.32-16.38h10.64zm-3.95-15.38l3.95 12.14 3.95-12.14z"/><path d="M160 145c0-2.76 2.24-5 5-5h407.5c2.76 0 5 2.24 5 5v328c0 2.76-2.24 5-5 5H165c-2.76 0-5-2.24-5-5z" stroke="#999" stroke-width="2" fill-opacity="0"/><use xlink:href="#f" transform="matrix(1,0,0,1,180,140) translate(0 330.79999999999995)"/><use xlink:href="#g" transform="matrix(1,0,0,1,180,140) translate(102.9 330.79999999999995)"/><use xlink:href="#h" transform="matrix(1,0,0,1,180,140) translate(120.85000000000001 330.79999999999995)"/><use xlink:href="#i" transform="matrix(1,0,0,1,180,140) translate(195.60000000000002 330.79999999999995)"/><use xlink:href="#j" transform="matrix(1,0,0,1,180,140) translate(262.55 330.79999999999995)"/><path d="M920 705c0-2.76 2.24-5 5-5h330c2.76 0 5 2.24 5 5v390c0 2.76-2.24 5-5 5H925c-2.76 0-5-2.24-5-5z" stroke="#999" stroke-width="2" fill-opacity="0"/><use xlink:href="#k" transform="matrix(1,0,0,1,940,700) translate(0 392.79999999999995)"/><use xlink:href="#b" transform="matrix(1,0,0,1,940,700) translate(136.75 392.79999999999995)"/><use xlink:href="#l" transform="matrix(1,0,0,1,940,700) translate(173.65 392.79999999999995)"/><path d="M577 705c0-2.76 2.24-5 5-5h333c2.76 0 5 2.24 5 5v390c0 2.76-2.24 5-5 5H582c-2.76 0-5-2.24-5-5z" stroke="#999" stroke-width="2" fill-opacity="0"/><use xlink:href="#m" transform="matrix(1,0,0,1,597,700) translate(0 392.79999999999995)"/><use xlink:href="#b" transform="matrix(1,0,0,1,597,700) translate(69.75 392.79999999999995)"/><use xlink:href="#n" transform="matrix(1,0,0,1,597,700) translate(106.65 392.79999999999995)"/><path d="M577 145c0-2.76 2.24-5 5-5h673c2.76 0 5 2.24 5 5v149c0 2.76-2.24 5-5 5H582c-2.76 0-5-2.24-5-5z" stroke="#999" stroke-width="2" fill="url(#o)"/><use xlink:href="#p" transform="matrix(1,0,0,1,597,140) translate(0 130.2)"/><use xlink:href="#q" transform="matrix(1,0,0,1,597,140) translate(118.80000000000001 130.2)"/><use xlink:href="#r" transform="matrix(1,0,0,1,597,140) translate(0 151.8)"/><use xlink:href="#s" transform="matrix(1,0,0,1,597,140) translate(113.80000000000001 151.8)"/><path d="M578 304c0-2.76 2.24-5 5-5h672c2.76 0 5 2.24 5 5v392.42c0 2.76-2.24 5-5 5H583c-2.76 0-5-2.24-5-5z" stroke="#999" stroke-width="2" fill-opacity="0"/><use xlink:href="#t" transform="matrix(1,0,0,1,598,299) translate(0 374.2)"/><use xlink:href="#u" transform="matrix(1,0,0,1,598,299) translate(62.85000000000001 374.2)"/><use xlink:href="#v" transform="matrix(1,0,0,1,598,299) translate(0 395.8)"/><path d="M851.07 337.94c0-2.76 2.24-5 5-5h230c2.77 0 5 2.24 5 5v30c0 2.76-2.23 5-5 5h-230c-2.76 0-5-2.24-5-5z" stroke="#000" stroke-width="2" fill="#fff"/><use xlink:href="#w" transform="matrix(1,0,0,1,871.0737676073791,332.9375) translate(8.203703703703695 14.666666666666668)"/><use xlink:href="#x" transform="matrix(1,0,0,1,871.0737676073791,332.9375) translate(69.68518518518519 14.666666666666668)"/><use xlink:href="#y" transform="matrix(1,0,0,1,871.0737676073791,332.9375) translate(129.61111111111111 14.666666666666668)"/><use xlink:href="#z" transform="matrix(1,0,0,1,871.0737676073791,332.9375) translate(51.55555555555556 30.666666666666668)"/><use xlink:href="#A" transform="matrix(1,0,0,1,871.0737676073791,332.9375) translate(77.4814814814815 30.666666666666668)"/><path d="M851 603c0-2.76 2.24-5 5-5h230c2.76 0 5 2.24 5 5v52c0 2.76-2.24 5-5 5H856c-2.76 0-5-2.24-5-5z" stroke="#000" stroke-width="2" fill="#fff"/><use xlink:href="#B" transform="matrix(1,0,0,1,871,598) translate(8.259259259259238 17.666666666666664)"/><use xlink:href="#C" transform="matrix(1,0,0,1,871,598) translate(48.96296296296295 17.666666666666664)"/><use xlink:href="#D" transform="matrix(1,0,0,1,871,598) translate(92.59259259259258 17.666666666666664)"/><use xlink:href="#E" transform="matrix(1,0,0,1,871,598) translate(169.51851851851853 17.666666666666664)"/><use xlink:href="#F" transform="matrix(1,0,0,1,871,598) translate(24.09259259259258 33.666666666666664)"/><use xlink:href="#G" transform="matrix(1,0,0,1,871,598) translate(92.2037037037037 33.666666666666664)"/><use xlink:href="#E" transform="matrix(1,0,0,1,871,598) translate(153.6851851851852 33.666666666666664)"/><use xlink:href="#H" transform="matrix(1,0,0,1,871,598) translate(33.425925925925924 49.66666666666667)"/><use xlink:href="#I" transform="matrix(1,0,0,1,871,598) translate(94.09259259259258 49.66666666666667)"/><use xlink:href="#J" transform="matrix(1,0,0,1,871,598) translate(125.94444444444444 49.66666666666667)"/><use xlink:href="#K" transform="matrix(1,0,0,1,871,598) translate(139.98148148148147 49.66666666666667)"/><path d="M680 745c0-2.76 2.24-5 5-5h150c2.76 0 5 2.24 5 5v50c0 2.76-2.24 5-5 5H685c-2.76 0-5-2.24-5-5z" stroke="#000" stroke-width="2" fill="#fff"/><use xlink:href="#L" transform="matrix(1,0,0,1,700,740) translate(0.11111111111110006 24.666666666666668)"/><use xlink:href="#M" transform="matrix(1,0,0,1,700,740) translate(43.74074074074073 24.666666666666668)"/><use xlink:href="#N" transform="matrix(1,0,0,1,700,740) translate(95.48148148148148 24.666666666666668)"/><use xlink:href="#O" transform="matrix(1,0,0,1,700,740) translate(30.425925925925924 40.66666666666667)"/><use xlink:href="#P" transform="matrix(1,0,0,1,700,740) translate(49.64814814814815 40.66666666666667)"/><path d="M1085.46 840.67c2.5-1.15 6.57-1.15 9.08 0l100.92 46.53c2.5 1.15 2.5 3.03 0 4.18l-100.92 46.53c-2.5 1.16-6.57 1.16-9.08 0L984.54 891.4c-2.5-1.15-2.5-3.03 0-4.18z" stroke="#000" stroke-width="2" fill="#fff"/><use xlink:href="#Q" transform="matrix(1,0,0,1,1035,863.9335133504844) translate(26.51851851851852 12.166666666666664)"/><use xlink:href="#R" transform="matrix(1,0,0,1,1035,863.9335133504844) translate(3.2407407407407334 28.166666666666664)"/><use xlink:href="#S" transform="matrix(1,0,0,1,1035,863.9335133504844) translate(70.5 28.166666666666664)"/><use xlink:href="#T" transform="matrix(1,0,0,1,1035,863.9335133504844) translate(18.388888888888886 44.16666666666667)"/><path d="M901.07 419.08c0-2.77 2.24-5 5-5h130c2.77 0 5 2.23 5 5v30c0 2.76-2.23 5-5 5h-130c-2.76 0-5-2.24-5-5z" stroke="#000" stroke-width="2" fill="#fff"/><use xlink:href="#U" transform="matrix(1,0,0,1,921.0737676073791,414.07511169486133) translate(3.3888888888888857 14.666666666666668)"/><use xlink:href="#V" transform="matrix(1,0,0,1,921.0737676073791,414.07511169486133) translate(28.57407407407407 14.666666666666668)"/><use xlink:href="#W" transform="matrix(1,0,0,1,921.0737676073791,414.07511169486133) translate(55.907407407407405 14.666666666666668)"/><use xlink:href="#X" transform="matrix(1,0,0,1,921.0737676073791,414.07511169486133) translate(31.888888888888886 30.666666666666668)"/><path d="M966.6 480.24c2.47-1.24 6.48-1.24 8.95 0l71.05 35.52c2.47 1.24 2.47 3.24 0 4.48l-71.05 35.52c-2.47 1.24-6.48 1.24-8.95 0l-71.05-35.52c-2.47-1.24-2.47-3.24 0-4.48z" stroke="#000" stroke-width="2" fill="#fff"/><use xlink:href="#Y" transform="matrix(1,0,0,1,931.0737676073791,498) translate(1.1851851851851762 14.666666666666668)"/><use xlink:href="#Z" transform="matrix(1,0,0,1,931.0737676073791,498) translate(25.203703703703702 30.666666666666668)"/><path d="M1064.33 518.5h-14.4v-1h14.4zm43.52-208.72l2.68 1.96 1.04 3.18v198.12l-.28 1.74-1.96 2.68-3.2 1.04h-18.86v-1h18.7l2.74-.9 1.62-2.22.23-1.42V315.08l-.9-2.72-2.2-1.63-1.44-.23H976.15l-2.72.9-1.63 2.22-.23 1.42v.5h-1v-.58l.28-1.74 1.96-2.68 3.2-1.04h130.1z"/><path d="M1049.95 518.5h-.8l.5-.9.3-.1zM971.07 330.32l-4.63-14.27h9.27z"/><path d="M971.07 331.94l-5.32-16.4h10.65zm-3.94-15.4l3.94 12.16 3.95-12.15z"/><use xlink:href="#aa" transform="matrix(1,0,0,1,1064.329614433077,507.2) translate(0 14.4)"/><path d="M860.55 518.5h-4.4l-2.72.9-1.63 2.22-.23 1.42v41.88l.9 2.72 2.22 1.63 1.4.23H966.1l3.18 1.04 1.96 2.68.28 1.74v5.66h-1v-5.58l-.23-1.42-1.63-2.23-2.72-.9h-109.9l-1.72-.28-2.7-1.96-1.03-3.18v-42.12l.28-1.74 1.96-2.68 3.2-1.04h4.55zm31.66 0h-2.3v-1h2.3z"/><path d="M892.5 518.4l-.3.1v-1h.8zM971 595.38l-4.64-14.26h9.28z"/><path d="M971 597l-5.32-16.38h10.64zm-3.95-15.38l3.95 12.14 3.95-12.14z"/><use xlink:href="#ab" transform="matrix(1,0,0,1,860.5524980781196,507.2) translate(0 14.4)"/><path d="M838 245.17V275c0 2.76 2.24 5 5 5h123.07c2.77 0 5 2.24 5 5v30.55" stroke="#000" fill="none"/><path d="M838.5 245.18h-1v-.4l1-.2z"/><path d="M971.07 330.32l-4.63-14.27h9.27z" stroke="#000"/><path d="M969.34 310.54l1.95 2.68.27 1.74v.6h-1v-.52l-.23-1.42-1.62-2.23-2.73-.9H565.03l-1.42.23-2.23 1.63-.9 2.72v529.96l-.28 1.74-1.96 2.68-3.18 1.04H404.96l-1.74-.28-2.68-1.96-1.04-3.18V824.2h1v20.72l.9 2.72 2.22 1.63 1.42.23h149.88l2.72-.9 1.63-2.22.23-1.42V314.92l1.04-3.18 2.68-1.96 1.74-.28h401.2z"/><path d="M400.5 824.22h-1v-.36l1-.3zM971.07 330.32l-4.63-14.27h9.27z"/><path d="M971.07 331.94l-5.32-16.4h10.65zm-3.94-15.4l3.94 12.16 3.95-12.15z"/><path d="M280 717.5c0-2.76 2.24-5 5-5h206c2.76 0 5 2.24 5 5v92.75c-36.07-16.32-58.54-16.32-72.14-16.32-21.6 0-50.33 16.32-71.93 16.32-13.4 0-36.07 0-71.93-16.32z" stroke="#000" stroke-width="2" fill="#fff"/><path d="M292 726.13c0-2.77 2.24-5 5-5h206c2.76 0 5 2.23 5 5v92.75c-36.07-16.33-58.54-16.33-72.14-16.33-21.6 0-50.33 16.33-71.93 16.33-13.4 0-36.07 0-71.93-16.33z" stroke="#000" stroke-width="2" fill="#fff"/><path d="M304 734.75c0-2.76 2.24-5 5-5h206c2.76 0 5 2.24 5 5v92.75c-36.07-16.32-58.54-16.32-72.14-16.32-21.6 0-50.33 16.32-71.93 16.32-13.4 0-36.07 0-71.93-16.32z" stroke="#000" stroke-width="2" fill="#fff"/><use xlink:href="#ac" transform="matrix(1,0,0,1,324,724) translate(0.7222222222222143 32.666666666666664)"/><use xlink:href="#ad" transform="matrix(1,0,0,1,324,724) translate(40.57407407407407 32.666666666666664)"/><use xlink:href="#C" transform="matrix(1,0,0,1,324,724) translate(55.388888888888886 32.666666666666664)"/><use xlink:href="#ae" transform="matrix(1,0,0,1,324,724) translate(99.01851851851852 32.666666666666664)"/><use xlink:href="#C" transform="matrix(1,0,0,1,324,724) translate(20.999999999999986 48.66666666666667)"/><use xlink:href="#af" transform="matrix(1,0,0,1,324,724) translate(64.62962962962962 48.66666666666667)"/><use xlink:href="#E" transform="matrix(1,0,0,1,324,724) translate(132.77777777777777 48.66666666666667)"/><use xlink:href="#H" transform="matrix(1,0,0,1,324,724) translate(46.925925925925924 64.66666666666667)"/><use xlink:href="#ag" transform="matrix(1,0,0,1,324,724) translate(107.59259259259258 64.66666666666667)"/><path d="M750 189.5c0-2.76 2.24-5 5-5h148.4c2.76 0 5 2.24 5 5v47.7c-26.45-8.8-42.93-8.8-52.9-8.8-15.85 0-36.9 8.8-52.75 8.8-9.82 0-26.46 0-52.75-8.8z" stroke="#000" stroke-width="2" fill="#fff"/><path d="M758.8 194.15c0-2.76 2.24-5 5-5h148.4c2.76 0 5 2.24 5 5v47.7c-26.45-8.8-42.93-8.8-52.9-8.8-15.85 0-36.9 8.8-52.75 8.8-9.82 0-26.46 0-52.75-8.8z" stroke="#000" stroke-width="2" fill="#fff"/><path d="M767.6 198.8c0-2.76 2.24-5 5-5H921c2.76 0 5 2.24 5 5v47.7c-26.45-8.8-42.93-8.8-52.9-8.8-15.85 0-36.9 8.8-52.75 8.8-9.82 0-26.46 0-52.75-8.8z" stroke="#000" stroke-width="2" fill="#fff"/><use xlink:href="#ah" transform="matrix(1,0,0,1,787.6,190.7) translate(22.851851851851848 19.666666666666668)"/><use xlink:href="#ai" transform="matrix(1,0,0,1,787.6,190.7) translate(67.25925925925927 19.666666666666668)"/><use xlink:href="#aj" transform="matrix(1,0,0,1,787.6,190.7) translate(26.962962962962962 35.66666666666667)"/><path d="M1020 189.5c0-2.76 2.24-5 5-5h148.4c2.76 0 5 2.24 5 5v47.7c-26.45-8.8-42.93-8.8-52.9-8.8-15.85 0-36.9 8.8-52.75 8.8-9.82 0-26.46 0-52.75-8.8z" stroke="#000" stroke-width="2" fill="#fff"/><path d="M1028.8 194.15c0-2.76 2.24-5 5-5h148.4c2.76 0 5 2.24 5 5v47.7c-26.45-8.8-42.93-8.8-52.9-8.8-15.85 0-36.9 8.8-52.75 8.8-9.82 0-26.46 0-52.75-8.8z" stroke="#000" stroke-width="2" fill="#fff"/><path d="M1037.6 198.8c0-2.76 2.24-5 5-5H1191c2.76 0 5 2.24 5 5v47.7c-26.45-8.8-42.93-8.8-52.9-8.8-15.85 0-36.9 8.8-52.75 8.8-9.82 0-26.46 0-52.75-8.8z" stroke="#000" stroke-width="2" fill="#fff"/><use xlink:href="#ak" transform="matrix(1,0,0,1,1057.6,190.7) translate(32.129629629629626 19.666666666666668)"/><use xlink:href="#al" transform="matrix(1,0,0,1,1057.6,190.7) translate(20.685185185185176 35.66666666666667)"/><path d="M1108 245.17V275c0 2.76-2.24 5-5 5H976.07c-2.76 0-5 2.24-5 5v30.55" stroke="#000" fill="none"/><path d="M1108.5 245.18h-1v-.4l1-.2z"/><path d="M971.07 330.32l-4.63-14.27h9.27z" stroke="#000"/><path d="M320 603c0-2.76 2.24-5 5-5h150c2.76 0 5 2.24 5 5v52c0 2.76-2.24 5-5 5H325c-2.76 0-5-2.24-5-5z" stroke="#000" stroke-width="2" fill="#fff"/><use xlink:href="#am" transform="matrix(1,0,0,1,340,598) translate(6.7037037037037095 17.666666666666664)"/><use xlink:href="#an" transform="matrix(1,0,0,1,340,598) translate(47.40740740740741 17.666666666666664)"/><use xlink:href="#ao" transform="matrix(1,0,0,1,340,598) translate(13.740740740740733 33.666666666666664)"/><use xlink:href="#G" transform="matrix(1,0,0,1,340,598) translate(29.259259259259252 33.666666666666664)"/><use xlink:href="#ap" transform="matrix(1,0,0,1,340,598) translate(90.74074074074075 33.666666666666664)"/><use xlink:href="#aq" transform="matrix(1,0,0,1,340,598) translate(43.35185185185185 49.66666666666667)"/><path d="M904.83 108.62c0-2.76 2.24-5 5-5h126.34c2.76 0 5 2.24 5 5v17.66c0 2.77-2.24 5-5 5H909.83c-2.76 0-5-2.23-5-5z" stroke="#000" stroke-width="2" fill="#fff"/><use xlink:href="#ar" transform="matrix(1,0,0,1,924.8332942199276,103.61713702565902) translate(35.55555555555556 16.666666666666668)"/><path d="M973 132.78v20.1c0 2.77 2.24 5 5 5h125c2.76 0 5 2.25 5 5v4.24" stroke="#000" fill="none"/><path d="M973.5 132.8h-1v-.52h1z"/><path d="M1108 181.88l-4.64-14.26h9.28z" stroke="#000"/><path d="M973 132.78v20.1c0 2.77-2.24 5-5 5H843c-2.76 0-5 2.25-5 5v4.24" stroke="#000" fill="none"/><path d="M973.5 132.8h-1v-.52h1z"/><path d="M838 181.88l-4.64-14.26h9.28z" stroke="#000"/><path d="M941.98 954.42l.9 2.72 2.22 1.63 1.42.23h140.46l2.5 1.03.98 2.4-.92.38-.84-2-1.92-.8H946.44l-1.74-.28-2.68-1.96-1.04-3.18v-30.24h1zm39-64.63h-34.42l-2.72.88-1.63 2.23-.22 1.43v8.4h-1v-8.48l.28-1.74 1.96-2.67 3.18-1.04h34.58z"/><path d="M981.35 889.46l.32.33h-.7v-1h.9zM1090 977.38l-4.64-14.26h9.28z"/><path d="M1090 979l-5.32-16.38h10.64zm-3.95-15.38l3.95 12.14 3.95-12.14z"/><use xlink:href="#ab" transform="matrix(1,0,0,1,926.8072440895935,902.7383647649763) translate(0 14.4)"/><path d="M971 661.5V685c0 2.76-2.24 5-5 5H765c-2.76 0-5 2.24-5 5v27.62" stroke="#000" fill="none"/><path d="M971.5 661.5h-1v-.5h1z"/><path d="M760 737.38l-4.64-14.26h9.28z" stroke="#000"/><path d="M680 985c0-2.76 2.24-5 5-5h150c2.76 0 5 2.24 5 5v50c0 2.76-2.24 5-5 5H685c-2.76 0-5-2.24-5-5z" stroke="#000" stroke-width="2" fill="#fff"/><use xlink:href="#L" transform="matrix(1,0,0,1,700,980) translate(14.166666666666664 16.666666666666664)"/><use xlink:href="#as" transform="matrix(1,0,0,1,700,980) translate(57.7962962962963 16.666666666666664)"/><use xlink:href="#at" transform="matrix(1,0,0,1,700,980) translate(0.3333333333333144 32.666666666666664)"/><use xlink:href="#au" transform="matrix(1,0,0,1,700,980) translate(61.74074074074074 32.666666666666664)"/><use xlink:href="#av" transform="matrix(1,0,0,1,700,980) translate(91.55555555555556 32.666666666666664)"/><use xlink:href="#aw" transform="matrix(1,0,0,1,700,980) translate(106.37037037037038 32.666666666666664)"/><use xlink:href="#ax" transform="matrix(1,0,0,1,700,980) translate(25.611111111111107 48.66666666666667)"/><use xlink:href="#ay" transform="matrix(1,0,0,1,700,980) translate(73.72222222222223 48.66666666666667)"/><path d="M760 801.5v161.12" stroke="#000" fill="none"/><path d="M760.5 801.5h-1v-.5h1z"/><path d="M760 977.38l-4.64-14.26h9.28z" stroke="#000"/><path d="M1089.62 720.38l.84 2.04-.92.4-.7-1.67-1.56-.65H895.04l-1.42.23-2.23 1.63-.9 2.72v329.96l-.28 1.74-1.96 2.68-3.18 1.04H764.96l-1.74-.28-2.68-1.96-1.04-3.18v-13.58h1v13.42l.9 2.72 2.22 1.63 1.42.23h119.88l2.72-.9 1.63-2.22.23-1.42V724.92l1.04-3.18 2.68-1.96 1.74-.28h192.52z"/><path d="M760.5 1041.5h-1v-.5h1zM1090 737.38l-4.64-14.26h9.28z"/><path d="M1090 739l-5.32-16.38h10.64zm-3.95-15.38l3.95 12.14 3.95-12.14z"/><path d="M971 661.5V685c0 2.76 2.24 5 5 5h109c2.76 0 5 2.24 5 5v27.62" stroke="#000" fill="none"/><path d="M971.5 661.5h-1v-.5h1z"/><path d="M1090 737.38l-4.64-14.26h9.28z" stroke="#000"/><path d="M990 985c0-2.76 2.24-5 5-5h190c2.76 0 5 2.24 5 5v50c0 2.76-2.24 5-5 5H995c-2.76 0-5-2.24-5-5z" stroke="#000" stroke-width="2" fill="#fff"/><g><use xlink:href="#az" transform="matrix(1,0,0,1,1010,980) translate(2.3518518518518476 24.666666666666668)"/><use xlink:href="#aA" transform="matrix(1,0,0,1,1010,980) translate(46.68518518518518 24.666666666666668)"/><use xlink:href="#aB" transform="matrix(1,0,0,1,1010,980) translate(109.57407407407408 24.666666666666668)"/><use xlink:href="#V" transform="matrix(1,0,0,1,1010,980) translate(0.5 40.66666666666667)"/><use xlink:href="#aC" transform="matrix(1,0,0,1,1010,980) translate(27.833333333333336 40.66666666666667)"/><use xlink:href="#aD" transform="matrix(1,0,0,1,1010,980) translate(95.94444444444446 40.66666666666667)"/></g><path d="M400 661.5v33.62" stroke="#000" fill="none"/><path d="M400.5 661.5h-1v-.5h1z"/><path d="M400 709.88l-4.64-14.26h9.28z" stroke="#000"/><path d="M1237.77 945.08l-1.04 3.18-2.68 1.96-1.74.28H765.1l-2.72.9-1.63 2.22-.23 1.42v7.58h-1v-7.66l.28-1.74 1.96-2.68 3.18-1.04h467.3l1.43-.23 2.23-1.63.9-2.72V921.9h1zm-2.24-55.25l1.96 2.68.27 1.75v6.04h-1v-5.97l-.23-1.42-1.62-2.22-2.73-.9H1199v-1h33.33z"/><path d="M1199.03 889.8h-.9l.52-.68-.32-.33h.7zM760 977.38l-4.64-14.26h9.28z"/><path d="M760 979l-5.32-16.38h10.64zm-3.95-15.38l3.95 12.14 3.95-12.14z"/><g><use xlink:href="#aa" transform="matrix(1,0,0,1,1225.7958798431537,900.2908560919095) translate(0 14.4)"/></g><path d="M290 338c0-2.76 2.24-5 5-5h187.85c2.76 0 5 2.24 5 5v30c0 2.76-2.24 5-5 5H295c-2.76 0-5-2.24-5-5z" stroke="#000" stroke-width="2" fill="#fff"/><g><use xlink:href="#aE" transform="matrix(1,0,0,1,310,333) translate(16.111111111111114 14.666666666666668)"/><use xlink:href="#aF" transform="matrix(1,0,0,1,310,333) translate(87.11111111111111 14.666666666666668)"/><use xlink:href="#aG" transform="matrix(1,0,0,1,310,333) translate(133 14.666666666666668)"/><use xlink:href="#aH" transform="matrix(1,0,0,1,310,333) translate(4.351851851851848 30.666666666666668)"/><use xlink:href="#aI" transform="matrix(1,0,0,1,310,333) translate(53.870370370370374 30.666666666666668)"/><use xlink:href="#X" transform="matrix(1,0,0,1,310,333) translate(117.42592592592594 30.666666666666668)"/></g><path d="M388.93 374.5v14.04c0 2.76 2.23 5 5 5h574c1.73 0 3.14 1.4 3.14 3.15" stroke="#000" fill="none"/><path d="M389.43 374.5h-1v-.5h1z"/><path d="M971.07 411.46l-4.63-14.27h9.27z" stroke="#000"/><path d="M180 191c0-2.76 2.24-5 5-5h152c2.76 0 5 2.24 5 5v45.15c-27.05-8.38-43.9-8.38-54.1-8.38-16.2 0-37.75 8.38-53.95 8.38-10.05 0-27.06 0-53.95-8.38z" stroke="#000" stroke-width="2" fill="#fff"/><path d="M189 195.43c0-2.77 2.24-5 5-5h152c2.76 0 5 2.23 5 5v45.14c-27.05-8.37-43.9-8.37-54.1-8.37-16.2 0-37.75 8.38-53.95 8.38-10.05 0-27.06 0-53.95-8.38z" stroke="#000" stroke-width="2" fill="#fff"/><path d="M198 199.85c0-2.76 2.24-5 5-5h152c2.76 0 5 2.24 5 5V245c-27.05-8.38-43.9-8.38-54.1-8.38-16.2 0-37.75 8.38-53.95 8.38-10.05 0-27.06 0-53.95-8.38z" stroke="#000" stroke-width="2" fill="#fff"/><g><use xlink:href="#aJ" transform="matrix(1,0,0,1,218,191.9) translate(16.611111111111107 18.666666666666668)"/><use xlink:href="#aK" transform="matrix(1,0,0,1,218,191.9) translate(49.166666666666664 18.666666666666668)"/><use xlink:href="#aL" transform="matrix(1,0,0,1,218,191.9) translate(34.75925925925925 34.66666666666667)"/></g><path d="M400 195.5c0-2.76 2.24-5 5-5h150c2.76 0 5 2.24 5 5v40c0 2.76-2.24 5-5 5H405c-2.76 0-5-2.24-5-5z" stroke="#000" stroke-width="2" fill="#fff"/><g><use xlink:href="#aM" transform="matrix(1,0,0,1,420,190.5) translate(18.574074074074062 27.666666666666668)"/><use xlink:href="#X" transform="matrix(1,0,0,1,420,190.5) translate(65.2037037037037 27.666666666666668)"/></g><path d="M270 243.82v38.84c0 2.76 2.24 5 5 5h108.93c2.76 0 5 2.24 5 5v22.96" stroke="#000" fill="none"/><path d="M270.5 243.83h-1v-.42l1-.18z"/><path d="M388.93 330.38l-4.64-14.26h9.26z" stroke="#000"/><path d="M480 242v39.75c0 2.76-2.24 5-5 5h-81.07c-2.77 0-5 2.24-5 5v23.87" stroke="#000" fill="none"/><path d="M480.5 242h-1v-.5h1z"/><path d="M388.93 330.38l-4.64-14.26h9.26z" stroke="#000"/><path d="M217.2 745c0-2.76 2.25-5 5-5H258c2.76 0 5 2.24 5 5v24.58c0 2.76-2.24 5-5 5h-35.8c-2.75 0-5-2.24-5-5z" fill="#666"/><g><use xlink:href="#aN" transform="matrix(1,0,0,1,237.21311619631047,740) translate(-0.08641975308641969 19.72222222222222)"/></g><path d="M217.2 338c0-2.76 2.25-5 5-5h41.6c2.75 0 5 2.24 5 5v30c0 2.76-2.25 5-5 5h-41.6c-2.75 0-5-2.24-5-5z" fill="#666"/><g><use xlink:href="#aO" transform="matrix(1,0,0,1,237.21311619631047,333) translate(2.9135802469135803 22.22222222222222)"/></g><path d="M971.07 455.58v6.38" stroke="#000" fill="none"/><path d="M971.57 455.6h-1v-.52h1z"/><path d="M971.07 476.72l-4.63-14.26h9.27z" stroke="#000"/><path d="M971.07 374.44v22.25" stroke="#000" fill="none"/><path d="M971.57 374.45h-1v-.5h1z"/><path d="M971.07 411.46l-4.63-14.27h9.27z" stroke="#000"/><path d="M1010 745c0-2.76 2.24-5 5-5h150c2.76 0 5 2.24 5 5v50c0 2.76-2.24 5-5 5h-150c-2.76 0-5-2.24-5-5z" stroke="#000" stroke-width="2" fill="#fff"/><g><use xlink:href="#aP" transform="matrix(1,0,0,1,1030,740) translate(15.592592592592595 32.66666666666667)"/><use xlink:href="#aQ" transform="matrix(1,0,0,1,1030,740) translate(76.25925925925927 32.66666666666667)"/></g><path d="M1090 801.5v20.95" stroke="#000" fill="none"/><path d="M1090.5 801.5h-1v-.5h1z"/><path d="M1090 837.22l-4.64-14.27h9.28z" stroke="#000"/><path d="M217.2 616.7c0-2.75 2.25-5 5-5H258c2.76 0 5 2.25 5 5v24.6c0 2.75-2.24 5-5 5h-35.8c-2.75 0-5-2.25-5-5z" fill="#666"/><g><use xlink:href="#aR" transform="matrix(1,0,0,1,237.21311619631047,611.710991099677) translate(-0.08641975308641969 19.72222222222222)"/></g><path d="M948.18 202.85c0-2.76 2.24-5 5-5h35.8c2.75 0 5 2.24 5 5v24.58c0 2.76-2.25 5-5 5h-35.8c-2.76 0-5-2.24-5-5z" fill="#666"/><g><use xlink:href="#aS" transform="matrix(1,0,0,1,968.1803257055343,197.8529711726514) translate(-0.08641975308641969 19.72222222222222)"/></g><path d="M794.2 424.5c0-2.76 2.25-5 5-5H835c2.76 0 5 2.24 5 5v24.58c0 2.76-2.24 5-5 5h-35.8c-2.75 0-5-2.24-5-5z" fill="#666"/><g><use xlink:href="#aT" transform="matrix(1,0,0,1,814.2131161963105,419.49709389421537) translate(-0.08641975308641969 19.72222222222222)"/></g><path d="M794.2 616.7c0-2.75 2.25-5 5-5H835c2.76 0 5 2.25 5 5v24.6c0 2.75-2.24 5-5 5h-35.8c-2.75 0-5-2.25-5-5z" fill="#666"/><g><use xlink:href="#aU" transform="matrix(1,0,0,1,814.2131161963105,611.710991099677) translate(-0.08641975308641969 19.72222222222222)"/></g><path d="M621.2 757.7c0-2.75 2.25-5 5-5H662c2.76 0 5 2.25 5 5v24.6c0 2.75-2.24 5-5 5h-35.8c-2.75 0-5-2.25-5-5z" fill="#666"/><g><use xlink:href="#aV" transform="matrix(1,0,0,1,641.2131161963105,752.710991099677) translate(-0.08641975308641969 19.72222222222222)"/></g><path d="M621.2 997.7c0-2.75 2.25-5 5-5H662c2.76 0 5 2.25 5 5v24.6c0 2.75-2.24 5-5 5h-35.8c-2.75 0-5-2.25-5-5z" fill="#666"/><g><use xlink:href="#aW" transform="matrix(1,0,0,1,641.2131161963105,992.710991099677) translate(-0.08641975308641969 19.72222222222222)"/></g><path d="M948.18 758.92c0-2.76 2.24-5 5-5h35.8c2.75 0 5 2.24 5 5v24.58c0 2.76-2.25 5-5 5h-35.8c-2.76 0-5-2.24-5-5z" fill="#666"/><g><use xlink:href="#aX" transform="matrix(1,0,0,1,968.1803257055343,753.921982199354) translate(-0.08641975308641969 19.72222222222222)"/></g><defs><path d="M190-63c-7 42-38 67-86 67-59 0-84-38-90-98-12-110 154-137 174-36l-49 2c-2-19-15-32-35-32-30 0-35 28-38 64-6 74 65 87 74 30" id="aY"/><path d="M110-194c64 0 96 36 96 99 0 64-35 99-97 99-61 0-95-36-95-99 0-62 34-99 96-99zm-1 164c35 0 45-28 45-65 0-40-10-65-43-65-34 0-45 26-45 65 0 36 10 65 43 65" id="aZ"/><path d="M135-194c87-1 58 113 63 194h-50c-7-57 23-157-34-157-59 0-34 97-39 157H25l-1-190h47c2 12-1 28 3 38 12-26 28-41 61-42" id="ba"/><path d="M115-3C79 11 28 4 28-45v-112H4v-33h27l15-45h31v45h36v33H77v99c-1 23 16 31 38 25v30" id="bb"/><path d="M135-150c-39-12-60 13-60 57V0H25l-1-190h47c2 13-1 29 3 40 6-28 27-53 61-41v41" id="bc"/><path d="M25 0v-261h50V0H25" id="bd"/><g id="a"><use transform="matrix(0.05,0,0,0.05,0,0)" xlink:href="#aY"/><use transform="matrix(0.05,0,0,0.05,10,0)" xlink:href="#aZ"/><use transform="matrix(0.05,0,0,0.05,20.950000000000003,0)" xlink:href="#ba"/><use transform="matrix(0.05,0,0,0.05,31.900000000000006,0)" xlink:href="#bb"/><use transform="matrix(0.05,0,0,0.05,37.85000000000001,0)" xlink:href="#bc"/><use transform="matrix(0.05,0,0,0.05,44.85000000000001,0)" xlink:href="#aZ"/><use transform="matrix(0.05,0,0,0.05,55.80000000000001,0)" xlink:href="#bd"/></g><path d="M133-34C117-15 103 5 69 4 32 3 11-16 11-54c-1-60 55-63 116-61 1-26-3-47-28-47-18 1-26 9-28 27l-52-2c7-38 36-58 82-57s74 22 75 68l1 82c-1 14 12 18 25 15v27c-30 8-71 5-69-32zm-48 3c29 0 43-24 42-57-32 0-66-3-65 30 0 17 8 27 23 27" id="be"/><path d="M88-194c31-1 46 15 58 34l-1-101h50l1 261h-48c-2-10 0-23-3-31C134-8 116 4 84 4 32 4 16-41 15-95c0-56 19-97 73-99zm17 164c33 0 40-30 41-66 1-37-9-64-41-64s-38 30-39 65c0 43 13 65 39 65" id="bf"/><g id="b"><use transform="matrix(0.05,0,0,0.05,0,0)" xlink:href="#be"/><use transform="matrix(0.05,0,0,0.05,10,0)" xlink:href="#ba"/><use transform="matrix(0.05,0,0,0.05,20.950000000000003,0)" xlink:href="#bf"/></g><path d="M121-226c-27-7-43 5-38 36h38v33H83V0H34v-157H6v-33h28c-9-59 32-81 87-68v32" id="bg"/><path d="M85 4C-2 5 27-109 22-190h50c7 57-23 150 33 157 60-5 35-97 40-157h50l1 190h-47c-2-12 1-28-3-38-12 25-28 42-61 42" id="bh"/><path d="M25-224v-37h50v37H25zM25 0v-190h50V0H25" id="bi"/><g id="c"><use transform="matrix(0.05,0,0,0.05,0,0)" xlink:href="#bg"/><use transform="matrix(0.05,0,0,0.05,5.95,0)" xlink:href="#bh"/><use transform="matrix(0.05,0,0,0.05,16.900000000000002,0)" xlink:href="#ba"/><use transform="matrix(0.05,0,0,0.05,27.85,0)" xlink:href="#aY"/><use transform="matrix(0.05,0,0,0.05,37.85,0)" xlink:href="#bb"/><use transform="matrix(0.05,0,0,0.05,43.800000000000004,0)" xlink:href="#bi"/><use transform="matrix(0.05,0,0,0.05,48.800000000000004,0)" xlink:href="#aZ"/><use transform="matrix(0.05,0,0,0.05,59.75,0)" xlink:href="#ba"/><use transform="matrix(0.05,0,0,0.05,70.7,0)" xlink:href="#be"/><use transform="matrix(0.05,0,0,0.05,80.7,0)" xlink:href="#bd"/></g><path d="M185-48c-13 30-37 53-82 52C43 2 14-33 14-96s30-98 90-98c62 0 83 45 84 108H66c0 31 8 55 39 56 18 0 30-7 34-22zm-45-69c5-46-57-63-70-21-2 6-4 13-4 21h74" id="bj"/><path d="M137-138c1-29-70-34-71-4 15 46 118 7 119 86 1 83-164 76-172 9l43-7c4 19 20 25 44 25 33 8 57-30 24-41C81-84 22-81 20-136c-2-80 154-74 161-7" id="bk"/><g id="d"><use transform="matrix(0.05,0,0,0.05,0,0)" xlink:href="#bb"/><use transform="matrix(0.05,0,0,0.05,5.95,0)" xlink:href="#bj"/><use transform="matrix(0.05,0,0,0.05,15.949999999999998,0)" xlink:href="#bk"/><use transform="matrix(0.05,0,0,0.05,25.950000000000003,0)" xlink:href="#bb"/></g><path d="M135-194c52 0 70 43 70 98 0 56-19 99-73 100-30 1-46-15-58-35L72 0H24l1-261h50v104c11-23 29-37 60-37zM114-30c31 0 40-27 40-66 0-37-7-63-39-63s-41 28-41 65c0 36 8 64 40 64" id="bl"/><path d="M123 10C108 53 80 86 19 72V37c35 8 53-11 59-39L3-190h52l48 148c12-52 28-100 44-148h51" id="bm"/><g id="e"><use transform="matrix(0.05,0,0,0.05,0,0)" xlink:href="#bd"/><use transform="matrix(0.05,0,0,0.05,5,0)" xlink:href="#bi"/><use transform="matrix(0.05,0,0,0.05,10,0)" xlink:href="#bl"/><use transform="matrix(0.05,0,0,0.05,20.950000000000003,0)" xlink:href="#bc"/><use transform="matrix(0.05,0,0,0.05,27.950000000000003,0)" xlink:href="#be"/><use transform="matrix(0.05,0,0,0.05,37.95,0)" xlink:href="#bc"/><use transform="matrix(0.05,0,0,0.05,44.95,0)" xlink:href="#bm"/></g><path d="M220-157c-53 9-28 100-34 157h-49v-107c1-27-5-49-29-50C55-147 81-57 75 0H25l-1-190h47c2 12-1 28 3 38 10-53 101-56 108 0 13-22 24-43 59-42 82 1 51 116 57 194h-49v-107c-1-25-5-48-29-50" id="bn"/><path d="M114-157C55-157 80-60 75 0H25v-261h50l-1 109c12-26 28-41 61-42 86-1 58 113 63 194h-50c-7-57 23-157-34-157" id="bo"/><g id="f"><use transform="matrix(0.05,0,0,0.05,0,0)" xlink:href="#bn"/><use transform="matrix(0.05,0,0,0.05,16,0)" xlink:href="#bj"/><use transform="matrix(0.05,0,0,0.05,26,0)" xlink:href="#aY"/><use transform="matrix(0.05,0,0,0.05,36,0)" xlink:href="#bo"/><use transform="matrix(0.05,0,0,0.05,46.95,0)" xlink:href="#be"/><use transform="matrix(0.05,0,0,0.05,56.95,0)" xlink:href="#ba"/><use transform="matrix(0.05,0,0,0.05,67.9,0)" xlink:href="#bi"/><use transform="matrix(0.05,0,0,0.05,72.9,0)" xlink:href="#aY"/><use transform="matrix(0.05,0,0,0.05,82.9,0)" xlink:href="#be"/><use transform="matrix(0.05,0,0,0.05,92.9,0)" xlink:href="#bd"/></g><path d="M168-19C124 19 11 11 16-68c3-43 29-60 59-75-25-44-12-111 53-106 37 3 64 15 64 52 0 43-40 52-69 68 12 22 27 41 43 59 14-19 21-38 28-64l37 13c-8 29-19 52-34 74 12 10 32 16 52 10v35c-28 11-65-2-81-17zm-58-139c19-9 43-14 43-39 0-14-10-22-25-22-34 0-33 41-18 61zM60-68c-3 40 55 47 79 25-18-20-34-42-48-67-18 8-30 20-31 42" id="bp"/><use transform="matrix(0.05,0,0,0.05,0,0)" xlink:href="#bp" id="g"/><path d="M195-6C206 82 75 100 31 46c-4-6-6-13-8-21l49-6c3 16 16 24 34 25 40 0 42-37 40-79-11 22-30 35-61 35-53 0-70-43-70-97 0-56 18-96 73-97 30 0 46 14 59 34l2-30h47zm-90-29c32 0 41-27 41-63 0-35-9-62-40-62-32 0-39 29-40 63 0 36 9 62 39 62" id="bq"/><g id="h"><use transform="matrix(0.05,0,0,0.05,0,0)" xlink:href="#bl"/><use transform="matrix(0.05,0,0,0.05,10.950000000000001,0)" xlink:href="#bh"/><use transform="matrix(0.05,0,0,0.05,21.900000000000002,0)" xlink:href="#bi"/><use transform="matrix(0.05,0,0,0.05,26.900000000000002,0)" xlink:href="#bd"/><use transform="matrix(0.05,0,0,0.05,31.900000000000002,0)" xlink:href="#bf"/><use transform="matrix(0.05,0,0,0.05,42.85,0)" xlink:href="#bi"/><use transform="matrix(0.05,0,0,0.05,47.85,0)" xlink:href="#ba"/><use transform="matrix(0.05,0,0,0.05,58.800000000000004,0)" xlink:href="#bq"/></g><g id="i"><use transform="matrix(0.05,0,0,0.05,0,0)" xlink:href="#bk"/><use transform="matrix(0.05,0,0,0.05,10,0)" xlink:href="#bm"/><use transform="matrix(0.05,0,0,0.05,20,0)" xlink:href="#bk"/><use transform="matrix(0.05,0,0,0.05,30,0)" xlink:href="#bb"/><use transform="matrix(0.05,0,0,0.05,35.95,0)" xlink:href="#bj"/><use transform="matrix(0.05,0,0,0.05,45.95,0)" xlink:href="#bn"/></g><g id="j"><use transform="matrix(0.05,0,0,0.05,0,0)" xlink:href="#bn"/><use transform="matrix(0.05,0,0,0.05,16,0)" xlink:href="#aZ"/><use transform="matrix(0.05,0,0,0.05,26.950000000000003,0)" xlink:href="#bf"/><use transform="matrix(0.05,0,0,0.05,37.900000000000006,0)" xlink:href="#bj"/><use transform="matrix(0.05,0,0,0.05,47.900000000000006,0)" xlink:href="#bd"/></g><g id="k"><use transform="matrix(0.05,0,0,0.05,0,0)" xlink:href="#aY"/><use transform="matrix(0.05,0,0,0.05,10,0)" xlink:href="#aZ"/><use transform="matrix(0.05,0,0,0.05,20.950000000000003,0)" xlink:href="#bn"/><use transform="matrix(0.05,0,0,0.05,36.95,0)" xlink:href="#bn"/><use transform="matrix(0.05,0,0,0.05,52.95,0)" xlink:href="#bi"/><use transform="matrix(0.05,0,0,0.05,57.95,0)" xlink:href="#bk"/><use transform="matrix(0.05,0,0,0.05,67.95,0)" xlink:href="#bk"/><use transform="matrix(0.05,0,0,0.05,77.95,0)" xlink:href="#bi"/><use transform="matrix(0.05,0,0,0.05,82.95,0)" xlink:href="#aZ"/><use transform="matrix(0.05,0,0,0.05,93.9,0)" xlink:href="#ba"/><use transform="matrix(0.05,0,0,0.05,104.85000000000001,0)" xlink:href="#bi"/><use transform="matrix(0.05,0,0,0.05,109.85000000000001,0)" xlink:href="#ba"/><use transform="matrix(0.05,0,0,0.05,120.80000000000001,0)" xlink:href="#bq"/></g><path d="M135-194c53 0 70 44 70 98 0 56-19 98-73 100-31 1-45-17-59-34 3 33 2 69 2 105H25l-1-265h48c2 10 0 23 3 31 11-24 29-35 60-35zM114-30c33 0 39-31 40-66 0-38-9-64-40-64-56 0-55 130 0 130" id="br"/><g id="l"><use transform="matrix(0.05,0,0,0.05,0,0)" xlink:href="#aZ"/><use transform="matrix(0.05,0,0,0.05,10.950000000000001,0)" xlink:href="#br"/><use transform="matrix(0.05,0,0,0.05,21.900000000000002,0)" xlink:href="#bj"/><use transform="matrix(0.05,0,0,0.05,31.900000000000002,0)" xlink:href="#bc"/><use transform="matrix(0.05,0,0,0.05,38.900000000000006,0)" xlink:href="#be"/><use transform="matrix(0.05,0,0,0.05,48.900000000000006,0)" xlink:href="#bb"/><use transform="matrix(0.05,0,0,0.05,54.85,0)" xlink:href="#bi"/><use transform="matrix(0.05,0,0,0.05,59.85,0)" xlink:href="#aZ"/><use transform="matrix(0.05,0,0,0.05,70.80000000000001,0)" xlink:href="#ba"/></g><g id="m"><use transform="matrix(0.05,0,0,0.05,0,0)" xlink:href="#bl"/><use transform="matrix(0.05,0,0,0.05,10.950000000000001,0)" xlink:href="#bi"/><use transform="matrix(0.05,0,0,0.05,15.950000000000001,0)" xlink:href="#bf"/><use transform="matrix(0.05,0,0,0.05,26.900000000000002,0)" xlink:href="#bf"/><use transform="matrix(0.05,0,0,0.05,37.85,0)" xlink:href="#bi"/><use transform="matrix(0.05,0,0,0.05,42.85,0)" xlink:href="#ba"/><use transform="matrix(0.05,0,0,0.05,53.800000000000004,0)" xlink:href="#bq"/></g><g id="n"><use transform="matrix(0.05,0,0,0.05,0,0)" xlink:href="#bi"/><use transform="matrix(0.05,0,0,0.05,5,0)" xlink:href="#bn"/><use transform="matrix(0.05,0,0,0.05,21,0)" xlink:href="#br"/><use transform="matrix(0.05,0,0,0.05,31.950000000000003,0)" xlink:href="#bd"/><use transform="matrix(0.05,0,0,0.05,36.95,0)" xlink:href="#bj"/><use transform="matrix(0.05,0,0,0.05,46.95,0)" xlink:href="#bn"/><use transform="matrix(0.05,0,0,0.05,62.95,0)" xlink:href="#bj"/><use transform="matrix(0.05,0,0,0.05,72.95,0)" xlink:href="#ba"/><use transform="matrix(0.05,0,0,0.05,83.9,0)" xlink:href="#bb"/><use transform="matrix(0.05,0,0,0.05,89.85000000000001,0)" xlink:href="#be"/><use transform="matrix(0.05,0,0,0.05,99.85000000000001,0)" xlink:href="#bb"/><use transform="matrix(0.05,0,0,0.05,105.80000000000001,0)" xlink:href="#bi"/><use transform="matrix(0.05,0,0,0.05,110.80000000000001,0)" xlink:href="#aZ"/><use transform="matrix(0.05,0,0,0.05,121.75,0)" xlink:href="#ba"/></g><linearGradient gradientUnits="userSpaceOnUse" id="o" x1="577" y1="140" x2="577" y2="299"><stop offset="0%" stop-color="#636363" stop-opacity="0"/><stop offset="100%" stop-opacity="0"/></linearGradient><path d="M84 4C32 4 15-41 15-95c0-55 18-99 73-99 29 0 47 12 58 34l2-30h48l-1 265h-49V-32C136-9 114 4 84 4zm21-34c32 0 41-29 41-66 0-36-9-64-40-64-33 0-39 30-40 65 0 43 13 65 39 65" id="bs"/><g id="p"><use transform="matrix(0.05,0,0,0.05,0,0)" xlink:href="#bc"/><use transform="matrix(0.05,0,0,0.05,7,0)" xlink:href="#bj"/><use transform="matrix(0.05,0,0,0.05,17,0)" xlink:href="#bs"/><use transform="matrix(0.05,0,0,0.05,27.950000000000003,0)" xlink:href="#bh"/><use transform="matrix(0.05,0,0,0.05,38.900000000000006,0)" xlink:href="#bi"/><use transform="matrix(0.05,0,0,0.05,43.900000000000006,0)" xlink:href="#bc"/><use transform="matrix(0.05,0,0,0.05,50.900000000000006,0)" xlink:href="#bj"/><use transform="matrix(0.05,0,0,0.05,60.900000000000006,0)" xlink:href="#bn"/><use transform="matrix(0.05,0,0,0.05,76.9,0)" xlink:href="#bj"/><use transform="matrix(0.05,0,0,0.05,86.9,0)" xlink:href="#ba"/><use transform="matrix(0.05,0,0,0.05,97.85000000000001,0)" xlink:href="#bb"/><use transform="matrix(0.05,0,0,0.05,103.80000000000001,0)" xlink:href="#bk"/></g><use transform="matrix(0.05,0,0,0.05,0,0)" xlink:href="#bp" id="q"/><g id="r"><use transform="matrix(0.05,0,0,0.05,0,0)" xlink:href="#br"/><use transform="matrix(0.05,0,0,0.05,10.950000000000001,0)" xlink:href="#bj"/><use transform="matrix(0.05,0,0,0.05,20.950000000000003,0)" xlink:href="#bc"/><use transform="matrix(0.05,0,0,0.05,27.950000000000003,0)" xlink:href="#bg"/><use transform="matrix(0.05,0,0,0.05,33.900000000000006,0)" xlink:href="#aZ"/><use transform="matrix(0.05,0,0,0.05,44.85000000000001,0)" xlink:href="#bc"/><use transform="matrix(0.05,0,0,0.05,51.85,0)" xlink:href="#bn"/><use transform="matrix(0.05,0,0,0.05,67.85000000000001,0)" xlink:href="#be"/><use transform="matrix(0.05,0,0,0.05,77.85000000000001,0)" xlink:href="#ba"/><use transform="matrix(0.05,0,0,0.05,88.80000000000001,0)" xlink:href="#aY"/><use transform="matrix(0.05,0,0,0.05,98.80000000000001,0)" xlink:href="#bj"/></g><g id="s"><use transform="matrix(0.05,0,0,0.05,0,0)" xlink:href="#bb"/><use transform="matrix(0.05,0,0,0.05,5.95,0)" xlink:href="#be"/><use transform="matrix(0.05,0,0,0.05,15.949999999999998,0)" xlink:href="#bc"/><use transform="matrix(0.05,0,0,0.05,22.95,0)" xlink:href="#bq"/><use transform="matrix(0.05,0,0,0.05,33.9,0)" xlink:href="#bj"/><use transform="matrix(0.05,0,0,0.05,43.9,0)" xlink:href="#bb"/><use transform="matrix(0.05,0,0,0.05,49.85,0)" xlink:href="#bk"/></g><g id="t"><use transform="matrix(0.05,0,0,0.05,0,0)" xlink:href="#bf"/><use transform="matrix(0.05,0,0,0.05,10.950000000000001,0)" xlink:href="#bj"/><use transform="matrix(0.05,0,0,0.05,20.950000000000003,0)" xlink:href="#bk"/><use transform="matrix(0.05,0,0,0.05,30.950000000000003,0)" xlink:href="#bi"/><use transform="matrix(0.05,0,0,0.05,35.95,0)" xlink:href="#bq"/><use transform="matrix(0.05,0,0,0.05,46.900000000000006,0)" xlink:href="#ba"/></g><use transform="matrix(0.05,0,0,0.05,0,0)" xlink:href="#bp" id="u"/><g id="v"><use transform="matrix(0.05,0,0,0.05,0,0)" xlink:href="#bk"/><use transform="matrix(0.05,0,0,0.05,10,0)" xlink:href="#br"/><use transform="matrix(0.05,0,0,0.05,20.950000000000003,0)" xlink:href="#bj"/><use transform="matrix(0.05,0,0,0.05,30.950000000000003,0)" xlink:href="#aY"/><use transform="matrix(0.05,0,0,0.05,40.95,0)" xlink:href="#bi"/><use transform="matrix(0.05,0,0,0.05,45.95,0)" xlink:href="#bg"/><use transform="matrix(0.05,0,0,0.05,51.900000000000006,0)" xlink:href="#bi"/><use transform="matrix(0.05,0,0,0.05,56.900000000000006,0)" xlink:href="#aY"/><use transform="matrix(0.05,0,0,0.05,66.9,0)" xlink:href="#be"/><use transform="matrix(0.05,0,0,0.05,76.9,0)" xlink:href="#bb"/><use transform="matrix(0.05,0,0,0.05,82.85000000000001,0)" xlink:href="#bi"/><use transform="matrix(0.05,0,0,0.05,87.85000000000001,0)" xlink:href="#aZ"/><use transform="matrix(0.05,0,0,0.05,98.80000000000001,0)" xlink:href="#ba"/></g><path d="M135-143c-3-34-86-38-87 0 15 53 115 12 119 90S17 21 10-45l28-5c4 36 97 45 98 0-10-56-113-15-118-90-4-57 82-63 122-42 12 7 21 19 24 35" id="bt"/><path d="M100-194c63 0 86 42 84 106H49c0 40 14 67 53 68 26 1 43-12 49-29l28 8c-11 28-37 45-77 45C44 4 14-33 15-96c1-61 26-98 85-98zm52 81c6-60-76-77-97-28-3 7-6 17-6 28h103" id="bu"/><path d="M145-31C134-9 116 4 85 4 32 4 16-35 15-94c0-59 17-99 70-100 32-1 48 14 60 33 0-11-1-24 2-32h30l-1 268h-32zM93-21c41 0 51-33 51-76s-8-73-50-73c-40 0-46 35-46 75s5 74 45 74" id="bv"/><path d="M84 4C-5 8 30-112 23-190h32v120c0 31 7 50 39 49 72-2 45-101 50-169h31l1 190h-30c-1-10 1-25-2-33-11 22-28 36-60 37" id="bw"/><path d="M117-194c89-4 53 116 60 194h-32v-121c0-31-8-49-39-48C34-167 62-67 57 0H25l-1-190h30c1 10-1 24 2 32 11-22 29-35 61-36" id="bx"/><path d="M96-169c-40 0-48 33-48 73s9 75 48 75c24 0 41-14 43-38l32 2c-6 37-31 61-74 61-59 0-76-41-82-99-10-93 101-131 147-64 4 7 5 14 7 22l-32 3c-4-21-16-35-41-35" id="by"/><g id="w"><use transform="matrix(0.03703703703703704,0,0,0.03703703703703704,0,0)" xlink:href="#bt"/><use transform="matrix(0.03703703703703704,0,0,0.03703703703703704,6.666666666666668,0)" xlink:href="#bu"/><use transform="matrix(0.03703703703703704,0,0,0.03703703703703704,14.074074074074076,0)" xlink:href="#bv"/><use transform="matrix(0.03703703703703704,0,0,0.03703703703703704,21.481481481481485,0)" xlink:href="#bw"/><use transform="matrix(0.03703703703703704,0,0,0.03703703703703704,28.888888888888893,0)" xlink:href="#bu"/><use transform="matrix(0.03703703703703704,0,0,0.03703703703703704,36.296296296296305,0)" xlink:href="#bx"/><use transform="matrix(0.03703703703703704,0,0,0.03703703703703704,43.70370370370371,0)" xlink:href="#by"/><use transform="matrix(0.03703703703703704,0,0,0.03703703703703704,50.370370370370374,0)" xlink:href="#bu"/></g><path d="M24 0v-261h32V0H24" id="bz"/><path d="M59-47c-2 24 18 29 38 22v24C64 9 27 4 27-40v-127H5v-23h24l9-43h21v43h35v23H59v120" id="bA"/><path d="M24-231v-30h32v30H24zM24 0v-190h32V0H24" id="bB"/><path d="M100-194c62-1 85 37 85 99 1 63-27 99-86 99S16-35 15-95c0-66 28-99 85-99zM99-20c44 1 53-31 53-75 0-43-8-75-51-75s-53 32-53 75 10 74 51 75" id="bC"/><path d="M68-38c1 34 0 65-14 84H32c9-13 17-26 17-46H33v-38h35" id="bD"/><g id="x"><use transform="matrix(0.03703703703703704,0,0,0.03703703703703704,0,0)" xlink:href="#bt"/><use transform="matrix(0.03703703703703704,0,0,0.03703703703703704,6.666666666666668,0)" xlink:href="#bu"/><use transform="matrix(0.03703703703703704,0,0,0.03703703703703704,14.074074074074076,0)" xlink:href="#bz"/><use transform="matrix(0.03703703703703704,0,0,0.03703703703703704,17.000000000000004,0)" xlink:href="#bu"/><use transform="matrix(0.03703703703703704,0,0,0.03703703703703704,24.407407407407412,0)" xlink:href="#by"/><use transform="matrix(0.03703703703703704,0,0,0.03703703703703704,31.07407407407408,0)" xlink:href="#bA"/><use transform="matrix(0.03703703703703704,0,0,0.03703703703703704,34.777777777777786,0)" xlink:href="#bB"/><use transform="matrix(0.03703703703703704,0,0,0.03703703703703704,37.70370370370371,0)" xlink:href="#bC"/><use transform="matrix(0.03703703703703704,0,0,0.03703703703703704,45.111111111111114,0)" xlink:href="#bx"/><use transform="matrix(0.03703703703703704,0,0,0.03703703703703704,52.51851851851852,0)" xlink:href="#bD"/></g><path d="M141-36C126-15 110 5 73 4 37 3 15-17 15-53c-1-64 63-63 125-63 3-35-9-54-41-54-24 1-41 7-42 31l-33-3c5-37 33-52 76-52 45 0 72 20 72 64v82c-1 20 7 32 28 27v20c-31 9-61-2-59-35zM48-53c0 20 12 33 32 33 41-3 63-29 60-74-43 2-92-5-92 41" id="bE"/><path d="M85-194c31 0 48 13 60 33l-1-100h32l1 261h-30c-2-10 0-23-3-31C134-8 116 4 85 4 32 4 16-35 15-94c0-66 23-100 70-100zm9 24c-40 0-46 34-46 75 0 40 6 74 45 74 42 0 51-32 51-76 0-42-9-74-50-73" id="bF"/><path d="M115-194c55 1 70 41 70 98S169 2 115 4C84 4 66-9 55-30l1 105H24l-1-265h31l2 30c10-21 28-34 59-34zm-8 174c40 0 45-34 45-75s-6-73-45-74c-42 0-51 32-51 76 0 43 10 73 51 73" id="bG"/><g id="y"><use transform="matrix(0.03703703703703704,0,0,0.03703703703703704,0,0)" xlink:href="#bE"/><use transform="matrix(0.03703703703703704,0,0,0.03703703703703704,7.407407407407408,0)" xlink:href="#bF"/><use transform="matrix(0.03703703703703704,0,0,0.03703703703703704,14.814814814814817,0)" xlink:href="#bE"/><use transform="matrix(0.03703703703703704,0,0,0.03703703703703704,22.222222222222225,0)" xlink:href="#bG"/><use transform="matrix(0.03703703703703704,0,0,0.03703703703703704,29.629629629629633,0)" xlink:href="#bA"/><use transform="matrix(0.03703703703703704,0,0,0.03703703703703704,33.333333333333336,0)" xlink:href="#bE"/><use transform="matrix(0.03703703703703704,0,0,0.03703703703703704,40.74074074074075,0)" xlink:href="#bA"/><use transform="matrix(0.03703703703703704,0,0,0.03703703703703704,44.44444444444445,0)" xlink:href="#bB"/><use transform="matrix(0.03703703703703704,0,0,0.03703703703703704,47.370370370370374,0)" xlink:href="#bC"/><use transform="matrix(0.03703703703703704,0,0,0.03703703703703704,54.777777777777786,0)" xlink:href="#bx"/></g><g id="z"><use transform="matrix(0.03703703703703704,0,0,0.03703703703703704,0,0)" xlink:href="#bE"/><use transform="matrix(0.03703703703703704,0,0,0.03703703703703704,7.407407407407408,0)" xlink:href="#bx"/><use transform="matrix(0.03703703703703704,0,0,0.03703703703703704,14.814814814814817,0)" xlink:href="#bF"/></g><path d="M210-169c-67 3-38 105-44 169h-31v-121c0-29-5-50-35-48C34-165 62-65 56 0H25l-1-190h30c1 10-1 24 2 32 10-44 99-50 107 0 11-21 27-35 58-36 85-2 47 119 55 194h-31v-121c0-29-5-49-35-48" id="bH"/><path d="M9 0v-24l116-142H16v-24h144v24L44-24h123V0H9" id="bI"/><g id="A"><use transform="matrix(0.03703703703703704,0,0,0.03703703703703704,0,0)" xlink:href="#bC"/><use transform="matrix(0.03703703703703704,0,0,0.03703703703703704,7.407407407407408,0)" xlink:href="#bG"/><use transform="matrix(0.03703703703703704,0,0,0.03703703703703704,14.814814814814817,0)" xlink:href="#bA"/><use transform="matrix(0.03703703703703704,0,0,0.03703703703703704,18.51851851851852,0)" xlink:href="#bB"/><use transform="matrix(0.03703703703703704,0,0,0.03703703703703704,21.444444444444446,0)" xlink:href="#bH"/><use transform="matrix(0.03703703703703704,0,0,0.03703703703703704,32.51851851851852,0)" xlink:href="#bB"/><use transform="matrix(0.03703703703703704,0,0,0.03703703703703704,35.44444444444444,0)" xlink:href="#bI"/><use transform="matrix(0.03703703703703704,0,0,0.03703703703703704,42.111111111111114,0)" xlink:href="#bE"/><use transform="matrix(0.03703703703703704,0,0,0.03703703703703704,49.51851851851852,0)" xlink:href="#bA"/><use transform="matrix(0.03703703703703704,0,0,0.03703703703703704,53.22222222222222,0)" xlink:href="#bB"/><use transform="matrix(0.03703703703703704,0,0,0.03703703703703704,56.148148148148145,0)" xlink:href="#bC"/><use transform="matrix(0.03703703703703704,0,0,0.03703703703703704,63.55555555555556,0)" xlink:href="#bx"/></g><path d="M141 0L90-78 38 0H4l68-98-65-92h35l48 74 47-74h35l-64 92 68 98h-35" id="bJ"/><path d="M114-163C36-179 61-72 57 0H25l-1-190h30c1 12-1 29 2 39 6-27 23-49 58-41v29" id="bK"/><g id="B"><use transform="matrix(0.03703703703703704,0,0,0.03703703703703704,0,0)" xlink:href="#bu"/><use transform="matrix(0.03703703703703704,0,0,0.03703703703703704,7.407407407407408,0)" xlink:href="#bJ"/><use transform="matrix(0.03703703703703704,0,0,0.03703703703703704,14.074074074074076,0)" xlink:href="#bG"/><use transform="matrix(0.03703703703703704,0,0,0.03703703703703704,21.481481481481485,0)" xlink:href="#bC"/><use transform="matrix(0.03703703703703704,0,0,0.03703703703703704,28.888888888888893,0)" xlink:href="#bK"/><use transform="matrix(0.03703703703703704,0,0,0.03703703703703704,33.296296296296305,0)" xlink:href="#bA"/></g><g id="C"><use transform="matrix(0.03703703703703704,0,0,0.03703703703703704,0,0)" xlink:href="#by"/><use transform="matrix(0.03703703703703704,0,0,0.03703703703703704,6.666666666666668,0)" xlink:href="#bC"/><use transform="matrix(0.03703703703703704,0,0,0.03703703703703704,14.074074074074076,0)" xlink:href="#bx"/><use transform="matrix(0.03703703703703704,0,0,0.03703703703703704,21.481481481481485,0)" xlink:href="#bA"/><use transform="matrix(0.03703703703703704,0,0,0.03703703703703704,25.185185185185187,0)" xlink:href="#bK"/><use transform="matrix(0.03703703703703704,0,0,0.03703703703703704,29.592592592592602,0)" xlink:href="#bC"/><use transform="matrix(0.03703703703703704,0,0,0.03703703703703704,37.00000000000001,0)" xlink:href="#bz"/></g><path d="M101-234c-31-9-42 10-38 44h38v23H63V0H32v-167H5v-23h27c-7-52 17-82 69-68v24" id="bL"/><g id="D"><use transform="matrix(0.03703703703703704,0,0,0.03703703703703704,0,0)" xlink:href="#bt"/><use transform="matrix(0.03703703703703704,0,0,0.03703703703703704,6.666666666666668,0)" xlink:href="#bG"/><use transform="matrix(0.03703703703703704,0,0,0.03703703703703704,14.074074074074076,0)" xlink:href="#bu"/><use transform="matrix(0.03703703703703704,0,0,0.03703703703703704,21.481481481481485,0)" xlink:href="#by"/><use transform="matrix(0.03703703703703704,0,0,0.03703703703703704,28.148148148148152,0)" xlink:href="#bB"/><use transform="matrix(0.03703703703703704,0,0,0.03703703703703704,31.07407407407408,0)" xlink:href="#bL"/><use transform="matrix(0.03703703703703704,0,0,0.03703703703703704,34.777777777777786,0)" xlink:href="#bB"/><use transform="matrix(0.03703703703703704,0,0,0.03703703703703704,37.70370370370371,0)" xlink:href="#by"/><use transform="matrix(0.03703703703703704,0,0,0.03703703703703704,44.37037037037039,0)" xlink:href="#bE"/><use transform="matrix(0.03703703703703704,0,0,0.03703703703703704,51.777777777777786,0)" xlink:href="#bA"/><use transform="matrix(0.03703703703703704,0,0,0.03703703703703704,55.48148148148149,0)" xlink:href="#bB"/><use transform="matrix(0.03703703703703704,0,0,0.03703703703703704,58.40740740740741,0)" xlink:href="#bC"/><use transform="matrix(0.03703703703703704,0,0,0.03703703703703704,65.81481481481482,0)" xlink:href="#bx"/></g><g id="E"><use transform="matrix(0.03703703703703704,0,0,0.03703703703703704,0,0)" xlink:href="#bE"/><use transform="matrix(0.03703703703703704,0,0,0.03703703703703704,7.407407407407408,0)" xlink:href="#bx"/><use transform="matrix(0.03703703703703704,0,0,0.03703703703703704,14.814814814814817,0)" xlink:href="#bF"/></g><path d="M115-194c53 0 69 39 70 98 0 66-23 100-70 100C84 3 66-7 56-30L54 0H23l1-261h32v101c10-23 28-34 59-34zm-8 174c40 0 45-34 45-75 0-40-5-75-45-74-42 0-51 32-51 76 0 43 10 73 51 73" id="bM"/><g id="F"><use transform="matrix(0.03703703703703704,0,0,0.03703703703703704,0,0)" xlink:href="#bu"/><use transform="matrix(0.03703703703703704,0,0,0.03703703703703704,7.407407407407408,0)" xlink:href="#bJ"/><use transform="matrix(0.03703703703703704,0,0,0.03703703703703704,14.074074074074076,0)" xlink:href="#bu"/><use transform="matrix(0.03703703703703704,0,0,0.03703703703703704,21.481481481481485,0)" xlink:href="#by"/><use transform="matrix(0.03703703703703704,0,0,0.03703703703703704,28.148148148148152,0)" xlink:href="#bw"/><use transform="matrix(0.03703703703703704,0,0,0.03703703703703704,35.55555555555556,0)" xlink:href="#bA"/><use transform="matrix(0.03703703703703704,0,0,0.03703703703703704,39.25925925925926,0)" xlink:href="#bE"/><use transform="matrix(0.03703703703703704,0,0,0.03703703703703704,46.66666666666667,0)" xlink:href="#bM"/><use transform="matrix(0.03703703703703704,0,0,0.03703703703703704,54.074074074074076,0)" xlink:href="#bz"/><use transform="matrix(0.03703703703703704,0,0,0.03703703703703704,57,0)" xlink:href="#bu"/></g><g id="G"><use transform="matrix(0.03703703703703704,0,0,0.03703703703703704,0,0)" xlink:href="#bt"/><use transform="matrix(0.03703703703703704,0,0,0.03703703703703704,6.666666666666668,0)" xlink:href="#bu"/><use transform="matrix(0.03703703703703704,0,0,0.03703703703703704,14.074074074074076,0)" xlink:href="#bv"/><use transform="matrix(0.03703703703703704,0,0,0.03703703703703704,21.481481481481485,0)" xlink:href="#bw"/><use transform="matrix(0.03703703703703704,0,0,0.03703703703703704,28.888888888888893,0)" xlink:href="#bu"/><use transform="matrix(0.03703703703703704,0,0,0.03703703703703704,36.296296296296305,0)" xlink:href="#bx"/><use transform="matrix(0.03703703703703704,0,0,0.03703703703703704,43.70370370370371,0)" xlink:href="#by"/><use transform="matrix(0.03703703703703704,0,0,0.03703703703703704,50.370370370370374,0)" xlink:href="#bu"/></g><g id="H"><use transform="matrix(0.03703703703703704,0,0,0.03703703703703704,0,0)" xlink:href="#bL"/><use transform="matrix(0.03703703703703704,0,0,0.03703703703703704,3.703703703703704,0)" xlink:href="#bw"/><use transform="matrix(0.03703703703703704,0,0,0.03703703703703704,11.111111111111112,0)" xlink:href="#bx"/><use transform="matrix(0.03703703703703704,0,0,0.03703703703703704,18.51851851851852,0)" xlink:href="#by"/><use transform="matrix(0.03703703703703704,0,0,0.03703703703703704,25.185185185185187,0)" xlink:href="#bA"/><use transform="matrix(0.03703703703703704,0,0,0.03703703703703704,28.888888888888893,0)" xlink:href="#bB"/><use transform="matrix(0.03703703703703704,0,0,0.03703703703703704,31.81481481481482,0)" xlink:href="#bC"/><use transform="matrix(0.03703703703703704,0,0,0.03703703703703704,39.22222222222223,0)" xlink:href="#bx"/><use transform="matrix(0.03703703703703704,0,0,0.03703703703703704,46.62962962962963,0)" xlink:href="#bE"/><use transform="matrix(0.03703703703703704,0,0,0.03703703703703704,54.03703703703704,0)" xlink:href="#bz"/></g><g id="I"><use transform="matrix(0.03703703703703704,0,0,0.03703703703703704,0,0)" xlink:href="#bA"/><use transform="matrix(0.03703703703703704,0,0,0.03703703703703704,3.703703703703704,0)" xlink:href="#bu"/><use transform="matrix(0.03703703703703704,0,0,0.03703703703703704,11.111111111111112,0)" xlink:href="#bt"/><use transform="matrix(0.03703703703703704,0,0,0.03703703703703704,17.77777777777778,0)" xlink:href="#bA"/><use transform="matrix(0.03703703703703704,0,0,0.03703703703703704,21.48148148148148,0)" xlink:href="#bt"/></g><g id="J"><use transform="matrix(0.03703703703703704,0,0,0.03703703703703704,0,0)" xlink:href="#bB"/><use transform="matrix(0.03703703703703704,0,0,0.03703703703703704,2.9259259259259265,0)" xlink:href="#bx"/></g><path d="M212-179c-10-28-35-45-73-45-59 0-87 40-87 99 0 60 29 101 89 101 43 0 62-24 78-52l27 14C228-24 195 4 139 4 59 4 22-46 18-125c-6-104 99-153 187-111 19 9 31 26 39 46" id="bN"/><path d="M30-248c118-7 216 8 213 122C240-48 200 0 122 0H30v-248zM63-27c89 8 146-16 146-99s-60-101-146-95v194" id="bO"/><path d="M30 0v-248h33v221h125V0H30" id="bP"/><g id="K"><use transform="matrix(0.03703703703703704,0,0,0.03703703703703704,0,0)" xlink:href="#bN"/><use transform="matrix(0.03703703703703704,0,0,0.03703703703703704,9.592592592592593,0)" xlink:href="#bO"/><use transform="matrix(0.03703703703703704,0,0,0.03703703703703704,19.185185185185187,0)" xlink:href="#bP"/></g><g id="L"><use transform="matrix(0.03703703703703704,0,0,0.03703703703703704,0,0)" xlink:href="#by"/><use transform="matrix(0.03703703703703704,0,0,0.03703703703703704,6.666666666666668,0)" xlink:href="#bC"/><use transform="matrix(0.03703703703703704,0,0,0.03703703703703704,14.074074074074076,0)" xlink:href="#bx"/><use transform="matrix(0.03703703703703704,0,0,0.03703703703703704,21.481481481481485,0)" xlink:href="#bA"/><use transform="matrix(0.03703703703703704,0,0,0.03703703703703704,25.185185185185187,0)" xlink:href="#bK"/><use transform="matrix(0.03703703703703704,0,0,0.03703703703703704,29.592592592592602,0)" xlink:href="#bC"/><use transform="matrix(0.03703703703703704,0,0,0.03703703703703704,37.00000000000001,0)" xlink:href="#bz"/></g><path d="M108 0H70L1-190h34L89-25l56-165h34" id="bQ"/><g id="M"><use transform="matrix(0.03703703703703704,0,0,0.03703703703703704,0,0)" xlink:href="#bG"/><use transform="matrix(0.03703703703703704,0,0,0.03703703703703704,7.407407407407408,0)" xlink:href="#bK"/><use transform="matrix(0.03703703703703704,0,0,0.03703703703703704,11.814814814814817,0)" xlink:href="#bC"/><use transform="matrix(0.03703703703703704,0,0,0.03703703703703704,19.222222222222225,0)" xlink:href="#bQ"/><use transform="matrix(0.03703703703703704,0,0,0.03703703703703704,25.888888888888893,0)" xlink:href="#bB"/><use transform="matrix(0.03703703703703704,0,0,0.03703703703703704,28.81481481481482,0)" xlink:href="#bF"/><use transform="matrix(0.03703703703703704,0,0,0.03703703703703704,36.22222222222223,0)" xlink:href="#bu"/><use transform="matrix(0.03703703703703704,0,0,0.03703703703703704,43.62962962962963,0)" xlink:href="#bK"/></g><g id="N"><use transform="matrix(0.03703703703703704,0,0,0.03703703703703704,0,0)" xlink:href="#bM"/><use transform="matrix(0.03703703703703704,0,0,0.03703703703703704,7.407407407407408,0)" xlink:href="#bB"/><use transform="matrix(0.03703703703703704,0,0,0.03703703703703704,10.333333333333334,0)" xlink:href="#bF"/><use transform="matrix(0.03703703703703704,0,0,0.03703703703703704,17.740740740740744,0)" xlink:href="#bt"/></g><g id="O"><use transform="matrix(0.03703703703703704,0,0,0.03703703703703704,0,0)" xlink:href="#bL"/><use transform="matrix(0.03703703703703704,0,0,0.03703703703703704,3.703703703703704,0)" xlink:href="#bC"/><use transform="matrix(0.03703703703703704,0,0,0.03703703703703704,11.111111111111112,0)" xlink:href="#bK"/></g><path d="M24-231v-30h32v30H24zM-9 49c24 4 33-6 33-30v-209h32V24c2 40-23 58-65 49V49" id="bR"/><g id="P"><use transform="matrix(0.03703703703703704,0,0,0.03703703703703704,0,0)" xlink:href="#bG"/><use transform="matrix(0.03703703703703704,0,0,0.03703703703703704,7.407407407407408,0)" xlink:href="#bK"/><use transform="matrix(0.03703703703703704,0,0,0.03703703703703704,11.814814814814817,0)" xlink:href="#bC"/><use transform="matrix(0.03703703703703704,0,0,0.03703703703703704,19.222222222222225,0)" xlink:href="#bR"/><use transform="matrix(0.03703703703703704,0,0,0.03703703703703704,22.148148148148152,0)" xlink:href="#bu"/><use transform="matrix(0.03703703703703704,0,0,0.03703703703703704,29.55555555555556,0)" xlink:href="#by"/><use transform="matrix(0.03703703703703704,0,0,0.03703703703703704,36.22222222222223,0)" xlink:href="#bA"/></g><g id="Q"><use transform="matrix(0.03703703703703704,0,0,0.03703703703703704,0,0)" xlink:href="#bL"/><use transform="matrix(0.03703703703703704,0,0,0.03703703703703704,3.703703703703704,0)" xlink:href="#bw"/><use transform="matrix(0.03703703703703704,0,0,0.03703703703703704,11.111111111111112,0)" xlink:href="#bx"/><use transform="matrix(0.03703703703703704,0,0,0.03703703703703704,18.51851851851852,0)" xlink:href="#by"/><use transform="matrix(0.03703703703703704,0,0,0.03703703703703704,25.185185185185187,0)" xlink:href="#bA"/><use transform="matrix(0.03703703703703704,0,0,0.03703703703703704,28.888888888888893,0)" xlink:href="#bB"/><use transform="matrix(0.03703703703703704,0,0,0.03703703703703704,31.81481481481482,0)" xlink:href="#bC"/><use transform="matrix(0.03703703703703704,0,0,0.03703703703703704,39.22222222222223,0)" xlink:href="#bx"/><use transform="matrix(0.03703703703703704,0,0,0.03703703703703704,46.62962962962963,0)" xlink:href="#bE"/><use transform="matrix(0.03703703703703704,0,0,0.03703703703703704,54.03703703703704,0)" xlink:href="#bz"/></g><g id="R"><use transform="matrix(0.03703703703703704,0,0,0.03703703703703704,0,0)" xlink:href="#bQ"/><use transform="matrix(0.03703703703703704,0,0,0.03703703703703704,6.666666666666668,0)" xlink:href="#bu"/><use transform="matrix(0.03703703703703704,0,0,0.03703703703703704,14.074074074074076,0)" xlink:href="#bK"/><use transform="matrix(0.03703703703703704,0,0,0.03703703703703704,18.481481481481485,0)" xlink:href="#bB"/><use transform="matrix(0.03703703703703704,0,0,0.03703703703703704,21.407407407407412,0)" xlink:href="#bL"/><use transform="matrix(0.03703703703703704,0,0,0.03703703703703704,25.111111111111114,0)" xlink:href="#bB"/><use transform="matrix(0.03703703703703704,0,0,0.03703703703703704,28.03703703703704,0)" xlink:href="#by"/><use transform="matrix(0.03703703703703704,0,0,0.03703703703703704,34.70370370370371,0)" xlink:href="#bE"/><use transform="matrix(0.03703703703703704,0,0,0.03703703703703704,42.111111111111114,0)" xlink:href="#bA"/><use transform="matrix(0.03703703703703704,0,0,0.03703703703703704,45.814814814814824,0)" xlink:href="#bB"/><use transform="matrix(0.03703703703703704,0,0,0.03703703703703704,48.74074074074074,0)" xlink:href="#bC"/><use transform="matrix(0.03703703703703704,0,0,0.03703703703703704,56.14814814814815,0)" xlink:href="#bx"/></g><g id="S"><use transform="matrix(0.03703703703703704,0,0,0.03703703703703704,0,0)" xlink:href="#bH"/><use transform="matrix(0.03703703703703704,0,0,0.03703703703703704,11.074074074074076,0)" xlink:href="#bu"/><use transform="matrix(0.03703703703703704,0,0,0.03703703703703704,18.481481481481485,0)" xlink:href="#bu"/><use transform="matrix(0.03703703703703704,0,0,0.03703703703703704,25.888888888888893,0)" xlink:href="#bA"/><use transform="matrix(0.03703703703703704,0,0,0.03703703703703704,29.592592592592595,0)" xlink:href="#bt"/></g><g id="T"><use transform="matrix(0.03703703703703704,0,0,0.03703703703703704,0,0)" xlink:href="#bt"/><use transform="matrix(0.03703703703703704,0,0,0.03703703703703704,6.666666666666668,0)" xlink:href="#bG"/><use transform="matrix(0.03703703703703704,0,0,0.03703703703703704,14.074074074074076,0)" xlink:href="#bu"/><use transform="matrix(0.03703703703703704,0,0,0.03703703703703704,21.481481481481485,0)" xlink:href="#by"/><use transform="matrix(0.03703703703703704,0,0,0.03703703703703704,28.148148148148152,0)" xlink:href="#bB"/><use transform="matrix(0.03703703703703704,0,0,0.03703703703703704,31.07407407407408,0)" xlink:href="#bL"/><use transform="matrix(0.03703703703703704,0,0,0.03703703703703704,34.777777777777786,0)" xlink:href="#bB"/><use transform="matrix(0.03703703703703704,0,0,0.03703703703703704,37.70370370370371,0)" xlink:href="#by"/><use transform="matrix(0.03703703703703704,0,0,0.03703703703703704,44.37037037037039,0)" xlink:href="#bE"/><use transform="matrix(0.03703703703703704,0,0,0.03703703703703704,51.777777777777786,0)" xlink:href="#bA"/><use transform="matrix(0.03703703703703704,0,0,0.03703703703703704,55.48148148148149,0)" xlink:href="#bB"/><use transform="matrix(0.03703703703703704,0,0,0.03703703703703704,58.40740740740741,0)" xlink:href="#bC"/><use transform="matrix(0.03703703703703704,0,0,0.03703703703703704,65.81481481481482,0)" xlink:href="#bx"/></g><g id="U"><use transform="matrix(0.03703703703703704,0,0,0.03703703703703704,0,0)" xlink:href="#bA"/><use transform="matrix(0.03703703703703704,0,0,0.03703703703703704,3.703703703703704,0)" xlink:href="#bu"/><use transform="matrix(0.03703703703703704,0,0,0.03703703703703704,11.111111111111112,0)" xlink:href="#bt"/><use transform="matrix(0.03703703703703704,0,0,0.03703703703703704,17.77777777777778,0)" xlink:href="#bA"/></g><path d="M206 0h-36l-40-164L89 0H53L-1-190h32L70-26l43-164h34l41 164 42-164h31" id="bS"/><path d="M106-169C34-169 62-67 57 0H25v-261h32l-1 103c12-21 28-36 61-36 89 0 53 116 60 194h-32v-121c2-32-8-49-39-48" id="bT"/><g id="V"><use transform="matrix(0.03703703703703704,0,0,0.03703703703703704,0,0)" xlink:href="#bS"/><use transform="matrix(0.03703703703703704,0,0,0.03703703703703704,9.592592592592593,0)" xlink:href="#bB"/><use transform="matrix(0.03703703703703704,0,0,0.03703703703703704,12.518518518518517,0)" xlink:href="#bA"/><use transform="matrix(0.03703703703703704,0,0,0.03703703703703704,16.22222222222222,0)" xlink:href="#bT"/></g><path d="M177-190C167-65 218 103 67 71c-23-6-38-20-44-43l32-5c15 47 100 32 89-28v-30C133-14 115 1 83 1 29 1 15-40 15-95c0-56 16-97 71-98 29-1 48 16 59 35 1-10 0-23 2-32h30zM94-22c36 0 50-32 50-73 0-42-14-75-50-75-39 0-46 34-46 75s6 73 46 73" id="bU"/><path d="M179-190L93 31C79 59 56 82 12 73V49c39 6 53-20 64-50L1-190h34L92-34l54-156h33" id="bV"/><g id="W"><use transform="matrix(0.03703703703703704,0,0,0.03703703703703704,0,0)" xlink:href="#bu"/><use transform="matrix(0.03703703703703704,0,0,0.03703703703703704,7.407407407407408,0)" xlink:href="#bx"/><use transform="matrix(0.03703703703703704,0,0,0.03703703703703704,14.814814814814817,0)" xlink:href="#bu"/><use transform="matrix(0.03703703703703704,0,0,0.03703703703703704,22.222222222222225,0)" xlink:href="#bK"/><use transform="matrix(0.03703703703703704,0,0,0.03703703703703704,26.629629629629633,0)" xlink:href="#bU"/><use transform="matrix(0.03703703703703704,0,0,0.03703703703703704,34.03703703703704,0)" xlink:href="#bV"/></g><g id="X"><use transform="matrix(0.03703703703703704,0,0,0.03703703703703704,0,0)" xlink:href="#bH"/><use transform="matrix(0.03703703703703704,0,0,0.03703703703703704,11.074074074074076,0)" xlink:href="#bC"/><use transform="matrix(0.03703703703703704,0,0,0.03703703703703704,18.481481481481485,0)" xlink:href="#bF"/><use transform="matrix(0.03703703703703704,0,0,0.03703703703703704,25.888888888888893,0)" xlink:href="#bu"/><use transform="matrix(0.03703703703703704,0,0,0.03703703703703704,33.296296296296305,0)" xlink:href="#bz"/></g><g id="Y"><use transform="matrix(0.03703703703703704,0,0,0.03703703703703704,0,0)" xlink:href="#bK"/><use transform="matrix(0.03703703703703704,0,0,0.03703703703703704,4.407407407407408,0)" xlink:href="#bu"/><use transform="matrix(0.03703703703703704,0,0,0.03703703703703704,11.814814814814817,0)" xlink:href="#bv"/><use transform="matrix(0.03703703703703704,0,0,0.03703703703703704,19.222222222222225,0)" xlink:href="#bw"/><use transform="matrix(0.03703703703703704,0,0,0.03703703703703704,26.629629629629633,0)" xlink:href="#bB"/><use transform="matrix(0.03703703703703704,0,0,0.03703703703703704,29.55555555555556,0)" xlink:href="#bK"/><use transform="matrix(0.03703703703703704,0,0,0.03703703703703704,33.96296296296297,0)" xlink:href="#bu"/><use transform="matrix(0.03703703703703704,0,0,0.03703703703703704,41.37037037037038,0)" xlink:href="#bH"/><use transform="matrix(0.03703703703703704,0,0,0.03703703703703704,52.44444444444446,0)" xlink:href="#bu"/><use transform="matrix(0.03703703703703704,0,0,0.03703703703703704,59.85185185185186,0)" xlink:href="#bx"/><use transform="matrix(0.03703703703703704,0,0,0.03703703703703704,67.25925925925927,0)" xlink:href="#bA"/><use transform="matrix(0.03703703703703704,0,0,0.03703703703703704,70.96296296296298,0)" xlink:href="#bt"/></g><path d="M103-251c84 0 111 97 45 133-19 10-37 24-39 52H78c0-63 77-55 77-114 0-30-21-42-52-43-32 0-53 17-56 46l-32-2c7-45 34-72 88-72zM77 0v-35h34V0H77" id="bW"/><g id="Z"><use transform="matrix(0.03703703703703704,0,0,0.03703703703703704,0,0)" xlink:href="#bH"/><use transform="matrix(0.03703703703703704,0,0,0.03703703703703704,11.074074074074076,0)" xlink:href="#bu"/><use transform="matrix(0.03703703703703704,0,0,0.03703703703703704,18.481481481481485,0)" xlink:href="#bA"/><use transform="matrix(0.03703703703703704,0,0,0.03703703703703704,22.185185185185194,0)" xlink:href="#bW"/></g><path d="M190 0L58-211 59 0H30v-248h39L202-35l-2-213h31V0h-41" id="bX"/><g id="aa"><use transform="matrix(0.05,0,0,0.05,0,0)" xlink:href="#bX"/><use transform="matrix(0.05,0,0,0.05,12.950000000000001,0)" xlink:href="#bC"/></g><path d="M137-103V0h-34v-103L8-248h37l75 118 75-118h37" id="bY"/><g id="ab"><use transform="matrix(0.05,0,0,0.05,0,0)" xlink:href="#bY"/><use transform="matrix(0.05,0,0,0.05,10.35,0)" xlink:href="#bu"/><use transform="matrix(0.05,0,0,0.05,20.35,0)" xlink:href="#bt"/></g><g id="ac"><use transform="matrix(0.03703703703703704,0,0,0.03703703703703704,0,0)" xlink:href="#bz"/><use transform="matrix(0.03703703703703704,0,0,0.03703703703703704,2.9259259259259265,0)" xlink:href="#bB"/><use transform="matrix(0.03703703703703704,0,0,0.03703703703703704,5.851851851851853,0)" xlink:href="#bM"/><use transform="matrix(0.03703703703703704,0,0,0.03703703703703704,13.259259259259261,0)" xlink:href="#bK"/><use transform="matrix(0.03703703703703704,0,0,0.03703703703703704,17.66666666666667,0)" xlink:href="#bE"/><use transform="matrix(0.03703703703703704,0,0,0.03703703703703704,25.074074074074083,0)" xlink:href="#bK"/><use transform="matrix(0.03703703703703704,0,0,0.03703703703703704,29.481481481481488,0)" xlink:href="#bV"/></g><g id="ad"><use transform="matrix(0.03703703703703704,0,0,0.03703703703703704,0,0)" xlink:href="#bC"/><use transform="matrix(0.03703703703703704,0,0,0.03703703703703704,7.407407407407408,0)" xlink:href="#bL"/></g><g id="ae"><use transform="matrix(0.03703703703703704,0,0,0.03703703703703704,0,0)" xlink:href="#by"/><use transform="matrix(0.03703703703703704,0,0,0.03703703703703704,6.666666666666668,0)" xlink:href="#bC"/><use transform="matrix(0.03703703703703704,0,0,0.03703703703703704,14.074074074074076,0)" xlink:href="#bH"/><use transform="matrix(0.03703703703703704,0,0,0.03703703703703704,25.148148148148152,0)" xlink:href="#bG"/><use transform="matrix(0.03703703703703704,0,0,0.03703703703703704,32.55555555555556,0)" xlink:href="#bC"/><use transform="matrix(0.03703703703703704,0,0,0.03703703703703704,39.96296296296296,0)" xlink:href="#bx"/><use transform="matrix(0.03703703703703704,0,0,0.03703703703703704,47.37037037037037,0)" xlink:href="#bu"/><use transform="matrix(0.03703703703703704,0,0,0.03703703703703704,54.77777777777777,0)" xlink:href="#bx"/><use transform="matrix(0.03703703703703704,0,0,0.03703703703703704,62.185185185185176,0)" xlink:href="#bA"/><use transform="matrix(0.03703703703703704,0,0,0.03703703703703704,65.88888888888889,0)" xlink:href="#bt"/><use transform="matrix(0.03703703703703704,0,0,0.03703703703703704,72.55555555555556,0)" xlink:href="#bD"/></g><g id="af"><use transform="matrix(0.03703703703703704,0,0,0.03703703703703704,0,0)" xlink:href="#bt"/><use transform="matrix(0.03703703703703704,0,0,0.03703703703703704,6.666666666666668,0)" xlink:href="#bu"/><use transform="matrix(0.03703703703703704,0,0,0.03703703703703704,14.074074074074076,0)" xlink:href="#bv"/><use transform="matrix(0.03703703703703704,0,0,0.03703703703703704,21.481481481481485,0)" xlink:href="#bw"/><use transform="matrix(0.03703703703703704,0,0,0.03703703703703704,28.888888888888893,0)" xlink:href="#bu"/><use transform="matrix(0.03703703703703704,0,0,0.03703703703703704,36.296296296296305,0)" xlink:href="#bx"/><use transform="matrix(0.03703703703703704,0,0,0.03703703703703704,43.70370370370371,0)" xlink:href="#by"/><use transform="matrix(0.03703703703703704,0,0,0.03703703703703704,50.370370370370374,0)" xlink:href="#bu"/><use transform="matrix(0.03703703703703704,0,0,0.03703703703703704,57.777777777777786,0)" xlink:href="#bt"/></g><g id="ag"><use transform="matrix(0.03703703703703704,0,0,0.03703703703703704,0,0)" xlink:href="#bA"/><use transform="matrix(0.03703703703703704,0,0,0.03703703703703704,3.703703703703704,0)" xlink:href="#bu"/><use transform="matrix(0.03703703703703704,0,0,0.03703703703703704,11.111111111111112,0)" xlink:href="#bt"/><use transform="matrix(0.03703703703703704,0,0,0.03703703703703704,17.77777777777778,0)" xlink:href="#bA"/></g><g id="ah"><use transform="matrix(0.03703703703703704,0,0,0.03703703703703704,0,0)" xlink:href="#bu"/><use transform="matrix(0.03703703703703704,0,0,0.03703703703703704,7.407407407407408,0)" xlink:href="#bx"/><use transform="matrix(0.03703703703703704,0,0,0.03703703703703704,14.814814814814817,0)" xlink:href="#bu"/><use transform="matrix(0.03703703703703704,0,0,0.03703703703703704,22.222222222222225,0)" xlink:href="#bK"/><use transform="matrix(0.03703703703703704,0,0,0.03703703703703704,26.629629629629633,0)" xlink:href="#bU"/><use transform="matrix(0.03703703703703704,0,0,0.03703703703703704,34.03703703703704,0)" xlink:href="#bV"/></g><g id="ai"><use transform="matrix(0.03703703703703704,0,0,0.03703703703703704,0,0)" xlink:href="#by"/><use transform="matrix(0.03703703703703704,0,0,0.03703703703703704,6.666666666666668,0)" xlink:href="#bC"/><use transform="matrix(0.03703703703703704,0,0,0.03703703703703704,14.074074074074076,0)" xlink:href="#bF"/><use transform="matrix(0.03703703703703704,0,0,0.03703703703703704,21.481481481481485,0)" xlink:href="#bu"/></g><g id="aj"><use transform="matrix(0.03703703703703704,0,0,0.03703703703703704,0,0)" xlink:href="#bK"/><use transform="matrix(0.03703703703703704,0,0,0.03703703703703704,4.407407407407408,0)" xlink:href="#bu"/><use transform="matrix(0.03703703703703704,0,0,0.03703703703703704,11.814814814814817,0)" xlink:href="#bU"/><use transform="matrix(0.03703703703703704,0,0,0.03703703703703704,19.222222222222225,0)" xlink:href="#bw"/><use transform="matrix(0.03703703703703704,0,0,0.03703703703703704,26.629629629629633,0)" xlink:href="#bz"/><use transform="matrix(0.03703703703703704,0,0,0.03703703703703704,29.55555555555556,0)" xlink:href="#bE"/><use transform="matrix(0.03703703703703704,0,0,0.03703703703703704,36.96296296296297,0)" xlink:href="#bA"/><use transform="matrix(0.03703703703703704,0,0,0.03703703703703704,40.66666666666667,0)" xlink:href="#bB"/><use transform="matrix(0.03703703703703704,0,0,0.03703703703703704,43.592592592592595,0)" xlink:href="#bC"/><use transform="matrix(0.03703703703703704,0,0,0.03703703703703704,51,0)" xlink:href="#bx"/><use transform="matrix(0.03703703703703704,0,0,0.03703703703703704,58.407407407407405,0)" xlink:href="#bt"/></g><g id="ak"><use transform="matrix(0.03703703703703704,0,0,0.03703703703703704,0,0)" xlink:href="#by"/><use transform="matrix(0.03703703703703704,0,0,0.03703703703703704,6.666666666666668,0)" xlink:href="#bw"/><use transform="matrix(0.03703703703703704,0,0,0.03703703703703704,14.074074074074076,0)" xlink:href="#bt"/><use transform="matrix(0.03703703703703704,0,0,0.03703703703703704,20.740740740740744,0)" xlink:href="#bA"/><use transform="matrix(0.03703703703703704,0,0,0.03703703703703704,24.444444444444454,0)" xlink:href="#bC"/><use transform="matrix(0.03703703703703704,0,0,0.03703703703703704,31.851851851851862,0)" xlink:href="#bH"/><use transform="matrix(0.03703703703703704,0,0,0.03703703703703704,42.92592592592594,0)" xlink:href="#bu"/><use transform="matrix(0.03703703703703704,0,0,0.03703703703703704,50.33333333333334,0)" xlink:href="#bK"/></g><g id="al"><use transform="matrix(0.03703703703703704,0,0,0.03703703703703704,0,0)" xlink:href="#bK"/><use transform="matrix(0.03703703703703704,0,0,0.03703703703703704,4.407407407407408,0)" xlink:href="#bu"/><use transform="matrix(0.03703703703703704,0,0,0.03703703703703704,11.814814814814817,0)" xlink:href="#bv"/><use transform="matrix(0.03703703703703704,0,0,0.03703703703703704,19.222222222222225,0)" xlink:href="#bw"/><use transform="matrix(0.03703703703703704,0,0,0.03703703703703704,26.629629629629633,0)" xlink:href="#bB"/><use transform="matrix(0.03703703703703704,0,0,0.03703703703703704,29.55555555555556,0)" xlink:href="#bK"/><use transform="matrix(0.03703703703703704,0,0,0.03703703703703704,33.96296296296297,0)" xlink:href="#bu"/><use transform="matrix(0.03703703703703704,0,0,0.03703703703703704,41.37037037037038,0)" xlink:href="#bH"/><use transform="matrix(0.03703703703703704,0,0,0.03703703703703704,52.44444444444446,0)" xlink:href="#bu"/><use transform="matrix(0.03703703703703704,0,0,0.03703703703703704,59.85185185185186,0)" xlink:href="#bx"/><use transform="matrix(0.03703703703703704,0,0,0.03703703703703704,67.25925925925927,0)" xlink:href="#bA"/><use transform="matrix(0.03703703703703704,0,0,0.03703703703703704,70.96296296296298,0)" xlink:href="#bt"/></g><g id="am"><use transform="matrix(0.03703703703703704,0,0,0.03703703703703704,0,0)" xlink:href="#by"/><use transform="matrix(0.03703703703703704,0,0,0.03703703703703704,6.666666666666668,0)" xlink:href="#bK"/><use transform="matrix(0.03703703703703704,0,0,0.03703703703703704,11.074074074074076,0)" xlink:href="#bu"/><use transform="matrix(0.03703703703703704,0,0,0.03703703703703704,18.481481481481485,0)" xlink:href="#bE"/><use transform="matrix(0.03703703703703704,0,0,0.03703703703703704,25.888888888888893,0)" xlink:href="#bA"/><use transform="matrix(0.03703703703703704,0,0,0.03703703703703704,29.592592592592595,0)" xlink:href="#bu"/></g><g id="an"><use transform="matrix(0.03703703703703704,0,0,0.03703703703703704,0,0)" xlink:href="#by"/><use transform="matrix(0.03703703703703704,0,0,0.03703703703703704,6.666666666666668,0)" xlink:href="#bC"/><use transform="matrix(0.03703703703703704,0,0,0.03703703703703704,14.074074074074076,0)" xlink:href="#bH"/><use transform="matrix(0.03703703703703704,0,0,0.03703703703703704,25.148148148148152,0)" xlink:href="#bG"/><use transform="matrix(0.03703703703703704,0,0,0.03703703703703704,32.55555555555556,0)" xlink:href="#bC"/><use transform="matrix(0.03703703703703704,0,0,0.03703703703703704,39.96296296296296,0)" xlink:href="#bx"/><use transform="matrix(0.03703703703703704,0,0,0.03703703703703704,47.37037037037037,0)" xlink:href="#bu"/><use transform="matrix(0.03703703703703704,0,0,0.03703703703703704,54.77777777777777,0)" xlink:href="#bx"/><use transform="matrix(0.03703703703703704,0,0,0.03703703703703704,62.185185185185176,0)" xlink:href="#bA"/></g><g id="ao"><use transform="matrix(0.03703703703703704,0,0,0.03703703703703704,0,0)" xlink:href="#bC"/><use transform="matrix(0.03703703703703704,0,0,0.03703703703703704,7.407407407407408,0)" xlink:href="#bK"/></g><g id="ap"><use transform="matrix(0.03703703703703704,0,0,0.03703703703703704,0,0)" xlink:href="#bL"/><use transform="matrix(0.03703703703703704,0,0,0.03703703703703704,3.703703703703704,0)" xlink:href="#bC"/><use transform="matrix(0.03703703703703704,0,0,0.03703703703703704,11.111111111111112,0)" xlink:href="#bK"/></g><g id="aq"><use transform="matrix(0.03703703703703704,0,0,0.03703703703703704,0,0)" xlink:href="#bK"/><use transform="matrix(0.03703703703703704,0,0,0.03703703703703704,4.407407407407408,0)" xlink:href="#bu"/><use transform="matrix(0.03703703703703704,0,0,0.03703703703703704,11.814814814814817,0)" xlink:href="#bw"/><use transform="matrix(0.03703703703703704,0,0,0.03703703703703704,19.222222222222225,0)" xlink:href="#bt"/><use transform="matrix(0.03703703703703704,0,0,0.03703703703703704,25.888888888888893,0)" xlink:href="#bu"/></g><g id="ar"><use transform="matrix(0.03703703703703704,0,0,0.03703703703703704,0,0)" xlink:href="#bt"/><use transform="matrix(0.03703703703703704,0,0,0.03703703703703704,6.666666666666668,0)" xlink:href="#bA"/><use transform="matrix(0.03703703703703704,0,0,0.03703703703703704,10.370370370370372,0)" xlink:href="#bE"/><use transform="matrix(0.03703703703703704,0,0,0.03703703703703704,17.77777777777778,0)" xlink:href="#bK"/><use transform="matrix(0.03703703703703704,0,0,0.03703703703703704,22.185185185185187,0)" xlink:href="#bA"/></g><g id="as"><use transform="matrix(0.03703703703703704,0,0,0.03703703703703704,0,0)" xlink:href="#bG"/><use transform="matrix(0.03703703703703704,0,0,0.03703703703703704,7.407407407407408,0)" xlink:href="#bK"/><use transform="matrix(0.03703703703703704,0,0,0.03703703703703704,11.814814814814817,0)" xlink:href="#bC"/><use transform="matrix(0.03703703703703704,0,0,0.03703703703703704,19.222222222222225,0)" xlink:href="#bQ"/><use transform="matrix(0.03703703703703704,0,0,0.03703703703703704,25.888888888888893,0)" xlink:href="#bB"/><use transform="matrix(0.03703703703703704,0,0,0.03703703703703704,28.81481481481482,0)" xlink:href="#bF"/><use transform="matrix(0.03703703703703704,0,0,0.03703703703703704,36.22222222222223,0)" xlink:href="#bu"/><use transform="matrix(0.03703703703703704,0,0,0.03703703703703704,43.62962962962963,0)" xlink:href="#bK"/></g><g id="at"><use transform="matrix(0.03703703703703704,0,0,0.03703703703703704,0,0)" xlink:href="#bA"/><use transform="matrix(0.03703703703703704,0,0,0.03703703703703704,3.703703703703704,0)" xlink:href="#bK"/><use transform="matrix(0.03703703703703704,0,0,0.03703703703703704,8.111111111111112,0)" xlink:href="#bE"/><use transform="matrix(0.03703703703703704,0,0,0.03703703703703704,15.51851851851852,0)" xlink:href="#bx"/><use transform="matrix(0.03703703703703704,0,0,0.03703703703703704,22.925925925925927,0)" xlink:href="#bt"/><use transform="matrix(0.03703703703703704,0,0,0.03703703703703704,29.592592592592602,0)" xlink:href="#bz"/><use transform="matrix(0.03703703703703704,0,0,0.03703703703703704,32.518518518518526,0)" xlink:href="#bE"/><use transform="matrix(0.03703703703703704,0,0,0.03703703703703704,39.92592592592594,0)" xlink:href="#bA"/><use transform="matrix(0.03703703703703704,0,0,0.03703703703703704,43.62962962962964,0)" xlink:href="#bu"/><use transform="matrix(0.03703703703703704,0,0,0.03703703703703704,51.03703703703705,0)" xlink:href="#bt"/></g><g id="au"><use transform="matrix(0.03703703703703704,0,0,0.03703703703703704,0,0)" xlink:href="#bN"/><use transform="matrix(0.03703703703703704,0,0,0.03703703703703704,9.592592592592593,0)" xlink:href="#bO"/><use transform="matrix(0.03703703703703704,0,0,0.03703703703703704,19.185185185185187,0)" xlink:href="#bP"/></g><g id="av"><use transform="matrix(0.03703703703703704,0,0,0.03703703703703704,0,0)" xlink:href="#bA"/><use transform="matrix(0.03703703703703704,0,0,0.03703703703703704,3.703703703703704,0)" xlink:href="#bC"/></g><g id="aw"><use transform="matrix(0.03703703703703704,0,0,0.03703703703703704,0,0)" xlink:href="#bB"/><use transform="matrix(0.03703703703703704,0,0,0.03703703703703704,2.9259259259259265,0)" xlink:href="#bA"/><use transform="matrix(0.03703703703703704,0,0,0.03703703703703704,6.629629629629631,0)" xlink:href="#bt"/></g><g id="ax"><use transform="matrix(0.03703703703703704,0,0,0.03703703703703704,0,0)" xlink:href="#bG"/><use transform="matrix(0.03703703703703704,0,0,0.03703703703703704,7.407407407407408,0)" xlink:href="#bK"/><use transform="matrix(0.03703703703703704,0,0,0.03703703703703704,11.814814814814817,0)" xlink:href="#bC"/><use transform="matrix(0.03703703703703704,0,0,0.03703703703703704,19.222222222222225,0)" xlink:href="#bF"/><use transform="matrix(0.03703703703703704,0,0,0.03703703703703704,26.629629629629633,0)" xlink:href="#bw"/><use transform="matrix(0.03703703703703704,0,0,0.03703703703703704,34.03703703703704,0)" xlink:href="#by"/><use transform="matrix(0.03703703703703704,0,0,0.03703703703703704,40.70370370370371,0)" xlink:href="#bA"/></g><g id="ay"><use transform="matrix(0.03703703703703704,0,0,0.03703703703703704,0,0)" xlink:href="#bz"/><use transform="matrix(0.03703703703703704,0,0,0.03703703703703704,2.9259259259259265,0)" xlink:href="#bB"/><use transform="matrix(0.03703703703703704,0,0,0.03703703703703704,5.851851851851853,0)" xlink:href="#bx"/><use transform="matrix(0.03703703703703704,0,0,0.03703703703703704,13.259259259259261,0)" xlink:href="#bu"/></g><g id="az"><use transform="matrix(0.03703703703703704,0,0,0.03703703703703704,0,0)" xlink:href="#bx"/><use transform="matrix(0.03703703703703704,0,0,0.03703703703703704,7.407407407407408,0)" xlink:href="#bC"/><use transform="matrix(0.03703703703703704,0,0,0.03703703703703704,14.814814814814817,0)" xlink:href="#bK"/><use transform="matrix(0.03703703703703704,0,0,0.03703703703703704,19.222222222222225,0)" xlink:href="#bH"/><use transform="matrix(0.03703703703703704,0,0,0.03703703703703704,30.2962962962963,0)" xlink:href="#bE"/><use transform="matrix(0.03703703703703704,0,0,0.03703703703703704,37.70370370370371,0)" xlink:href="#bz"/></g><g id="aA"><use transform="matrix(0.03703703703703704,0,0,0.03703703703703704,0,0)" xlink:href="#bC"/><use transform="matrix(0.03703703703703704,0,0,0.03703703703703704,7.407407407407408,0)" xlink:href="#bG"/><use transform="matrix(0.03703703703703704,0,0,0.03703703703703704,14.814814814814817,0)" xlink:href="#bu"/><use transform="matrix(0.03703703703703704,0,0,0.03703703703703704,22.222222222222225,0)" xlink:href="#bK"/><use transform="matrix(0.03703703703703704,0,0,0.03703703703703704,26.629629629629633,0)" xlink:href="#bE"/><use transform="matrix(0.03703703703703704,0,0,0.03703703703703704,34.03703703703704,0)" xlink:href="#bA"/><use transform="matrix(0.03703703703703704,0,0,0.03703703703703704,37.74074074074074,0)" xlink:href="#bB"/><use transform="matrix(0.03703703703703704,0,0,0.03703703703703704,40.666666666666664,0)" xlink:href="#bC"/><use transform="matrix(0.03703703703703704,0,0,0.03703703703703704,48.07407407407407,0)" xlink:href="#bx"/><use transform="matrix(0.03703703703703704,0,0,0.03703703703703704,55.48148148148148,0)" xlink:href="#bD"/></g><g id="aB"><use transform="matrix(0.03703703703703704,0,0,0.03703703703703704,0,0)" xlink:href="#bG"/><use transform="matrix(0.03703703703703704,0,0,0.03703703703703704,7.407407407407408,0)" xlink:href="#bC"/><use transform="matrix(0.03703703703703704,0,0,0.03703703703703704,14.814814814814817,0)" xlink:href="#bt"/><use transform="matrix(0.03703703703703704,0,0,0.03703703703703704,21.481481481481485,0)" xlink:href="#bt"/><use transform="matrix(0.03703703703703704,0,0,0.03703703703703704,28.148148148148152,0)" xlink:href="#bB"/><use transform="matrix(0.03703703703703704,0,0,0.03703703703703704,31.07407407407408,0)" xlink:href="#bM"/><use transform="matrix(0.03703703703703704,0,0,0.03703703703703704,38.48148148148149,0)" xlink:href="#bz"/><use transform="matrix(0.03703703703703704,0,0,0.03703703703703704,41.40740740740741,0)" xlink:href="#bV"/></g><g id="aC"><use transform="matrix(0.03703703703703704,0,0,0.03703703703703704,0,0)" xlink:href="#by"/><use transform="matrix(0.03703703703703704,0,0,0.03703703703703704,6.666666666666668,0)" xlink:href="#bC"/><use transform="matrix(0.03703703703703704,0,0,0.03703703703703704,14.074074074074076,0)" xlink:href="#bx"/><use transform="matrix(0.03703703703703704,0,0,0.03703703703703704,21.481481481481485,0)" xlink:href="#bA"/><use transform="matrix(0.03703703703703704,0,0,0.03703703703703704,25.185185185185187,0)" xlink:href="#bB"/><use transform="matrix(0.03703703703703704,0,0,0.03703703703703704,28.111111111111118,0)" xlink:href="#bx"/><use transform="matrix(0.03703703703703704,0,0,0.03703703703703704,35.518518518518526,0)" xlink:href="#bw"/><use transform="matrix(0.03703703703703704,0,0,0.03703703703703704,42.92592592592594,0)" xlink:href="#bC"/><use transform="matrix(0.03703703703703704,0,0,0.03703703703703704,50.33333333333334,0)" xlink:href="#bw"/><use transform="matrix(0.03703703703703704,0,0,0.03703703703703704,57.74074074074075,0)" xlink:href="#bt"/></g><g id="aD"><use transform="matrix(0.03703703703703704,0,0,0.03703703703703704,0,0)" xlink:href="#bQ"/><use transform="matrix(0.03703703703703704,0,0,0.03703703703703704,6.666666666666668,0)" xlink:href="#bu"/><use transform="matrix(0.03703703703703704,0,0,0.03703703703703704,14.074074074074076,0)" xlink:href="#bK"/><use transform="matrix(0.03703703703703704,0,0,0.03703703703703704,18.481481481481485,0)" xlink:href="#bB"/><use transform="matrix(0.03703703703703704,0,0,0.03703703703703704,21.407407407407412,0)" xlink:href="#bL"/><use transform="matrix(0.03703703703703704,0,0,0.03703703703703704,25.111111111111114,0)" xlink:href="#bB"/><use transform="matrix(0.03703703703703704,0,0,0.03703703703703704,28.03703703703704,0)" xlink:href="#by"/><use transform="matrix(0.03703703703703704,0,0,0.03703703703703704,34.70370370370371,0)" xlink:href="#bE"/><use transform="matrix(0.03703703703703704,0,0,0.03703703703703704,42.111111111111114,0)" xlink:href="#bA"/><use transform="matrix(0.03703703703703704,0,0,0.03703703703703704,45.814814814814824,0)" xlink:href="#bB"/><use transform="matrix(0.03703703703703704,0,0,0.03703703703703704,48.74074074074074,0)" xlink:href="#bC"/><use transform="matrix(0.03703703703703704,0,0,0.03703703703703704,56.14814814814815,0)" xlink:href="#bx"/></g><g id="aE"><use transform="matrix(0.03703703703703704,0,0,0.03703703703703704,0,0)" xlink:href="#bH"/><use transform="matrix(0.03703703703703704,0,0,0.03703703703703704,11.074074074074076,0)" xlink:href="#bu"/><use transform="matrix(0.03703703703703704,0,0,0.03703703703703704,18.481481481481485,0)" xlink:href="#by"/><use transform="matrix(0.03703703703703704,0,0,0.03703703703703704,25.148148148148152,0)" xlink:href="#bT"/><use transform="matrix(0.03703703703703704,0,0,0.03703703703703704,32.55555555555556,0)" xlink:href="#bE"/><use transform="matrix(0.03703703703703704,0,0,0.03703703703703704,39.96296296296296,0)" xlink:href="#bx"/><use transform="matrix(0.03703703703703704,0,0,0.03703703703703704,47.37037037037037,0)" xlink:href="#bB"/><use transform="matrix(0.03703703703703704,0,0,0.03703703703703704,50.2962962962963,0)" xlink:href="#by"/><use transform="matrix(0.03703703703703704,0,0,0.03703703703703704,56.96296296296296,0)" xlink:href="#bE"/><use transform="matrix(0.03703703703703704,0,0,0.03703703703703704,64.37037037037037,0)" xlink:href="#bz"/></g><g id="aF"><use transform="matrix(0.03703703703703704,0,0,0.03703703703703704,0,0)" xlink:href="#bt"/><use transform="matrix(0.03703703703703704,0,0,0.03703703703703704,6.666666666666668,0)" xlink:href="#bV"/><use transform="matrix(0.03703703703703704,0,0,0.03703703703703704,13.333333333333336,0)" xlink:href="#bt"/><use transform="matrix(0.03703703703703704,0,0,0.03703703703703704,20.000000000000004,0)" xlink:href="#bA"/><use transform="matrix(0.03703703703703704,0,0,0.03703703703703704,23.70370370370371,0)" xlink:href="#bu"/><use transform="matrix(0.03703703703703704,0,0,0.03703703703703704,31.111111111111118,0)" xlink:href="#bH"/></g><path d="M234-2c-28 10-62 0-77-18C117 19 8 12 13-65c3-43 29-61 60-76-25-40-17-114 47-108 35 3 59 15 59 50 0 44-40 53-71 69 14 26 32 50 51 72 14-21 24-43 30-72l26 8c-9 33-21 57-38 82 13 13 33 22 57 15v23zM97-151c25-10 52-18 56-48-1-18-13-29-33-29-42 0-39 50-23 77zM42-66c-3 51 71 58 98 28-20-24-41-51-56-80-23 10-40 24-42 52" id="bZ"/><use transform="matrix(0.03703703703703704,0,0,0.03703703703703704,0,0)" xlink:href="#bZ" id="aG"/><g id="aH"><use transform="matrix(0.03703703703703704,0,0,0.03703703703703704,0,0)" xlink:href="#bM"/><use transform="matrix(0.03703703703703704,0,0,0.03703703703703704,7.407407407407408,0)" xlink:href="#bw"/><use transform="matrix(0.03703703703703704,0,0,0.03703703703703704,14.814814814814817,0)" xlink:href="#bB"/><use transform="matrix(0.03703703703703704,0,0,0.03703703703703704,17.740740740740744,0)" xlink:href="#bz"/><use transform="matrix(0.03703703703703704,0,0,0.03703703703703704,20.666666666666668,0)" xlink:href="#bF"/><use transform="matrix(0.03703703703703704,0,0,0.03703703703703704,28.074074074074076,0)" xlink:href="#bB"/><use transform="matrix(0.03703703703703704,0,0,0.03703703703703704,31.000000000000007,0)" xlink:href="#bx"/><use transform="matrix(0.03703703703703704,0,0,0.03703703703703704,38.40740740740742,0)" xlink:href="#bU"/></g><g id="aI"><use transform="matrix(0.03703703703703704,0,0,0.03703703703703704,0,0)" xlink:href="#bt"/><use transform="matrix(0.03703703703703704,0,0,0.03703703703703704,6.666666666666668,0)" xlink:href="#bB"/><use transform="matrix(0.03703703703703704,0,0,0.03703703703703704,9.592592592592595,0)" xlink:href="#bH"/><use transform="matrix(0.03703703703703704,0,0,0.03703703703703704,20.666666666666668,0)" xlink:href="#bw"/><use transform="matrix(0.03703703703703704,0,0,0.03703703703703704,28.074074074074076,0)" xlink:href="#bz"/><use transform="matrix(0.03703703703703704,0,0,0.03703703703703704,31.000000000000007,0)" xlink:href="#bE"/><use transform="matrix(0.03703703703703704,0,0,0.03703703703703704,38.40740740740742,0)" xlink:href="#bA"/><use transform="matrix(0.03703703703703704,0,0,0.03703703703703704,42.11111111111113,0)" xlink:href="#bB"/><use transform="matrix(0.03703703703703704,0,0,0.03703703703703704,45.037037037037045,0)" xlink:href="#bC"/><use transform="matrix(0.03703703703703704,0,0,0.03703703703703704,52.44444444444446,0)" xlink:href="#bx"/></g><path d="M140-251c81 0 123 46 123 126C263-46 219 4 140 4 59 4 17-45 17-125s42-126 123-126zm0 227c63 0 89-41 89-101s-29-99-89-99c-61 0-89 39-89 99S79-25 140-24" id="ca"/><path d="M30 0v-248h187v28H63v79h144v27H63v87h162V0H30" id="cb"/><g id="aJ"><use transform="matrix(0.03703703703703704,0,0,0.03703703703703704,0,0)" xlink:href="#bO"/><use transform="matrix(0.03703703703703704,0,0,0.03703703703703704,9.592592592592593,0)" xlink:href="#ca"/><use transform="matrix(0.03703703703703704,0,0,0.03703703703703704,19.962962962962965,0)" xlink:href="#cb"/></g><g id="aK"><use transform="matrix(0.03703703703703704,0,0,0.03703703703703704,0,0)" xlink:href="#bK"/><use transform="matrix(0.03703703703703704,0,0,0.03703703703703704,4.407407407407408,0)" xlink:href="#bu"/><use transform="matrix(0.03703703703703704,0,0,0.03703703703703704,11.814814814814817,0)" xlink:href="#bL"/><use transform="matrix(0.03703703703703704,0,0,0.03703703703703704,15.51851851851852,0)" xlink:href="#bu"/><use transform="matrix(0.03703703703703704,0,0,0.03703703703703704,22.925925925925927,0)" xlink:href="#bK"/><use transform="matrix(0.03703703703703704,0,0,0.03703703703703704,27.333333333333343,0)" xlink:href="#bu"/><use transform="matrix(0.03703703703703704,0,0,0.03703703703703704,34.74074074074075,0)" xlink:href="#bx"/><use transform="matrix(0.03703703703703704,0,0,0.03703703703703704,42.14814814814815,0)" xlink:href="#by"/><use transform="matrix(0.03703703703703704,0,0,0.03703703703703704,48.814814814814824,0)" xlink:href="#bu"/></g><g id="aL"><use transform="matrix(0.03703703703703704,0,0,0.03703703703703704,0,0)" xlink:href="#bM"/><use transform="matrix(0.03703703703703704,0,0,0.03703703703703704,7.407407407407408,0)" xlink:href="#bw"/><use transform="matrix(0.03703703703703704,0,0,0.03703703703703704,14.814814814814817,0)" xlink:href="#bB"/><use transform="matrix(0.03703703703703704,0,0,0.03703703703703704,17.740740740740744,0)" xlink:href="#bz"/><use transform="matrix(0.03703703703703704,0,0,0.03703703703703704,20.666666666666668,0)" xlink:href="#bF"/><use transform="matrix(0.03703703703703704,0,0,0.03703703703703704,28.074074074074076,0)" xlink:href="#bB"/><use transform="matrix(0.03703703703703704,0,0,0.03703703703703704,31.000000000000007,0)" xlink:href="#bx"/><use transform="matrix(0.03703703703703704,0,0,0.03703703703703704,38.40740740740742,0)" xlink:href="#bU"/><use transform="matrix(0.03703703703703704,0,0,0.03703703703703704,45.814814814814824,0)" xlink:href="#bt"/></g><g id="aM"><use transform="matrix(0.03703703703703704,0,0,0.03703703703703704,0,0)" xlink:href="#by"/><use transform="matrix(0.03703703703703704,0,0,0.03703703703703704,6.666666666666668,0)" xlink:href="#bw"/><use transform="matrix(0.03703703703703704,0,0,0.03703703703703704,14.074074074074076,0)" xlink:href="#bt"/><use transform="matrix(0.03703703703703704,0,0,0.03703703703703704,20.740740740740744,0)" xlink:href="#bA"/><use transform="matrix(0.03703703703703704,0,0,0.03703703703703704,24.444444444444454,0)" xlink:href="#bC"/><use transform="matrix(0.03703703703703704,0,0,0.03703703703703704,31.851851851851862,0)" xlink:href="#bH"/></g><path fill="#fff" d="M128-127c34 4 56 21 59 58 7 91-148 94-172 28-4-9-6-17-7-26l51-5c1 24 16 35 40 36 23 0 39-12 38-36-1-31-31-36-65-34v-40c32 2 59-3 59-33 0-20-13-33-34-33s-33 13-35 32l-50-3c6-44 37-68 86-68 50 0 83 20 83 66 0 35-22 52-53 58" id="cc"/><use transform="matrix(0.030864197530864196,0,0,0.030864197530864196,0,0)" xlink:href="#cc" id="aN"/><path fill="#fff" d="M165-50V0h-47v-50H5v-38l105-160h55v161h33v37h-33zm-47-37l2-116L46-87h72" id="cd"/><use transform="matrix(0.030864197530864196,0,0,0.030864197530864196,0,0)" xlink:href="#cd" id="aO"/><g id="aP"><use transform="matrix(0.03703703703703704,0,0,0.03703703703703704,0,0)" xlink:href="#bL"/><use transform="matrix(0.03703703703703704,0,0,0.03703703703703704,3.703703703703704,0)" xlink:href="#bw"/><use transform="matrix(0.03703703703703704,0,0,0.03703703703703704,11.111111111111112,0)" xlink:href="#bx"/><use transform="matrix(0.03703703703703704,0,0,0.03703703703703704,18.51851851851852,0)" xlink:href="#by"/><use transform="matrix(0.03703703703703704,0,0,0.03703703703703704,25.185185185185187,0)" xlink:href="#bA"/><use transform="matrix(0.03703703703703704,0,0,0.03703703703703704,28.888888888888893,0)" xlink:href="#bB"/><use transform="matrix(0.03703703703703704,0,0,0.03703703703703704,31.81481481481482,0)" xlink:href="#bC"/><use transform="matrix(0.03703703703703704,0,0,0.03703703703703704,39.22222222222223,0)" xlink:href="#bx"/><use transform="matrix(0.03703703703703704,0,0,0.03703703703703704,46.62962962962963,0)" xlink:href="#bE"/><use transform="matrix(0.03703703703703704,0,0,0.03703703703703704,54.03703703703704,0)" xlink:href="#bz"/></g><g id="aQ"><use transform="matrix(0.03703703703703704,0,0,0.03703703703703704,0,0)" xlink:href="#bA"/><use transform="matrix(0.03703703703703704,0,0,0.03703703703703704,3.703703703703704,0)" xlink:href="#bu"/><use transform="matrix(0.03703703703703704,0,0,0.03703703703703704,11.111111111111112,0)" xlink:href="#bt"/><use transform="matrix(0.03703703703703704,0,0,0.03703703703703704,17.77777777777778,0)" xlink:href="#bA"/><use transform="matrix(0.03703703703703704,0,0,0.03703703703703704,21.48148148148148,0)" xlink:href="#bt"/></g><path fill="#fff" d="M115-159c48 0 72 30 72 78 0 54-30 85-83 85-64 0-91-50-91-122 0-98 58-163 141-120 15 8 21 24 27 44l-47 6c-5-31-48-31-61-4-7 14-11 33-11 60 9-17 28-27 53-27zM102-35c24 0 36-20 36-45s-11-43-37-43c-23 0-36 14-36 38 0 27 11 50 37 50" id="ce"/><use transform="matrix(0.030864197530864196,0,0,0.030864197530864196,0,0)" xlink:href="#ce" id="aR"/><path fill="#fff" d="M23 0v-37h61v-169l-59 37v-38l62-41h46v211h57V0H23" id="cf"/><use transform="matrix(0.030864197530864196,0,0,0.030864197530864196,0,0)" xlink:href="#cf" id="aS"/><path fill="#fff" d="M182-182c0 78-84 86-111 141h115V0H12c-6-101 99-100 120-180 1-22-12-31-33-32-23 0-32 14-35 34l-49-3c5-45 32-70 84-70 51 0 83 22 83 69" id="cg"/><use transform="matrix(0.030864197530864196,0,0,0.030864197530864196,0,0)" xlink:href="#cg" id="aT"/><path fill="#fff" d="M139-81c0-46-55-55-73-27H18l9-140h149v37H72l-4 63c44-38 133-4 122 66C201 21 21 35 11-62l49-4c5 18 15 30 39 30 26 0 40-18 40-45" id="ch"/><use transform="matrix(0.030864197530864196,0,0,0.030864197530864196,0,0)" xlink:href="#ch" id="aU"/><path fill="#fff" d="M52 0c1-96 47-148 87-207H15v-41h169v40c-36 62-79 113-81 208H52" id="ci"/><use transform="matrix(0.030864197530864196,0,0,0.030864197530864196,0,0)" xlink:href="#ci" id="aV"/><path fill="#fff" d="M138-131c27 9 52 24 51 61 0 53-36 74-89 74S11-19 11-69c0-35 22-54 51-61-78-25-46-121 38-121 51 0 83 19 83 66 0 30-18 49-45 54zm-38-16c24 0 32-13 32-36 1-23-11-34-32-34-22 0-33 12-32 34 0 22 9 36 32 36zm1 116c27 0 37-17 37-43 0-25-13-39-39-39-24 0-37 15-37 40 0 27 11 42 39 42" id="cj"/><use transform="matrix(0.030864197530864196,0,0,0.030864197530864196,0,0)" xlink:href="#cj" id="aW"/><path fill="#fff" d="M99-251c69 0 84 53 88 123 5 99-61 162-144 118-15-8-21-25-26-45l46-6c4 31 50 33 63 7 7-15 12-36 12-60-9 18-29 28-54 28-48 0-72-32-72-82 0-55 31-83 87-83zm-1 128c24 0 37-16 37-39 0-27-10-51-37-51-25 0-35 19-35 45 0 25 10 45 35 45" id="ck"/><use transform="matrix(0.030864197530864196,0,0,0.030864197530864196,0,0)" xlink:href="#ck" id="aX"/></defs></g></svg>