<svg version="1.1" baseProfile="full" width="360mm" height="320mm"
     viewBox="0 0 360 320" xmlns="http://www.w3.org/2000/svg">

<rect x="250" y="60" width="80" height="200"  fill="rgb(215,215,215)" stroke="rgb(0,0,127)"  stroke-dasharray="1,0" stroke-width="0.25"  />




<text font-family="helvetica" font-size="3.359999999999994" x="40" y="144.32000000000002" fill="rgb(95,95,95)" text-anchor="start" dominant-baseline="central" alignment-baseline="middle">
<tspan x="40"  dy="0" >Not included</tspan>
<tspan x="40"  dy="3.359999999999994" >in G36</tspan>
</text>
<text font-family="helvetica" font-size="3.299999999999997" x="256" y="249.35" fill="rgb(95,95,95)" text-anchor="start" dominant-baseline="central" alignment-baseline="middle">
<tspan x="256"  dy="0" >Freeze protection based on TMix,</tspan>
<tspan x="256"  dy="3.299999999999997" >not a part of G36</tspan>
</text>

<polyline fill="none" points="10,220 100,220 100,188 179,188" stroke="rgb(255,255,255)" stroke-dasharray="1,0" stroke-width="1.25" />
<polyline fill="none" points="10,220 100,220 100,188 179,188" stroke="rgb(255,0,255)" stroke-dasharray="1,0" stroke-width="0.25" />
<polyline fill="none" points="10,300 120,300 120,190 179,190" stroke="rgb(255,255,255)" stroke-dasharray="1,0" stroke-width="1.25" />
<polyline fill="none" points="10,300 120,300 120,190 179,190" stroke="rgb(255,127,0)" stroke-dasharray="1,0" stroke-width="0.25" />
<polyline fill="none" points="10,80 134,80 134,186 179,186" stroke="rgb(255,255,255)" stroke-dasharray="1,0" stroke-width="1.25" />
<polyline fill="none" points="10,80 134,80 134,186 179,186" stroke="rgb(0,0,127)" stroke-dasharray="1,0" stroke-width="0.25" />
<polyline fill="none" points="10,60 136,60 136,184 179,184" stroke="rgb(255,255,255)" stroke-dasharray="1,0" stroke-width="1.25" />
<polyline fill="none" points="10,60 136,60 136,184 179,184" stroke="rgb(0,0,127)" stroke-dasharray="1,0" stroke-width="0.25" />
<polyline fill="none" points="10,40 138,40 138,182 179,182" stroke="rgb(255,255,255)" stroke-dasharray="1,0" stroke-width="1.25" />
<polyline fill="none" points="10,40 138,40 138,182 179,182" stroke="rgb(0,0,127)" stroke-dasharray="1,0" stroke-width="0.25" />
<polyline fill="none" points="10,20 140,20 140,180 179,180" stroke="rgb(255,255,255)" stroke-dasharray="1,0" stroke-width="1.25" />
<polyline fill="none" points="10,20 140,20 140,180 179,180" stroke="rgb(0,0,127)" stroke-dasharray="1,0" stroke-width="0.25" />
<polyline fill="none" points="10,160 70,160 70,145 99,145" stroke="rgb(255,255,255)" stroke-dasharray="1,0" stroke-width="1.25" />
<polyline fill="none" points="10,160 70,160 70,145 99,145" stroke="rgb(0,0,127)" stroke-dasharray="1,0" stroke-width="0.25" />
<polyline fill="none" points="10,220 76,220 76,150 99,150" stroke="rgb(255,255,255)" stroke-dasharray="1,0" stroke-width="1.25" />
<polyline fill="none" points="10,220 76,220 76,150 99,150" stroke="rgb(255,0,255)" stroke-dasharray="1,0" stroke-width="0.25" />
<polyline fill="none" points="10,260 78,260 78,155 99,155" stroke="rgb(255,255,255)" stroke-dasharray="1,0" stroke-width="1.25" />
<polyline fill="none" points="10,260 78,260 78,155 99,155" stroke="rgb(255,127,0)" stroke-dasharray="1,0" stroke-width="0.25" />
<polyline fill="none" points="10,300 80,300 80,158 99,158" stroke="rgb(255,255,255)" stroke-dasharray="1,0" stroke-width="1.25" />
<polyline fill="none" points="10,300 80,300 80,158 99,158" stroke="rgb(255,127,0)" stroke-dasharray="1,0" stroke-width="0.25" />
<polyline fill="none" points="121,143 156,143 156,192 179,192" stroke="rgb(255,255,255)" stroke-dasharray="1,0" stroke-width="1.25" />
<polyline fill="none" points="121,143 156,143 156,192 179,192" stroke="rgb(0,0,127)" stroke-dasharray="1,0" stroke-width="0.25" />
<polyline fill="none" points="121,145 154,145 154,148 154,194 179,194" stroke="rgb(255,255,255)" stroke-dasharray="1,0" stroke-width="1.25" />
<polyline fill="none" points="121,145 154,145 154,148 154,194 179,194" stroke="rgb(0,0,127)" stroke-dasharray="1,0" stroke-width="0.25" />
<polyline fill="none" points="121,150 152,150 152,200 179,200" stroke="rgb(255,255,255)" stroke-dasharray="1,0" stroke-width="1.25" />
<polyline fill="none" points="121,150 152,150 152,200 179,200" stroke="rgb(0,0,127)" stroke-dasharray="1,0" stroke-width="0.25" />
<polyline fill="none" points="121,154 148,154 148,196 179,196" stroke="rgb(255,255,255)" stroke-dasharray="1,0" stroke-width="1.25" />
<polyline fill="none" points="121,154 148,154 148,196 179,196" stroke="rgb(0,0,127)" stroke-dasharray="1,0" stroke-width="0.25" />
<polyline fill="none" points="121,152 150,152 150,198 179,198" stroke="rgb(255,255,255)" stroke-dasharray="1,0" stroke-width="1.25" />
<polyline fill="none" points="121,152 150,152 150,198 179,198" stroke="rgb(0,0,127)" stroke-dasharray="1,0" stroke-width="0.25" />
<polyline fill="none" points="201,184 206,184 206,154 219,154" stroke="rgb(255,255,255)" stroke-dasharray="1,0" stroke-width="1.25" />
<polyline fill="none" points="201,184 206,184 206,154 219,154" stroke="rgb(0,0,127)" stroke-dasharray="1,0" stroke-width="0.25" />
<polyline fill="none" points="201,190 208,190 208,142 219,142" stroke="rgb(255,255,255)" stroke-dasharray="1,0" stroke-width="1.25" />
<polyline fill="none" points="201,190 208,190 208,142 219,142" stroke="rgb(0,0,127)" stroke-dasharray="1,0" stroke-width="0.25" />
<polyline fill="none" points="121,145 180,145 180,158 219,158" stroke="rgb(255,255,255)" stroke-dasharray="1,0" stroke-width="1.25" />
<polyline fill="none" points="121,145 180,145 180,158 219,158" stroke="rgb(0,0,127)" stroke-dasharray="1,0" stroke-width="0.25" />
<polyline fill="none" points="201,196 210,196 210,146 219,146" stroke="rgb(255,255,255)" stroke-dasharray="1,0" stroke-width="1.25" />
<polyline fill="none" points="201,196 210,196 210,146 219,146" stroke="rgb(0,0,127)" stroke-dasharray="1,0" stroke-width="0.25" />
<polyline fill="none" points="10,110 190,110 190,150 219,150" stroke="rgb(255,255,255)" stroke-dasharray="1,0" stroke-width="1.25" />
<polyline fill="none" points="10,110 190,110 190,150 219,150" stroke="rgb(0,0,127)" stroke-dasharray="1,0" stroke-width="0.25" />
<polyline fill="none" points="10,140 30,140 30,130 38,130" stroke="rgb(255,255,255)" stroke-dasharray="1,0" stroke-width="1.25" />
<polyline fill="none" points="10,140 30,140 30,130 38,130" stroke="rgb(0,0,127)" stroke-dasharray="1,0" stroke-width="0.25" />
<polyline fill="none" points="61,130 80,130 80,142 99,142" stroke="rgb(255,255,255)" stroke-dasharray="1,0" stroke-width="1.25" />
<polyline fill="none" points="61,130 80,130 80,142 99,142" stroke="rgb(0,0,127)" stroke-dasharray="1,0" stroke-width="0.25" />
<polyline fill="none" points="321,120 350,120" stroke="rgb(255,255,255)" stroke-dasharray="1,0" stroke-width="1.25" />
<polyline fill="none" points="321,120 350,120" stroke="rgb(0,0,127)" stroke-dasharray="1,0" stroke-width="0.25" />
<polyline fill="none" points="241,152 290,152 290,194 298,194" stroke="rgb(255,255,255)" stroke-dasharray="1,0" stroke-width="1.25" />
<polyline fill="none" points="241,152 290,152 290,194 298,194" stroke="rgb(0,0,127)" stroke-dasharray="1,0" stroke-width="0.25" />
<polyline fill="none" points="321,200 350,200" stroke="rgb(255,255,255)" stroke-dasharray="1,0" stroke-width="1.25" />
<polyline fill="none" points="321,200 350,200" stroke="rgb(0,0,127)" stroke-dasharray="1,0" stroke-width="0.25" />
<polyline fill="none" points="298,206 281,206" stroke="rgb(255,255,255)" stroke-dasharray="1,0" stroke-width="1.25" />
<polyline fill="none" points="298,206 281,206" stroke="rgb(0,0,127)" stroke-dasharray="1,0" stroke-width="0.25" />
<polyline fill="none" points="241,148 290,148 290,126 298,126" stroke="rgb(255,255,255)" stroke-dasharray="1,0" stroke-width="1.25" />
<polyline fill="none" points="241,148 290,148 290,126 298,126" stroke="rgb(0,0,127)" stroke-dasharray="1,0" stroke-width="0.25" />
<polyline fill="none" points="298,114 277,114" stroke="rgb(255,255,255)" stroke-dasharray="1,0" stroke-width="1.25" />
<polyline fill="none" points="298,114 277,114" stroke="rgb(0,0,127)" stroke-dasharray="1,0" stroke-width="0.25" />
<polyline fill="none" points="10,190 60,190 60,240 240,240 240,170 259,170" stroke="rgb(255,255,255)" stroke-dasharray="1,0" stroke-width="1.25" />
<polyline fill="none" points="10,190 60,190 60,240 240,240 240,170 259,170" stroke="rgb(0,0,127)" stroke-dasharray="1,0" stroke-width="0.25" />
<polyline fill="none" points="281,164 284,164 284,114 298,114" stroke="rgb(255,255,255)" stroke-dasharray="1,0" stroke-width="1.25" />
<polyline fill="none" points="281,164 284,164 284,114 298,114" stroke="rgb(0,0,127)" stroke-dasharray="1,0" stroke-width="0.25" />
<polyline fill="none" points="281,176 284,176 284,206 298,206" stroke="rgb(255,255,255)" stroke-dasharray="1,0" stroke-width="1.25" />
<polyline fill="none" points="281,176 284,176 284,206 298,206" stroke="rgb(0,0,127)" stroke-dasharray="1,0" stroke-width="0.25" />
<polyline fill="none" points="61,280 90,280 90,158 99,158" stroke="rgb(255,255,255)" stroke-dasharray="1,0" stroke-width="1.25" />
<polyline fill="none" points="61,280 90,280 90,158 99,158" stroke="rgb(255,127,0)" stroke-dasharray="1,0" stroke-width="0.25" />
<polyline fill="none" points="61,280 120,280 120,190 179,190" stroke="rgb(255,255,255)" stroke-dasharray="1,0" stroke-width="1.25" />
<polyline fill="none" points="61,280 120,280 120,190 179,190" stroke="rgb(255,127,0)" stroke-dasharray="1,0" stroke-width="0.25" />

<ellipse cx="76" cy="220" rx="1" ry="1"  fill="rgb(0,0,127)"  />
<ellipse cx="80" cy="300" rx="1" ry="1"  fill="rgb(0,0,127)"  />
<ellipse cx="154" cy="145" rx="1" ry="1"  fill="rgb(0,0,127)"  />
<ellipse cx="284" cy="114" rx="1" ry="1"  fill="rgb(0,0,127)"  />
<ellipse cx="284" cy="206" rx="1" ry="1"  fill="rgb(0,0,127)"  />
<ellipse cx="90" cy="158" rx="1" ry="1"  fill="rgb(0,0,127)"  />
<ellipse cx="120" cy="280" rx="1" ry="1"  fill="rgb(0,0,127)"  />
<ellipse cx="90" cy="280" rx="1" ry="1"  fill="rgb(0,0,127)"  />

<polygon points="10,115 20,110 10,105 10,115"  fill="rgb(0,0,127)" stroke="rgb(0,0,127)" stroke-dasharray="1,0" stroke-width="0.25" />
<polygon points="10,25 20,20 10,15 10,25"  fill="rgb(0,0,127)" stroke="rgb(0,0,127)" stroke-dasharray="1,0" stroke-width="0.25" />
<polygon points="10,45 20,40 10,35 10,45"  fill="rgb(0,0,127)" stroke="rgb(0,0,127)" stroke-dasharray="1,0" stroke-width="0.25" />
<polygon points="10,65 20,60 10,55 10,65"  fill="rgb(0,0,127)" stroke="rgb(0,0,127)" stroke-dasharray="1,0" stroke-width="0.25" />
<polygon points="10,85 20,80 10,75 10,85"  fill="rgb(0,0,127)" stroke="rgb(0,0,127)" stroke-dasharray="1,0" stroke-width="0.25" />
<polygon points="10,195 20,190 10,185 10,195"  fill="rgb(0,0,127)" stroke="rgb(0,0,127)" stroke-dasharray="1,0" stroke-width="0.25" />
<polygon points="10,145 20,140 10,135 10,145"  fill="rgb(0,0,127)" stroke="rgb(0,0,127)" stroke-dasharray="1,0" stroke-width="0.25" />
<polygon points="10,165 20,160 10,155 10,165"  fill="rgb(0,0,127)" stroke="rgb(0,0,127)" stroke-dasharray="1,0" stroke-width="0.25" />
<polygon points="10,305 20,300 10,295 10,305"  fill="rgb(255,127,0)" stroke="rgb(255,127,0)" stroke-dasharray="1,0" stroke-width="0.25" />
<polygon points="10,265 20,260 10,255 10,265"  fill="rgb(255,127,0)" stroke="rgb(255,127,0)" stroke-dasharray="1,0" stroke-width="0.25" />
<polygon points="10,225 20,220 10,215 10,225"  fill="rgb(255,0,255)" stroke="rgb(255,0,255)" stroke-dasharray="1,0" stroke-width="0.25" />
<polygon points="340,125 350,120 340,115"  fill="rgb(255,255,255)" stroke="rgb(0,0,127)" stroke-dasharray="1,0" stroke-width="0.25" />
<polygon points="340,205 350,200 340,195"  fill="rgb(255,255,255)" stroke="rgb(0,0,127)" stroke-dasharray="1,0" stroke-width="0.25" />

<rect x="180" y="180" width="20.000000000000004" height="20.000000000000004"  fill="rgb(255,255,255)" stroke="rgb(0,0,127)"  stroke-dasharray="1,0" stroke-width="0.056402439024390245"  />
<rect x="100" y="140" width="20" height="20"  fill="rgb(255,255,255)" stroke="rgb(0,0,127)"  stroke-dasharray="1,0" stroke-width="0.020833333333333332"  />
<rect x="220" y="140" width="20" height="20"  fill="rgb(255,255,255)" stroke="rgb(0,0,127)"  stroke-dasharray="1,0" stroke-width="0.020833333333333332"  />
<rect x="260" y="160" width="20.000000000000004" height="20"  fill="rgb(135,135,135)" stroke="rgb(0,0,127)"  stroke-dasharray="1,0" stroke-width="0.04878048780487805"  />
<rect x="40" y="120" width="20" height="20"  fill="rgb(255,255,255)" stroke="rgb(0,0,127)"  stroke-dasharray="1,0" stroke-width="0.03333333333333333"  />
<rect x="300" y="190" width="20" height="20"  fill="rgb(255,255,255)" stroke="rgb(0,0,127)"  stroke-dasharray="1,0" stroke-width="0.041666666666666664"  />
<rect x="300" y="110" width="20" height="20"  fill="rgb(255,255,255)" stroke="rgb(0,0,127)"  stroke-dasharray="1,0" stroke-width="0.041666666666666664"  />
<rect x="256" y="104" width="20" height="20"  fill="rgb(255,255,255)" stroke="rgb(0,0,127)"  stroke-dasharray="1,0" stroke-width="0.041666666666666664"  />
<rect x="260" y="196" width="20" height="20"  fill="rgb(255,255,255)" stroke="rgb(0,0,127)"  stroke-dasharray="1,0" stroke-width="0.041666666666666664"  />
<rect x="40" y="270" width="20" height="20"  fill="rgb(255,255,255)" stroke="rgb(255,127,0)"  stroke-dasharray="1,0" stroke-width="0.041666666666666664"  />


<polyline fill="none" points="190,184 198,184" stroke="rgb(0,0,127)" stroke-dasharray="1,0" stroke-width="0.5" />
<polyline fill="none" points="182,196 190,196 190,184" stroke="rgb(0,0,127)" stroke-dasharray="1,0" stroke-width="0.5" />
<polyline fill="none" points="104,156 110.2,143.79999999999998 110.2,143.79999999999998 116.4,156 104,156" stroke="rgb(0,0,127)" stroke-dasharray="1,0" stroke-width="0.5" />
<polyline fill="none" points="232,144.2" stroke="rgb(28,108,200)" stroke-dasharray="1,0" stroke-width="0.25" />
<polyline fill="none" points="220.8,158.39999999999998 225,158.39999999999998 231.2,143 238.2,143" stroke="rgb(0,0,127)" stroke-dasharray="1,0" stroke-width="0.5" />
<polyline fill="none" points="223.4,144.2 231.2,144.2 235,157.6 240,157.6" stroke="rgb(0,0,127)" stroke-dasharray="2,2" stroke-width="0.5" />
<polyline fill="none" points="268,174.6 268,166 273.6,166 268,166 268,169.79999999999998 272.6,169.79999999999998" stroke="rgb(0,0,127)" stroke-dasharray="1,0" stroke-width="0.5" />
<polyline fill="none" points="42.2,123.2 42.2,138" stroke="rgb(192,192,192)" stroke-dasharray="1,0" stroke-width="0.25" />
<polyline fill="none" points="41.2,130 57,130" stroke="rgb(192,192,192)" stroke-dasharray="1,0" stroke-width="0.25" />
<polyline fill="none" points="42.2,133.1 43.6,133.1 43.6,131.5 44.4,131.5 44.4,136.3 45.2,136.3 45.2,134.1 46,134.1 46,125.7 46.8,125.7 46.8,128.9 46.8,128.9 46.8,134.9 47.8,134.9 47.8,133.1 48.8,133.1 48.8,135.9 49.8,135.9 49.8,127.7 50.4,127.7 50.4,126.3 51,126.3 51,131.9 52,131.9 52,130.7 52.6,130.7 52.6,133.7 53.6,133.7 53.6,126.5 54.6,126.5 54.6,129.9 55.4,129.9 55.4,136.5 56.400000000000006,136.5" stroke="rgb(215,215,215)" stroke-dasharray="1,0" stroke-width="0.25" />
<polyline fill="none" points="42.2,132.4 56.8,132.4" stroke="rgb(0,0,0)" stroke-dasharray="1,0" stroke-width="0.25" />
<polyline fill="none" points="258,107.2 258,122" stroke="rgb(192,192,192)" stroke-dasharray="1,0" stroke-width="0.25" />
<polyline fill="none" points="257,121 274.2,121" stroke="rgb(192,192,192)" stroke-dasharray="1,0" stroke-width="0.25" />
<polyline fill="none" points="258,114 274,114" stroke="rgb(0,0,0)" stroke-dasharray="1,0" stroke-width="0.25" />
<polyline fill="none" points="262,199.2 262,214" stroke="rgb(192,192,192)" stroke-dasharray="1,0" stroke-width="0.25" />
<polyline fill="none" points="261,213 278.2,213" stroke="rgb(192,192,192)" stroke-dasharray="1,0" stroke-width="0.25" />
<polyline fill="none" points="262,206 278,206" stroke="rgb(0,0,0)" stroke-dasharray="1,0" stroke-width="0.25" />
<polyline fill="none" points="42,273.2 42,288" stroke="rgb(192,192,192)" stroke-dasharray="1,0" stroke-width="0.25" />
<polyline fill="none" points="41,287 58.2,287" stroke="rgb(192,192,192)" stroke-dasharray="1,0" stroke-width="0.25" />
<polyline fill="none" points="42,280 58,280" stroke="rgb(0,0,0)" stroke-dasharray="1,0" stroke-width="0.25" />

<polygon points="178,181 180,180 178,179"  fill="rgb(0,0,127)" stroke="rgb(0,0,127)" stroke-dasharray="1,0" stroke-width="0.25" />
<polygon points="178,185 180,184 178,183"  fill="rgb(0,0,127)" stroke="rgb(0,0,127)" stroke-dasharray="1,0" stroke-width="0.25" />
<polygon points="178,183 180,182 178,181"  fill="rgb(0,0,127)" stroke="rgb(0,0,127)" stroke-dasharray="1,0" stroke-width="0.25" />
<polygon points="178,187 180,186 178,185"  fill="rgb(0,0,127)" stroke="rgb(0,0,127)" stroke-dasharray="1,0" stroke-width="0.25" />
<polygon points="178,195 180,194 178,193"  fill="rgb(0,0,127)" stroke="rgb(0,0,127)" stroke-dasharray="1,0" stroke-width="0.25" />
<polygon points="178,193 180,192 178,191"  fill="rgb(0,0,127)" stroke="rgb(0,0,127)" stroke-dasharray="1,0" stroke-width="0.25" />
<polygon points="178,199 180,198 178,197"  fill="rgb(0,0,127)" stroke="rgb(0,0,127)" stroke-dasharray="1,0" stroke-width="0.25" />
<polygon points="178,201.00000000000003 180,200 178,199"  fill="rgb(0,0,127)" stroke="rgb(0,0,127)" stroke-dasharray="1,0" stroke-width="0.25" />
<polygon points="178,197 180,196 178,195"  fill="rgb(0,0,127)" stroke="rgb(0,0,127)" stroke-dasharray="1,0" stroke-width="0.25" />
<polygon points="178,189 180,188 178,187 178,189"  fill="rgb(255,0,255)" stroke="rgb(255,0,255)" stroke-dasharray="1,0" stroke-width="0.25" />
<polygon points="178,191 180,190 178,189 178,191"  fill="rgb(255,127,0)" stroke="rgb(255,127,0)" stroke-dasharray="1,0" stroke-width="0.25" />
<polygon points="200,185 202,184 200,183"  fill="rgb(255,255,255)" stroke="rgb(0,0,127)" stroke-dasharray="1,0" stroke-width="0.25" />
<polygon points="200,197 202,196 200,195"  fill="rgb(255,255,255)" stroke="rgb(0,0,127)" stroke-dasharray="1,0" stroke-width="0.25" />
<polygon points="200,191 202,190 200,189"  fill="rgb(255,255,255)" stroke="rgb(0,0,127)" stroke-dasharray="1,0" stroke-width="0.25" />
<polygon points="98,143 100,142 98,141"  fill="rgb(0,0,127)" stroke="rgb(0,0,127)" stroke-dasharray="1,0" stroke-width="0.25" />
<polygon points="98,146 100,145 98,144"  fill="rgb(0,0,127)" stroke="rgb(0,0,127)" stroke-dasharray="1,0" stroke-width="0.25" />
<polygon points="98,156 100,155 98,154 98,156"  fill="rgb(255,127,0)" stroke="rgb(255,127,0)" stroke-dasharray="1,0" stroke-width="0.25" />
<polygon points="98,159 100,158 98,157 98,159"  fill="rgb(255,127,0)" stroke="rgb(255,127,0)" stroke-dasharray="1,0" stroke-width="0.25" />
<polygon points="98,151 100,150 98,149 98,151"  fill="rgb(255,0,255)" stroke="rgb(255,0,255)" stroke-dasharray="1,0" stroke-width="0.25" />
<polygon points="120,146 122,145 120,144"  fill="rgb(255,255,255)" stroke="rgb(0,0,127)" stroke-dasharray="1,0" stroke-width="0.25" />
<polygon points="120,144 122,143 120,142"  fill="rgb(255,255,255)" stroke="rgb(0,0,127)" stroke-dasharray="1,0" stroke-width="0.25" />
<polygon points="120,151 122,150 120,149"  fill="rgb(255,255,255)" stroke="rgb(0,0,127)" stroke-dasharray="1,0" stroke-width="0.25" />
<polygon points="120,153 122,152 120,151"  fill="rgb(255,255,255)" stroke="rgb(0,0,127)" stroke-dasharray="1,0" stroke-width="0.25" />
<polygon points="120,155 122,154 120,153"  fill="rgb(255,255,255)" stroke="rgb(0,0,127)" stroke-dasharray="1,0" stroke-width="0.25" />
<polygon points="218,151 220,150 218,149"  fill="rgb(0,0,127)" stroke="rgb(0,0,127)" stroke-dasharray="1,0" stroke-width="0.25" />
<polygon points="218,159 220,158 218,157"  fill="rgb(0,0,127)" stroke="rgb(0,0,127)" stroke-dasharray="1,0" stroke-width="0.25" />
<polygon points="218,155 220,154 218,153"  fill="rgb(0,0,127)" stroke="rgb(0,0,127)" stroke-dasharray="1,0" stroke-width="0.25" />
<polygon points="218,147 220,146 218,145"  fill="rgb(0,0,127)" stroke="rgb(0,0,127)" stroke-dasharray="1,0" stroke-width="0.25" />
<polygon points="218,143 220,142 218,141"  fill="rgb(0,0,127)" stroke="rgb(0,0,127)" stroke-dasharray="1,0" stroke-width="0.25" />
<polygon points="240,153 242,152 240,151"  fill="rgb(255,255,255)" stroke="rgb(0,0,127)" stroke-dasharray="1,0" stroke-width="0.25" />
<polygon points="240,149 242,148 240,147"  fill="rgb(255,255,255)" stroke="rgb(0,0,127)" stroke-dasharray="1,0" stroke-width="0.25" />
<polygon points="258,171 260,170 258,169"  fill="rgb(0,0,127)" stroke="rgb(0,0,127)" stroke-dasharray="1,0" stroke-width="0.25" />
<polygon points="280,165 282,164 280,163"  fill="rgb(255,255,255)" stroke="rgb(0,0,127)" stroke-dasharray="1,0" stroke-width="0.25" />
<polygon points="280,177 282,176 280,175"  fill="rgb(255,255,255)" stroke="rgb(0,0,127)" stroke-dasharray="1,0" stroke-width="0.25" />
<polygon points="42.2,121 41.4,123.2 43,123.2 42.2,121"  fill="rgb(192,192,192)" stroke="rgb(192,192,192)" stroke-dasharray="1,0" stroke-width="0.25" />
<polygon points="59.2,130 57,129.2 57,130.8 59.2,130"  fill="rgb(192,192,192)" stroke="rgb(192,192,192)" stroke-dasharray="1,0" stroke-width="0.25" />
<polygon points="36,132 40,130 36,128"  fill="rgb(0,0,127)" stroke="rgb(0,0,127)" stroke-dasharray="1,0" stroke-width="0.25" />
<polygon points="60,131 62,130 60,129"  fill="rgb(255,255,255)" stroke="rgb(0,0,127)" stroke-dasharray="1,0" stroke-width="0.25" />
<polygon points="296,196 300,194 296,192"  fill="rgb(0,0,127)" stroke="rgb(0,0,127)" stroke-dasharray="1,0" stroke-width="0.25" />
<polygon points="296,208 300,206 296,204"  fill="rgb(0,0,127)" stroke="rgb(0,0,127)" stroke-dasharray="1,0" stroke-width="0.25" />
<polygon points="320,201 322,200 320,199"  fill="rgb(255,255,255)" stroke="rgb(0,0,127)" stroke-dasharray="1,0" stroke-width="0.25" />
<polygon points="296,116 300,114 296,112"  fill="rgb(0,0,127)" stroke="rgb(0,0,127)" stroke-dasharray="1,0" stroke-width="0.25" />
<polygon points="296,128 300,126 296,124"  fill="rgb(0,0,127)" stroke="rgb(0,0,127)" stroke-dasharray="1,0" stroke-width="0.25" />
<polygon points="320,121 322,120 320,119"  fill="rgb(255,255,255)" stroke="rgb(0,0,127)" stroke-dasharray="1,0" stroke-width="0.25" />
<polygon points="258,105 257.2,107.2 258.8,107.2 258,105"  fill="rgb(192,192,192)" stroke="rgb(192,192,192)" stroke-dasharray="1,0" stroke-width="0.25" />
<polygon points="275,121 272.8,120.2 272.8,121.8 275,121"  fill="rgb(192,192,192)" stroke="rgb(192,192,192)" stroke-dasharray="1,0" stroke-width="0.25" />
<polygon points="276,115 278,114 276,113"  fill="rgb(255,255,255)" stroke="rgb(0,0,127)" stroke-dasharray="1,0" stroke-width="0.25" />
<polygon points="262,197 261.2,199.2 262.8,199.2 262,197"  fill="rgb(192,192,192)" stroke="rgb(192,192,192)" stroke-dasharray="1,0" stroke-width="0.25" />
<polygon points="279,213 276.8,212.2 276.8,213.8 279,213"  fill="rgb(192,192,192)" stroke="rgb(192,192,192)" stroke-dasharray="1,0" stroke-width="0.25" />
<polygon points="280,207 282,206 280,205"  fill="rgb(255,255,255)" stroke="rgb(0,0,127)" stroke-dasharray="1,0" stroke-width="0.25" />
<polygon points="42,271 41.2,273.2 42.8,273.2 42,271"  fill="rgb(192,192,192)" stroke="rgb(192,192,192)" stroke-dasharray="1,0" stroke-width="0.25" />
<polygon points="59,287 56.8,286.2 56.8,287.8 59,287"  fill="rgb(192,192,192)" stroke="rgb(192,192,192)" stroke-dasharray="1,0" stroke-width="0.25" />
<polygon points="60,281 62,280 60,279 60,281"  fill="rgb(255,255,255)" stroke="rgb(255,127,0)" stroke-dasharray="1,0" stroke-width="0.25" />

<text font-family="helvetica" font-size="1.625" x="7.13125" y="102.75" fill="rgb(0,0,127)" text-anchor="middle" dominant-baseline="central" alignment-baseline="middle">
<tspan x="7.13125" >uTSup</tspan>
</text>
<text font-family="helvetica" font-size="1.625" x="7.13125" y="12.75" fill="rgb(0,0,127)" text-anchor="middle" dominant-baseline="central" alignment-baseline="middle">
<tspan x="7.13125" >TOut</tspan>
</text>
<text font-family="helvetica" font-size="1.625" x="7.13125" y="32.75" fill="rgb(0,0,127)" text-anchor="middle" dominant-baseline="central" alignment-baseline="middle">
<tspan x="7.13125" >TOutCut</tspan>
</text>
<text font-family="helvetica" font-size="1.625" x="7.13125" y="52.75" fill="rgb(0,0,127)" text-anchor="middle" dominant-baseline="central" alignment-baseline="middle">
<tspan x="7.13125" >hOut</tspan>
</text>
<text font-family="helvetica" font-size="1.625" x="7.13125" y="72.75" fill="rgb(0,0,127)" text-anchor="middle" dominant-baseline="central" alignment-baseline="middle">
<tspan x="7.13125" >hOutCut</tspan>
</text>
<text font-family="helvetica" font-size="1.625" x="7.13125" y="182.75" fill="rgb(0,0,127)" text-anchor="middle" dominant-baseline="central" alignment-baseline="middle">
<tspan x="7.13125" >TMix</tspan>
</text>
<text font-family="helvetica" font-size="1.625" x="7.13125" y="132.75" fill="rgb(0,0,127)" text-anchor="middle" dominant-baseline="central" alignment-baseline="middle">
<tspan x="7.13125" >VOut_flow_normalized</tspan>
</text>
<text font-family="helvetica" font-size="1.625" x="7.13125" y="152.75" fill="rgb(0,0,127)" text-anchor="middle" dominant-baseline="central" alignment-baseline="middle">
<tspan x="7.13125" >VOutMinSet_flow_normalized</tspan>
</text>
<text font-family="helvetica" font-size="1.625" x="7.13125" y="292.75" fill="rgb(255,127,0)" text-anchor="middle" dominant-baseline="central" alignment-baseline="middle">
<tspan x="7.13125" >uFreProSta</tspan>
</text>
<text font-family="helvetica" font-size="1.625" x="7.13125" y="252.75" fill="rgb(255,127,0)" text-anchor="middle" dominant-baseline="central" alignment-baseline="middle">
<tspan x="7.13125" >uOpeMod</tspan>
</text>
<text font-family="helvetica" font-size="1.625" x="7.13125" y="212.75" fill="rgb(255,0,255)" text-anchor="middle" dominant-baseline="central" alignment-baseline="middle">
<tspan x="7.13125" >uSupFan</tspan>
</text>
<text font-family="helvetica" font-size="3.25" x="349.2625" y="111.5" fill="rgb(0,0,127)" text-anchor="middle" dominant-baseline="central" alignment-baseline="middle">
<tspan x="349.2625" >yRetDamPos</tspan>
</text>
<text font-family="helvetica" font-size="3.25" x="349.2625" y="191.5" fill="rgb(0,0,127)" text-anchor="middle" dominant-baseline="central" alignment-baseline="middle">
<tspan x="349.2625" >yOutDamPos</tspan>
</text>
<text font-family="helvetica" font-size="2.47" x="189" y="177.70000000000002" fill="rgb(0,0,127)" text-anchor="middle" dominant-baseline="central" alignment-baseline="middle">
<tspan x="189" >enaDis</tspan>
</text>
<text font-family="helvetica" font-size="1.9500000000000002" x="110" y="137.7" fill="rgb(0,0,127)" text-anchor="middle" dominant-baseline="central" alignment-baseline="middle">
<tspan x="110" >damLim</tspan>
</text>
<text font-family="helvetica" font-size="1.82" x="229.7" y="137.6" fill="rgb(0,0,127)" text-anchor="middle" dominant-baseline="central" alignment-baseline="middle">
<tspan x="229.7" >mod</tspan>
</text>
<text font-family="helvetica" font-size="2.47" x="270" y="157.5" fill="rgb(0,0,127)" text-anchor="middle" dominant-baseline="central" alignment-baseline="middle">
<tspan x="270" >freProTMix</tspan>
</text>
<text font-family="helvetica" font-size="2.6" x="51" y="116.8" fill="rgb(0,0,255)" text-anchor="middle" dominant-baseline="central" alignment-baseline="middle">
<tspan x="51" >movAve</tspan>
</text>
<text font-family="helvetica" font-size="2.2359999999999998" x="49.95" y="138.45" fill="rgb(192,192,192)" text-anchor="middle" dominant-baseline="central" alignment-baseline="middle">
<tspan x="49.95" >delta s</tspan>
</text>
<text font-family="helvetica" font-size="2.6" x="310" y="187" fill="rgb(0,0,255)" text-anchor="middle" dominant-baseline="central" alignment-baseline="middle">
<tspan x="310" >outDamMaxFre</tspan>
</text>
<text font-family="helvetica" font-size="4.680000000000001" x="310" y="200" fill="rgb(160,160,164)" text-anchor="middle" dominant-baseline="central" alignment-baseline="middle">
<tspan x="310" >min()</tspan>
</text>
<text font-family="helvetica" font-size="2.6" x="310" y="107" fill="rgb(0,0,255)" text-anchor="middle" dominant-baseline="central" alignment-baseline="middle">
<tspan x="310" >retDamMinFre</tspan>
</text>
<text font-family="helvetica" font-size="4.680000000000001" x="310" y="120" fill="rgb(160,160,164)" text-anchor="middle" dominant-baseline="central" alignment-baseline="middle">
<tspan x="310" >max()</tspan>
</text>
<text font-family="helvetica" font-size="2.6" x="266" y="101" fill="rgb(0,0,255)" text-anchor="middle" dominant-baseline="central" alignment-baseline="middle">
<tspan x="266" >noTMix</tspan>
</text>
<text font-family="helvetica" font-size="2.6" x="266" y="127" fill="rgb(0,0,0)" text-anchor="middle" dominant-baseline="central" alignment-baseline="middle">
<tspan x="266" >k&#x3D;0</tspan>
</text>
<text font-family="helvetica" font-size="2.6" x="270" y="193" fill="rgb(0,0,255)" text-anchor="middle" dominant-baseline="central" alignment-baseline="middle">
<tspan x="270" >noTMix1</tspan>
</text>
<text font-family="helvetica" font-size="2.6" x="270" y="219" fill="rgb(0,0,0)" text-anchor="middle" dominant-baseline="central" alignment-baseline="middle">
<tspan x="270" >k&#x3D;1</tspan>
</text>
<text font-family="helvetica" font-size="2.6" x="50" y="267" fill="rgb(0,0,255)" text-anchor="middle" dominant-baseline="central" alignment-baseline="middle">
<tspan x="50" >freProSta</tspan>
</text>
<text font-family="helvetica" font-size="2.6" x="50" y="293" fill="rgb(0,0,0)" text-anchor="middle" dominant-baseline="central" alignment-baseline="middle">
<tspan x="50" >k&#x3D;Buildings.Controls.OBC.ASHRAE.G36_PR1.Types.FreezeProtectionStages.stage0</tspan>
</text>

</svg>