<svg version="1.1" baseProfile="full" width="300mm" height="240mm"
     viewBox="0 0 300 240" xmlns="http://www.w3.org/2000/svg">

<rect x="134" y="2" width="72" height="236"  fill="rgb(215,215,215)" stroke="rgb(0,0,0)"  stroke-dasharray="1,0" stroke-width="0.25"  />
<rect x="42" y="2" width="84" height="236"  fill="rgb(215,215,215)" stroke="rgb(0,0,0)"  stroke-dasharray="1,0" stroke-width="0.25"  />
<rect x="212" y="2" width="66" height="236"  fill="rgb(215,215,215)" stroke="rgb(0,0,0)"  stroke-dasharray="1,0" stroke-width="0.25"  />




<text font-family="helvetica" font-size="3.359999999999994" x="44" y="8.319999999999997" fill="rgb(0,0,0)" text-anchor="start" dominant-baseline="central" alignment-baseline="middle">
<tspan x="44"  dy="0" >Damper position supply</tspan>
<tspan x="44"  dy="3.359999999999994" >air temperature control loop</tspan>
</text>
<text font-family="helvetica" font-size="3.8399999999999967" x="136" y="6.079999999999995" fill="rgb(0,0,0)" text-anchor="start" dominant-baseline="central" alignment-baseline="middle">
<tspan x="136"  dy="0" >Damper position</tspan>
<tspan x="136"  dy="3.8399999999999967" >assignments</tspan>
</text>
<text font-family="helvetica" font-size="1.099999999999991" x="214" y="11.350000000000007" fill="rgb(0,0,0)" text-anchor="start" dominant-baseline="central" alignment-baseline="middle">
<tspan x="214"  dy="0" >Overwrite if the freeze protection</tspan>
<tspan x="214"  dy="1.099999999999991" >that tracks TFre at the measured</tspan>
<tspan x="214"  dy="1.099999999999991" >mixed air temperature limits the</tspan>
<tspan x="214"  dy="1.099999999999991" >damper position</tspan>
</text>

<polyline fill="none" points="158,154 130,154 130,170 81,170" stroke="rgb(255,255,255)" stroke-dasharray="1,0" stroke-width="1.25" />
<polyline fill="none" points="158,154 130,154 130,170 81,170" stroke="rgb(0,0,127)" stroke-dasharray="1,0" stroke-width="0.25" />
<polyline fill="none" points="158,142 121,142" stroke="rgb(255,255,255)" stroke-dasharray="1,0" stroke-width="1.25" />
<polyline fill="none" points="158,142 121,142" stroke="rgb(0,0,127)" stroke-dasharray="1,0" stroke-width="0.25" />
<polyline fill="none" points="158,146 136,146 136,220 20,220" stroke="rgb(255,255,255)" stroke-dasharray="1,0" stroke-width="1.25" />
<polyline fill="none" points="158,146 136,146 136,220 20,220" stroke="rgb(0,0,127)" stroke-dasharray="1,0" stroke-width="0.25" />
<polyline fill="none" points="158,158 140,158 140,186 52,186 52,170 20,170" stroke="rgb(255,255,255)" stroke-dasharray="1,0" stroke-width="1.25" />
<polyline fill="none" points="158,158 140,158 140,186 52,186 52,170 20,170" stroke="rgb(0,0,127)" stroke-dasharray="1,0" stroke-width="0.25" />
<polyline fill="none" points="158,54 132,54 132,100 121,100" stroke="rgb(255,255,255)" stroke-dasharray="1,0" stroke-width="1.25" />
<polyline fill="none" points="158,54 132,54 132,100 121,100" stroke="rgb(0,0,127)" stroke-dasharray="1,0" stroke-width="0.25" />
<polyline fill="none" points="158,42 101,42" stroke="rgb(255,255,255)" stroke-dasharray="1,0" stroke-width="1.25" />
<polyline fill="none" points="158,42 101,42" stroke="rgb(0,0,127)" stroke-dasharray="1,0" stroke-width="0.25" />
<polyline fill="none" points="158,46 112,46 112,20 20,20" stroke="rgb(255,255,255)" stroke-dasharray="1,0" stroke-width="1.25" />
<polyline fill="none" points="158,46 112,46 112,20 20,20" stroke="rgb(0,0,127)" stroke-dasharray="1,0" stroke-width="0.25" />
<polyline fill="none" points="158,58 148,58 148,70 20,70" stroke="rgb(255,255,255)" stroke-dasharray="1,0" stroke-width="1.25" />
<polyline fill="none" points="158,58 148,58 148,70 20,70" stroke="rgb(0,0,127)" stroke-dasharray="1,0" stroke-width="0.25" />
<polyline fill="none" points="218,186 52,186 52,170 20,170" stroke="rgb(255,255,255)" stroke-dasharray="1,0" stroke-width="1.25" />
<polyline fill="none" points="218,186 52,186 52,170 20,170" stroke="rgb(0,0,127)" stroke-dasharray="1,0" stroke-width="0.25" />
<polyline fill="none" points="218,174 188,174 188,150 181,150" stroke="rgb(255,255,255)" stroke-dasharray="1,0" stroke-width="1.25" />
<polyline fill="none" points="218,174 188,174 188,150 181,150" stroke="rgb(0,0,127)" stroke-dasharray="1,0" stroke-width="0.25" />
<polyline fill="none" points="218,54 190,54 190,50 181,50" stroke="rgb(255,255,255)" stroke-dasharray="1,0" stroke-width="1.25" />
<polyline fill="none" points="218,54 190,54 190,50 181,50" stroke="rgb(0,0,127)" stroke-dasharray="1,0" stroke-width="0.25" />
<polyline fill="none" points="20,70 148,70 148,66 218,66" stroke="rgb(255,255,255)" stroke-dasharray="1,0" stroke-width="1.25" />
<polyline fill="none" points="20,70 148,70 148,66 218,66" stroke="rgb(0,0,127)" stroke-dasharray="1,0" stroke-width="0.25" />
<polyline fill="none" points="241,180 250,180" stroke="rgb(255,255,255)" stroke-dasharray="1,0" stroke-width="1.25" />
<polyline fill="none" points="241,180 250,180" stroke="rgb(0,0,127)" stroke-dasharray="1,0" stroke-width="0.25" />
<polyline fill="none" points="273,180 290,180" stroke="rgb(255,255,255)" stroke-dasharray="1,0" stroke-width="1.25" />
<polyline fill="none" points="273,180 290,180" stroke="rgb(0,0,127)" stroke-dasharray="1,0" stroke-width="0.25" />
<polyline fill="none" points="20,120 138,120 138,50 158,50" stroke="rgb(255,255,255)" stroke-dasharray="1,0" stroke-width="1.25" />
<polyline fill="none" points="20,120 138,120 138,50 158,50" stroke="rgb(0,0,127)" stroke-dasharray="1,0" stroke-width="0.25" />
<polyline fill="none" points="20,120 138,120 138,150 158,150" stroke="rgb(255,255,255)" stroke-dasharray="1,0" stroke-width="1.25" />
<polyline fill="none" points="20,120 138,120 138,150 158,150" stroke="rgb(0,0,127)" stroke-dasharray="1,0" stroke-width="0.25" />
<polyline fill="none" points="241,60 248,60" stroke="rgb(255,255,255)" stroke-dasharray="1,0" stroke-width="1.25" />
<polyline fill="none" points="241,60 248,60" stroke="rgb(0,0,127)" stroke-dasharray="1,0" stroke-width="0.25" />
<polyline fill="none" points="271,60 290,60" stroke="rgb(255,255,255)" stroke-dasharray="1,0" stroke-width="1.25" />
<polyline fill="none" points="271,60 290,60" stroke="rgb(0,0,127)" stroke-dasharray="1,0" stroke-width="0.25" />

<ellipse cx="140" cy="186" rx="1" ry="1"  fill="rgb(0,0,127)"  />
<ellipse cx="148" cy="66" rx="1" ry="1"  fill="rgb(0,0,127)"  />
<ellipse cx="138" cy="120" rx="1" ry="1"  fill="rgb(0,0,127)"  />

<polygon points="20,130 40,120 20,110 20,130"  fill="rgb(0,0,127)" stroke="rgb(0,0,127)" stroke-dasharray="1,0" stroke-width="0.25" />
<polygon points="20,230 40,220 20,210 20,230"  fill="rgb(0,0,127)" stroke="rgb(0,0,127)" stroke-dasharray="1,0" stroke-width="0.25" />
<polygon points="20,180 40,170 20,160 20,180"  fill="rgb(0,0,127)" stroke="rgb(0,0,127)" stroke-dasharray="1,0" stroke-width="0.25" />
<polygon points="20,80 40,70 20,60 20,80"  fill="rgb(0,0,127)" stroke="rgb(0,0,127)" stroke-dasharray="1,0" stroke-width="0.25" />
<polygon points="20,30 40,20 20,10 20,30"  fill="rgb(0,0,127)" stroke="rgb(0,0,127)" stroke-dasharray="1,0" stroke-width="0.25" />
<polygon points="280,185 290,180 280,175"  fill="rgb(255,255,255)" stroke="rgb(0,0,127)" stroke-dasharray="1,0" stroke-width="0.25" />
<polygon points="280,65 290,60 280,55"  fill="rgb(255,255,255)" stroke="rgb(0,0,127)" stroke-dasharray="1,0" stroke-width="0.25" />

<rect x="100" y="132" width="20" height="20"  fill="rgb(255,255,255)" stroke="rgb(0,0,127)"  stroke-dasharray="1,0" stroke-width="0.041666666666666664"  />
<rect x="60" y="160" width="20" height="20"  fill="rgb(255,255,255)" stroke="rgb(0,0,127)"  stroke-dasharray="1,0" stroke-width="0.041666666666666664"  />
<rect x="80" y="32" width="20" height="20"  fill="rgb(255,255,255)" stroke="rgb(0,0,127)"  stroke-dasharray="1,0" stroke-width="0.041666666666666664"  />
<rect x="100" y="90" width="20" height="20"  fill="rgb(255,255,255)" stroke="rgb(0,0,127)"  stroke-dasharray="1,0" stroke-width="0.041666666666666664"  />
<rect x="160" y="140" width="20" height="20"  fill="rgb(255,255,255)" stroke="rgb(0,0,127)"  stroke-dasharray="1,0" stroke-width="0.041666666666666664"  />
<rect x="160" y="40" width="20" height="20"  fill="rgb(255,255,255)" stroke="rgb(0,0,127)"  stroke-dasharray="1,0" stroke-width="0.041666666666666664"  />
<rect x="220" y="170" width="20" height="20"  fill="rgb(255,255,255)" stroke="rgb(0,0,127)"  stroke-dasharray="1,0" stroke-width="0.041666666666666664"  />
<rect x="220" y="50" width="20" height="20"  fill="rgb(255,255,255)" stroke="rgb(0,0,127)"  stroke-dasharray="1,0" stroke-width="0.041666666666666664"  />
<rect x="252" y="170" width="20" height="20"  fill="rgb(223,211,169)" stroke="rgb(0,0,127)"  stroke-dasharray="1,0" stroke-width="0.041666666666666664"  />
<rect x="251.908" y="169.908" width="0.092" height="20.092"  fill="rgb(172,168,153)" stroke="none"  />
<rect x="251.908" y="190" width="20.092" height="0.092"  fill="rgb(172,168,153)" stroke="none"  />
<rect x="272" y="170" width="0.092" height="20.092"  fill="rgb(172,168,153)" stroke="none"  />
<rect x="252" y="169.908" width="20.092" height="0.092"  fill="rgb(172,168,153)" stroke="none"  />
<rect x="252" y="170" width="0.13799999999999998" height="20"  fill="rgb(255,255,255)" stroke="none"  />
<rect x="252" y="170" width="20" height="0.138"  fill="rgb(255,255,255)" stroke="none"  />
<rect x="271.908" y="170" width="0.092" height="20"  fill="rgb(113,111,100)" stroke="none"  />
<rect x="252" y="189.90800000000002" width="20" height="0.092"  fill="rgb(113,111,100)" stroke="none"  />
<rect x="271.81600000000003" y="170.092" width="0.092" height="19.816"  fill="rgb(172,168,153)" stroke="none"  />
<rect x="252.092" y="189.816" width="19.816" height="0.092"  fill="rgb(172,168,153)" stroke="none"  />
<rect x="250" y="50" width="20" height="20"  fill="rgb(223,211,169)" stroke="rgb(0,0,127)"  stroke-dasharray="1,0" stroke-width="0.041666666666666664"  />
<rect x="249.908" y="49.908" width="0.092" height="20.092"  fill="rgb(172,168,153)" stroke="none"  />
<rect x="249.908" y="70" width="20.092" height="0.092"  fill="rgb(172,168,153)" stroke="none"  />
<rect x="270" y="50" width="0.092" height="20.092"  fill="rgb(172,168,153)" stroke="none"  />
<rect x="250" y="49.908" width="20.092" height="0.092"  fill="rgb(172,168,153)" stroke="none"  />
<rect x="250" y="50" width="0.13799999999999998" height="20"  fill="rgb(255,255,255)" stroke="none"  />
<rect x="250" y="50" width="20" height="0.138"  fill="rgb(255,255,255)" stroke="none"  />
<rect x="269.908" y="50" width="0.092" height="20"  fill="rgb(113,111,100)" stroke="none"  />
<rect x="250" y="69.908" width="20" height="0.092"  fill="rgb(113,111,100)" stroke="none"  />
<rect x="269.81600000000003" y="50.092" width="0.092" height="19.816"  fill="rgb(172,168,153)" stroke="none"  />
<rect x="250.092" y="69.816" width="19.816" height="0.092"  fill="rgb(172,168,153)" stroke="none"  />

<ellipse cx="175" cy="154.4" rx="0.6" ry="0.6"  fill="rgb(0,0,0)"  />
<ellipse cx="170.8" cy="150.8" rx="0.6" ry="0.6"  fill="rgb(0,0,127)"  />
<ellipse cx="165.4" cy="146" rx="0.6" ry="0.6"  fill="rgb(0,0,0)"  />
<ellipse cx="175" cy="54.400000000000006" rx="0.6" ry="0.6"  fill="rgb(0,0,0)"  />
<ellipse cx="170.8" cy="50.8" rx="0.6" ry="0.6"  fill="rgb(0,0,127)"  />
<ellipse cx="165.4" cy="46" rx="0.6" ry="0.6"  fill="rgb(0,0,0)"  />

<polyline fill="none" points="102,135.2 102,150" stroke="rgb(192,192,192)" stroke-dasharray="1,0" stroke-width="0.25" />
<polyline fill="none" points="101,149 118.2,149" stroke="rgb(192,192,192)" stroke-dasharray="1,0" stroke-width="0.25" />
<polyline fill="none" points="102,142 118,142" stroke="rgb(0,0,0)" stroke-dasharray="1,0" stroke-width="0.25" />
<polyline fill="none" points="62,163.2 62,178" stroke="rgb(192,192,192)" stroke-dasharray="1,0" stroke-width="0.25" />
<polyline fill="none" points="61,177 78.2,177" stroke="rgb(192,192,192)" stroke-dasharray="1,0" stroke-width="0.25" />
<polyline fill="none" points="62,170 78,170" stroke="rgb(0,0,0)" stroke-dasharray="1,0" stroke-width="0.25" />
<polyline fill="none" points="82,35.2 82,50" stroke="rgb(192,192,192)" stroke-dasharray="1,0" stroke-width="0.25" />
<polyline fill="none" points="81,49 98.2,49" stroke="rgb(192,192,192)" stroke-dasharray="1,0" stroke-width="0.25" />
<polyline fill="none" points="82,42 98,42" stroke="rgb(0,0,0)" stroke-dasharray="1,0" stroke-width="0.25" />
<polyline fill="none" points="102,93.2 102,108" stroke="rgb(192,192,192)" stroke-dasharray="1,0" stroke-width="0.25" />
<polyline fill="none" points="101,107 118.2,107" stroke="rgb(192,192,192)" stroke-dasharray="1,0" stroke-width="0.25" />
<polyline fill="none" points="102,100 118,100" stroke="rgb(0,0,0)" stroke-dasharray="1,0" stroke-width="0.25" />
<polyline fill="none" points="165.4,146 175,154.4" stroke="rgb(0,0,0)" stroke-dasharray="1,0" stroke-width="0.5" />
<polyline fill="none" points="162,158 162,142.8" stroke="rgb(192,192,192)" stroke-dasharray="1,0" stroke-width="0.25" />
<polyline fill="none" points="161.2,157.8 177.6,157.8" stroke="rgb(192,192,192)" stroke-dasharray="1,0" stroke-width="0.25" />
<polyline fill="none" points="160,142 163.6,142" stroke="rgb(28,108,200)" stroke-dasharray="1,2" stroke-width="0.25" />
<polyline fill="none" points="163.6,142 163.8,157.8" stroke="rgb(28,108,200)" stroke-dasharray="1,2" stroke-width="0.25" />
<polyline fill="none" points="160,146 161.2,146" stroke="rgb(28,108,200)" stroke-dasharray="1,2" stroke-width="0.25" />
<polyline fill="none" points="161.2,146 165.2,146" stroke="rgb(28,108,200)" stroke-dasharray="1,2" stroke-width="0.25" />
<polyline fill="none" points="160,154 174.8,153.6" stroke="rgb(28,108,200)" stroke-dasharray="1,2" stroke-width="0.25" />
<polyline fill="none" points="174.8,153.6 175,157.8" stroke="rgb(28,108,200)" stroke-dasharray="1,2" stroke-width="0.25" />
<polyline fill="none" points="160,158 166.2,155.6" stroke="rgb(28,108,200)" stroke-dasharray="1,2" stroke-width="0.25" />
<polyline fill="none" points="166.2,155.6 174.8,154.4" stroke="rgb(28,108,200)" stroke-dasharray="1,2" stroke-width="0.25" />
<polyline fill="none" points="160,150 163.8,150" stroke="rgb(28,108,200)" stroke-dasharray="1,2" stroke-width="0.25" />
<polyline fill="none" points="163.8,150 170.8,150.8" stroke="rgb(28,108,200)" stroke-dasharray="1,2" stroke-width="0.25" />
<polyline fill="none" points="171,150.8 175.2,150.8" stroke="rgb(28,108,200)" stroke-dasharray="1,2" stroke-width="0.25" />
<polyline fill="none" points="175.2,150.8 180,150" stroke="rgb(28,108,200)" stroke-dasharray="1,2" stroke-width="0.25" />
<polyline fill="none" points="175,154.4 178,157" stroke="rgb(0,0,0)" stroke-dasharray="1,0" stroke-width="0.5" />
<polyline fill="none" points="175.2,154.4 178.6,154.4" stroke="rgb(238,46,47)" stroke-dasharray="1,0" stroke-width="0.5" />
<polyline fill="none" points="162,143.2 165.4,146" stroke="rgb(0,0,0)" stroke-dasharray="1,0" stroke-width="0.5" />
<polyline fill="none" points="162,146 165.4,146" stroke="rgb(238,46,47)" stroke-dasharray="1,0" stroke-width="0.5" />
<polyline fill="none" points="165.4,46 175,54.400000000000006" stroke="rgb(0,0,0)" stroke-dasharray="1,0" stroke-width="0.5" />
<polyline fill="none" points="162,58 162,42.8" stroke="rgb(192,192,192)" stroke-dasharray="1,0" stroke-width="0.25" />
<polyline fill="none" points="161.2,57.8 177.6,57.8" stroke="rgb(192,192,192)" stroke-dasharray="1,0" stroke-width="0.25" />
<polyline fill="none" points="160,42 163.6,42" stroke="rgb(28,108,200)" stroke-dasharray="1,2" stroke-width="0.25" />
<polyline fill="none" points="163.6,42 163.8,57.8" stroke="rgb(28,108,200)" stroke-dasharray="1,2" stroke-width="0.25" />
<polyline fill="none" points="160,46 161.2,46" stroke="rgb(28,108,200)" stroke-dasharray="1,2" stroke-width="0.25" />
<polyline fill="none" points="161.2,46 165.2,46" stroke="rgb(28,108,200)" stroke-dasharray="1,2" stroke-width="0.25" />
<polyline fill="none" points="160,54 174.8,53.6" stroke="rgb(28,108,200)" stroke-dasharray="1,2" stroke-width="0.25" />
<polyline fill="none" points="174.8,53.6 175,57.8" stroke="rgb(28,108,200)" stroke-dasharray="1,2" stroke-width="0.25" />
<polyline fill="none" points="160,58 166.2,55.599999999999994" stroke="rgb(28,108,200)" stroke-dasharray="1,2" stroke-width="0.25" />
<polyline fill="none" points="166.2,55.599999999999994 174.8,54.400000000000006" stroke="rgb(28,108,200)" stroke-dasharray="1,2" stroke-width="0.25" />
<polyline fill="none" points="160,50 163.8,50" stroke="rgb(28,108,200)" stroke-dasharray="1,2" stroke-width="0.25" />
<polyline fill="none" points="163.8,50 170.8,50.8" stroke="rgb(28,108,200)" stroke-dasharray="1,2" stroke-width="0.25" />
<polyline fill="none" points="171,50.8 175.2,50.8" stroke="rgb(28,108,200)" stroke-dasharray="1,2" stroke-width="0.25" />
<polyline fill="none" points="175.2,50.8 180,50" stroke="rgb(28,108,200)" stroke-dasharray="1,2" stroke-width="0.25" />
<polyline fill="none" points="175,54.400000000000006 178,57" stroke="rgb(0,0,0)" stroke-dasharray="1,0" stroke-width="0.5" />
<polyline fill="none" points="175.2,54.400000000000006 178.6,54.400000000000006" stroke="rgb(238,46,47)" stroke-dasharray="1,0" stroke-width="0.5" />
<polyline fill="none" points="162,43.2 165.4,46" stroke="rgb(0,0,0)" stroke-dasharray="1,0" stroke-width="0.5" />
<polyline fill="none" points="162,46 165.4,46" stroke="rgb(238,46,47)" stroke-dasharray="1,0" stroke-width="0.5" />
<polyline fill="none" points="254.1,184.1 256.1,183.3 258,179.9 260,179.1 262,173.7 264.1,178 266.1,179 268,178" stroke="rgb(0,0,127)" stroke-dasharray="1,0" stroke-width="0.25" />
<polyline fill="none" points="268,178 270.1,179" stroke="rgb(0,0,127)" stroke-dasharray="1,0" stroke-width="0.25" />
<polyline fill="none" points="252.1,64.1 254.1,63.3 256,59.9 258,59.099999999999994 260,53.7 262.1,58 264.1,59 266,58" stroke="rgb(0,0,127)" stroke-dasharray="1,0" stroke-width="0.25" />
<polyline fill="none" points="266,58 268.1,59" stroke="rgb(0,0,127)" stroke-dasharray="1,0" stroke-width="0.25" />

<polygon points="102,133 101.2,135.2 102.8,135.2 102,133"  fill="rgb(192,192,192)" stroke="rgb(192,192,192)" stroke-dasharray="1,0" stroke-width="0.25" />
<polygon points="119,149 116.8,148.2 116.8,149.8 119,149"  fill="rgb(192,192,192)" stroke="rgb(192,192,192)" stroke-dasharray="1,0" stroke-width="0.25" />
<polygon points="120,143 122,142 120,141"  fill="rgb(255,255,255)" stroke="rgb(0,0,127)" stroke-dasharray="1,0" stroke-width="0.25" />
<polygon points="62,161 61.2,163.2 62.8,163.2 62,161"  fill="rgb(192,192,192)" stroke="rgb(192,192,192)" stroke-dasharray="1,0" stroke-width="0.25" />
<polygon points="79,177 76.8,176.2 76.8,177.8 79,177"  fill="rgb(192,192,192)" stroke="rgb(192,192,192)" stroke-dasharray="1,0" stroke-width="0.25" />
<polygon points="80,171 82,170 80,169"  fill="rgb(255,255,255)" stroke="rgb(0,0,127)" stroke-dasharray="1,0" stroke-width="0.25" />
<polygon points="82,33 81.2,35.2 82.8,35.2 82,33"  fill="rgb(192,192,192)" stroke="rgb(192,192,192)" stroke-dasharray="1,0" stroke-width="0.25" />
<polygon points="99,49 96.8,48.2 96.8,49.8 99,49"  fill="rgb(192,192,192)" stroke="rgb(192,192,192)" stroke-dasharray="1,0" stroke-width="0.25" />
<polygon points="100,43 102,42 100,41"  fill="rgb(255,255,255)" stroke="rgb(0,0,127)" stroke-dasharray="1,0" stroke-width="0.25" />
<polygon points="102,91 101.2,93.2 102.8,93.2 102,91"  fill="rgb(192,192,192)" stroke="rgb(192,192,192)" stroke-dasharray="1,0" stroke-width="0.25" />
<polygon points="119,107 116.8,106.2 116.8,107.8 119,107"  fill="rgb(192,192,192)" stroke="rgb(192,192,192)" stroke-dasharray="1,0" stroke-width="0.25" />
<polygon points="120,101 122,100 120,99"  fill="rgb(255,255,255)" stroke="rgb(0,0,127)" stroke-dasharray="1,0" stroke-width="0.25" />
<polygon points="179.2,157.8 177,157 177,158.6 179.2,157.8"  fill="rgb(192,192,192)" stroke="rgb(192,192,192)" stroke-dasharray="1,0" stroke-width="0.25" />
<polygon points="162,140.8 161.2,143 162.8,143 162,140.8"  fill="rgb(192,192,192)" stroke="rgb(192,192,192)" stroke-dasharray="1,0" stroke-width="0.25" />
<polygon points="156,144 160,142 156,140"  fill="rgb(0,0,127)" stroke="rgb(0,0,127)" stroke-dasharray="1,0" stroke-width="0.25" />
<polygon points="156,148 160,146 156,144"  fill="rgb(0,0,127)" stroke="rgb(0,0,127)" stroke-dasharray="1,0" stroke-width="0.25" />
<polygon points="156,156 160,154 156,152"  fill="rgb(0,0,127)" stroke="rgb(0,0,127)" stroke-dasharray="1,0" stroke-width="0.25" />
<polygon points="156,160 160,158 156,156"  fill="rgb(0,0,127)" stroke="rgb(0,0,127)" stroke-dasharray="1,0" stroke-width="0.25" />
<polygon points="156,152 160,150 156,148"  fill="rgb(0,0,127)" stroke="rgb(0,0,127)" stroke-dasharray="1,0" stroke-width="0.25" />
<polygon points="180,151 182,150 180,149"  fill="rgb(255,255,255)" stroke="rgb(0,0,127)" stroke-dasharray="1,0" stroke-width="0.25" />
<polygon points="179.2,57.8 177,57 177,58.599999999999994 179.2,57.8"  fill="rgb(192,192,192)" stroke="rgb(192,192,192)" stroke-dasharray="1,0" stroke-width="0.25" />
<polygon points="162,40.8 161.2,43 162.8,43 162,40.8"  fill="rgb(192,192,192)" stroke="rgb(192,192,192)" stroke-dasharray="1,0" stroke-width="0.25" />
<polygon points="156,44 160,42 156,40"  fill="rgb(0,0,127)" stroke="rgb(0,0,127)" stroke-dasharray="1,0" stroke-width="0.25" />
<polygon points="156,48 160,46 156,44"  fill="rgb(0,0,127)" stroke="rgb(0,0,127)" stroke-dasharray="1,0" stroke-width="0.25" />
<polygon points="156,56 160,54 156,52"  fill="rgb(0,0,127)" stroke="rgb(0,0,127)" stroke-dasharray="1,0" stroke-width="0.25" />
<polygon points="156,60 160,58 156,56"  fill="rgb(0,0,127)" stroke="rgb(0,0,127)" stroke-dasharray="1,0" stroke-width="0.25" />
<polygon points="156,52 160,50 156,48"  fill="rgb(0,0,127)" stroke="rgb(0,0,127)" stroke-dasharray="1,0" stroke-width="0.25" />
<polygon points="180,51 182,50 180,49"  fill="rgb(255,255,255)" stroke="rgb(0,0,127)" stroke-dasharray="1,0" stroke-width="0.25" />
<polygon points="216,176 220,174 216,172"  fill="rgb(0,0,127)" stroke="rgb(0,0,127)" stroke-dasharray="1,0" stroke-width="0.25" />
<polygon points="216,188 220,186 216,184"  fill="rgb(0,0,127)" stroke="rgb(0,0,127)" stroke-dasharray="1,0" stroke-width="0.25" />
<polygon points="240,181 242,180 240,179"  fill="rgb(255,255,255)" stroke="rgb(0,0,127)" stroke-dasharray="1,0" stroke-width="0.25" />
<polygon points="216,56 220,54 216,52"  fill="rgb(0,0,127)" stroke="rgb(0,0,127)" stroke-dasharray="1,0" stroke-width="0.25" />
<polygon points="216,68 220,66 216,64"  fill="rgb(0,0,127)" stroke="rgb(0,0,127)" stroke-dasharray="1,0" stroke-width="0.25" />
<polygon points="240,61 242,60 240,59"  fill="rgb(255,255,255)" stroke="rgb(0,0,127)" stroke-dasharray="1,0" stroke-width="0.25" />
<polygon points="248,182 252,180 248,178"  fill="rgb(0,0,127)" stroke="rgb(0,0,127)" stroke-dasharray="1,0" stroke-width="0.25" />
<polygon points="272,181 274,180 272,179"  fill="rgb(255,255,255)" stroke="rgb(0,0,127)" stroke-dasharray="1,0" stroke-width="0.25" />
<polygon points="246,62 250,60 246,58"  fill="rgb(0,0,127)" stroke="rgb(0,0,127)" stroke-dasharray="1,0" stroke-width="0.25" />
<polygon points="270,61 272,60 270,59"  fill="rgb(255,255,255)" stroke="rgb(0,0,127)" stroke-dasharray="1,0" stroke-width="0.25" />

<text font-family="helvetica" font-size="3.25" x="14.2625" y="105.5" fill="rgb(0,0,127)" text-anchor="middle" dominant-baseline="central" alignment-baseline="middle">
<tspan x="14.2625" >uTSup</tspan>
</text>
<text font-family="helvetica" font-size="3.25" x="14.2625" y="205.5" fill="rgb(0,0,127)" text-anchor="middle" dominant-baseline="central" alignment-baseline="middle">
<tspan x="14.2625" >uOutDamPosMin</tspan>
</text>
<text font-family="helvetica" font-size="3.25" x="14.2625" y="155.5" fill="rgb(0,0,127)" text-anchor="middle" dominant-baseline="central" alignment-baseline="middle">
<tspan x="14.2625" >uOutDamPosMax</tspan>
</text>
<text font-family="helvetica" font-size="3.25" x="14.2625" y="55.5" fill="rgb(0,0,127)" text-anchor="middle" dominant-baseline="central" alignment-baseline="middle">
<tspan x="14.2625" >uRetDamPosMin</tspan>
</text>
<text font-family="helvetica" font-size="3.25" x="14.2625" y="5.5" fill="rgb(0,0,127)" text-anchor="middle" dominant-baseline="central" alignment-baseline="middle">
<tspan x="14.2625" >uRetDamPosMax</tspan>
</text>
<text font-family="helvetica" font-size="3.25" x="289.2625" y="171.5" fill="rgb(0,0,127)" text-anchor="middle" dominant-baseline="central" alignment-baseline="middle">
<tspan x="289.2625" >yOutDamPos</tspan>
</text>
<text font-family="helvetica" font-size="3.25" x="289.2625" y="51.5" fill="rgb(0,0,127)" text-anchor="middle" dominant-baseline="central" alignment-baseline="middle">
<tspan x="289.2625" >yRetDamPos</tspan>
</text>
<text font-family="helvetica" font-size="2.6" x="110" y="129" fill="rgb(0,0,255)" text-anchor="middle" dominant-baseline="central" alignment-baseline="middle">
<tspan x="110" >outDamMinLimSig</tspan>
</text>
<text font-family="helvetica" font-size="2.6" x="110" y="155" fill="rgb(0,0,0)" text-anchor="middle" dominant-baseline="central" alignment-baseline="middle">
<tspan x="110" >k&#x3D;uMin</tspan>
</text>
<text font-family="helvetica" font-size="2.6" x="70" y="157" fill="rgb(0,0,255)" text-anchor="middle" dominant-baseline="central" alignment-baseline="middle">
<tspan x="70" >outDamMaxLimSig</tspan>
</text>
<text font-family="helvetica" font-size="2.6" x="70" y="183" fill="rgb(0,0,0)" text-anchor="middle" dominant-baseline="central" alignment-baseline="middle">
<tspan x="70" >k&#x3D;uOutDamMax</tspan>
</text>
<text font-family="helvetica" font-size="2.6" x="90" y="29" fill="rgb(0,0,255)" text-anchor="middle" dominant-baseline="central" alignment-baseline="middle">
<tspan x="90" >retDamConMinLimSig</tspan>
</text>
<text font-family="helvetica" font-size="2.6" x="90" y="55" fill="rgb(0,0,0)" text-anchor="middle" dominant-baseline="central" alignment-baseline="middle">
<tspan x="90" >k&#x3D;uRetDamMin</tspan>
</text>
<text font-family="helvetica" font-size="2.6" x="110" y="87" fill="rgb(0,0,255)" text-anchor="middle" dominant-baseline="central" alignment-baseline="middle">
<tspan x="110" >retDamMaxLimSig</tspan>
</text>
<text font-family="helvetica" font-size="2.6" x="110" y="113" fill="rgb(0,0,0)" text-anchor="middle" dominant-baseline="central" alignment-baseline="middle">
<tspan x="110" >k&#x3D;uMax</tspan>
</text>
<text font-family="helvetica" font-size="2.6" x="170" y="137" fill="rgb(0,0,255)" text-anchor="middle" dominant-baseline="central" alignment-baseline="middle">
<tspan x="170" >outDamPos</tspan>
</text>
<text font-family="helvetica" font-size="2.6" x="170" y="37" fill="rgb(0,0,255)" text-anchor="middle" dominant-baseline="central" alignment-baseline="middle">
<tspan x="170" >retDamPos</tspan>
</text>
<text font-family="helvetica" font-size="2.6" x="230" y="167" fill="rgb(0,0,255)" text-anchor="middle" dominant-baseline="central" alignment-baseline="middle">
<tspan x="230" >min</tspan>
</text>
<text font-family="helvetica" font-size="4.680000000000001" x="230" y="180" fill="rgb(160,160,164)" text-anchor="middle" dominant-baseline="central" alignment-baseline="middle">
<tspan x="230" >min()</tspan>
</text>
<text font-family="helvetica" font-size="2.6" x="230" y="47" fill="rgb(0,0,255)" text-anchor="middle" dominant-baseline="central" alignment-baseline="middle">
<tspan x="230" >max</tspan>
</text>
<text font-family="helvetica" font-size="4.680000000000001" x="230" y="60" fill="rgb(160,160,164)" text-anchor="middle" dominant-baseline="central" alignment-baseline="middle">
<tspan x="230" >max()</tspan>
</text>
<text font-family="helvetica" font-size="2.6" x="262" y="167" fill="rgb(0,0,255)" text-anchor="middle" dominant-baseline="central" alignment-baseline="middle">
<tspan x="262" >firOrdHolOutDam</tspan>
</text>
<text font-family="helvetica" font-size="2.6" x="260" y="47" fill="rgb(0,0,255)" text-anchor="middle" dominant-baseline="central" alignment-baseline="middle">
<tspan x="260" >firOrdHolRetDam</tspan>
</text>

</svg>