<svg version="1.1" baseProfile="full" width="260mm" height="200mm"
     viewBox="0 0 260 200" xmlns="http://www.w3.org/2000/svg">






<polyline fill="none" points="118,70 101,70" stroke="rgb(255,255,255)" stroke-dasharray="1,0" stroke-width="1.25" />
<polyline fill="none" points="118,70 101,70" stroke="rgb(0,0,127)" stroke-dasharray="1,0" stroke-width="0.25" />
<polyline fill="none" points="221,70 250,70" stroke="rgb(255,255,255)" stroke-dasharray="1,0" stroke-width="1.25" />
<polyline fill="none" points="221,70 250,70" stroke="rgb(0,0,127)" stroke-dasharray="1,0" stroke-width="0.25" />
<polyline fill="none" points="20,100 130,100 130,82" stroke="rgb(255,255,255)" stroke-dasharray="1,0" stroke-width="1.25" />
<polyline fill="none" points="20,100 130,100 130,82" stroke="rgb(0,0,127)" stroke-dasharray="1,0" stroke-width="0.25" />
<polyline fill="none" points="141,70 170,70 170,130 250,130" stroke="rgb(255,255,255)" stroke-dasharray="1,0" stroke-width="1.25" />
<polyline fill="none" points="141,70 170,70 170,130 250,130" stroke="rgb(0,0,127)" stroke-dasharray="1,0" stroke-width="0.25" />
<polyline fill="none" points="141,70 170,70 170,70 198,70" stroke="rgb(255,255,255)" stroke-dasharray="1,0" stroke-width="1.25" />
<polyline fill="none" points="141,70 170,70 170,70 198,70" stroke="rgb(0,0,127)" stroke-dasharray="1,0" stroke-width="0.25" />

<ellipse cx="170" cy="70" rx="1" ry="1"  fill="rgb(0,0,127)"  />

<polygon points="20,110 40,100 20,90 20,110"  fill="rgb(0,0,127)" stroke="rgb(0,0,127)" stroke-dasharray="1,0" stroke-width="0.25" />
<polygon points="240,135 250,130 240,125"  fill="rgb(255,255,255)" stroke="rgb(0,0,127)" stroke-dasharray="1,0" stroke-width="0.25" />
<polygon points="240,75 250,70 240,65"  fill="rgb(255,255,255)" stroke="rgb(0,0,127)" stroke-dasharray="1,0" stroke-width="0.25" />

<rect x="120" y="60" width="20" height="20"  fill="rgb(255,255,255)" stroke="rgb(0,0,127)"  stroke-dasharray="1,0" stroke-width="0.041666666666666664"  />
<rect x="129.4" y="72" width="7.2" height="4.6"  fill="rgb(255,255,255)" stroke="rgb(255,255,255)"  stroke-dasharray="1,0" stroke-width="0.12"  />
<rect x="80" y="60" width="20" height="20"  fill="rgb(255,255,255)" stroke="rgb(0,0,127)"  stroke-dasharray="1,0" stroke-width="0.041666666666666664"  />
<rect x="200" y="60" width="20" height="20"  fill="rgb(255,255,255)" stroke="rgb(0,0,127)"  stroke-dasharray="1,0" stroke-width="0.06936416184971098"  />

<ellipse cx="213.8" cy="70.2" rx="5.000000000000001" ry="5"  fill="rgb(255,255,255)"  stroke="rgb(0,0,127)" stroke-dasharray="1,0" stroke-width="0.25"  />

<polyline fill="none" points="122,62.2 122,79" stroke="rgb(192,192,192)" stroke-dasharray="1,0" stroke-width="0.25" />
<polyline fill="none" points="121,78 138.2,78" stroke="rgb(192,192,192)" stroke-dasharray="1,0" stroke-width="0.25" />
<polyline fill="none" points="122,78 122,72.2" stroke="rgb(0,0,0)" stroke-dasharray="1,0" stroke-width="0.25" />
<polyline fill="none" points="122,72.2 130.6,64.4" stroke="rgb(0,0,0)" stroke-dasharray="1,0" stroke-width="0.25" />
<polyline fill="none" points="130.6,64.4 136.8,64.4" stroke="rgb(0,0,0)" stroke-dasharray="1,0" stroke-width="0.25" />
<polyline fill="none" points="82,63.2 82,78" stroke="rgb(192,192,192)" stroke-dasharray="1,0" stroke-width="0.25" />
<polyline fill="none" points="81,77 98.2,77" stroke="rgb(192,192,192)" stroke-dasharray="1,0" stroke-width="0.25" />
<polyline fill="none" points="82,70 98,70" stroke="rgb(0,0,0)" stroke-dasharray="1,0" stroke-width="0.25" />
<polyline fill="none" points="204.6,63.4 207.20000000000002,67 210.20000000000002,67" stroke="rgb(0,0,127)" stroke-dasharray="1,0" stroke-width="0.25" />
<polyline fill="none" points="200,70 220,70" stroke="rgb(0,0,127)" stroke-dasharray="1,0" stroke-width="0.25" />

<polygon points="122,61 121.2,63.2 122.8,63.2 122,61"  fill="rgb(192,192,192)" stroke="rgb(192,192,192)" stroke-dasharray="1,0" stroke-width="0.25" />
<polygon points="139,78 136.8,77.2 136.8,78.8 139,78"  fill="rgb(192,192,192)" stroke="rgb(192,192,192)" stroke-dasharray="1,0" stroke-width="0.25" />
<polygon points="124.00000734639671,83.9999926535763 121.9999926535898,80.0000000000135 120.0000073464237,84.00000734639671"  fill="rgb(255,0,255)" stroke="rgb(255,0,255)" stroke-dasharray="1,0" stroke-width="0.25" />
<polygon points="116,80 120,78 116,76"  fill="rgb(0,0,127)" stroke="rgb(0,0,127)" stroke-dasharray="1,0" stroke-width="0.25" />
<polygon points="116,72 120,70 116,68"  fill="rgb(0,0,127)" stroke="rgb(0,0,127)" stroke-dasharray="1,0" stroke-width="0.25" />
<polygon points="128.00002203935205,84.00002203910918 129.99997796076937,80.00000000012143 132.00002203910918,83.99997796064795"  fill="rgb(0,0,127)" stroke="rgb(0,0,127)" stroke-dasharray="1,0" stroke-width="0.25" />
<polygon points="140,71 142,70 140,69"  fill="rgb(255,255,255)" stroke="rgb(0,0,127)" stroke-dasharray="1,0" stroke-width="0.25" />
<polygon points="82,61 81.2,63.2 82.8,63.2 82,61"  fill="rgb(192,192,192)" stroke="rgb(192,192,192)" stroke-dasharray="1,0" stroke-width="0.25" />
<polygon points="99,77 96.8,76.2 96.8,77.8 99,77"  fill="rgb(192,192,192)" stroke="rgb(192,192,192)" stroke-dasharray="1,0" stroke-width="0.25" />
<polygon points="100,71 102,70 100,69"  fill="rgb(255,255,255)" stroke="rgb(0,0,127)" stroke-dasharray="1,0" stroke-width="0.25" />
<polygon points="201.4,73.6 201.4,66.4 206.6,70 201.4,73.6"  fill="rgb(255,255,255)" stroke="rgb(0,0,127)" stroke-dasharray="1,0" stroke-width="0.25" />
<polygon points="196,72 200,70 196,68"  fill="rgb(0,0,127)" stroke="rgb(0,0,127)" stroke-dasharray="1,0" stroke-width="0.25" />
<polygon points="220,71 222,70 220,69"  fill="rgb(255,255,255)" stroke="rgb(0,0,127)" stroke-dasharray="1,0" stroke-width="0.25" />

<text font-family="helvetica" font-size="3.25" x="14.2625" y="85.5" fill="rgb(0,0,127)" text-anchor="middle" dominant-baseline="central" alignment-baseline="middle">
<tspan x="14.2625" >TMix</tspan>
</text>
<text font-family="helvetica" font-size="3.25" x="249.2625" y="121.5" fill="rgb(0,0,127)" text-anchor="middle" dominant-baseline="central" alignment-baseline="middle">
<tspan x="249.2625" >yFrePro</tspan>
</text>
<text font-family="helvetica" font-size="3.25" x="249.2625" y="61.5" fill="rgb(0,0,127)" text-anchor="middle" dominant-baseline="central" alignment-baseline="middle">
<tspan x="249.2625" >yFreProInv</tspan>
</text>
<text font-family="helvetica" font-size="2.6" x="131.8" y="74.2" fill="rgb(0,0,0)" text-anchor="middle" dominant-baseline="central" alignment-baseline="middle">
<tspan x="131.8" >P</tspan>
</text>
<text font-family="helvetica" font-size="2.6" x="132.4" y="74.2" fill="rgb(0,0,0)" text-anchor="middle" dominant-baseline="central" alignment-baseline="middle">
<tspan x="132.4" >PI</tspan>
</text>
<text font-family="helvetica" font-size="2.6" x="133.6" y="74.2" fill="rgb(0,0,0)" text-anchor="middle" dominant-baseline="central" alignment-baseline="middle">
<tspan x="133.6" >P D</tspan>
</text>
<text font-family="helvetica" font-size="2.6" x="133.6" y="74.2" fill="rgb(0,0,0)" text-anchor="middle" dominant-baseline="central" alignment-baseline="middle">
<tspan x="133.6" >PID</tspan>
</text>
<text font-family="helvetica" font-size="2.6" x="130" y="57" fill="rgb(0,0,255)" text-anchor="middle" dominant-baseline="central" alignment-baseline="middle">
<tspan x="130" >con</tspan>
</text>
<text font-family="helvetica" font-size="2.6" x="90" y="57" fill="rgb(0,0,255)" text-anchor="middle" dominant-baseline="central" alignment-baseline="middle">
<tspan x="90" >setPoi</tspan>
</text>
<text font-family="helvetica" font-size="2.6" x="90" y="83" fill="rgb(0,0,0)" text-anchor="middle" dominant-baseline="central" alignment-baseline="middle">
<tspan x="90" >k&#x3D;TFreSet</tspan>
</text>
<text font-family="helvetica" font-size="2.6" x="210" y="57" fill="rgb(0,0,255)" text-anchor="middle" dominant-baseline="central" alignment-baseline="middle">
<tspan x="210" >yOut</tspan>
</text>
<text font-family="helvetica" font-size="2.6" x="203.05" y="62.2" fill="rgb(0,0,0)" text-anchor="middle" dominant-baseline="central" alignment-baseline="middle">
<tspan x="203.05" >1</tspan>
</text>
<text font-family="helvetica" font-size="2.6" x="205.4" y="76.4" fill="rgb(0,0,0)" text-anchor="middle" dominant-baseline="central" alignment-baseline="middle">
<tspan x="205.4" >k&#x3D;-1</tspan>
</text>
<text font-family="helvetica" font-size="4.420000000000001" x="214" y="69.4" fill="rgb(0,0,0)" text-anchor="middle" dominant-baseline="central" alignment-baseline="middle">
<tspan x="214" >+</tspan>
</text>

</svg>