<svg version="1.1" baseProfile="full" width="300mm" height="248mm"
     viewBox="0 0 300 248" xmlns="http://www.w3.org/2000/svg">

<rect x="134" y="10" width="72" height="236"  fill="rgb(215,215,215)" stroke="rgb(0,0,0)"  stroke-dasharray="1,0" stroke-width="0.25"  />
<rect x="42" y="10" width="84" height="236"  fill="rgb(215,215,215)" stroke="rgb(0,0,0)"  stroke-dasharray="1,0" stroke-width="0.25"  />
<rect x="212" y="10" width="66" height="236"  fill="rgb(215,215,215)" stroke="rgb(0,0,0)"  stroke-dasharray="1,0" stroke-width="0.25"  />




<text font-family="helvetica" font-size="4" x="102" y="16" fill="rgb(0,0,0)" text-anchor="middle" dominant-baseline="central" alignment-baseline="middle">
<tspan x="102"  dy="0" >Damper position</tspan>
<tspan x="102"  dy="4" >supply air temperature</tspan>
<tspan x="102"  dy="4" >control loop</tspan>
</text>
<text font-family="helvetica" font-size="4" x="162" y="18" fill="rgb(0,0,0)" text-anchor="middle" dominant-baseline="central" alignment-baseline="middle">
<tspan x="162"  dy="0" >Damper position</tspan>
<tspan x="162"  dy="4" >assignments</tspan>
</text>
<text font-family="helvetica" font-size="4" x="240" y="18" fill="rgb(0,0,0)" text-anchor="middle" dominant-baseline="central" alignment-baseline="middle">
<tspan x="240"  dy="0" >Overwrite if the freeze protection</tspan>
<tspan x="240"  dy="4" >that tracks TFre at the measured</tspan>
<tspan x="240"  dy="4" >mixed air temperature limits the</tspan>
<tspan x="240"  dy="4" >damper position</tspan>
</text>

<polyline fill="none" points="158,162 130,162 130,178 81,178" stroke="rgb(255,255,255)" stroke-dasharray="1,0" stroke-width="1.25" />
<polyline fill="none" points="158,162 130,162 130,178 81,178" stroke="rgb(0,0,127)" stroke-dasharray="1,0" stroke-width="0.25" />
<polyline fill="none" points="158,150 121,150" stroke="rgb(255,255,255)" stroke-dasharray="1,0" stroke-width="1.25" />
<polyline fill="none" points="158,150 121,150" stroke="rgb(0,0,127)" stroke-dasharray="1,0" stroke-width="0.25" />
<polyline fill="none" points="158,154 136,154 136,228 20,228" stroke="rgb(255,255,255)" stroke-dasharray="1,0" stroke-width="1.25" />
<polyline fill="none" points="158,154 136,154 136,228 20,228" stroke="rgb(0,0,127)" stroke-dasharray="1,0" stroke-width="0.25" />
<polyline fill="none" points="158,166 140,166 140,194 52,194 52,178 20,178" stroke="rgb(255,255,255)" stroke-dasharray="1,0" stroke-width="1.25" />
<polyline fill="none" points="158,166 140,166 140,194 52,194 52,178 20,178" stroke="rgb(0,0,127)" stroke-dasharray="1,0" stroke-width="0.25" />
<polyline fill="none" points="158,62 132,62 132,108 121,108" stroke="rgb(255,255,255)" stroke-dasharray="1,0" stroke-width="1.25" />
<polyline fill="none" points="158,62 132,62 132,108 121,108" stroke="rgb(0,0,127)" stroke-dasharray="1,0" stroke-width="0.25" />
<polyline fill="none" points="158,50 101,50" stroke="rgb(255,255,255)" stroke-dasharray="1,0" stroke-width="1.25" />
<polyline fill="none" points="158,50 101,50" stroke="rgb(0,0,127)" stroke-dasharray="1,0" stroke-width="0.25" />
<polyline fill="none" points="158,54 112,54 112,28 20,28" stroke="rgb(255,255,255)" stroke-dasharray="1,0" stroke-width="1.25" />
<polyline fill="none" points="158,54 112,54 112,28 20,28" stroke="rgb(0,0,127)" stroke-dasharray="1,0" stroke-width="0.25" />
<polyline fill="none" points="158,66 148,66 148,78 20,78" stroke="rgb(255,255,255)" stroke-dasharray="1,0" stroke-width="1.25" />
<polyline fill="none" points="158,66 148,66 148,78 20,78" stroke="rgb(0,0,127)" stroke-dasharray="1,0" stroke-width="0.25" />
<polyline fill="none" points="218,194 52,194 52,178 20,178" stroke="rgb(255,255,255)" stroke-dasharray="1,0" stroke-width="1.25" />
<polyline fill="none" points="218,194 52,194 52,178 20,178" stroke="rgb(0,0,127)" stroke-dasharray="1,0" stroke-width="0.25" />
<polyline fill="none" points="218,182 188,182 188,158 181,158" stroke="rgb(255,255,255)" stroke-dasharray="1,0" stroke-width="1.25" />
<polyline fill="none" points="218,182 188,182 188,158 181,158" stroke="rgb(0,0,127)" stroke-dasharray="1,0" stroke-width="0.25" />
<polyline fill="none" points="218,62 190,62 190,58 181,58" stroke="rgb(255,255,255)" stroke-dasharray="1,0" stroke-width="1.25" />
<polyline fill="none" points="218,62 190,62 190,58 181,58" stroke="rgb(0,0,127)" stroke-dasharray="1,0" stroke-width="0.25" />
<polyline fill="none" points="20,78 148,78 148,74 218,74" stroke="rgb(255,255,255)" stroke-dasharray="1,0" stroke-width="1.25" />
<polyline fill="none" points="20,78 148,78 148,74 218,74" stroke="rgb(0,0,127)" stroke-dasharray="1,0" stroke-width="0.25" />
<polyline fill="none" points="241,188 250,188" stroke="rgb(255,255,255)" stroke-dasharray="1,0" stroke-width="1.25" />
<polyline fill="none" points="241,188 250,188" stroke="rgb(0,0,127)" stroke-dasharray="1,0" stroke-width="0.25" />
<polyline fill="none" points="273,188 290,188" stroke="rgb(255,255,255)" stroke-dasharray="1,0" stroke-width="1.25" />
<polyline fill="none" points="273,188 290,188" stroke="rgb(0,0,127)" stroke-dasharray="1,0" stroke-width="0.25" />
<polyline fill="none" points="20,128 138,128 138,58 158,58" stroke="rgb(255,255,255)" stroke-dasharray="1,0" stroke-width="1.25" />
<polyline fill="none" points="20,128 138,128 138,58 158,58" stroke="rgb(0,0,127)" stroke-dasharray="1,0" stroke-width="0.25" />
<polyline fill="none" points="20,128 138,128 138,158 158,158" stroke="rgb(255,255,255)" stroke-dasharray="1,0" stroke-width="1.25" />
<polyline fill="none" points="20,128 138,128 138,158 158,158" stroke="rgb(0,0,127)" stroke-dasharray="1,0" stroke-width="0.25" />
<polyline fill="none" points="241,68 248,68" stroke="rgb(255,255,255)" stroke-dasharray="1,0" stroke-width="1.25" />
<polyline fill="none" points="241,68 248,68" stroke="rgb(0,0,127)" stroke-dasharray="1,0" stroke-width="0.25" />
<polyline fill="none" points="271,68 290,68" stroke="rgb(255,255,255)" stroke-dasharray="1,0" stroke-width="1.25" />
<polyline fill="none" points="271,68 290,68" stroke="rgb(0,0,127)" stroke-dasharray="1,0" stroke-width="0.25" />

<ellipse cx="140" cy="194" rx="1" ry="1"  fill="rgb(0,0,127)"  />
<ellipse cx="148" cy="74" rx="1" ry="1"  fill="rgb(0,0,127)"  />
<ellipse cx="138" cy="128" rx="1" ry="1"  fill="rgb(0,0,127)"  />

<polygon points="20,138 40,128 20,118 20,138"  fill="rgb(0,0,127)" stroke="rgb(0,0,127)" stroke-dasharray="1,0" stroke-width="0.25" />
<polygon points="20,238 40,228 20,218 20,238"  fill="rgb(0,0,127)" stroke="rgb(0,0,127)" stroke-dasharray="1,0" stroke-width="0.25" />
<polygon points="20,188 40,178 20,168 20,188"  fill="rgb(0,0,127)" stroke="rgb(0,0,127)" stroke-dasharray="1,0" stroke-width="0.25" />
<polygon points="20,88 40,78 20,68 20,88"  fill="rgb(0,0,127)" stroke="rgb(0,0,127)" stroke-dasharray="1,0" stroke-width="0.25" />
<polygon points="20,38 40,28 20,18 20,38"  fill="rgb(0,0,127)" stroke="rgb(0,0,127)" stroke-dasharray="1,0" stroke-width="0.25" />
<polygon points="280,193 290,188 280,183"  fill="rgb(255,255,255)" stroke="rgb(0,0,127)" stroke-dasharray="1,0" stroke-width="0.25" />
<polygon points="280,73 290,68 280,63"  fill="rgb(255,255,255)" stroke="rgb(0,0,127)" stroke-dasharray="1,0" stroke-width="0.25" />

<rect x="100" y="140" width="20" height="20"  fill="rgb(255,255,255)" stroke="rgb(0,0,127)"  stroke-dasharray="1,0" stroke-width="0.041666666666666664"  />
<rect x="60" y="168" width="20" height="20"  fill="rgb(255,255,255)" stroke="rgb(0,0,127)"  stroke-dasharray="1,0" stroke-width="0.041666666666666664"  />
<rect x="80" y="40" width="20" height="20"  fill="rgb(255,255,255)" stroke="rgb(0,0,127)"  stroke-dasharray="1,0" stroke-width="0.041666666666666664"  />
<rect x="100" y="98" width="20" height="20"  fill="rgb(255,255,255)" stroke="rgb(0,0,127)"  stroke-dasharray="1,0" stroke-width="0.041666666666666664"  />
<rect x="160" y="148" width="20" height="20"  fill="rgb(255,255,255)" stroke="rgb(0,0,127)"  stroke-dasharray="1,0" stroke-width="0.041666666666666664"  />
<rect x="160" y="48" width="20" height="20"  fill="rgb(255,255,255)" stroke="rgb(0,0,127)"  stroke-dasharray="1,0" stroke-width="0.041666666666666664"  />
<rect x="220" y="178" width="20" height="20"  fill="rgb(255,255,255)" stroke="rgb(0,0,127)"  stroke-dasharray="1,0" stroke-width="0.041666666666666664"  />
<rect x="220" y="58" width="20" height="20"  fill="rgb(255,255,255)" stroke="rgb(0,0,127)"  stroke-dasharray="1,0" stroke-width="0.041666666666666664"  />
<rect x="252" y="178" width="20" height="20"  fill="rgb(223,211,169)" stroke="rgb(0,0,127)"  stroke-dasharray="1,0" stroke-width="0.041666666666666664"  />
<rect x="251.908" y="177.908" width="0.092" height="20.092"  fill="rgb(172,168,153)" stroke="none"  />
<rect x="251.908" y="198" width="20.092" height="0.092"  fill="rgb(172,168,153)" stroke="none"  />
<rect x="272" y="178" width="0.092" height="20.092"  fill="rgb(172,168,153)" stroke="none"  />
<rect x="252" y="177.908" width="20.092" height="0.092"  fill="rgb(172,168,153)" stroke="none"  />
<rect x="252" y="178" width="0.13799999999999998" height="20"  fill="rgb(255,255,255)" stroke="none"  />
<rect x="252" y="178" width="20" height="0.138"  fill="rgb(255,255,255)" stroke="none"  />
<rect x="271.908" y="178" width="0.092" height="20"  fill="rgb(113,111,100)" stroke="none"  />
<rect x="252" y="197.90800000000002" width="20" height="0.092"  fill="rgb(113,111,100)" stroke="none"  />
<rect x="271.81600000000003" y="178.092" width="0.092" height="19.816"  fill="rgb(172,168,153)" stroke="none"  />
<rect x="252.092" y="197.816" width="19.816" height="0.092"  fill="rgb(172,168,153)" stroke="none"  />
<rect x="250" y="58" width="20" height="20"  fill="rgb(223,211,169)" stroke="rgb(0,0,127)"  stroke-dasharray="1,0" stroke-width="0.041666666666666664"  />
<rect x="249.908" y="57.908" width="0.092" height="20.092"  fill="rgb(172,168,153)" stroke="none"  />
<rect x="249.908" y="78" width="20.092" height="0.092"  fill="rgb(172,168,153)" stroke="none"  />
<rect x="270" y="58" width="0.092" height="20.092"  fill="rgb(172,168,153)" stroke="none"  />
<rect x="250" y="57.908" width="20.092" height="0.092"  fill="rgb(172,168,153)" stroke="none"  />
<rect x="250" y="58" width="0.13799999999999998" height="20"  fill="rgb(255,255,255)" stroke="none"  />
<rect x="250" y="58" width="20" height="0.138"  fill="rgb(255,255,255)" stroke="none"  />
<rect x="269.908" y="58" width="0.092" height="20"  fill="rgb(113,111,100)" stroke="none"  />
<rect x="250" y="77.908" width="20" height="0.092"  fill="rgb(113,111,100)" stroke="none"  />
<rect x="269.81600000000003" y="58.092" width="0.092" height="19.816"  fill="rgb(172,168,153)" stroke="none"  />
<rect x="250.092" y="77.816" width="19.816" height="0.092"  fill="rgb(172,168,153)" stroke="none"  />

<ellipse cx="175" cy="162.4" rx="0.6" ry="0.6"  fill="rgb(0,0,0)"  />
<ellipse cx="170.8" cy="158.8" rx="0.6" ry="0.6"  fill="rgb(0,0,127)"  />
<ellipse cx="165.4" cy="154" rx="0.6" ry="0.6"  fill="rgb(0,0,0)"  />
<ellipse cx="175" cy="62.400000000000006" rx="0.6" ry="0.6"  fill="rgb(0,0,0)"  />
<ellipse cx="170.8" cy="58.8" rx="0.6" ry="0.6"  fill="rgb(0,0,127)"  />
<ellipse cx="165.4" cy="54" rx="0.6" ry="0.6"  fill="rgb(0,0,0)"  />

<polyline fill="none" points="102,143.2 102,158" stroke="rgb(192,192,192)" stroke-dasharray="1,0" stroke-width="0.25" />
<polyline fill="none" points="101,157 118.2,157" stroke="rgb(192,192,192)" stroke-dasharray="1,0" stroke-width="0.25" />
<polyline fill="none" points="102,150 118,150" stroke="rgb(0,0,0)" stroke-dasharray="1,0" stroke-width="0.25" />
<polyline fill="none" points="62,171.2 62,186" stroke="rgb(192,192,192)" stroke-dasharray="1,0" stroke-width="0.25" />
<polyline fill="none" points="61,185 78.2,185" stroke="rgb(192,192,192)" stroke-dasharray="1,0" stroke-width="0.25" />
<polyline fill="none" points="62,178 78,178" stroke="rgb(0,0,0)" stroke-dasharray="1,0" stroke-width="0.25" />
<polyline fill="none" points="82,43.2 82,58" stroke="rgb(192,192,192)" stroke-dasharray="1,0" stroke-width="0.25" />
<polyline fill="none" points="81,57 98.2,57" stroke="rgb(192,192,192)" stroke-dasharray="1,0" stroke-width="0.25" />
<polyline fill="none" points="82,50 98,50" stroke="rgb(0,0,0)" stroke-dasharray="1,0" stroke-width="0.25" />
<polyline fill="none" points="102,101.2 102,116" stroke="rgb(192,192,192)" stroke-dasharray="1,0" stroke-width="0.25" />
<polyline fill="none" points="101,115 118.2,115" stroke="rgb(192,192,192)" stroke-dasharray="1,0" stroke-width="0.25" />
<polyline fill="none" points="102,108 118,108" stroke="rgb(0,0,0)" stroke-dasharray="1,0" stroke-width="0.25" />
<polyline fill="none" points="165.4,154 175,162.4" stroke="rgb(0,0,0)" stroke-dasharray="1,0" stroke-width="0.5" />
<polyline fill="none" points="162,166 162,150.8" stroke="rgb(192,192,192)" stroke-dasharray="1,0" stroke-width="0.25" />
<polyline fill="none" points="161.2,165.8 177.6,165.8" stroke="rgb(192,192,192)" stroke-dasharray="1,0" stroke-width="0.25" />
<polyline fill="none" points="160,150 163.6,150" stroke="rgb(28,108,200)" stroke-dasharray="1,2" stroke-width="0.25" />
<polyline fill="none" points="163.6,150 163.8,165.8" stroke="rgb(28,108,200)" stroke-dasharray="1,2" stroke-width="0.25" />
<polyline fill="none" points="160,154 161.2,154" stroke="rgb(28,108,200)" stroke-dasharray="1,2" stroke-width="0.25" />
<polyline fill="none" points="161.2,154 165.2,154" stroke="rgb(28,108,200)" stroke-dasharray="1,2" stroke-width="0.25" />
<polyline fill="none" points="160,162 174.8,161.6" stroke="rgb(28,108,200)" stroke-dasharray="1,2" stroke-width="0.25" />
<polyline fill="none" points="174.8,161.6 175,165.8" stroke="rgb(28,108,200)" stroke-dasharray="1,2" stroke-width="0.25" />
<polyline fill="none" points="160,166 166.2,163.6" stroke="rgb(28,108,200)" stroke-dasharray="1,2" stroke-width="0.25" />
<polyline fill="none" points="166.2,163.6 174.8,162.4" stroke="rgb(28,108,200)" stroke-dasharray="1,2" stroke-width="0.25" />
<polyline fill="none" points="160,158 163.8,158" stroke="rgb(28,108,200)" stroke-dasharray="1,2" stroke-width="0.25" />
<polyline fill="none" points="163.8,158 170.8,158.8" stroke="rgb(28,108,200)" stroke-dasharray="1,2" stroke-width="0.25" />
<polyline fill="none" points="171,158.8 175.2,158.8" stroke="rgb(28,108,200)" stroke-dasharray="1,2" stroke-width="0.25" />
<polyline fill="none" points="175.2,158.8 180,158" stroke="rgb(28,108,200)" stroke-dasharray="1,2" stroke-width="0.25" />
<polyline fill="none" points="175,162.4 178,165" stroke="rgb(0,0,0)" stroke-dasharray="1,0" stroke-width="0.5" />
<polyline fill="none" points="175.2,162.4 178.6,162.4" stroke="rgb(238,46,47)" stroke-dasharray="1,0" stroke-width="0.5" />
<polyline fill="none" points="162,151.2 165.4,154" stroke="rgb(0,0,0)" stroke-dasharray="1,0" stroke-width="0.5" />
<polyline fill="none" points="162,154 165.4,154" stroke="rgb(238,46,47)" stroke-dasharray="1,0" stroke-width="0.5" />
<polyline fill="none" points="165.4,54 175,62.400000000000006" stroke="rgb(0,0,0)" stroke-dasharray="1,0" stroke-width="0.5" />
<polyline fill="none" points="162,66 162,50.8" stroke="rgb(192,192,192)" stroke-dasharray="1,0" stroke-width="0.25" />
<polyline fill="none" points="161.2,65.8 177.6,65.8" stroke="rgb(192,192,192)" stroke-dasharray="1,0" stroke-width="0.25" />
<polyline fill="none" points="160,50 163.6,50" stroke="rgb(28,108,200)" stroke-dasharray="1,2" stroke-width="0.25" />
<polyline fill="none" points="163.6,50 163.8,65.8" stroke="rgb(28,108,200)" stroke-dasharray="1,2" stroke-width="0.25" />
<polyline fill="none" points="160,54 161.2,54" stroke="rgb(28,108,200)" stroke-dasharray="1,2" stroke-width="0.25" />
<polyline fill="none" points="161.2,54 165.2,54" stroke="rgb(28,108,200)" stroke-dasharray="1,2" stroke-width="0.25" />
<polyline fill="none" points="160,62 174.8,61.6" stroke="rgb(28,108,200)" stroke-dasharray="1,2" stroke-width="0.25" />
<polyline fill="none" points="174.8,61.6 175,65.8" stroke="rgb(28,108,200)" stroke-dasharray="1,2" stroke-width="0.25" />
<polyline fill="none" points="160,66 166.2,63.599999999999994" stroke="rgb(28,108,200)" stroke-dasharray="1,2" stroke-width="0.25" />
<polyline fill="none" points="166.2,63.599999999999994 174.8,62.400000000000006" stroke="rgb(28,108,200)" stroke-dasharray="1,2" stroke-width="0.25" />
<polyline fill="none" points="160,58 163.8,58" stroke="rgb(28,108,200)" stroke-dasharray="1,2" stroke-width="0.25" />
<polyline fill="none" points="163.8,58 170.8,58.8" stroke="rgb(28,108,200)" stroke-dasharray="1,2" stroke-width="0.25" />
<polyline fill="none" points="171,58.8 175.2,58.8" stroke="rgb(28,108,200)" stroke-dasharray="1,2" stroke-width="0.25" />
<polyline fill="none" points="175.2,58.8 180,58" stroke="rgb(28,108,200)" stroke-dasharray="1,2" stroke-width="0.25" />
<polyline fill="none" points="175,62.400000000000006 178,65" stroke="rgb(0,0,0)" stroke-dasharray="1,0" stroke-width="0.5" />
<polyline fill="none" points="175.2,62.400000000000006 178.6,62.400000000000006" stroke="rgb(238,46,47)" stroke-dasharray="1,0" stroke-width="0.5" />
<polyline fill="none" points="162,51.2 165.4,54" stroke="rgb(0,0,0)" stroke-dasharray="1,0" stroke-width="0.5" />
<polyline fill="none" points="162,54 165.4,54" stroke="rgb(238,46,47)" stroke-dasharray="1,0" stroke-width="0.5" />
<polyline fill="none" points="254.1,192.1 256.1,191.3 258,187.9 260,187.1 262,181.7 264.1,186 266.1,187 268,186" stroke="rgb(0,0,127)" stroke-dasharray="1,0" stroke-width="0.25" />
<polyline fill="none" points="268,186 270.1,187" stroke="rgb(0,0,127)" stroke-dasharray="1,0" stroke-width="0.25" />
<polyline fill="none" points="252.1,72.1 254.1,71.3 256,67.9 258,67.1 260,61.7 262.1,66 264.1,67 266,66" stroke="rgb(0,0,127)" stroke-dasharray="1,0" stroke-width="0.25" />
<polyline fill="none" points="266,66 268.1,67" stroke="rgb(0,0,127)" stroke-dasharray="1,0" stroke-width="0.25" />

<polygon points="102,141 101.2,143.2 102.8,143.2 102,141"  fill="rgb(192,192,192)" stroke="rgb(192,192,192)" stroke-dasharray="1,0" stroke-width="0.25" />
<polygon points="119,157 116.8,156.2 116.8,157.8 119,157"  fill="rgb(192,192,192)" stroke="rgb(192,192,192)" stroke-dasharray="1,0" stroke-width="0.25" />
<polygon points="120,151 122,150 120,149"  fill="rgb(255,255,255)" stroke="rgb(0,0,127)" stroke-dasharray="1,0" stroke-width="0.25" />
<polygon points="62,169 61.2,171.2 62.8,171.2 62,169"  fill="rgb(192,192,192)" stroke="rgb(192,192,192)" stroke-dasharray="1,0" stroke-width="0.25" />
<polygon points="79,185 76.8,184.2 76.8,185.8 79,185"  fill="rgb(192,192,192)" stroke="rgb(192,192,192)" stroke-dasharray="1,0" stroke-width="0.25" />
<polygon points="80,179 82,178 80,177"  fill="rgb(255,255,255)" stroke="rgb(0,0,127)" stroke-dasharray="1,0" stroke-width="0.25" />
<polygon points="82,41 81.2,43.2 82.8,43.2 82,41"  fill="rgb(192,192,192)" stroke="rgb(192,192,192)" stroke-dasharray="1,0" stroke-width="0.25" />
<polygon points="99,57 96.8,56.2 96.8,57.8 99,57"  fill="rgb(192,192,192)" stroke="rgb(192,192,192)" stroke-dasharray="1,0" stroke-width="0.25" />
<polygon points="100,51 102,50 100,49"  fill="rgb(255,255,255)" stroke="rgb(0,0,127)" stroke-dasharray="1,0" stroke-width="0.25" />
<polygon points="102,99 101.2,101.2 102.8,101.2 102,99"  fill="rgb(192,192,192)" stroke="rgb(192,192,192)" stroke-dasharray="1,0" stroke-width="0.25" />
<polygon points="119,115 116.8,114.2 116.8,115.8 119,115"  fill="rgb(192,192,192)" stroke="rgb(192,192,192)" stroke-dasharray="1,0" stroke-width="0.25" />
<polygon points="120,109 122,108 120,107"  fill="rgb(255,255,255)" stroke="rgb(0,0,127)" stroke-dasharray="1,0" stroke-width="0.25" />
<polygon points="179.2,165.8 177,165 177,166.6 179.2,165.8"  fill="rgb(192,192,192)" stroke="rgb(192,192,192)" stroke-dasharray="1,0" stroke-width="0.25" />
<polygon points="162,148.8 161.2,151 162.8,151 162,148.8"  fill="rgb(192,192,192)" stroke="rgb(192,192,192)" stroke-dasharray="1,0" stroke-width="0.25" />
<polygon points="156,152 160,150 156,148"  fill="rgb(0,0,127)" stroke="rgb(0,0,127)" stroke-dasharray="1,0" stroke-width="0.25" />
<polygon points="156,156 160,154 156,152"  fill="rgb(0,0,127)" stroke="rgb(0,0,127)" stroke-dasharray="1,0" stroke-width="0.25" />
<polygon points="156,164 160,162 156,160"  fill="rgb(0,0,127)" stroke="rgb(0,0,127)" stroke-dasharray="1,0" stroke-width="0.25" />
<polygon points="156,168 160,166 156,164"  fill="rgb(0,0,127)" stroke="rgb(0,0,127)" stroke-dasharray="1,0" stroke-width="0.25" />
<polygon points="156,160 160,158 156,156"  fill="rgb(0,0,127)" stroke="rgb(0,0,127)" stroke-dasharray="1,0" stroke-width="0.25" />
<polygon points="180,159 182,158 180,157"  fill="rgb(255,255,255)" stroke="rgb(0,0,127)" stroke-dasharray="1,0" stroke-width="0.25" />
<polygon points="179.2,65.8 177,65 177,66.6 179.2,65.8"  fill="rgb(192,192,192)" stroke="rgb(192,192,192)" stroke-dasharray="1,0" stroke-width="0.25" />
<polygon points="162,48.8 161.2,51 162.8,51 162,48.8"  fill="rgb(192,192,192)" stroke="rgb(192,192,192)" stroke-dasharray="1,0" stroke-width="0.25" />
<polygon points="156,52 160,50 156,48"  fill="rgb(0,0,127)" stroke="rgb(0,0,127)" stroke-dasharray="1,0" stroke-width="0.25" />
<polygon points="156,56 160,54 156,52"  fill="rgb(0,0,127)" stroke="rgb(0,0,127)" stroke-dasharray="1,0" stroke-width="0.25" />
<polygon points="156,64 160,62 156,60"  fill="rgb(0,0,127)" stroke="rgb(0,0,127)" stroke-dasharray="1,0" stroke-width="0.25" />
<polygon points="156,68 160,66 156,64"  fill="rgb(0,0,127)" stroke="rgb(0,0,127)" stroke-dasharray="1,0" stroke-width="0.25" />
<polygon points="156,60 160,58 156,56"  fill="rgb(0,0,127)" stroke="rgb(0,0,127)" stroke-dasharray="1,0" stroke-width="0.25" />
<polygon points="180,59 182,58 180,57"  fill="rgb(255,255,255)" stroke="rgb(0,0,127)" stroke-dasharray="1,0" stroke-width="0.25" />
<polygon points="216,184 220,182 216,180"  fill="rgb(0,0,127)" stroke="rgb(0,0,127)" stroke-dasharray="1,0" stroke-width="0.25" />
<polygon points="216,196 220,194 216,192"  fill="rgb(0,0,127)" stroke="rgb(0,0,127)" stroke-dasharray="1,0" stroke-width="0.25" />
<polygon points="240,189 242,188 240,187"  fill="rgb(255,255,255)" stroke="rgb(0,0,127)" stroke-dasharray="1,0" stroke-width="0.25" />
<polygon points="216,64 220,62 216,60"  fill="rgb(0,0,127)" stroke="rgb(0,0,127)" stroke-dasharray="1,0" stroke-width="0.25" />
<polygon points="216,76 220,74 216,72"  fill="rgb(0,0,127)" stroke="rgb(0,0,127)" stroke-dasharray="1,0" stroke-width="0.25" />
<polygon points="240,69 242,68 240,67"  fill="rgb(255,255,255)" stroke="rgb(0,0,127)" stroke-dasharray="1,0" stroke-width="0.25" />
<polygon points="248,190 252,188 248,186"  fill="rgb(0,0,127)" stroke="rgb(0,0,127)" stroke-dasharray="1,0" stroke-width="0.25" />
<polygon points="272,189 274,188 272,187"  fill="rgb(255,255,255)" stroke="rgb(0,0,127)" stroke-dasharray="1,0" stroke-width="0.25" />
<polygon points="246,70 250,68 246,66"  fill="rgb(0,0,127)" stroke="rgb(0,0,127)" stroke-dasharray="1,0" stroke-width="0.25" />
<polygon points="270,69 272,68 270,67"  fill="rgb(255,255,255)" stroke="rgb(0,0,127)" stroke-dasharray="1,0" stroke-width="0.25" />

<text font-family="helvetica" font-size="3.25" x="14.2625" y="113.5" fill="rgb(0,0,127)" text-anchor="middle" dominant-baseline="central" alignment-baseline="middle">
<tspan x="14.2625" >uTSup</tspan>
</text>
<text font-family="helvetica" font-size="3.25" x="14.2625" y="213.5" fill="rgb(0,0,127)" text-anchor="middle" dominant-baseline="central" alignment-baseline="middle">
<tspan x="14.2625" >uOutDamPosMin</tspan>
</text>
<text font-family="helvetica" font-size="3.25" x="14.2625" y="163.5" fill="rgb(0,0,127)" text-anchor="middle" dominant-baseline="central" alignment-baseline="middle">
<tspan x="14.2625" >uOutDamPosMax</tspan>
</text>
<text font-family="helvetica" font-size="3.25" x="14.2625" y="63.5" fill="rgb(0,0,127)" text-anchor="middle" dominant-baseline="central" alignment-baseline="middle">
<tspan x="14.2625" >uRetDamPosMin</tspan>
</text>
<text font-family="helvetica" font-size="3.25" x="14.2625" y="13.5" fill="rgb(0,0,127)" text-anchor="middle" dominant-baseline="central" alignment-baseline="middle">
<tspan x="14.2625" >uRetDamPosMax</tspan>
</text>
<text font-family="helvetica" font-size="3.25" x="289.2625" y="179.5" fill="rgb(0,0,127)" text-anchor="middle" dominant-baseline="central" alignment-baseline="middle">
<tspan x="289.2625" >yOutDamPos</tspan>
</text>
<text font-family="helvetica" font-size="3.25" x="289.2625" y="59.5" fill="rgb(0,0,127)" text-anchor="middle" dominant-baseline="central" alignment-baseline="middle">
<tspan x="289.2625" >yRetDamPos</tspan>
</text>
<text font-family="helvetica" font-size="2.6" x="110" y="137" fill="rgb(0,0,255)" text-anchor="middle" dominant-baseline="central" alignment-baseline="middle">
<tspan x="110" >outDamMinLimSig</tspan>
</text>
<text font-family="helvetica" font-size="2.6" x="110" y="163" fill="rgb(0,0,0)" text-anchor="middle" dominant-baseline="central" alignment-baseline="middle">
<tspan x="110" >k&#x3D;uMin</tspan>
</text>
<text font-family="helvetica" font-size="2.6" x="70" y="165" fill="rgb(0,0,255)" text-anchor="middle" dominant-baseline="central" alignment-baseline="middle">
<tspan x="70" >outDamMaxLimSig</tspan>
</text>
<text font-family="helvetica" font-size="2.6" x="70" y="191" fill="rgb(0,0,0)" text-anchor="middle" dominant-baseline="central" alignment-baseline="middle">
<tspan x="70" >k&#x3D;uOutDamMax</tspan>
</text>
<text font-family="helvetica" font-size="2.6" x="90" y="37" fill="rgb(0,0,255)" text-anchor="middle" dominant-baseline="central" alignment-baseline="middle">
<tspan x="90" >retDamConMinLimSig</tspan>
</text>
<text font-family="helvetica" font-size="2.6" x="90" y="63" fill="rgb(0,0,0)" text-anchor="middle" dominant-baseline="central" alignment-baseline="middle">
<tspan x="90" >k&#x3D;uRetDamMin</tspan>
</text>
<text font-family="helvetica" font-size="2.6" x="110" y="95" fill="rgb(0,0,255)" text-anchor="middle" dominant-baseline="central" alignment-baseline="middle">
<tspan x="110" >retDamMaxLimSig</tspan>
</text>
<text font-family="helvetica" font-size="2.6" x="110" y="121" fill="rgb(0,0,0)" text-anchor="middle" dominant-baseline="central" alignment-baseline="middle">
<tspan x="110" >k&#x3D;uMax</tspan>
</text>
<text font-family="helvetica" font-size="2.6" x="170" y="145" fill="rgb(0,0,255)" text-anchor="middle" dominant-baseline="central" alignment-baseline="middle">
<tspan x="170" >outDamPos</tspan>
</text>
<text font-family="helvetica" font-size="2.6" x="170" y="45" fill="rgb(0,0,255)" text-anchor="middle" dominant-baseline="central" alignment-baseline="middle">
<tspan x="170" >retDamPos</tspan>
</text>
<text font-family="helvetica" font-size="2.6" x="230" y="175" fill="rgb(0,0,255)" text-anchor="middle" dominant-baseline="central" alignment-baseline="middle">
<tspan x="230" >min</tspan>
</text>
<text font-family="helvetica" font-size="4.680000000000001" x="230" y="188" fill="rgb(160,160,164)" text-anchor="middle" dominant-baseline="central" alignment-baseline="middle">
<tspan x="230" >min()</tspan>
</text>
<text font-family="helvetica" font-size="2.6" x="230" y="55" fill="rgb(0,0,255)" text-anchor="middle" dominant-baseline="central" alignment-baseline="middle">
<tspan x="230" >max</tspan>
</text>
<text font-family="helvetica" font-size="4.680000000000001" x="230" y="68" fill="rgb(160,160,164)" text-anchor="middle" dominant-baseline="central" alignment-baseline="middle">
<tspan x="230" >max()</tspan>
</text>
<text font-family="helvetica" font-size="2.6" x="262" y="175" fill="rgb(0,0,255)" text-anchor="middle" dominant-baseline="central" alignment-baseline="middle">
<tspan x="262" >firOrdHolOutDam</tspan>
</text>
<text font-family="helvetica" font-size="2.6" x="260" y="55" fill="rgb(0,0,255)" text-anchor="middle" dominant-baseline="central" alignment-baseline="middle">
<tspan x="260" >firOrdHolRetDam</tspan>
</text>

</svg>