<svg version="1.1" baseProfile="full" width="260mm" height="200mm"
     viewBox="0 0 260 200" xmlns="http://www.w3.org/2000/svg">






<polyline fill="none" points="20,60 20,60 120,60 120,94 158,94" stroke="rgb(255,255,255)" stroke-dasharray="1,0" stroke-width="1.25" />
<polyline fill="none" points="20,60 20,60 120,60 120,94 158,94" stroke="rgb(0,0,127)" stroke-dasharray="1,0" stroke-width="0.25" />
<polyline fill="none" points="20,140 48,140 78,140" stroke="rgb(255,255,255)" stroke-dasharray="1,0" stroke-width="1.25" />
<polyline fill="none" points="20,140 48,140 78,140" stroke="rgb(0,0,127)" stroke-dasharray="1,0" stroke-width="0.25" />
<polyline fill="none" points="101,140 120,140 120,106 158,106" stroke="rgb(255,255,255)" stroke-dasharray="1,0" stroke-width="1.25" />
<polyline fill="none" points="101,140 120,140 120,106 158,106" stroke="rgb(0,0,127)" stroke-dasharray="1,0" stroke-width="0.25" />
<polyline fill="none" points="181,100 250,100" stroke="rgb(255,255,255)" stroke-dasharray="1,0" stroke-width="1.25" />
<polyline fill="none" points="181,100 250,100" stroke="rgb(0,0,127)" stroke-dasharray="1,0" stroke-width="0.25" />


<polygon points="20,70 40,60 20,50 20,70"  fill="rgb(0,0,127)" stroke="rgb(0,0,127)" stroke-dasharray="1,0" stroke-width="0.25" />
<polygon points="20,150 40,140 20,130 20,150"  fill="rgb(0,0,127)" stroke="rgb(0,0,127)" stroke-dasharray="1,0" stroke-width="0.25" />
<polygon points="240,105 250,100 240,95"  fill="rgb(255,255,255)" stroke="rgb(0,0,127)" stroke-dasharray="1,0" stroke-width="0.25" />

<rect x="160" y="90" width="20" height="20"  fill="rgb(255,255,255)" stroke="rgb(0,0,127)"  stroke-dasharray="1,0" stroke-width="0.041666666666666664"  />



<polygon points="80,150 80,130 100,140 80,150"  fill="rgb(255,255,255)" stroke="rgb(0,0,127)" stroke-dasharray="1,0" stroke-width="0.25" />
<polygon points="76,142 80,140 76,138"  fill="rgb(0,0,127)" stroke="rgb(0,0,127)" stroke-dasharray="1,0" stroke-width="0.25" />
<polygon points="100,141 102,140 100,139"  fill="rgb(255,255,255)" stroke="rgb(0,0,127)" stroke-dasharray="1,0" stroke-width="0.25" />
<polygon points="156,96 160,94 156,92"  fill="rgb(0,0,127)" stroke="rgb(0,0,127)" stroke-dasharray="1,0" stroke-width="0.25" />
<polygon points="156,108 160,106 156,104"  fill="rgb(0,0,127)" stroke="rgb(0,0,127)" stroke-dasharray="1,0" stroke-width="0.25" />
<polygon points="180,101 182,100 180,99"  fill="rgb(255,255,255)" stroke="rgb(0,0,127)" stroke-dasharray="1,0" stroke-width="0.25" />

<text font-family="helvetica" font-size="3.25" x="14.2625" y="45.5" fill="rgb(0,0,127)" text-anchor="middle" dominant-baseline="central" alignment-baseline="middle">
<tspan x="14.2625" >yMax</tspan>
</text>
<text font-family="helvetica" font-size="3.25" x="14.2625" y="125.5" fill="rgb(0,0,127)" text-anchor="middle" dominant-baseline="central" alignment-baseline="middle">
<tspan x="14.2625" >e</tspan>
</text>
<text font-family="helvetica" font-size="3.25" x="249.2625" y="91.5" fill="rgb(0,0,127)" text-anchor="middle" dominant-baseline="central" alignment-baseline="middle">
<tspan x="249.2625" >y</tspan>
</text>
<text font-family="helvetica" font-size="2.6" x="90" y="152" fill="rgb(0,0,0)" text-anchor="middle" dominant-baseline="central" alignment-baseline="middle">
<tspan x="90" >k&#x3D;k</tspan>
</text>
<text font-family="helvetica" font-size="2.6" x="90" y="127.6" fill="rgb(0,0,255)" text-anchor="middle" dominant-baseline="central" alignment-baseline="middle">
<tspan x="90" >gain</tspan>
</text>
<text font-family="helvetica" font-size="2.6" x="170" y="87" fill="rgb(0,0,255)" text-anchor="middle" dominant-baseline="central" alignment-baseline="middle">
<tspan x="170" >minValue</tspan>
</text>
<text font-family="helvetica" font-size="4.680000000000001" x="170" y="100" fill="rgb(160,160,164)" text-anchor="middle" dominant-baseline="central" alignment-baseline="middle">
<tspan x="170" >min()</tspan>
</text>

</svg>